<svg xmlns="http://www.w3.org/2000/svg" viewBox="0 0 38.3 46"><path d="M37.4 10.8L30.6 7c-.6-.3-1.3-.3-1.9 0l-5.9 3.4-7.5-3V3.8c0-.7-.4-1.4-1.1-1.7L10.4.2c-.5-.3-1.2-.3-1.7 0L4.9 2.1c-.6.3-1.1 1-1.1 1.7v4.7c0 .7.4 1.4 1 1.7l3.8 2c.3.1.6.2.9.2s.6-.1.9-.2l3-1.5 7.6 3.1v5.4c0 .7.4 1.3 1 1.7l4.2 2.4-7 5.3-7.7-4.3c-.6-.3-1.3-.3-1.9 0L1 29c-.6.3-1 1-1 1.7v8.6c0 .7.4 1.3 1 1.7l8.6 4.8c.3.2.6.2.9.2s.6-.1.9-.2L20 41c.6-.3 1-1 1-1.7v-7.4l9.7-7.2 6.6-3.8c.6-.3 1-1 1-1.7v-6.7c0-.7-.3-1.4-.9-1.7zm-23 27.5c-1.6 0-2.9-1.3-2.9-2.9 0-1.6 1.3-2.9 2.9-2.9 1.6 0 2.9 1.3 2.9 2.9-.1 1.6-1.3 2.9-2.9 2.9zm17.2-19.1c-1.6 0-2.9-1.3-2.9-2.9 0-1.6 1.3-2.9 2.9-2.9 1.6 0 2.9 1.3 2.9 2.9 0 1.6-1.3 2.9-2.9 2.9z" fill="#fff"/></svg>