<svg xmlns="http://www.w3.org/2000/svg" viewBox="0 0 35.6 46"><style>.st0{fill:#fff}</style><path class="st0" d="M7.9 42.1h-4V3.9h29.7c1.1 0 2-.9 2-2s-.9-2-2-2H2C.9 0 0 .9 0 2v42c0 1.1.9 2 2 2h5.9c1.1 0 2-.9 2-2-.1-1.1-.9-1.9-2-1.9zm25.8-15.2c-1.1 0-2 .9-2 2V42h-7.3c-1.1 0-2 .9-2 2s.9 2 2 2h9.3c.5 0 1-.2 1.4-.6.4-.4.6-.9.6-1.4V28.9c-.1-1.1-.9-2-2-2z"/><path class="st0" d="M32.1 10.2c-.7-.4-1.5-.6-2.3-.6-1.7 0-3.2.9-4 2.3L13 34c-.2.3-.3.7-.3 1.1l.2 5.1c0 .7.4 1.3 1 1.6.3.2.6.3 1 .3.3 0 .6-.1.9-.2l4.5-2.4c.3-.2.6-.4.8-.8l12.8-22.1c1.2-2.3.4-5.1-1.8-6.4zm-1.7 4.4L17.9 36.2l-1.2.6v-1.3l12.5-21.6c.2-.3.6-.5 1-.3.2.2.4.6.2 1zm-9.9.5c0-1.1-.9-2-2-2h-10c-1.1 0-2 .9-2 2s.9 2 2 2h10c1.1-.1 2-.9 2-2zm-12 5.7c-1.1 0-2 .9-2 2s.9 2 2 2h5c1.1 0 2-.9 2-2s-.9-2-2-2h-5z"/></svg>