<svg xmlns="http://www.w3.org/2000/svg" viewBox="0 0 48 48"><path d="M39.1 0H8.9C4 0 0 4 0 8.9V39c0 5 4 9 8.9 9H39c4.9 0 8.9-4 8.9-8.9V8.9C48 4 44 0 39.1 0zm6.1 39.1c0 3.4-2.7 6.1-6.1 6.1H8.9c-3.4 0-6.1-2.7-6.1-6.1V8.9c0-3.4 2.7-6.1 6.1-6.1H39c3.4 0 6.1 2.7 6.1 6.1v30.2z"/><path d="M24 13.6c-5.8 0-10.4 4.7-10.4 10.4S18.2 34.4 24 34.4 34.4 29.8 34.4 24 29.8 13.6 24 13.6zm0 18c-4.2 0-7.6-3.4-7.6-7.6s3.4-7.6 7.6-7.6 7.6 3.4 7.6 7.6-3.4 7.6-7.6 7.6zM11.9 9.4c-.3-.3-.6-.4-1-.4s-.7.2-1 .4-.4.6-.4 1 .2.7.4 1c.3.3.6.4 1 .4s.7-.2 1-.4c.3-.3.4-.6.4-1 0-.3-.1-.7-.4-1z"/><path d="M1.3 22.6h13.8v2.8H1.3zm31.7 0h13.6v2.8H33z" stroke="#000" stroke-width=".25" stroke-miterlimit="10"/></svg>