<svg xmlns="http://www.w3.org/2000/svg" viewBox="0 0 41 33.3" width="41" height="34"><path d="M36.7 8.3v1.1c0 11.1-8.5 23.9-23.9 23.9-4.7-.1-9-1.4-12.8-3.8.7.1 1.3.1 2.1.1 3.9 0 7.5-1.3 10.4-3.6-3.7-.1-6.7-2.5-7.9-5.8.5.1 1 .2 1.6.2.8 0 1.5-.2 2.2-.3-3.8-.8-6.7-4.2-6.7-8.2v-.1c1.1.6 2.4 1 3.8 1-2.4-1.6-3.8-4.2-3.8-7.1 0-1.5.4-3 1.1-4.2 4.2 5 10.3 8.4 17.3 8.8-.1-.6-.1-1.2-.1-1.9C20 3.8 23.7 0 28.4 0c2.4 0 4.6 1 6.2 2.6 1.9-.3 3.8-1 5.3-2.1-.6 2-2 3.6-3.7 4.6 1.6-.1 3.3-.5 4.8-1.2-1.2 1.7-2.6 3.2-4.3 4.4z"/></svg>