<?xml version="1.0" encoding="iso-8859-1"?>
<!-- Generator: Adobe Illustrator 19.0.0, SVG Export Plug-In . SVG Version: 6.00 Build 0)  -->
<svg xmlns="http://www.w3.org/2000/svg" xmlns:xlink="http://www.w3.org/1999/xlink" version="1.1" id="Capa_1" x="0px" y="0px" viewBox="0 0 508 508" style="enable-background:new 0 0 508 508;" xml:space="preserve">
<g>
	<g>
		<polygon points="417.9,0 417.9,16.4 471.8,16.4 262.2,226 180.3,144.1 10.6,313.8 22.2,325.3 180.3,167.3 262.2,249.2 483.4,28     483.4,81.9 499.8,81.9 499.8,0   "/>
	</g>
</g>
<g>
	<g>
		<path d="M491.6,491.6V114.7h-81.9v376.9h-16.4V213h-81.9v278.6H295V295h-82v196.6h-16.4V262.2h-81.9v229.4H98.3V344.1H16.4v147.5    H0V508h508v-16.4H491.6z M82,491.6H32.8V360.5H82V491.6z M180.3,491.6h-49.2v-213h49.2V491.6z M278.6,491.7h-49.2v-0.1V311.4h49.2    V491.7z M376.9,491.6h-49.2V229.4h49.2V491.6z M475.3,491.6h-49.2V131.1h49.2V491.6z"/>
	</g>
</g>
</svg>
