<?xml version="1.0" encoding="utf-8"?>
<!-- Generator: Adobe Illustrator 22.0.1, SVG Export Plug-In . SVG Version: 6.00 Build 0)  -->
<svg version="1.1" id="Capa_1" xmlns="http://www.w3.org/2000/svg" xmlns:xlink="http://www.w3.org/1999/xlink" x="0px" y="0px"
	 viewBox="0 0 507.9 507.9" style="enable-background:new 0 0 507.9 507.9;" xml:space="preserve">
<g>
	<path d="M254,245.8c58.8,0,109.1-75.2,109.1-136.7C363.1,49,314.2,0,254,0c-60.2,0-109.1,49-109.1,109.1
		C144.9,170.7,195.2,245.8,254,245.8z M254,16.4c51.1,0,92.8,41.6,92.8,92.7c0,53-43.7,120.3-92.8,120.3
		c-49.1,0-92.8-67.3-92.8-120.3C161.2,58,202.9,16.4,254,16.4z"/>
	<path d="M345.2,235l-7.7-3.9l-52.7,118.3L272,278.6h14.8v-16.4h-65.5v16.4H236l-12.8,70.7L170.5,231l-7.7,3.9
		c-74.8,38.3-118,120-107.6,203.2l8.7,69.8H444l8.7-69.8C463.2,354.9,419.9,273.3,345.2,235z M252.7,278.6h2.7l17.6,97.3l-19,42.4
		l-18.9-42.5L252.7,278.6z M436.5,436.2l-6.9,55.4H78.4l-6.9-55.4c-9.2-73.6,27.2-145.8,91.2-182.5L254,458.6l91.3-204.9
		C409.3,290.4,445.7,362.6,436.5,436.2z"/>
	<path d="M254,189.5C254,189.5,254,189.5,254,189.5c20.3,0,40.4-18.1,41.2-18.8c2.9-2.6,3.1-7,0.5-9.9c-2.6-2.9-7-3.1-9.9-0.5
		c-4.7,4.2-19.5,15.2-31.8,15.2c-12.4,0-27.1-11-31.8-15.2c-2.9-2.6-7.3-2.4-9.9,0.4c-2.6,2.9-2.4,7.3,0.4,9.9
		C213.6,171.4,233.6,189.5,254,189.5z"/>
</g>
</svg>
