<?xml version="1.0" encoding="iso-8859-1"?>
<!-- Generator: Adobe Illustrator 19.0.0, SVG Export Plug-In . SVG Version: 6.00 Build 0)  -->
<svg xmlns="http://www.w3.org/2000/svg" xmlns:xlink="http://www.w3.org/1999/xlink" version="1.1" id="Capa_1" x="0px" y="0px" viewBox="0 0 508 508" style="enable-background:new 0 0 508 508;" xml:space="preserve">
<g>
	<g>
		<path d="M254,229.5c-13.6,0-24.6-11-24.6-24.6c0-13.6,11-24.6,24.6-24.6c13.6,0,24.6,11,24.6,24.6H295c0-19.8-14.1-36.3-32.8-40.1    v-17.2h-16.4v17.2c-18.7,3.8-32.8,20.4-32.8,40.1c0,22.6,18.4,41,41,41c13.6,0,24.6,11,24.6,24.6c0,13.6-11,24.6-24.6,24.6    c-13.6,0-24.6-11-24.6-24.6H213c0,19.8,14.1,36.3,32.8,40.1v17.2h16.4v-17.2c18.7-3.8,32.8-20.4,32.8-40.1    C295,247.9,276.6,229.5,254,229.5z"/>
	</g>
</g>
<g>
	<g>
		<path d="M401.5,0h-295C93,0,81.9,11,81.9,24.6v458.8c0,13.6,11,24.6,24.6,24.6h295c13.6,0,24.6-11,24.6-24.6V24.6    C426.1,11,415,0,401.5,0z M409.7,483.4c0,4.5-3.7,8.2-8.2,8.2h-295c-4.5,0-8.2-3.7-8.2-8.2V24.6c0-4.5,3.7-8.2,8.2-8.2h295    c4.5,0,8.2,3.7,8.2,8.2V483.4z"/>
	</g>
</g>
<g>
	<g>
		<path d="M114.7,65.5v344.2h278.6V65.5H114.7z M376.9,393.3H131.1V81.9h245.8V393.3z"/>
	</g>
</g>
<g>
	<g>
		<rect x="221.2" y="32.8" width="65.5" height="16.4"/>
	</g>
</g>
<g>
	<g>
		<rect x="188.5" y="32.8" width="16.4" height="16.4"/>
	</g>
</g>
<g>
	<g>
		<path d="M254,417.9c-18.1,0-32.8,14.7-32.8,32.8c0,18.1,14.7,32.8,32.8,32.8c18.1,0,32.8-14.7,32.8-32.8S272.1,417.9,254,417.9z     M254,467c-9,0-16.4-7.3-16.4-16.4c0-9.1,7.4-16.4,16.4-16.4s16.4,7.3,16.4,16.4C270.4,459.7,263,467,254,467z"/>
	</g>
</g>
</svg>
