<?xml version="1.0" encoding="iso-8859-1"?>
<!-- Generator: Adobe Illustrator 19.0.0, SVG Export Plug-In . SVG Version: 6.00 Build 0)  -->
<svg xmlns="http://www.w3.org/2000/svg" xmlns:xlink="http://www.w3.org/1999/xlink" version="1.1" id="Capa_1" x="0px" y="0px" viewBox="0 0 508.1 508.1" style="enable-background:new 0 0 508.1 508.1;" xml:space="preserve">
<g>
	<g>
		<path d="M377,163.95V0.05H131.1v163.9h57.4v16.4h-24.6v16.4h180.3v-16.4h-24.6v-16.4H377z M303.2,180.35h-98.3v-16.4h98.3V180.35z     M147.5,147.55V16.45h213v131.1H147.5z"/>
	</g>
</g>
<g>
	<g>
		<path d="M467,410.45v-82.7H295v-32.7h-32.8v-82h-16.4v82H213v32.8H41v82.7c-23.2,3.9-41,24.1-41,48.4c0,27,22.1,49.1,49.2,49.1    c27.1,0,49.2-22.1,49.2-49.2c0-24.3-17.8-44.5-41-48.4v-66.3H213v32.8h32.8v33.5c-23.2,3.9-41,24.1-41,48.4    c0,27.1,22.1,49.2,49.2,49.2s49.2-22.1,49.2-49.2c0-24.3-17.8-44.5-41-48.4v-33.5H295v-32.8h155.7v66.3c-23.2,3.9-41,24.1-41,48.4    c0,27.1,22.1,49.2,49.2,49.2c27.1,0,49.2-22.1,49.2-49.2C508,434.55,490.2,414.35,467,410.45z M81.9,458.85    c0,18.1-14.7,32.8-32.8,32.8c-18.1,0-32.8-14.7-32.8-32.8s14.7-32.8,32.8-32.8C67.2,426.15,81.9,440.85,81.9,458.85z     M286.8,458.85c0,18.1-14.7,32.8-32.8,32.8c-18.1,0-32.8-14.7-32.8-32.8s14.7-32.8,32.8-32.8    C272.1,426.15,286.8,440.85,286.8,458.85z M278.6,360.55h-49.2v-49.2h49.2V360.55z M458.8,491.65c-18.1,0-32.8-14.7-32.8-32.8    s14.7-32.8,32.8-32.8c18.1,0,32.8,14.7,32.8,32.8S476.9,491.65,458.8,491.65z"/>
	</g>
</g>
</svg>
