<?xml version="1.0" standalone="no"?>
<!DOCTYPE svg PUBLIC "-//W3C//DTD SVG 20010904//EN"
 "http://www.w3.org/TR/2001/REC-SVG-20010904/DTD/svg10.dtd">
<svg version="1.0" xmlns="http://www.w3.org/2000/svg"
 width="5000.000000pt" height="5000.000000pt" viewBox="0 0 5000.000000 5000.000000"
 preserveAspectRatio="xMidYMid meet">
<metadata>
Created by potrace 1.11, written by Peter Selinger 2001-2013
</metadata>
<g transform="translate(0.000000,5000.000000) scale(0.100000,-0.100000)"
fill="#000000" stroke="none">
<path d="M4829 32346 c-2 -2 -51 -7 -109 -10 -58 -4 -121 -8 -140 -10 -19 -2
-66 -7 -105 -11 -38 -4 -79 -9 -90 -11 -11 -2 -40 -7 -65 -10 -66 -8 -99 -13
-155 -24 -27 -5 -67 -12 -89 -15 -21 -3 -41 -7 -45 -9 -3 -3 -26 -7 -51 -11
-25 -4 -47 -8 -51 -11 -3 -2 -21 -6 -40 -8 -31 -4 -145 -33 -284 -70 -377
-102 -887 -317 -1195 -505 -19 -11 -42 -24 -50 -28 -62 -28 -407 -265 -530
-362 -36 -29 -80 -64 -99 -79 -18 -15 -41 -34 -50 -42 -9 -9 -54 -49 -100 -90
-104 -93 -252 -239 -351 -350 -41 -45 -80 -88 -85 -94 -35 -36 -183 -226 -244
-311 -39 -55 -74 -104 -78 -110 -11 -13 -65 -96 -78 -117 -229 -380 -347 -620
-467 -958 -71 -198 -164 -540 -192 -705 -3 -16 -12 -70 -20 -120 -9 -49 -18
-108 -20 -130 -3 -22 -8 -60 -11 -85 -24 -191 -30 -312 -29 -615 0 -274 5
-400 20 -510 2 -22 6 -58 8 -80 8 -92 49 -343 71 -441 8 -34 16 -73 19 -85 2
-13 9 -42 14 -64 6 -22 13 -51 16 -65 7 -40 63 -228 91 -310 14 -41 27 -82 29
-90 5 -18 52 -146 65 -175 5 -11 19 -45 31 -75 33 -85 32 -84 128 -280 49
-102 118 -234 152 -295 55 -96 238 -380 269 -417 6 -7 43 -56 83 -108 81 -107
97 -126 118 -149 8 -10 36 -41 61 -71 139 -163 370 -393 509 -506 19 -16 37
-32 40 -35 3 -4 44 -38 91 -76 161 -129 438 -318 594 -406 33 -19 77 -44 98
-56 21 -12 88 -46 150 -77 62 -31 119 -60 127 -65 8 -5 22 -12 30 -15 8 -3 39
-17 69 -30 107 -49 461 -184 521 -199 3 -1 12 -5 20 -8 16 -7 62 -19 265 -73
148 -39 396 -91 520 -109 106 -15 166 -23 235 -30 30 -3 71 -7 90 -9 212 -27
778 -27 985 -1 17 2 59 7 95 11 36 3 74 8 85 10 10 2 37 6 60 9 22 3 64 10 93
16 29 6 65 12 80 14 15 2 70 13 122 25 52 12 109 24 125 27 17 3 38 9 48 14 9
5 17 8 17 5 0 -2 39 7 88 20 48 14 94 27 102 29 24 6 154 46 170 52 8 3 20 7
25 8 6 2 67 23 136 49 429 156 860 376 1253 638 115 78 358 260 450 338 35 30
186 161 202 175 31 28 162 155 183 178 20 22 21 28 10 40 -8 7 -43 46 -79 86
-36 40 -74 83 -85 95 -11 12 -54 60 -95 106 -41 46 -82 91 -90 100 -8 9 -49
54 -90 100 -41 47 -77 87 -80 90 -3 3 -43 48 -90 100 -47 52 -87 97 -90 100
-3 3 -23 25 -45 50 -22 25 -79 88 -126 140 -47 52 -101 113 -120 134 -48 56
-87 96 -94 96 -3 0 -16 -10 -29 -22 -214 -209 -574 -479 -806 -604 -25 -14
-60 -33 -77 -44 -18 -11 -33 -16 -33 -12 0 4 -4 2 -8 -4 -13 -21 -280 -144
-442 -204 -47 -17 -101 -38 -120 -46 -20 -8 -42 -16 -50 -18 -8 -1 -37 -9 -65
-18 -27 -8 -70 -21 -95 -28 -25 -7 -56 -16 -70 -20 -24 -7 -103 -26 -145 -34
-11 -3 -40 -9 -65 -14 -48 -11 -86 -17 -165 -27 -27 -4 -61 -8 -75 -11 -72
-13 -188 -19 -395 -19 -199 0 -290 4 -405 19 -14 2 -48 7 -75 10 -167 22 -400
78 -574 137 -64 22 -120 41 -126 43 -109 35 -337 144 -500 239 -80 46 -243
154 -263 174 -7 7 -17 13 -20 13 -4 0 -18 10 -32 23 -14 12 -45 38 -70 57 -25
19 -61 48 -80 65 -63 54 -305 299 -345 350 -22 28 -45 55 -51 60 -38 35 -223
308 -289 425 -44 79 -123 242 -160 330 -15 36 -31 74 -36 85 -53 117 -147 466
-173 640 -9 55 -18 118 -21 140 -28 182 -33 512 -11 720 11 114 18 170 22 189
3 12 7 35 9 52 3 17 14 75 26 130 12 54 23 110 26 124 2 14 7 32 10 40 3 8 8
25 10 37 6 39 93 284 135 383 55 129 126 269 190 376 30 49 61 100 69 114 7
14 16 27 19 30 3 3 25 33 48 67 23 35 48 71 56 80 8 10 45 56 82 103 85 106
321 345 434 437 185 152 385 282 615 398 66 33 122 61 125 62 3 0 23 8 45 18
211 89 528 184 700 210 17 3 46 7 65 11 48 8 85 13 150 20 30 4 69 8 85 11 57
8 490 10 565 3 109 -11 177 -20 245 -32 33 -5 74 -12 90 -15 132 -21 476 -125
620 -188 17 -7 64 -27 105 -45 41 -18 93 -42 115 -53 22 -12 42 -21 45 -22 5
-1 20 -9 110 -58 92 -50 112 -62 185 -107 76 -47 187 -120 195 -129 3 -3 25
-20 50 -36 25 -16 47 -33 50 -36 3 -4 38 -31 78 -62 106 -80 210 -174 364
-328 l137 -138 101 127 c55 70 106 134 113 142 9 12 352 442 414 520 113 142
281 353 303 380 15 19 55 69 88 112 l61 76 -87 85 c-48 46 -109 104 -137 128
-27 24 -52 46 -55 49 -3 3 -41 35 -85 70 -44 36 -82 68 -85 71 -25 30 -432
310 -545 375 -209 121 -488 265 -590 306 -22 9 -58 24 -80 34 -22 10 -42 18
-45 19 -8 3 -62 25 -95 40 -16 7 -41 17 -55 20 -14 4 -38 13 -55 21 -30 13
-266 92 -295 99 -8 2 -35 10 -60 18 -38 12 -167 48 -229 63 -159 38 -198 46
-426 88 -20 3 -89 13 -152 22 -18 2 -48 6 -65 8 -56 8 -135 17 -206 22 -80 7
-687 15 -693 10z"/>
<path d="M25729 32346 c-2 -2 -58 -7 -124 -10 -66 -4 -133 -9 -150 -11 -16 -2
-50 -6 -75 -9 -80 -9 -224 -27 -245 -31 -11 -2 -33 -6 -50 -9 -16 -3 -46 -8
-65 -11 -84 -13 -97 -16 -135 -25 -22 -6 -51 -12 -65 -14 -65 -12 -132 -26
-139 -30 -4 -3 -18 -7 -32 -10 -39 -7 -209 -53 -283 -76 -38 -12 -76 -23 -85
-26 -22 -5 -131 -43 -156 -53 -11 -5 -72 -28 -135 -52 -111 -41 -138 -52 -280
-116 -95 -43 -304 -147 -310 -154 -3 -3 -25 -16 -50 -28 -25 -13 -63 -34 -85
-47 -22 -13 -49 -28 -60 -34 -63 -31 -341 -219 -448 -303 -233 -180 -329 -265
-519 -457 -217 -220 -311 -330 -480 -562 -86 -117 -211 -309 -263 -403 -15
-27 -31 -54 -35 -60 -15 -18 -168 -329 -205 -415 -60 -140 -130 -327 -169
-455 -51 -162 -56 -179 -61 -201 -2 -10 -16 -62 -29 -114 -14 -52 -25 -96 -25
-98 0 -1 -4 -26 -10 -55 -6 -28 -13 -65 -16 -82 -3 -16 -7 -41 -10 -55 -2 -13
-7 -40 -10 -60 -3 -20 -7 -47 -10 -60 -8 -41 -23 -152 -31 -235 -3 -33 -8 -73
-9 -90 -22 -207 -22 -765 0 -905 2 -14 7 -54 10 -90 6 -66 9 -86 25 -200 9
-68 14 -99 24 -140 3 -14 8 -41 11 -60 4 -33 9 -54 19 -97 7 -26 36 -154 42
-183 21 -101 146 -486 190 -585 7 -16 22 -52 32 -80 64 -164 249 -526 332
-650 15 -22 29 -44 31 -50 3 -8 64 -100 136 -205 24 -35 157 -214 163 -220 3
-3 37 -43 75 -90 178 -218 433 -469 702 -691 71 -59 358 -264 425 -304 347
-207 424 -249 638 -347 90 -42 316 -134 376 -153 27 -9 58 -20 69 -25 40 -18
337 -109 445 -136 90 -22 303 -68 369 -79 19 -3 37 -7 40 -9 3 -2 33 -7 66
-10 33 -4 67 -8 75 -11 17 -4 101 -16 145 -20 29 -3 126 -13 190 -20 164 -19
715 -26 910 -11 146 11 259 22 330 32 17 3 50 7 75 10 43 4 67 8 120 18 14 3
43 8 65 12 22 3 49 7 60 9 11 2 64 13 119 24 54 12 108 23 120 25 40 8 179 46
184 51 3 2 -7 29 -22 60 -14 31 -26 58 -26 60 0 3 -9 24 -19 48 -70 154 -81
179 -81 182 0 2 -13 32 -29 67 -45 99 -66 145 -121 273 -29 66 -67 153 -86
193 -19 41 -34 76 -34 78 0 6 -59 140 -106 241 -19 40 -34 75 -34 78 0 4 -21
51 -80 180 -15 33 -30 69 -34 80 -6 21 -7 21 -141 -6 -121 -25 -167 -32 -270
-43 -78 -9 -259 -19 -335 -19 -100 0 -336 11 -365 17 -11 2 -49 7 -85 11 -36
4 -67 8 -70 10 -3 2 -26 6 -51 9 -38 5 -204 39 -244 50 -5 2 -23 6 -40 10
-316 80 -694 249 -973 435 -46 31 -91 61 -101 66 -17 11 -143 105 -151 115 -3
3 -30 25 -60 50 -416 338 -777 845 -968 1360 -57 156 -124 380 -137 465 -2 11
-9 49 -15 85 -7 36 -14 75 -15 87 -2 13 -6 40 -9 60 -34 213 -38 575 -10 803
4 25 7 56 9 70 5 44 15 104 20 130 3 14 8 41 11 60 4 19 8 42 9 50 5 27 46
183 66 255 74 258 227 585 385 825 278 424 660 784 1099 1039 84 49 351 181
365 181 6 0 18 4 28 10 44 25 301 116 382 135 186 44 275 63 282 59 4 -3 8 0
8 5 0 6 3 10 8 9 8 -2 101 9 217 26 170 25 573 26 760 1 17 -2 55 -7 85 -10
30 -4 63 -9 75 -11 11 -2 32 -6 48 -9 61 -12 176 -37 232 -51 33 -9 67 -17 75
-19 39 -8 265 -86 345 -120 810 -334 1438 -961 1771 -1769 14 -34 27 -68 30
-76 2 -8 20 -61 39 -116 35 -101 98 -338 108 -404 3 -19 10 -62 16 -95 22
-130 25 -157 37 -315 14 -182 0 -605 -20 -639 -3 -4 -2 -11 2 -17 4 -5 140
-54 302 -107 162 -54 302 -101 310 -104 8 -3 20 -7 25 -8 18 -5 140 -46 160
-55 11 -5 38 -14 60 -20 22 -6 47 -14 55 -17 8 -4 18 -7 23 -8 4 -2 9 -4 12
-5 3 -1 8 -3 13 -4 8 -2 289 -95 312 -103 8 -3 20 -7 25 -9 6 -2 118 -39 250
-84 132 -44 247 -81 255 -83 10 -1 19 20 32 83 11 47 20 101 22 120 2 19 8 62
14 95 12 62 17 106 28 210 3 33 7 71 10 85 21 135 21 704 -1 880 -2 19 -6 64
-10 100 -8 92 -14 141 -20 170 -5 28 -11 63 -20 130 -4 25 -11 64 -16 88 -5
23 -12 59 -15 80 -17 112 -129 508 -186 662 -11 30 -26 71 -34 90 -138 369
-373 796 -626 1135 -25 34 -188 236 -213 265 -146 167 -420 438 -530 523 -16
12 -37 31 -48 41 -79 76 -478 356 -622 437 -33 18 -64 37 -70 42 -17 14 -132
73 -310 161 -158 77 -220 104 -410 181 -90 37 -418 145 -485 160 -8 2 -15 4
-15 5 0 1 -7 3 -15 5 -8 1 -44 11 -80 20 -36 9 -72 18 -80 20 -40 9 -218 47
-237 51 -13 2 -35 7 -50 10 -16 3 -43 7 -61 9 -18 2 -41 6 -50 9 -9 3 -37 8
-62 11 -25 3 -56 8 -70 10 -14 3 -51 7 -83 10 -32 4 -67 8 -78 10 -10 2 -56 7
-102 10 -45 4 -100 9 -122 12 -48 6 -720 14 -726 9z"/>
<path d="M10307 32285 c-2 -5 -3 -2188 -2 -4850 l0 -4840 3020 0 3020 0 3 840
2 840 -2092 0 -2093 0 0 4010 0 4010 -927 0 c-614 0 -929 -3 -931 -10z"/>
<path d="M17572 32290 c-4 -3 -7 -2185 -7 -4850 l1 -4845 929 0 930 0 0 4848
c0 2666 -2 4848 -5 4848 -17 4 -1843 3 -1848 -1z"/>
<path d="M33599 32295 c-1 0 -2 -2181 -3 -4847 -1 -3228 2 -4848 9 -4849 5 -1
423 -2 928 -3 620 -1 917 2 918 9 1 5 2 867 3 1915 2 1048 4 1907 4 1910 1 3
989 5 2194 5 l2193 0 0 808 c0 444 -2 808 -5 808 -3 1 -984 3 -2180 4 -1196 2
-2182 3 -2191 4 -14 1 -15 130 -14 1304 1 716 3 1304 3 1307 1 3 1085 5 2409
5 l2408 0 3 235 c1 129 2 242 3 250 0 8 0 44 0 80 0 36 1 287 4 558 2 270 0
493 -3 493 -5 1 -6522 5 -6683 4z"/>
<path d="M40890 32290 c0 -3 40 -64 90 -135 49 -72 94 -137 100 -145 5 -8 28
-41 50 -73 116 -168 166 -240 175 -255 6 -8 16 -23 22 -31 7 -9 78 -110 157
-226 79 -115 148 -214 153 -220 4 -5 33 -46 63 -90 29 -44 70 -102 89 -130 19
-27 69 -99 110 -160 41 -60 77 -112 81 -115 3 -3 10 -12 15 -21 8 -13 157
-231 205 -299 6 -8 46 -67 90 -130 43 -63 82 -119 87 -125 5 -5 31 -44 59 -85
28 -41 117 -169 197 -285 190 -274 214 -309 307 -445 44 -63 83 -119 88 -125
4 -5 56 -80 114 -166 59 -85 162 -235 230 -332 68 -97 166 -238 218 -314 52
-76 136 -198 187 -270 51 -73 93 -137 93 -142 0 -5 4 -11 8 -13 19 -7 273
-389 266 -399 -4 -7 -57 -82 -117 -168 -61 -86 -147 -208 -191 -271 -44 -63
-98 -140 -120 -172 -23 -31 -47 -64 -53 -75 -7 -10 -82 -116 -165 -235 -84
-120 -196 -279 -248 -354 -52 -75 -99 -141 -105 -148 -5 -6 -33 -45 -61 -86
-28 -41 -169 -244 -315 -450 -145 -206 -334 -476 -421 -600 -87 -124 -162
-232 -168 -240 -29 -41 -301 -428 -342 -487 -55 -79 -231 -330 -248 -352 -26
-38 -183 -260 -211 -300 -93 -134 -157 -226 -357 -511 -122 -173 -227 -323
-234 -333 -7 -10 -37 -52 -65 -92 -29 -40 -53 -77 -53 -82 0 -5 471 -9 1084
-8 l1085 0 262 370 c144 204 283 399 308 435 25 36 70 100 101 142 30 43 71
100 90 128 19 28 41 58 48 68 24 32 261 367 316 447 31 44 100 143 155 220
155 217 454 639 532 750 39 55 77 109 85 120 33 46 167 235 279 395 66 94 125
177 130 183 14 17 50 68 88 125 36 54 56 76 63 70 2 -3 82 -113 177 -246 94
-133 178 -249 185 -259 7 -10 120 -169 252 -353 132 -184 243 -339 248 -345
11 -14 284 -394 304 -425 23 -34 53 -76 258 -359 96 -134 182 -253 190 -266 8
-13 36 -52 61 -86 25 -35 128 -179 228 -319 100 -140 188 -262 194 -270 7 -8
66 -91 132 -184 66 -92 148 -207 181 -255 l62 -86 1116 0 c614 0 1116 0 1116
2 0 2 -103 152 -171 248 -34 49 -210 299 -280 400 -19 28 -55 79 -79 115 -25
35 -50 71 -57 80 -7 8 -50 69 -95 135 -46 66 -234 335 -418 598 -184 263 -342
488 -350 500 -22 33 -509 732 -625 897 -56 80 -124 177 -150 215 -27 39 -65
93 -84 120 -19 28 -176 253 -349 500 -173 248 -336 480 -363 518 -27 37 -49
70 -49 72 0 3 -7 13 -15 22 -8 10 -66 92 -129 183 -63 91 -148 212 -188 268
-40 57 -77 111 -83 120 -5 9 -18 25 -27 36 -10 11 -18 22 -18 26 0 3 33 51 73
107 39 56 124 177 187 268 63 91 121 173 128 183 12 16 447 636 474 676 7 10
36 51 64 90 28 39 147 208 264 376 117 168 236 337 264 377 28 39 57 80 64 90
83 123 225 321 237 334 8 9 15 19 15 22 0 9 123 181 132 185 5 2 8 8 8 14 0 6
10 23 23 38 12 15 85 119 162 229 77 111 182 261 234 334 51 73 132 188 180
256 47 68 99 142 115 165 16 22 47 68 70 101 22 33 45 64 49 70 5 5 122 172
261 370 l252 360 -1102 0 -1102 0 -20 -25 c-11 -14 -41 -56 -67 -95 -26 -38
-55 -80 -64 -91 -9 -12 -22 -30 -28 -40 -7 -11 -56 -80 -108 -154 -52 -74 -99
-142 -105 -150 -5 -8 -53 -76 -105 -150 -52 -74 -99 -142 -105 -150 -9 -14
-108 -155 -187 -269 -21 -29 -58 -82 -83 -117 -53 -75 -260 -370 -345 -494
-100 -144 -208 -299 -245 -350 -19 -26 -41 -56 -47 -67 -7 -10 -87 -123 -177
-252 -90 -129 -169 -241 -175 -250 -6 -9 -54 -77 -106 -151 -52 -74 -100 -143
-107 -154 -7 -10 -26 -37 -43 -60 -16 -22 -48 -69 -71 -104 l-43 -63 -69 98
c-38 54 -90 130 -117 168 -137 196 -428 613 -441 630 -36 49 -560 798 -569
813 -5 9 -22 33 -36 52 -14 19 -48 67 -74 105 -27 39 -74 105 -105 149 -30 43
-62 89 -70 101 -8 13 -76 109 -150 214 -74 106 -167 238 -206 294 -91 133
-385 551 -391 557 -6 7 -2173 7 -2173 0z"/>
<path d="M26080 27423 c10 -21 91 -204 180 -408 89 -203 177 -403 196 -443 19
-41 34 -75 34 -78 0 -2 11 -27 24 -56 27 -61 156 -353 316 -718 121 -276 282
-641 310 -705 10 -22 133 -301 273 -620 140 -319 265 -602 277 -630 29 -65 40
-91 104 -237 55 -127 373 -849 408 -928 41 -92 65 -146 79 -177 8 -18 16 -33
19 -33 3 1 160 311 350 690 189 380 347 690 350 690 3 0 20 -13 37 -29 32 -28
186 -167 207 -186 6 -6 58 -53 116 -105 58 -51 107 -96 110 -99 3 -4 48 -44
100 -91 52 -46 106 -96 120 -110 15 -14 44 -40 65 -59 35 -30 169 -151 245
-221 15 -14 63 -56 106 -95 99 -89 103 -92 153 -140 l42 -40 1144 0 c630 0
1145 2 1145 6 0 3 -30 32 -66 64 -36 32 -78 70 -93 84 -48 44 -175 158 -201
181 -21 18 -119 107 -216 195 -12 12 -53 48 -90 80 -37 33 -81 74 -99 90 -18
17 -50 45 -71 64 -80 70 -240 215 -260 235 -12 12 -49 46 -84 76 -91 79 -88
77 -190 170 -51 47 -100 92 -110 100 -42 38 -165 147 -190 170 -15 14 -60 54
-100 90 -40 36 -85 76 -100 90 -15 14 -60 54 -99 90 -40 36 -85 76 -100 90
-15 14 -45 41 -67 60 -21 19 -89 80 -150 135 -60 55 -147 133 -192 174 -46 41
-79 78 -74 83 8 8 248 158 347 216 33 19 62 38 65 41 3 4 60 40 128 81 67 41
146 89 175 107 28 17 57 36 62 40 6 5 44 28 85 53 41 24 77 48 80 52 3 4 17
12 30 18 47 20 291 178 283 183 -5 3 -179 62 -388 132 -209 69 -389 130 -400
135 -21 9 -1190 399 -1215 405 -20 5 -200 66 -225 76 -11 4 -105 36 -210 70
-104 34 -196 66 -202 72 -7 5 -13 7 -13 4 0 -3 -199 62 -442 144 -244 83 -452
152 -463 154 -11 3 -29 9 -40 13 -11 5 -119 42 -240 82 -121 39 -227 74 -235
77 -45 16 -847 285 -860 288 -8 2 -62 20 -120 40 -58 20 -112 38 -120 40 -8 2
-25 7 -37 11 l-21 6 18 -39z"/>
<path d="M23936 19389 c-312 -62 -561 -277 -670 -577 -14 -40 -24 -72 -21 -72
2 0 0 -11 -5 -24 -11 -31 -20 -104 -21 -181 -6 -412 285 -776 696 -871 17 -4
89 -8 160 -10 105 -2 146 1 204 17 41 11 82 24 91 29 10 5 20 6 24 3 3 -3 6
-1 6 5 0 7 7 12 15 12 8 0 36 12 62 26 289 159 461 438 467 759 4 201 -48 374
-160 530 -68 95 -151 174 -250 237 -52 33 -159 82 -204 94 -102 25 -140 33
-156 33 -10 0 -48 2 -84 4 -37 1 -106 -5 -154 -14z m254 -266 c19 -3 41 -7 49
-9 8 -2 48 -19 89 -40 221 -109 340 -356 308 -639 -16 -137 -94 -295 -187
-379 -97 -87 -229 -138 -359 -139 -87 -1 -214 34 -272 74 -14 11 -29 19 -32
19 -16 0 -116 100 -149 148 -74 109 -109 228 -110 372 0 266 146 484 388 575
68 26 190 34 275 18z"/>
<path d="M43607 19404 c-1 -1 -27 -5 -57 -8 -120 -11 -272 -67 -388 -143 -82
-54 -210 -188 -258 -269 -41 -71 -83 -162 -89 -196 -2 -11 -7 -28 -10 -38 -35
-110 -37 -302 -4 -435 47 -190 164 -368 316 -482 21 -15 40 -31 43 -34 10 -12
167 -89 215 -105 105 -35 169 -43 305 -40 87 2 156 9 195 20 348 98 563 390
569 776 l1 75 -298 3 -298 2 3 -122 3 -123 142 0 c78 -1 145 -3 148 -7 9 -8
-24 -85 -60 -143 -65 -103 -157 -168 -285 -201 -309 -80 -635 134 -704 462
-14 65 -15 209 -2 262 3 12 8 30 10 40 11 45 46 124 79 174 159 239 458 326
721 210 55 -25 156 -98 156 -115 1 -12 180 172 180 184 0 14 -78 84 -140 124
-128 84 -262 124 -438 129 -29 1 -54 1 -55 0z"/>
<path d="M6439 19381 c-1 -3 -2 -59 -3 -123 -1 -112 0 -118 19 -118 11 0 125
-1 253 0 l232 0 0 -198 c0 -108 0 -440 0 -737 l0 -540 145 0 c92 -1 145 3 146
10 1 5 2 336 3 735 l1 725 100 2 c55 1 168 2 251 2 l150 1 -2 118 c-1 64 -2
120 -3 123 -1 9 -1291 9 -1292 0z"/>
<path d="M8510 18526 l0 -861 140 0 140 0 0 365 0 366 419 -1 420 0 0 -355 c0
-195 0 -360 1 -366 0 -7 47 -10 138 -10 l137 1 2 862 1 862 -139 -1 -139 0 0
-91 c-1 -51 -1 -219 -1 -374 l0 -283 -22 -1 c-84 -3 -795 -4 -804 -1 -10 3
-13 87 -13 377 l0 374 -140 -1 -140 0 0 -862z"/>
<path d="M10950 18526 l0 -861 578 0 577 0 1 110 c0 61 -2 116 -4 123 -3 9
-99 12 -433 12 -402 0 -429 1 -430 18 0 9 0 121 -1 247 l-1 230 297 0 c163 0
296 2 297 5 4 26 3 224 -2 232 -4 5 -121 9 -297 8 -273 0 -292 1 -293 17 -3
77 1 466 5 470 3 3 193 6 422 7 l417 1 -1 90 c-1 50 -1 104 -1 121 l-1 32
-565 0 -565 0 0 -862z"/>
<path d="M15480 19338 c-13 -29 -45 -98 -70 -153 -26 -56 -55 -119 -65 -140
-10 -22 -33 -71 -50 -110 -18 -38 -53 -115 -78 -170 -25 -55 -63 -139 -86
-188 -22 -48 -41 -89 -41 -91 0 -2 -20 -46 -44 -97 -24 -52 -54 -116 -66 -144
-24 -53 -61 -133 -111 -242 -131 -284 -149 -325 -145 -332 3 -4 71 -6 152 -6
121 0 148 3 152 15 12 38 195 446 203 455 6 6 121 10 304 10 l294 0 101 -228
c55 -125 100 -232 100 -238 0 -5 3 -10 8 -10 29 -5 302 -3 302 2 0 4 -15 40
-34 80 -80 173 -101 220 -151 329 -29 63 -62 138 -75 165 -12 28 -35 77 -50
110 -68 147 -244 534 -260 570 -10 22 -35 76 -55 120 -21 44 -52 112 -70 150
-94 206 -87 195 -115 195 -22 0 -30 -9 -50 -52z m80 -545 c13 -32 26 -62 30
-68 4 -5 31 -64 60 -130 28 -66 60 -137 71 -158 10 -21 19 -41 19 -45 0 -9
-406 -10 -414 -1 -4 3 12 46 34 95 23 49 47 103 55 119 7 17 31 69 53 116 22
47 43 96 47 108 10 34 21 25 45 -36z"/>
<path d="M17159 19352 c-3 -223 0 -1673 4 -1679 3 -5 66 -9 139 -9 l133 1 1
116 c0 63 4 121 8 127 4 7 4 12 -1 12 -4 0 -8 47 -8 105 0 58 3 105 6 105 3 0
4 12 2 28 -4 25 -6 110 -4 140 1 9 32 12 120 12 l118 0 29 -42 c16 -24 31 -45
34 -48 3 -3 10 -12 15 -22 6 -9 31 -45 56 -80 25 -34 105 -148 179 -253 73
-104 135 -192 137 -195 5 -5 323 -8 323 -3 0 5 -121 174 -130 183 -7 6 -177
242 -210 290 -13 19 -27 37 -30 40 -11 11 -91 121 -95 133 -4 8 19 20 65 34
71 23 155 70 210 120 48 42 106 136 131 210 30 91 31 249 1 338 -21 63 -54
128 -77 151 -7 8 -22 24 -32 37 -28 36 -109 95 -166 121 -122 55 -162 60 -574
63 l-383 2 -1 -37z m751 -229 c152 -37 224 -127 223 -279 0 -70 -4 -88 -29
-133 -43 -81 -124 -132 -229 -147 -58 -8 -424 -11 -433 -4 -10 7 -8 380 1 380
5 0 5 5 2 10 -6 9 -9 100 -6 167 1 22 2 22 204 22 152 0 218 -4 267 -16z"/>
<path d="M19260 19376 c-3 -84 -1 -228 3 -232 3 -3 117 -6 253 -7 l248 -2 1
-735 0 -735 146 0 146 0 1 720 c0 396 1 728 1 738 1 16 15 18 194 17 105 -1
217 -1 248 -1 66 1 61 -13 58 163 l-2 86 -648 0 c-479 0 -649 -3 -649 -12z"/>
<path d="M25772 18527 l3 -862 140 0 140 0 1 357 c0 197 3 361 7 364 3 3 153
6 334 6 180 0 335 2 343 4 12 3 15 23 13 111 0 60 -1 113 -2 120 -1 8 -25 11
-81 10 -44 -1 -80 2 -80 6 0 5 -5 5 -11 2 -10 -7 -171 -10 -194 -5 -5 1 -12 2
-15 1 -15 -6 -200 -5 -200 1 0 4 -12 3 -27 0 -43 -11 -83 -3 -84 16 0 9 -2
122 -2 249 -2 227 -1 233 18 234 11 0 201 1 423 1 l402 1 0 123 0 122 -565 0
-565 0 2 -861z"/>
<path d="M29599 19362 c-2 -95 0 -214 4 -219 3 -2 116 -5 251 -5 179 0 246 -3
247 -11 1 -7 2 -338 3 -737 l1 -725 145 0 145 0 1 72 c1 40 4 79 8 88 3 8 2
15 -2 15 -4 0 -6 33 -4 72 3 83 3 71 3 163 -1 39 -1 77 0 85 0 8 -2 48 -3 88
-2 39 1 72 5 72 5 0 5 5 2 10 -6 10 -10 132 -5 155 1 6 1 15 0 20 -6 24 -2
274 4 284 4 6 4 11 -1 11 -8 0 -8 84 0 163 2 20 1 37 -2 37 -3 0 -6 31 -6 69
l0 69 225 1 c124 0 237 0 253 1 l27 0 0 124 0 124 -650 0 -650 0 -1 -26z"/>
<path d="M31944 18526 l1 -861 138 0 137 0 0 321 0 322 119 1 c113 0 120 -1
136 -23 10 -13 113 -158 229 -322 l211 -299 158 0 c116 0 156 3 153 11 -3 7
-108 154 -235 328 -127 174 -231 318 -231 320 0 3 44 14 65 16 17 2 103 45
147 73 94 60 154 137 198 252 29 77 36 235 13 322 -50 195 -189 322 -413 378
-79 20 -111 22 -456 22 l-371 1 1 -862z m732 603 c21 -5 44 -11 49 -12 30 -7
103 -53 127 -80 40 -45 59 -92 65 -164 13 -165 -79 -276 -257 -309 -28 -5
-326 -9 -417 -5 l-23 1 0 289 0 290 208 0 c115 0 226 -5 248 -10z"/>
<path d="M34918 19332 c-46 -96 -108 -233 -108 -236 0 -2 -23 -53 -51 -112
-28 -60 -57 -123 -64 -140 -67 -148 -111 -244 -171 -372 -24 -51 -44 -99 -44
-106 0 -8 -7 -19 -15 -26 -8 -7 -15 -17 -15 -23 0 -5 -11 -33 -24 -61 -66
-140 -96 -205 -96 -209 0 -3 -20 -47 -44 -98 -105 -227 -126 -272 -126 -278 0
-3 68 -6 151 -6 l150 0 31 70 c16 39 39 90 50 115 11 25 28 63 38 85 41 96 62
142 78 175 l18 35 297 0 297 0 64 -145 c35 -80 82 -188 105 -240 l42 -95 153
0 153 -1 -30 66 c-16 36 -33 70 -37 75 -4 6 -11 21 -15 34 -4 13 -29 69 -55
125 -59 126 -93 200 -170 371 -12 28 -35 77 -50 110 -16 33 -76 166 -135 295
-59 129 -118 260 -132 290 -14 30 -41 89 -60 130 -103 225 -106 230 -133 230
-21 0 -30 -10 -52 -58z m80 -531 c12 -26 35 -77 51 -112 28 -63 45 -99 102
-227 16 -35 29 -67 29 -71 0 -3 -93 -6 -207 -6 -177 1 -208 3 -205 15 5 26
197 450 203 450 4 0 16 -22 27 -49z"/>
<path d="M36703 18527 l2 -862 345 1 c326 0 350 2 435 23 321 82 566 333 631
646 14 66 16 89 18 174 3 104 -8 183 -39 296 -1 6 -3 13 -4 17 -7 31 -93 184
-132 234 -134 170 -294 266 -534 320 -16 4 -186 8 -377 9 l-347 3 2 -861z
m732 601 c183 -51 318 -177 381 -356 31 -89 38 -135 38 -242 0 -102 -7 -150
-34 -231 -52 -159 -152 -277 -290 -341 -95 -45 -135 -51 -347 -54 l-202 -2 0
623 0 624 192 -1 c157 -1 205 -4 262 -20z"/>
<path d="M39068 19377 c-2 -7 -4 -394 -3 -862 l1 -850 142 0 142 -1 0 862 0
861 -139 1 c-99 0 -141 -3 -143 -11z"/>
<path d="M40409 19388 c-1 -2 -2 -389 -3 -860 -1 -564 2 -859 9 -861 6 -2 69
-3 140 -3 l130 1 0 543 c0 298 3 542 6 542 4 0 42 -36 85 -81 44 -44 126 -129
184 -188 58 -60 229 -236 380 -391 151 -156 305 -314 341 -351 115 -118 104
-202 105 778 0 469 -3 857 -6 863 -4 6 -57 9 -140 8 l-134 -3 0 -549 0 -548
-209 213 c-114 118 -306 314 -425 437 -382 392 -442 452 -452 452 -5 0 -11 -1
-11 -2z"/>
</g>
</svg>
