<svg width="75" height="75" xmlns="http://www.w3.org/2000/svg" xmlns:xlink="http://www.w3.org/1999/xlink"><defs><path id="a" d="M0 0h75v75H0z"/></defs><g fill="none" fill-rule="evenodd"><path d="M62.583 29.701l-24.741-9.479a.966.966 0 0 0-.698.004l-24.737 9.896a.957.957 0 0 0 0 1.775l9.19 3.675v9.634c0 .526.428.955.954.955a.957.957 0 0 0 .956-.955V34.927a.956.956 0 0 0-.6-.888L15.33 31.01l22.174-8.87 22.16 8.49-22.175 9.24-5.934-2.374a.971.971 0 0 0-1.242.534.961.961 0 0 0 .534 1.242l6.296 2.518a.96.96 0 0 0 .72-.008l13.626-5.678v9.102c0 1.611-5.45 3.95-13.992 3.95-2.532 0-5.02-.216-7.195-.623-.549-.11-1.018.25-1.116.766a.958.958 0 0 0 .765 1.115c2.29.425 4.897.652 7.546.652 7.9 0 15.902-2.014 15.902-5.86V35.31l9.205-3.838a.954.954 0 0 0-.022-1.77" fill="#FFF"/><path d="M37.812 29.839a.952.952 0 0 0-1.302-.354l-10.783 6.154a.948.948 0 0 0-.483.828v17.42a.957.957 0 0 0 1.91 0V37.023l10.304-5.882a.954.954 0 0 0 .354-1.302" fill="#FFF"/><mask id="b" fill="#fff"><use xlink:href="#a"/></mask><path d="M37.5 73.09c-19.624 0-35.59-15.966-35.59-35.59 0-19.624 15.966-35.59 35.59-35.59 19.624 0 35.59 15.966 35.59 35.59 0 19.624-15.966 35.59-35.59 35.59M37.5 0C16.822 0 0 16.822 0 37.5S16.822 75 37.5 75C58.177 75 75 58.178 75 37.5S58.177 0 37.5 0" fill="#FFF" mask="url(#b)"/></g></svg>