<svg width="75" height="75" xmlns="http://www.w3.org/2000/svg" xmlns:xlink="http://www.w3.org/1999/xlink"><defs><path id="a" d="M0 0h75v75H0z"/></defs><g fill="none" fill-rule="evenodd"><path d="M52.35 22.724a.954.954 0 0 0-1.35 0L37.504 36.148 24.079 22.65a.959.959 0 0 0-1.354 0 .952.952 0 0 0 0 1.35l13.423 13.496L22.65 50.921a.959.959 0 0 0 .675 1.634.955.955 0 0 0 .675-.28l13.496-13.423L50.921 52.35a.967.967 0 0 0 .679.28.954.954 0 0 0 .675-1.63L38.852 37.502 52.35 24.078a.959.959 0 0 0 0-1.354" fill="#FFF"/><mask id="b" fill="#fff"><use xlink:href="#a"/></mask><path d="M37.5 73.09c-19.625 0-35.59-15.966-35.59-35.59 0-19.625 15.965-35.59 35.59-35.59 19.625 0 35.59 15.965 35.59 35.59 0 19.624-15.965 35.59-35.59 35.59M37.5 0C16.823 0 0 16.822 0 37.5 0 58.175 16.823 75 37.5 75S75 58.175 75 37.5C75 16.822 58.177 0 37.5 0" fill="#FFF" mask="url(#b)"/></g></svg>