<svg width="75" height="75" xmlns="http://www.w3.org/2000/svg" xmlns:xlink="http://www.w3.org/1999/xlink"><defs><path id="a" d="M0 0h75v75H0z"/></defs><g fill="none" fill-rule="evenodd"><mask id="b" fill="#fff"><use xlink:href="#a"/></mask><path d="M37.498 73.09C17.874 73.09 1.91 57.122 1.91 37.498S17.874 1.91 37.498 1.91c19.624 0 35.592 15.965 35.592 35.59 0 19.623-15.968 35.591-35.592 35.591m0-73.09C16.822 0 0 16.822 0 37.498 0 58.178 16.822 75 37.498 75 58.178 75 75 58.178 75 37.498 75 16.822 58.177 0 37.498 0" fill="#FFF" mask="url(#b)"/><path d="M34.045 27.428c-1.406 1.257-3.047 2.323-4.923 3.208v3.245c1.044-.385 2.223-.963 3.532-1.735 1.313-.772 2.372-1.54 3.182-2.313v21.393h3.356V23.773h-2.163c-.586 1.181-1.578 2.398-2.984 3.655" fill="#FFF"/></g></svg>