<svg width="75" height="75" xmlns="http://www.w3.org/2000/svg" xmlns:xlink="http://www.w3.org/1999/xlink"><defs><path id="a" d="M0 75h75V0H0z"/></defs><g fill="none" fill-rule="evenodd"><path d="M16.7 44.445c.459-.48 1.493-1.398 3.104-2.753 1.929-1.63 3.309-2.913 4.14-3.85.832-.935 1.425-1.823 1.783-2.669a6.553 6.553 0 0 0 .537-2.582c0-1.719-.611-3.164-1.834-4.327-1.224-1.164-2.884-1.746-4.984-1.746-2.078 0-3.734.541-4.968 1.62-1.235 1.078-1.944 2.648-2.134 4.706l2.76.284c.012-1.372.403-2.447 1.179-3.223.776-.775 1.809-1.163 3.104-1.163 1.223 0 2.215.365 2.976 1.097.76.73 1.14 1.63 1.14 2.692 0 1.015-.416 2.093-1.252 3.23-.836 1.138-2.443 2.682-4.82 4.633-1.532 1.253-2.704 2.358-3.513 3.313-.81.955-1.4 1.925-1.768 2.91a4.805 4.805 0 0 0-.313 1.864h14.457v-2.58H15.567a8.612 8.612 0 0 1 1.134-1.456" fill="#FFF"/><mask id="b" fill="#fff"><use xlink:href="#a"/></mask><path fill="#FFF" mask="url(#b)" d="M28.122 41.647h16.994v-2.163H28.122zm29.404-.865h-6.849l6.849-9.862v9.862zm2.686 0V26.608h-2.194l-9.982 14.174v2.462h9.49v5.237h2.686v-5.237h2.954v-2.462h-2.953z"/><path d="M37.5 73.09c-19.624 0-35.59-15.966-35.59-35.59 0-19.624 15.966-35.59 35.59-35.59 19.624 0 35.59 15.966 35.59 35.59 0 19.624-15.966 35.59-35.59 35.59M37.5 0C16.822 0 0 16.822 0 37.5S16.822 75 37.5 75 75 58.178 75 37.5 58.178 0 37.5 0" fill="#FFF" mask="url(#b)"/></g></svg>