<svg width="75" height="75" xmlns="http://www.w3.org/2000/svg" xmlns:xlink="http://www.w3.org/1999/xlink"><defs><path id="a" d="M0 0h75v75H0z"/></defs><g fill="none" fill-rule="evenodd"><mask id="b" fill="#fff"><use xlink:href="#a"/></mask><path d="M37.498 73.09C17.874 73.09 1.91 57.122 1.91 37.498S17.874 1.91 37.5 1.91c19.623 0 35.591 15.965 35.591 35.59 0 19.623-15.968 35.591-35.592 35.591m0-73.09C16.822 0 0 16.822 0 37.498 0 58.178 16.822 75 37.498 75 58.178 75 75 58.178 75 37.498 75 16.822 58.177 0 37.498 0" fill="#FFF" mask="url(#b)"/><path d="M40.268 36.175c1.242-.571 2.182-1.343 2.816-2.313a5.77 5.77 0 0 0 .952-3.226c0-1.242-.332-2.418-1-3.525-.664-1.108-1.623-1.981-2.88-2.619-1.257-.641-2.63-.963-4.121-.963-2.164 0-3.973.62-5.428 1.858-1.454 1.235-2.387 2.98-2.798 5.229l3.357.598c.25-1.642.81-2.872 1.679-3.693.869-.821 1.958-1.231 3.264-1.231 1.316 0 2.394.403 3.226 1.212.832.81 1.249 1.828 1.249 3.059 0 1.555-.57 2.704-1.715 3.45s-2.432 1.119-3.861 1.119c-.137 0-.316-.011-.541-.037l-.373 2.946c.945-.25 1.736-.373 2.369-.373 1.556 0 2.835.5 3.842 1.5 1.007 1.003 1.51 2.276 1.51 3.816 0 1.615-.544 2.973-1.63 4.066-1.09 1.093-2.424 1.641-4.002 1.641-1.331 0-2.458-.421-3.383-1.257-.928-.843-1.585-2.212-1.97-4.114l-3.356.447c.224 2.275 1.126 4.13 2.715 5.558 1.582 1.428 3.577 2.145 5.975 2.145 2.66 0 4.86-.828 6.603-2.492 1.742-1.656 2.61-3.682 2.61-6.069 0-1.764-.447-3.234-1.341-4.413-.896-1.171-2.153-1.946-3.768-2.319" fill="#FFF"/></g></svg>