<svg width="75" height="75" xmlns="http://www.w3.org/2000/svg" xmlns:xlink="http://www.w3.org/1999/xlink"><defs><path id="a" d="M0 0h75v75H0z"/></defs><g fill="none" fill-rule="evenodd"><mask id="b" fill="#fff"><use xlink:href="#a"/></mask><path d="M37.502 73.09C17.879 73.09 1.91 57.122 1.91 37.498S17.879 1.91 37.502 1.91c19.624 0 35.589 15.964 35.589 35.588 0 19.624-15.965 35.592-35.59 35.592m0-73.09C16.824 0 0 16.822 0 37.498 0 58.178 16.823 75 37.502 75 58.178 75 75 58.178 75 37.498 75 16.822 58.178 0 37.502 0" fill="#FFF" mask="url(#b)"/><path d="M37.197 41.546h-8.561l8.56-12.328v12.328zm3.356-17.718h-2.741L25.335 41.546v3.077h11.862v6.546h3.356v-6.546h3.694v-3.077h-3.694V23.828z" fill="#FFF"/></g></svg>