<svg width="75" height="75" xmlns="http://www.w3.org/2000/svg" xmlns:xlink="http://www.w3.org/1999/xlink"><defs><path id="a" d="M0 0h75v75H0z"/></defs><g fill="none" fill-rule="evenodd"><path d="M23.745 41.314V28.987l-8.564 12.327h8.564zm0 9.624V44.39h-11.86v-3.077l12.471-17.718h2.746v17.718h3.693v3.077h-3.693v6.547h-3.357zm9.572 0h3.827v-3.823h-3.827zm7.699-7.162l3.528-.298c.26 1.716.866 3.006 1.82 3.87.948.864 2.096 1.296 3.439 1.296 1.61 0 2.984-.608 4.104-1.828 1.119-1.22 1.678-2.835 1.678-4.85 0-1.913-.537-3.423-1.611-4.531-1.082-1.108-2.484-1.66-4.23-1.66-1.082 0-2.06.246-2.924.735-.873.493-1.56 1.13-2.052 1.913l-3.155-.41 2.648-14.044h13.6v3.208H46.947l-1.47 7.349c1.64-1.146 3.364-1.716 5.162-1.716 2.388 0 4.4.828 6.043 2.48 1.64 1.653 2.462 3.779 2.462 6.379 0 2.472-.717 4.614-2.164 6.416-1.753 2.212-4.148 3.319-7.177 3.319-2.491 0-4.52-.697-6.087-2.09-1.574-1.39-2.476-3.236-2.7-5.538" fill="#FFF"/><mask id="b" fill="#fff"><use xlink:href="#a"/></mask><path d="M37.502 1.91C17.878 1.91 1.91 17.877 1.91 37.501c0 19.623 15.97 35.588 35.593 35.588 19.623 0 35.588-15.965 35.588-35.588 0-19.624-15.965-35.593-35.588-35.593m0 73.091C16.822 75 0 58.178 0 37.502 0 16.822 16.822 0 37.502 0 58.177 0 75 16.822 75 37.502 75 58.178 58.177 75 37.502 75" fill="#FFF" mask="url(#b)"/></g></svg>