<svg width="75" height="75" xmlns="http://www.w3.org/2000/svg" xmlns:xlink="http://www.w3.org/1999/xlink"><defs><path id="a" d="M0 75h75V0H0z"/></defs><g fill="none" fill-rule="evenodd"><path d="M31.289 47.767v3.227H13.217a5.874 5.874 0 0 1 .39-2.331c.46-1.232 1.199-2.444 2.213-3.637 1.01-1.195 2.477-2.574 4.39-4.141 2.974-2.435 4.98-4.368 6.024-5.79 1.045-1.424 1.567-2.77 1.567-4.04 0-1.33-.478-2.45-1.425-3.367-.955-.91-2.193-1.368-3.722-1.368-1.615 0-2.91.484-3.88 1.454-.97.97-1.462 2.312-1.473 4.028l-3.45-.353c.235-2.575 1.126-4.536 2.667-5.887 1.54-1.347 3.61-2.022 6.21-2.022 2.623 0 4.7.728 6.229 2.182 1.529 1.455 2.294 3.257 2.294 5.409a8.217 8.217 0 0 1-.671 3.227c-.447 1.055-1.19 2.17-2.227 3.338-1.041 1.168-2.764 2.77-5.177 4.812-2.014 1.69-3.31 2.838-3.88 3.443-.57.6-1.044 1.209-1.417 1.816h13.41z" fill="#FFF"/><mask id="b" fill="#fff"><use xlink:href="#a"/></mask><path fill="#FFF" mask="url(#b)" d="M35.51 50.993h3.823V47.17H35.51zm7.7-7.162l3.524-.298c.262 1.716.867 3.006 1.82 3.872.949.862 2.097 1.294 3.44 1.294 1.615 0 2.985-.608 4.104-1.828 1.118-1.22 1.677-2.834 1.677-4.849 0-1.913-.537-3.423-1.611-4.532-1.077-1.107-2.483-1.66-4.225-1.66-1.083 0-2.06.247-2.93.735-.868.493-1.554 1.13-2.05 1.913l-3.152-.41 2.648-14.043H60.05v3.207H49.14l-1.474 7.35c1.642-1.147 3.365-1.717 5.166-1.717 2.388 0 4.402.828 6.043 2.481 1.642 1.652 2.462 3.778 2.462 6.378 0 2.473-.72 4.614-2.163 6.416-1.753 2.212-4.15 3.32-7.181 3.32-2.488 0-4.516-.698-6.087-2.089-1.574-1.392-2.473-3.238-2.697-5.54"/><path d="M37.5 1.91c-19.624 0-35.59 15.968-35.59 35.592 0 19.623 15.966 35.588 35.59 35.588 19.624 0 35.59-15.965 35.59-35.588C73.09 17.878 57.125 1.91 37.5 1.91m0 73.09C16.823 75 0 58.178 0 37.502 0 16.822 16.823 0 37.5 0 58.178 0 75 16.822 75 37.502 75 58.178 58.178 75 37.5 75" fill="#FFF" mask="url(#b)"/></g></svg>