<svg viewBox="0 0 42 77" xmlns="http://www.w3.org/2000/svg"><g fill="#FFF" fill-rule="evenodd"><path d="M40 55.9C40 66.432 31.433 75 20.9 75 10.368 75 1.801 66.432 1.801 55.9v-35c0-10.532 8.567-19.1 19.099-19.1C31.433 1.8 40 10.368 40 20.9v35zM20.9 0C9.376 0 0 9.376 0 20.9v35c0 11.524 9.376 20.9 20.9 20.9 11.525 0 20.901-9.376 20.901-20.9v-35C41.801 9.376 32.425 0 20.9 0z"/><path d="M20.9 25.8a.9.9 0 0 0 .9-.9v-8a.9.9 0 1 0-1.8 0v8a.9.9 0 0 0 .9.9m9.399 24.938L21.8 58.375v-20.8a.9.9 0 0 0-1.801 0v20.8l-8.498-7.637a.899.899 0 1 0-1.203 1.338l10 8.986c.042.037.092.056.138.084.02.013.037.03.058.04.018.01.032.026.05.033l.023.007a.893.893 0 0 0 .333.068.9.9 0 0 0 .333-.068l.02-.007c.022-.008.037-.026.057-.037.018-.009.035-.024.053-.036.046-.028.096-.047.138-.084l10-8.986a.9.9 0 1 0-1.203-1.338"/></g></svg>