<svg width="75" height="75" xmlns="http://www.w3.org/2000/svg" xmlns:xlink="http://www.w3.org/1999/xlink"><defs><path id="a" d="M0 0h75v75H0z"/></defs><g fill="none" fill-rule="evenodd"><mask id="b" fill="#fff"><use xlink:href="#a"/></mask><path d="M37.498 73.09C17.874 73.09 1.91 57.122 1.91 37.498S17.874 1.91 37.498 1.91c19.624 0 35.592 15.965 35.592 35.59 0 19.623-15.968 35.591-35.592 35.591m0-73.09C16.823 0 0 16.822 0 37.498 0 58.178 16.823 75 37.498 75 58.178 75 75 58.178 75 37.498 75 16.822 58.178 0 37.498 0" fill="#FFF" mask="url(#b)"/><path d="M34.545 46.183c.57-.604 1.865-1.754 3.879-3.443 2.413-2.04 4.137-3.645 5.178-4.812 1.037-1.168 1.779-2.283 2.226-3.34a8.192 8.192 0 0 0 .672-3.225c0-2.153-.765-3.953-2.294-5.41-1.53-1.454-3.607-2.18-6.23-2.18-2.6 0-4.67.675-6.21 2.02-1.54 1.35-2.432 3.314-2.667 5.887l3.45.355c.012-1.716.504-3.06 1.474-4.03.97-.968 2.264-1.454 3.879-1.454 1.529 0 2.768.459 3.723 1.369.947.918 1.424 2.036 1.424 3.368 0 1.269-.522 2.615-1.566 4.04-1.044 1.42-3.051 3.353-6.024 5.79-1.914 1.566-3.38 2.946-4.391 4.139-1.014 1.195-1.752 2.406-2.211 3.637a5.88 5.88 0 0 0-.392 2.332h18.072v-3.227h-13.41a11.06 11.06 0 0 1 1.418-1.816" fill="#FFF"/></g></svg>