<svg width="75" height="75" xmlns="http://www.w3.org/2000/svg" xmlns:xlink="http://www.w3.org/1999/xlink"><defs><path id="a" d="M0 0h75v75H0z"/></defs><g fill="none" fill-rule="evenodd"><mask id="b" fill="#fff"><use xlink:href="#a"/></mask><path d="M37.5 73.09c-19.625 0-35.59-15.966-35.59-35.59 0-19.625 15.965-35.59 35.59-35.59 19.625 0 35.59 15.965 35.59 35.59 0 19.624-15.965 35.59-35.59 35.59M37.5 0C16.823 0 0 16.823 0 37.5S16.823 75 37.5 75 75 58.177 75 37.5 58.177 0 37.5 0" fill="#FFF" mask="url(#b)"/><path d="M54.84 24.87l-23.5 23.26-11.169-11.405a.956.956 0 0 0-1.365 1.335l11.84 12.09c.178.184.451.254.705.254h.007c.253 0 .526-.127.705-.306l24.12-23.87a.955.955 0 0 0-1.343-1.358" fill="#FFF"/></g></svg>