<svg width="75" height="75" xmlns="http://www.w3.org/2000/svg" xmlns:xlink="http://www.w3.org/1999/xlink"><defs><path id="a" d="M0 0h75v75H0z"/></defs><g fill="none" fill-rule="evenodd"><path d="M50.96 22.688L22.69 50.961a.955.955 0 0 0 1.35 1.351l28.27-28.274a.954.954 0 1 0-1.35-1.35m-22.504.365a4.733 4.733 0 0 1 3.357-1.387c1.217 0 2.435.462 3.361 1.387a4.76 4.76 0 0 1 0 6.718 4.76 4.76 0 0 1-6.718 0 4.76 4.76 0 0 1 0-6.718m3.357 10.016c1.705 0 3.413-.65 4.711-1.948 2.597-2.595 2.597-6.817 0-9.418a6.67 6.67 0 0 0-9.418 0c-2.596 2.6-2.596 6.823 0 9.419a6.638 6.638 0 0 0 4.707 1.947m14.731 18.877a4.758 4.758 0 0 1-6.718 0 4.752 4.752 0 0 1 0-6.718 4.74 4.74 0 0 1 3.36-1.386c1.216 0 2.433.461 3.358 1.386a4.752 4.752 0 0 1 0 6.718m-8.068-8.067c-2.596 2.595-2.596 6.822 0 9.418a6.647 6.647 0 0 0 4.71 1.947 6.64 6.64 0 0 0 4.708-1.947c2.596-2.596 2.596-6.823 0-9.418-2.596-2.597-6.823-2.597-9.418 0" fill="#FFF"/><mask id="b" fill="#fff"><use xlink:href="#a"/></mask><path d="M37.5 73.09c-19.624 0-35.59-15.966-35.59-35.59 0-19.623 15.966-35.59 35.59-35.59 19.624 0 35.59 15.967 35.59 35.59 0 19.624-15.966 35.59-35.59 35.59M37.5 0C16.823 0 0 16.822 0 37.5S16.823 75 37.5 75C58.178 75 75 58.178 75 37.5S58.178 0 37.5 0" fill="#FFF" mask="url(#b)"/></g></svg>