<svg width="75" height="75" xmlns="http://www.w3.org/2000/svg" xmlns:xlink="http://www.w3.org/1999/xlink"><defs><path id="a" d="M0 75h75V0H0z"/></defs><g fill="none" fill-rule="evenodd"><path d="M13.704 43.767l3.357-.448c.384 1.902 1.04 3.27 1.97 4.114.925.836 2.05 1.257 3.383 1.257 1.578 0 2.913-.548 4.002-1.641 1.086-1.093 1.63-2.451 1.63-4.065 0-1.541-.503-2.813-1.51-3.817-1.008-1-2.287-1.5-3.843-1.5-.634 0-1.425.124-2.368.374l.373-2.947c.224.027.402.037.54.037 1.43 0 2.716-.373 3.862-1.12 1.145-.744 1.715-1.893 1.715-3.45 0-1.23-.418-2.248-1.25-3.058-.831-.81-1.91-1.212-3.225-1.212-1.306 0-2.396.41-3.265 1.23-.868.822-1.428 2.053-1.678 3.694l-3.357-.596c.41-2.25 1.343-3.996 2.798-5.23 1.454-1.238 3.263-1.858 5.427-1.858 1.492 0 2.865.32 4.122.963 1.256.637 2.215 1.51 2.88 2.618.666 1.108.999 2.283.999 3.525a5.77 5.77 0 0 1-.952 3.227c-.633.969-1.574 1.74-2.816 2.312 1.615.373 2.872 1.149 3.768 2.32.895 1.179 1.342 2.648 1.342 4.413 0 2.387-.87 4.413-2.61 6.069-1.742 1.663-3.943 2.49-6.603 2.49-2.398 0-4.394-.715-5.975-2.143-1.59-1.43-2.492-3.283-2.716-5.558" fill="#FFF"/><mask id="b" fill="#fff"><use xlink:href="#a"/></mask><path fill="#FFF" mask="url(#b)" d="M34.48 50.983h3.823V47.16H34.48zm7.7-7.161l3.523-.299c.262 1.716.866 3.008 1.821 3.872.947.862 2.096 1.294 3.44 1.294 1.614 0 2.984-.606 4.102-1.827 1.12-1.22 1.678-2.834 1.678-4.85 0-1.913-.537-3.422-1.61-4.53-1.079-1.108-2.485-1.66-4.226-1.66-1.083 0-2.06.245-2.929.733-.869.495-1.555 1.132-2.05 1.914l-3.153-.41 2.648-14.043H59.02v3.208H48.11l-1.474 7.348c1.642-1.146 3.364-1.717 5.166-1.717 2.388 0 4.401.829 6.043 2.482 1.642 1.651 2.462 3.778 2.462 6.378 0 2.472-.72 4.614-2.163 6.416-1.754 2.212-4.149 3.32-7.18 3.32-2.489 0-4.518-.697-6.089-2.09-1.573-1.392-2.472-3.236-2.696-5.538"/><path d="M37.498 1.91C17.875 1.91 1.91 17.877 1.91 37.501c0 19.623 15.965 35.588 35.588 35.588 19.624 0 35.593-15.965 35.593-35.588 0-19.624-15.97-35.593-35.593-35.593m0 73.091C16.823 75 0 58.178 0 37.502 0 16.822 16.823 0 37.498 0 58.178 0 75 16.822 75 37.502 75 58.178 58.178 75 37.498 75" fill="#FFF" mask="url(#b)"/></g></svg>