<svg width="75" height="75" xmlns="http://www.w3.org/2000/svg" xmlns:xlink="http://www.w3.org/1999/xlink"><defs><path id="a" d="M0 75h75V0H0z"/></defs><g fill="none" fill-rule="evenodd"><path d="M25.414 50.993h-3.357V29.601c-.809.772-1.869 1.54-3.182 2.313-1.309.772-2.487 1.35-3.532 1.734v-3.245c1.876-.884 3.517-1.95 4.924-3.208 1.406-1.257 2.398-2.473 2.984-3.655h2.163v27.453z" fill="#FFF"/><mask id="b" fill="#fff"><use xlink:href="#a"/></mask><path fill="#FFF" mask="url(#b)" d="M30.663 50.993h3.823V47.17h-3.823zm7.851-7.162l3.525-.298c.261 1.716.865 3.006 1.82 3.872.947.862 2.096 1.294 3.44 1.294 1.614 0 2.984-.608 4.102-1.828 1.12-1.22 1.68-2.834 1.68-4.849 0-1.913-.538-3.423-1.612-4.532-1.078-1.107-2.485-1.66-4.226-1.66-1.083 0-2.06.247-2.928.735-.87.493-1.555 1.13-2.051 1.913l-3.153-.41 2.649-14.043h13.596v3.207h-10.91l-1.474 7.35c1.642-1.147 3.364-1.717 5.166-1.717 2.388 0 4.401.828 6.043 2.481 1.642 1.652 2.462 3.778 2.462 6.378 0 2.473-.72 4.614-2.163 6.416-1.755 2.212-4.148 3.32-7.181 3.32-2.489 0-4.517-.698-6.087-2.089-1.575-1.392-2.474-3.238-2.698-5.54"/><path d="M37.5 1.91c-19.624 0-35.59 15.968-35.59 35.592 0 19.623 15.966 35.588 35.59 35.588 19.624 0 35.59-15.965 35.59-35.588C73.09 17.878 57.124 1.91 37.5 1.91m0 73.09C16.823 75 0 58.178 0 37.502 0 16.822 16.823 0 37.5 0 58.178 0 75 16.822 75 37.502 75 58.178 58.178 75 37.5 75" fill="#FFF" mask="url(#b)"/></g></svg>