<svg width="142" height="75" xmlns="http://www.w3.org/2000/svg" xmlns:xlink="http://www.w3.org/1999/xlink"><defs><path id="a" d="M0 0h141.4v75H.001z"/></defs><g fill="none" fill-rule="evenodd"><path d="M62.586 29.7l-24.742-9.479a.966.966 0 0 0-.698.004l-24.74 9.897a.956.956 0 0 0 0 1.775l9.193 3.674v9.636c0 .525.428.954.954.954a.957.957 0 0 0 .955-.954v-10.28a.956.956 0 0 0-.6-.889l-7.576-3.028 22.176-8.872 22.16 8.491-22.175 9.24-5.935-2.373a.97.97 0 0 0-1.242.533.96.96 0 0 0 .534 1.242l6.296 2.52a.96.96 0 0 0 .72-.009l13.627-5.679v9.104c0 1.611-5.45 3.95-13.992 3.95-2.533 0-5.021-.217-7.196-.623-.55-.112-1.018.25-1.115.765a.956.956 0 0 0 .764 1.115c2.29.425 4.898.652 7.547.652 7.9 0 15.9-2.013 15.9-5.859V35.31l9.207-3.839a.952.952 0 0 0-.022-1.77" fill="#FFF"/><path d="M37.813 29.838a.952.952 0 0 0-1.302-.354l-10.784 6.155a.95.95 0 0 0-.48.828v17.42c0 .526.428.955.954.955a.957.957 0 0 0 .955-.955V37.023L37.46 31.14a.954.954 0 0 0 .354-1.302" fill="#FFF"/><mask id="b" fill="#fff"><use xlink:href="#a"/></mask><path d="M103.9 73.09c-14.17 0-26.428-8.325-32.15-20.34a37.264 37.264 0 0 0 3.254-15.25 37.28 37.28 0 0 0-3.254-15.251c5.722-12.013 17.98-20.34 32.15-20.34 19.625 0 35.59 15.966 35.59 35.59 0 19.626-15.965 35.59-35.59 35.59m-66.4 0c-19.624 0-35.59-15.964-35.59-35.59 0-19.624 15.966-35.59 35.59-35.59 14.17 0 26.43 8.327 32.154 20.34.38.8.726 1.617 1.048 2.446A35.4 35.4 0 0 1 73.094 37.5a35.4 35.4 0 0 1-2.392 12.805 36.23 36.23 0 0 1-1.048 2.445C63.93 64.765 51.67 73.09 37.5 73.09M103.9 0C89.505 0 76.985 8.159 70.702 20.09 64.419 8.16 51.898 0 37.5 0 16.824 0 0 16.823 0 37.5S16.824 75 37.5 75c14.397 0 26.918-8.16 33.2-20.091 6.284 11.932 18.804 20.09 33.199 20.09 20.676 0 37.5-16.822 37.5-37.5 0-20.676-16.824-37.5-37.5-37.5" fill="#FFF" mask="url(#b)"/><path d="M123.326 48.747c0 1.23-1 2.23-2.23 2.23H86.702c-1.23 0-2.23-1-2.23-2.23V29.44c0-1.23 1-2.23 2.23-2.23h34.394c1.23 0 2.23 1.003 2.23 2.233v19.305zm-2.23-23.448H86.702a4.145 4.145 0 0 0-4.14 4.14v19.308a4.147 4.147 0 0 0 4.14 4.141h34.394a4.147 4.147 0 0 0 4.14-4.14V29.441a4.146 4.146 0 0 0-4.14-4.143z" fill="#FFF"/><path d="M120.279 33.587l-16.29 3.932-16.473-3.936a.95.95 0 0 0-1.149.709.954.954 0 0 0 .709 1.149l16.469 3.935c.146.034.298.053.455.053.075 0 .384-.034.459-.053l16.267-3.932a.954.954 0 1 0-.447-1.857M97.882 23.72a.957.957 0 0 0 .956-.954v-1.68c0-.79.645-1.435 1.436-1.435h7.251c.791 0 1.436.645 1.436 1.436v1.679c0 .526.43.955.956.955a.957.957 0 0 0 .954-.955v-1.68c0-1.845-1.5-3.344-3.346-3.344h-7.252a3.347 3.347 0 0 0-3.346 3.345v1.679c0 .526.43.955.955.955" fill="#FFF"/></g></svg>