<svg width="75" height="75" xmlns="http://www.w3.org/2000/svg" xmlns:xlink="http://www.w3.org/1999/xlink"><defs><path id="a" d="M0 75h75V0H0z"/></defs><g fill="none" fill-rule="evenodd"><path d="M16.7 44.445c.46-.48 1.492-1.398 3.104-2.753 1.928-1.63 3.308-2.913 4.14-3.85.832-.935 1.425-1.823 1.783-2.669a6.57 6.57 0 0 0 .537-2.582c0-1.719-.612-3.164-1.835-4.327-1.223-1.164-2.883-1.746-4.984-1.746-2.077 0-3.733.541-4.968 1.62-1.234 1.078-1.943 2.648-2.133 4.706l2.76.284c.011-1.372.403-2.447 1.178-3.223.776-.775 1.81-1.163 3.104-1.163 1.223 0 2.215.365 2.976 1.097.762.73 1.142 1.63 1.142 2.692 0 1.015-.418 2.093-1.253 3.23-.836 1.138-2.444 2.682-4.82 4.633-1.533 1.253-2.704 2.358-3.513 3.313-.81.955-1.399 1.925-1.769 2.91a4.785 4.785 0 0 0-.312 1.864h14.457v-2.58H15.566a8.664 8.664 0 0 1 1.134-1.456" fill="#FFF"/><mask id="b" fill="#fff"><use xlink:href="#a"/></mask><path fill="#FFF" mask="url(#b)" d="M28.121 41.647h16.994v-2.163H28.121z"/><path d="M37.5 73.09c-19.624 0-35.59-15.966-35.59-35.59 0-19.624 15.966-35.59 35.59-35.59 19.624 0 35.59 15.966 35.59 35.59 0 19.624-15.966 35.59-35.59 35.59M37.5 0C16.822 0 0 16.822 0 37.5S16.822 75 37.5 75 75 58.178 75 37.5 58.178 0 37.5 0" fill="#FFF" mask="url(#b)"/><path d="M58.702 36.613c.991-.455 1.742-1.07 2.248-1.846.506-.774.76-1.632.76-2.576 0-.99-.266-1.93-.799-2.813-.529-.885-1.295-1.582-2.299-2.09-1.003-.514-2.099-.77-3.29-.77-1.727 0-3.172.494-4.333 1.484-1.16.985-1.906 2.38-2.233 4.174l2.68.477c.2-1.31.646-2.293 1.34-2.948.694-.655 1.563-.983 2.606-.983 1.05 0 1.911.322 2.575.968.664.646.998 1.46.998 2.442 0 1.242-.456 2.16-1.37 2.754-.914.596-1.942.894-3.082.894-.11 0-.253-.01-.432-.03l-.298 2.352c.754-.199 1.385-.298 1.891-.298 1.242 0 2.264.4 3.067 1.198.805.8 1.206 1.816 1.206 3.046 0 1.29-.434 2.374-1.3 3.246-.87.873-1.936 1.31-3.196 1.31-1.063 0-1.963-.337-2.7-1.004-.742-.673-1.267-1.765-1.573-3.284l-2.68.358c.18 1.816.9 3.295 2.167 4.436 1.263 1.141 2.857 1.713 4.771 1.713 2.124 0 3.88-.66 5.271-1.989 1.391-1.323 2.084-2.94 2.084-4.846 0-1.408-.357-2.58-1.07-3.522-.716-.935-1.72-1.555-3.009-1.853" fill="#FFF" mask="url(#b)"/></g></svg>