<svg width="31" height="46" xmlns="http://www.w3.org/2000/svg" xmlns:xlink="http://www.w3.org/1999/xlink"><defs><path id="a" d="M0 0h30.522v45.863H0z"/></defs><g fill="none" fill-rule="evenodd"><path d="M15.51 9.563h-.006a5.625 5.625 0 0 0-4.086 1.479 5.686 5.686 0 0 0-1.861 4.455 5.699 5.699 0 0 0 5.703 5.474l.24-.006a5.67 5.67 0 0 0 3.965-1.839 5.683 5.683 0 0 0 1.504-4.105 5.68 5.68 0 0 0-5.46-5.458" fill="#FAB31E"/><mask id="b" fill="#fff"><use xlink:href="#a"/></mask><path d="M21.23 20.75a8.053 8.053 0 0 1-5.97 2.62 8.09 8.09 0 0 1-8.1-8.45 8.075 8.075 0 0 1 2.639-5.65 8.016 8.016 0 0 1 5.817-2.104 8.066 8.066 0 0 1 7.75 7.753 8.06 8.06 0 0 1-2.136 5.832m4.354-16.734A15.19 15.19 0 0 0 14.602.016C6.623.362.348 6.638 0 14.7a15.956 15.956 0 0 0 2.175 7.856c1.266 2.219 11.687 20.804 11.687 20.805l1.402 2.5 1.402-2.502c.101-.187 10.459-18.69 11.675-20.794a15.83 15.83 0 0 0 2.181-7.952 15.17 15.17 0 0 0-4.938-10.597" fill="#FAB31E" mask="url(#b)"/></g></svg>