<svg xmlns="http://www.w3.org/2000/svg" viewBox="0 0 16 16"><path fill="#fff" d="M10.7 8c0-1.5-1.2-2.7-2.7-2.7S5.3 6.5 5.3 8s1.2 2.7 2.7 2.7 2.7-1.2 2.7-2.7zm1.4 0c0 2.3-1.8 4.1-4.1 4.1S3.9 10.3 3.9 8 5.7 3.9 8 3.9s4.1 1.8 4.1 4.1zm1.1-4.3c0 .5-.4 1-1 1-.5 0-1-.4-1-1s.4-1 1-1c.6.1 1 .5 1 1zM8 1.4c-1.2 0-3.7-.1-4.7.3-.4.2-.7.4-.9.7-.3.2-.5.5-.6.9-.5 1-.4 3.5-.4 4.7s-.1 3.7.3 4.7c.1.4.3.6.6.9.3.3.6.5.9.6 1.1.4 3.6.3 4.7.3s3.7.1 4.7-.3c.4-.1.6-.3.9-.6.3-.3.5-.6.6-.9.4-1.1.3-3.6.3-4.7s.1-3.7-.3-4.7c-.1-.4-.3-.6-.6-.9s-.6-.5-.9-.6c-.9-.5-3.4-.4-4.6-.4zM16 8c0 1.1 0 2.2-.1 3.3-.1 1.3-.4 2.4-1.3 3.4-.9.9-2.1 1.2-3.4 1.3H8c-1.1 0-2.2 0-3.3-.1-1.3-.1-2.4-.4-3.4-1.3-.9-.9-1.2-2.1-1.3-3.4V8c0-1.1 0-2.2.1-3.3.1-1.3.4-2.4 1.3-3.4S3.5.1 4.8 0H8c1.1 0 2.2 0 3.3.1 1.3.1 2.4.4 3.4 1.3.9.9 1.2 2.1 1.3 3.4V8z"/></svg>