<svg width="245" height="64" xmlns="http://www.w3.org/2000/svg" xmlns:xlink="http://www.w3.org/1999/xlink"><defs><path id="a" d="M0 64h244.212V.123H0z"/></defs><g fill="none" fill-rule="evenodd"><path fill="#000" d="M0 51h5V29H0zm10 0h5V29h-5zm10 0h5V29h-5zM0 24h30v-5H0zm23.9-10.815a3.48 3.48 0 0 1 3.474-3.48 3.476 3.476 0 0 1 3.473 3.48 3.475 3.475 0 0 1-3.473 3.476 3.478 3.478 0 0 1-3.475-3.476m50.003 3.018c.056-1.887-1.42-2.849-2.871-2.936-1.41-.103-3.608-.056-3.608-.056v6.503s1.127 0 1.93-.015c2.342-.062 4.467-.828 4.55-3.496m12.271 2.219c-3.098-.103-3.407 3.44-3.407 3.44h6.31s.334-3.333-2.903-3.44M70.256 21.89c-1.101-.092-2.835-.024-2.835-.024v7.124s1.512.052 2.475.01c2.82-.123 4.508-1.485 4.384-3.717-.128-2.185-1.673-3.193-4.024-3.392"/><path d="M39.94.123v19.33h14.698v4.904H29.916V50.35h4.74V28.96h5.285v21.39h4.749V28.96h5.203v21.39h4.745v-9.665h95.653V.123H39.941zm77.504 10.61a1.943 1.943 0 1 1 0 3.887 1.94 1.94 0 0 1-1.93-1.943 1.94 1.94 0 0 1 1.93-1.943zm-47.98 20.574h-7.509v-1.599l2.475-.468V12.99s-.447-.052-1.353-.174c-.674-.094-1.122-.222-1.122-.222v-1.65s1.327.026 2.846.046c1.523.021 2.84-.097 4.698-.097 3.447 0 7.194.478 7.38 4.812.154 3.748-3.587 4.842-3.587 4.842s4.183.566 4.044 4.982c-.195 6.2-7.872 5.778-7.872 5.778zm22.472-7.29h-9.371s-.504 5.378 4.38 5.301c2.5-.041 4.363-.885 4.363-.885v2.221s-2.29.848-4.03.936c-1.919.082-3.88-.365-4.842-1.013-2.352-1.578-2.763-4.678-2.733-6.493.042-2.206.654-7.47 6.536-7.603 6.628-.155 5.697 7.536 5.697 7.536zm11.377-4.641s-2.15-.438-3.18.662c-1.462 1.552-1.338 4.683-1.338 4.683v6.586h-2.85V18.841l-2.42-.315V16.97s1.477-.1 2.42-.13c1.075-.046 2.773-.046 2.773-.046v2.843s.35-1.691 1.564-2.442c1.297-.786 3.031-.554 3.031-.554v2.735zm8.23 11.931h-7.803v-1.599l2.435-.39V11.962s-.7-.112-1.159-.164c-.488-.062-1.276-.134-1.276-.134v-1.502s1.77-.112 2.903-.128c.957-.02 2.45 0 2.45 0v19.284l2.45.39v1.6zm10.023 0h-7.909v-1.599l2.485-.39V18.881l-2.485-.333V17.01a40.11 40.11 0 0 1 2.485-.164c1.245-.052 2.193-.093 2.815-.052v12.524l2.61.39v1.6zm16.333-10.37v10.37h-2.907V21.251s.149-2.755-2.357-2.6c-2.135.133-3.175 1.65-3.653 2.991-.473 1.399-.35 2.715-.35 2.715v6.95h-2.877v-12.44l-2.434-.294v-1.532s1.112-.103 2.681-.195c1.616-.088 2.63-.052 2.63-.052v2.617s.915-2.966 5.634-2.77c3.86.153 3.633 4.297 3.633 4.297zm-75.616 34.6h-1.497v5.505H58.96v-5.505h-1.132V54h1.132v-1.616c0-1.551.998-2.185 2.342-2.185.601 0 1.08.012 1.461.042v1.547c-.309-.025-.68-.052-1.04-.052-.55 0-.936.078-.936.885V54h1.497v1.536zm3.058 5.648c-1.425 0-1.986-.858-1.986-2.226v-4.956h1.832v4.607c0 .632.278.93.633.93.566 0 1.142-.345 1.482-.525v-5.012h1.832v7.044h-1.58l-.144-.844c-.53.473-1.364.982-2.069.982m-.664-10.174a1.046 1.046 0 0 1 0 2.093 1.046 1.046 0 1 1 0-2.093m3.186 0c.581 0 1.044.468 1.044 1.05a1.042 1.042 0 1 1-2.084 0c0-.582.464-1.05 1.04-1.05m7.783 4.782a4.187 4.187 0 0 0-.86-.087c-.679 0-1.44.267-1.708.437v4.9h-1.832V54h1.58l.13.766c.276-.314 1.377-.905 2.098-.905.237 0 .392.015.592.045v1.887zm10.528 5.251L85.3 56.81c-.253-1.09-.453-3.86-.469-4.031-.026.262-.35 2.972-.576 4.056l-.818 4.21h-2.398s-.69-2.21-.819-4.235l-.164-5.624h2.002l-.032 5.624c.016.786.227 2.698.227 2.698s.139-1.984.308-2.673l1.174-5.65h2.285l1.039 5.625c.185.77.298 2.698.298 2.698s.31-1.824.31-2.745l.103-5.577h2.012l-.366 5.624c-.129 1.897-.834 4.235-.834 4.235h-2.408zm6.211-10.421c.664 0 1.2.534 1.2 1.193a1.2 1.2 0 0 1-1.2 1.203 1.2 1.2 0 0 1-1.199-1.203c0-.659.535-1.193 1.2-1.193zm-.916 10.42h1.832V54H91.47v7.043zm8.346-5.25a4.187 4.187 0 0 0-.86-.087c-.678 0-1.44.267-1.708.437v4.9h-1.832V54h1.58l.129.766c.277-.314 1.379-.905 2.099-.905a3.6 3.6 0 0 1 .592.045v1.887zm5.495 5.267c-.426.088-.9.124-1.508.124-1.383 0-2.043-.7-2.043-2.155v-3.49h-1.131V54h1.131v-2.817h1.833V54h1.718v1.537h-1.718v3.167c0 .735.283.905.818.905.278 0 .592-.03.9-.087v1.537zm5.652-5.482c-.453-.098-1.271-.236-1.75-.236-.664 0-.844.323-.844.59 0 .268.129.52.536.673l.843.346c1.112.436 1.611 1.027 1.611 2.097 0 1.069-.664 2.138-2.64 2.138-.592 0-1.549-.144-2.28-.313v-1.63c.747.196 1.534.406 2.167.406.638 0 .808-.334.808-.575 0-.391-.273-.618-.638-.761l-.916-.365c-.788-.298-1.42-.978-1.42-1.99 0-1.264.787-2.097 2.465-2.097.689 0 1.595.123 2.058.195v1.522zm6.327 5.381c-.407.14-1.21.227-1.848.227-1.8 0-3.03-1.296-3.03-3.363 0-2.23.946-3.964 3.345-3.964.308 0 .91.103 1.507.227v1.578c-.622-.164-1.245-.268-1.652-.268-.818 0-1.255.756-1.255 2.2 0 1.507.421 1.98 1.127 1.98.597 0 1.297-.092 1.806-.278v1.661zm3.452-6.436a.82.82 0 0 1-.026.18l.037.031c.37-.35 1.245-.874 2.135-.874 1.194 0 1.801.694 1.801 2.005v5.182h-1.832V56.44c0-.647-.195-.818-.68-.818-.39 0-1.023.252-1.435.52v4.904h-1.832V50.344h1.832v4.18zm9.415 5.678c-.185.319-.834.983-1.734.983-1.127 0-2.017-.828-2.017-2.206 0-1.326.848-2.272 2.381-2.272h1.257v-.576c0-.648-.154-.736-.947-.736-.674 0-1.832.252-2.126.37v-1.567c.294-.098 1.477-.334 2.538-.334 1.693 0 2.366.406 2.366 2.04v5.142h-1.58l-.138-.844zm-.989-2.298c-.575 0-.843.453-.843.906 0 .38.21.786.746.786.406 0 .833-.283.973-.365v-1.327h-.876zm8.643-2.366h-1.498v5.505h-1.832v-5.505h-1.127V54h1.127v-1.616c0-1.551 1.003-2.185 2.342-2.185.606 0 1.085.012 1.466.042v1.547a13.11 13.11 0 0 0-1.045-.052c-.55 0-.93.078-.93.885V54h1.496v1.536z" fill="#000"/><path d="M142.333 61.06c-.427.088-.9.124-1.508.124-1.385 0-2.043-.7-2.043-2.155v-3.49h-1.132V54h1.132v-2.817h1.832V54h1.719v1.537h-1.719v3.167c0 .735.283.905.818.905.278 0 .592-.03.9-.087v1.537zm6.947.125c-1.425 0-1.986-.858-1.986-2.226v-4.956h1.832v4.607c0 .632.278.93.632.93.567 0 1.143-.345 1.483-.525v-5.012h1.831v7.044h-1.58l-.143-.844c-.53.473-1.365.982-2.07.982m7.61-6.42c.365-.35 1.384-.906 2.27-.906 1.198 0 1.805.695 1.805 2v5.188h-1.831V56.44c0-.648-.201-.817-.68-.817-.391 0-1.03.251-1.435.525v4.9h-1.832v-7.044h1.579l.124.76zm11.573 6.279h-1.58l-.138-.843c-.372.32-1.23.983-2.116.983-1.224 0-2.017-.957-2.017-3.45 0-2.889 1.127-3.872 2.496-3.872.828 0 1.353.49 1.595.87L166.63 54v-3.66h1.832v10.703zm-1.832-5.125c-.258-.2-.622-.482-1.003-.482-.649 0-1.04.647-1.04 2.03 0 1.213.098 2.056.7 2.056.396 0 1.076-.35 1.343-.494v-3.11zm11.049 5.125h-1.93v-8.266h-2.43v-1.593h6.798v1.593h-2.438zm7.454-.381c-.68.282-1.322.524-2.367.524-2.115 0-3.077-1.368-3.077-3.341 0-3.002 1.498-3.984 2.98-3.984 1.58 0 2.691.694 2.691 2.282 0 2.015-1.75 2.185-3.005 2.185h-.747c0 .787.438 1.28 1.297 1.28.819 0 1.549-.258 2.228-.51v1.564zm-2.789-3.532c.732 0 1.169-.323 1.169-1.018 0-.545-.253-.827-.803-.827-.803 0-1.143.956-1.143 1.845h.777zm9.018 3.828c-.41.14-1.213.227-1.847.227-1.8 0-3.03-1.296-3.03-3.363 0-2.23.941-3.964 3.34-3.964.312 0 .915.103 1.512.227v1.578c-.623-.164-1.245-.268-1.651-.268-.82 0-1.257.756-1.257 2.2 0 1.507.423 1.98 1.128 1.98.592 0 1.296-.092 1.805-.278v1.661zm3.453-6.436a.82.82 0 0 1-.026.18l.037.031c.37-.35 1.244-.874 2.135-.874 1.193 0 1.801.694 1.801 2.005v5.182h-1.832V56.44c0-.647-.196-.818-.68-.818-.39 0-1.023.252-1.435.52v4.904h-1.832V50.344h1.832v4.18zm7.722.242c.365-.35 1.384-.906 2.27-.906 1.198 0 1.805.695 1.805 2v5.188h-1.831V56.44c0-.648-.201-.817-.68-.817-.391 0-1.03.251-1.435.525v4.9h-1.832v-7.044h1.579l.124.76zm11.953 2.605c0 2.452-1.07 3.814-3.145 3.814-1.93 0-3.16-1.28-3.16-3.532 0-2.313 1.215-3.794 3.202-3.794 2.032 0 3.102 1.214 3.102 3.511m-4.359.227c0 1.404.453 2.041 1.189 2.041.772 0 1.225-.591 1.225-2.226 0-1.28-.31-2.015-1.157-2.015-.902 0-1.257.817-1.257 2.2" fill="#000"/><mask id="b" fill="#fff"><use xlink:href="#a"/></mask><path fill="#000" mask="url(#b)" d="M216.11 61.046h1.833V50.343h-1.832zm9.754-3.676c0 2.452-1.07 3.814-3.144 3.814-1.93 0-3.16-1.28-3.16-3.532 0-2.313 1.215-3.794 3.201-3.794 2.033 0 3.103 1.214 3.103 3.511m-4.358.227c0 1.404.453 2.041 1.184 2.041.776 0 1.229-.591 1.229-2.226 0-1.28-.308-2.015-1.158-2.015-.9 0-1.255.817-1.255 2.2m11.728-3.595v2.72c0 1.999-1.482 2.575-2.903 2.575h-.848c-.381 0-.52.17-.52.396 0 .21.154.355.52.355h1.595c1.492 0 2.326.688 2.326 1.83 0 1.521-1.199 2.124-3.257 2.124-2.44 0-3.232-.844-3.232-1.785 0-.987.777-1.44 1.132-1.522-.258-.128-.51-.493-.51-.96 0-.454.366-.958 1.014-1.04-.293-.076-1.199-.73-1.199-2.189 0-1.702 1.132-2.643 2.496-2.643.865 0 1.456.504 1.677.874l.13-.735h1.579zm-3.736 7.326c-.478 0-.592-.072-.72-.098-.113.057-.252.267-.252.617 0 .386.365.75 1.595.75 1.24 0 1.42-.313 1.42-.709 0-.293-.17-.56-.674-.56h-1.369zm1.904-4.2V55.83c-.144-.17-.69-.473-1.143-.473-.833 0-1.173.632-1.173 1.435 0 .72.308 1.434 1.159 1.434.648 0 1.157-.293 1.157-1.1zm4.607-6.504c.664 0 1.199.534 1.199 1.193a1.2 1.2 0 1 1-2.4 0c0-.659.536-1.193 1.2-1.193zm-.916 10.42h1.832V54h-1.832v7.043zm8.893-.38c-.673.282-1.322.524-2.367.524-2.116 0-3.077-1.368-3.077-3.341 0-3.002 1.496-3.984 2.978-3.984 1.581 0 2.693.694 2.693 2.282 0 2.015-1.75 2.185-3.006 2.185h-.746c0 .787.438 1.28 1.297 1.28.818 0 1.555-.258 2.228-.51v1.564zm-2.79-3.532c.731 0 1.17-.323 1.17-1.018 0-.545-.253-.827-.804-.827-.802 0-1.142.956-1.142 1.845h.777zM167.125 24.26h-2.346v8.448h-2.836v-20.56h4.812c3.915 0 6.571 1.913 6.571 6.036 0 3.83-2.44 6.076-6.2 6.076m-.927-9.798h-1.446v7.485h1.785c2.564 0 3.854-1.172 3.854-3.763 0-2.673-1.57-3.722-4.193-3.722m17.648 18.243l-.124-2.16c-1.05 1.636-2.192 2.499-4.163 2.499-2.531 0-4.353-1.912-4.353-4.406 0-4.133 4.076-5.27 7.436-5.27h1.019v-.925c0-2.005-.741-3.393-3.052-3.393-1.297 0-2.872.648-4.013 1.512l-.186-2.37c1.451-.714 2.743-1.209 4.564-1.209 3.798 0 5.275 2.006 5.275 5.214v7.15c0 1.26.093 2.309.16 3.358h-2.563zm-.185-7.583h-.495c-2.433 0-5.274.431-5.274 3.393 0 1.48.988 2.462 2.501 2.462 2.28 0 3.268-2.19 3.268-4.22v-1.635zm13.389-5.486c-.246-.03-.493-.092-.772-.092-2.315 0-3.206 2.555-3.206 4.53v8.63h-2.655V21.55c0-1.42-.092-2.838-.124-4.257h2.471l.062 2.442c.705-1.542 2.001-2.75 3.761-2.75.217 0 .432.061.649.092l-.186 2.56zm6.694 13.41c-2.372 0-3.303-1.512-3.303-3.702v-9.921h-2.218v-2.129h2.248v-3.393l2.625-.864v4.257h2.994v2.129h-2.994v9.274c0 1.203.092 2.128 1.543 2.128.494 0 .927-.185 1.39-.432l.18 2.22a7.658 7.658 0 0 1-2.465.433m13.175-.341v-10.39c0-1.63-.65-3.142-2.44-3.142-2.002 0-2.928 2.129-2.928 3.79v9.742h-2.656V21.549c0-1.42-.092-2.839-.123-4.257h2.465l.067 2.251c.71-1.418 2.125-2.56 4.01-2.56 3.142 0 4.26 2.437 4.26 5.245v10.477h-2.656zm8.668-7.029c0 2.53.896 5.3 3.979 5.3 1.233 0 2.624-.488 3.637-1.167l.19 2.375c-1.203.55-2.747.864-4.075.864-4.812 0-6.448-3.798-6.448-8.111 0-3.79 1.636-7.949 5.707-7.949 4.23 0 5.342 4.221 5.342 7.706v.982h-8.332zm2.99-6.688c-2.187 0-2.99 2.93-2.99 4.9h5.738c0-1.877-.494-4.9-2.748-4.9zm15.212.648c-.247-.03-.493-.092-.772-.092-2.315 0-3.206 2.555-3.206 4.53v8.63h-2.655V21.55c0-1.42-.093-2.838-.124-4.257h2.47l.062 2.442c.706-1.542 2.003-2.75 3.762-2.75.216 0 .432.061.648.092l-.185 2.56z"/></g></svg>