<svg xmlns="http://www.w3.org/2000/svg" viewBox="0 0 230.8 44"><path d="M30.1 16.2L29 21.5h5.3v6.8h-6.7L26.1 35h-7l1.4-6.7h-7.3L11.8 35H4.9l1.4-6.7H0v-6.8h7.8l1.1-5.3H2.7V9.4h7.7l1.4-6.6h6.9l-1.4 6.6h7.3L26 2.8h7l-1.4 6.6H37v6.8h-6.9zm-7 0h-7.3l-1.1 5.3H22l1.1-5.3zM54.9 35l-7.3-10.3V35h-7.4V2.8h7.4v17.7l7.3-9.7h8.7l-9.8 12.1 10 12.1h-8.9zM66.6 1.1C67.4.4 68.5 0 69.9 0c1.3 0 2.4.4 3.2 1.1.8.7 1.2 1.7 1.2 2.8 0 1.1-.4 2-1.2 2.8-.8.7-1.9 1.1-3.2 1.1-1.3 0-2.4-.4-3.2-1.1-.8-.7-1.2-1.7-1.2-2.8-.1-1.1.3-2.1 1.1-2.8zm7 9.6V35h-7.4V10.7h7.4zm31.2 26V44H77.9v-7.3h26.9zm24.7-24.8c1.6 1 2.8 2.4 3.7 4.3.9 1.9 1.4 4.1 1.4 6.6s-.5 4.7-1.4 6.6c-.9 1.9-2.2 3.3-3.7 4.3-1.6 1-3.4 1.5-5.4 1.5-1.9 0-3.5-.4-4.8-1.3-1.3-.8-2.3-2-2.9-3.4V35H109V2.8h7.4v12.3c.6-1.4 1.6-2.6 2.9-3.4 1.3-.8 2.9-1.3 4.8-1.3 2 0 3.8.5 5.4 1.5zm-11.6 6.7c-1 1.1-1.5 2.5-1.5 4.3 0 1.8.5 3.2 1.5 4.3 1 1.1 2.3 1.6 3.9 1.6s2.9-.5 3.9-1.6c1-1 1.5-2.5 1.5-4.4s-.5-3.3-1.5-4.4c-1-1-2.3-1.6-3.9-1.6-1.7.2-2.9.7-3.9 1.8zm43.2 5.6h-16.8c.1 1.8.6 3.1 1.4 3.9.8.8 1.9 1.2 3.2 1.2 1.1 0 2-.3 2.7-.8.7-.6 1.2-1.3 1.4-2.1h7.9c-.3 1.7-1 3.2-2.1 4.6-1.1 1.3-2.4 2.4-4.1 3.2-1.7.8-3.5 1.2-5.5 1.2-2.4 0-4.5-.5-6.3-1.5-1.8-1-3.3-2.4-4.3-4.3S137 25.5 137 23c0-2.6.5-4.8 1.5-6.6 1-1.9 2.5-3.3 4.3-4.3 1.9-1 4-1.5 6.4-1.5 2.4 0 4.5.5 6.4 1.5 1.8 1 3.2 2.4 4.2 4.2 1 1.8 1.5 3.8 1.5 6.2.1.3 0 1-.2 1.7zm-8.5-6.7c-.9-.8-2-1.2-3.3-1.2-1.4 0-2.5.4-3.4 1.2-.9.8-1.4 2-1.5 3.6h9.5c0-1.6-.5-2.8-1.3-3.6zm22.8-5.7c1.5-.9 3.1-1.3 4.8-1.3v8H178c-2 0-3.5.4-4.6 1.3-1.1.8-1.6 2.3-1.6 4.3V35h-7.4V10.7h7.4v4.6c.9-1.5 2.1-2.6 3.6-3.5zm15.4-9V35h-7.4V2.8h7.4zm4.5-1.7c.8-.7 1.9-1.1 3.2-1.1s2.4.4 3.2 1.1c.8.7 1.2 1.7 1.2 2.8 0 1.1-.4 2-1.2 2.8-.8.7-1.9 1.1-3.2 1.1s-2.4-.4-3.2-1.1c-.8-.7-1.2-1.7-1.2-2.8 0-1.1.4-2.1 1.2-2.8zm6.9 9.6V35h-7.4V10.7h7.4zm26.2 2.6c1.6 1.9 2.5 4.4 2.5 7.7v14h-7.4V21.8c0-1.6-.4-2.9-1.3-3.8-.9-.9-2-1.4-3.4-1.4-1.5 0-2.7.5-3.6 1.4-.9 1-1.3 2.3-1.3 4.1V35h-7.4V10.7h7.4v4.4c.7-1.4 1.7-2.6 3.1-3.4 1.4-.8 3-1.3 4.9-1.3 2.6.1 4.8 1 6.5 2.9z" fill="#fff"/></svg>