<svg xmlns="http://www.w3.org/2000/svg" viewBox="0 0 116 30"><path fill-rule="evenodd" clip-rule="evenodd" fill="#706F6F" d="M80.631 4.863h-2.406v10.211h1.26v-4.273h.844c2.123 0 3.256-1.055 3.256-3.045 0-.889-.287-1.603-.789-2.102-.532-.511-1.161-.791-2.165-.791zm-.429 1.051c1.291 0 2.062.557 2.062 1.959 0 1.145-.557 1.873-2.09 1.873h-.689V5.914h.717zm3.722 7.113c0 1.43.875 2.148 2.043 2.148 1.085 0 1.671-.539 1.989-1.113h.027l.066 1.012h1.059a11.506 11.506 0 01-.055-1.141v-3.895c0-1.053-.305-1.504-.611-1.826-.225-.234-.852-.701-1.891-.701-.696 0-1.419.219-2.003.611l.127 1.158c.4-.467 1.096-.775 1.819-.775.484 0 .945.129 1.182.465.223.324.264.647.264 1.205v.334h-.684c-2.429.001-3.332 1.065-3.332 2.518zm1.168-.089c0-.863.654-1.547 2.028-1.547.32-.002.613 0 .82.023v.939c0 1.022-.641 1.887-1.655 1.887-.802 0-1.193-.515-1.193-1.302zm6.689-5.327h-1.164c.016.527.059 1.072.059 1.609v5.854h1.203v-3.951c0-1.625.66-2.439 1.594-2.439.154 0 .314-.018.455.012V7.541c-1.072 0-1.691.332-2.074 1.242h-.034l-.039-1.172zm3.937 0h-1.133v1h1.133v4.795c0 1.312.586 1.77 1.689 1.77a3.3 3.3 0 001.016-.191v-.995c-.229.103-.443.186-.744.186-.543 0-.76-.314-.76-1.166V8.611h1.504v-1h-1.504V5.787l-1.201.365v1.459zm5.022 0h-1.186c.014.527.059 1.072.059 1.609v5.854h1.229v-4.49c0-1.348.613-2.02 1.578-2.02.791 0 1.228.512 1.228 1.695v4.814h1.228V9.898c0-1.644-.875-2.387-2.176-2.387-.863 0-1.492.361-1.888 1.215l-.028-.002-.044-1.113zm5.44 3.731c0 2.344 1.024 3.834 2.997 3.834.744 0 1.505-.164 2.091-.439l-.062-1.113c-.422.309-1.092.617-1.709.617-1.358 0-2.031-.803-2.031-2.533h4.207v-.656c0-2.195-.932-3.539-2.614-3.539-1.854-.001-2.879 1.489-2.879 3.829zm1.286-.569c.031-1.742.73-2.328 1.521-2.328.977 0 1.461.775 1.461 2.328h-2.982zm6.68-3.162h-1.16c.01.527.057 1.072.057 1.609v5.854h1.205v-3.951c0-1.625.658-2.439 1.59-2.439.156 0 .313-.018.457.012V7.541c-1.074 0-1.692.332-2.078 1.242h-.03l-.041-1.172z"/><path fill-rule="evenodd" clip-rule="evenodd" fill="#E40521" d="M11.913 13.932H9.644v10.3h2.269v-10.3zm-4.785 0H4.859v10.3h2.269v-10.3zm-4.784 0H.076v10.3h2.268v-10.3zM14.855 6.41a1.665 1.665 0 10-3.33-.002 1.665 1.665 0 003.33.002z"/><path fill-rule="evenodd" clip-rule="evenodd" fill="#E40521" d="M72.079 19.596V.148H19.212v9.27h7.037v2.346H14.41V9.418H.076v2.346h14.329v12.468h2.274V13.976h2.533v10.256h2.269V13.976h2.496v10.256h2.272v-4.636h45.83z"/><path fill-rule="evenodd" clip-rule="evenodd" fill="#706F6F" d="M30.141 26.703h-.726v2.68h-.891v-2.68h-.548v-.746h.548v-.789c0-.752.487-1.068 1.137-1.068.295 0 .528.014.713.027v.754a5.568 5.568 0 00-.507-.027c-.268 0-.453.041-.453.432v.672h.726v.745h.001zm2.85-2.336a.507.507 0 110 1.014.507.507 0 010-1.014zm-1.549 0a.506.506 0 110 1.014.506.506 0 110-1.014zm.323 5.09c-.692 0-.966-.424-.966-1.088v-2.412h.891v2.24c0 .309.137.451.308.451.274 0 .555-.164.72-.252v-2.44h.89v3.426h-.768l-.068-.412c-.261.235-.666.487-1.007.487zm4.869-2.631a2.242 2.242 0 00-.417-.041c-.329 0-.699.131-.829.213v2.385h-.891v-3.426h.768l.061.369c.137-.15.671-.445 1.021-.445.116 0 .192.014.287.027v.918zm4.912 2.557l-.424-2.062c-.123-.527-.219-1.877-.227-1.959-.014.129-.171 1.445-.28 1.973l-.397 2.049h-1.165s-.337-1.076-.398-2.062l-.083-2.734h.973l-.013 2.734c.007.383.109 1.314.109 1.314s.069-.965.151-1.301l.569-2.748h1.109l.507 2.734c.089.377.144 1.314.144 1.314s.151-.891.151-1.336l.047-2.713h.98l-.178 2.734c-.063.924-.404 2.062-.404 2.062h-1.171v.001zm3.294 0h-.89v-3.426h.891v3.426h-.001zm-.445-5.073a.584.584 0 11-.002 1.168.584.584 0 01.002-1.168zm3.439 2.516a2.233 2.233 0 00-.417-.041 1.88 1.88 0 00-.829.213v2.385h-.891v-3.426h.768l.062.369c.136-.15.671-.445 1.021-.445.117 0 .192.014.288.027v.918h-.002zm2.706 2.563a3.668 3.668 0 01-.734.068c-.672 0-.993-.35-.993-1.055v-1.699h-.549v-.746h.549v-1.365l.891-.006v1.371h.796v.746h-.795v1.541c0 .356.137.438.398.438.136 0 .287-.012.438-.039v.746h-.001zm2.884-2.666c-.219-.047-.617-.115-.849-.115-.322 0-.411.156-.411.287 0 .131.061.254.26.328l.41.164c.542.213.781.502.781.988 0 .555-.321 1.082-1.281 1.082-.287 0-.753-.074-1.109-.158v-.793c.363.094.746.197 1.054.197.309 0 .391-.164.391-.279 0-.193-.13-.303-.308-.371l-.445-.178c-.384-.145-.691-.473-.691-.967 0-.615.384-1.027 1.199-1.027.336 0 .774.068 1 .104v.738h-.001zM56.5 29.34c-.199.07-.589.117-.897.117-.877 0-1.473-.637-1.473-1.644 0-1.082.459-1.932 1.623-1.932.151 0 .445.055.734.117v.766c-.302-.08-.603-.135-.802-.135-.397 0-.61.377-.61 1.074 0 .732.206.967.548.967.288 0 .63-.049.877-.137v.807zm1.575-3.129a.345.345 0 01-.014.088l.021.014c.178-.172.603-.451 1.035-.451.582 0 .877.363.877 1v2.521h-.891v-2.242c0-.315-.097-.397-.329-.397-.192 0-.5.123-.699.254v2.385h-.891v-5.209h.891v2.037zm3.891 1.644c-.281 0-.411.219-.411.438 0 .186.103.383.363.383.198 0 .404-.137.473-.178v-.643h-.425zm.48 1.116c-.089.158-.404.486-.843.486-.548 0-.979-.41-.979-1.082 0-.645.411-1.104 1.157-1.104h.61v-.279c0-.316-.075-.358-.459-.358-.329 0-.891.123-1.035.178v-.762c.145-.047.72-.17 1.233-.17.822 0 1.151.205 1.151 1v2.502h-.768l-.067-.411zm3.547-2.268h-.726v2.68h-.891v-2.68h-.549v-.746h.549v-.789c0-.752.486-1.068 1.137-1.068.295 0 .528.014.713.027v.754a5.549 5.549 0 00-.507-.027c-.268 0-.452.041-.452.432v.672h.726v.745zm2.679 2.686a3.665 3.665 0 01-.733.068c-.672 0-.993-.35-.993-1.055v-1.699h-.549v-.746h.549v-1.365l.891-.006v1.371h.795v.746h-.795v1.541c0 .356.137.438.398.438.137 0 .287-.012.438-.039v.746h-.001zm3.171.068c-.691 0-.966-.424-.966-1.088v-2.412h.891v2.24c0 .309.137.451.309.451.273 0 .555-.164.72-.252v-2.44h.891v3.426h-.768l-.068-.412c-.262.235-.666.487-1.009.487zm3.494-3.131c.178-.17.672-.445 1.104-.445.582 0 .877.344.877.98v2.521h-.891V27.14c0-.315-.097-.397-.329-.397-.192 0-.5.123-.699.254v2.385h-.891v-3.426h.768l.061.37zm4.528.561c-.123-.094-.302-.231-.486-.231-.315 0-.507.315-.507.986 0 .588.048 1 .343 1 .191 0 .521-.172.65-.24v-1.515zm.89 2.496h-.768l-.068-.412c-.178.158-.596.486-1.027.486-.596 0-.979-.473-.979-1.685 0-1.404.548-1.904 1.212-1.904.404 0 .624.303.774.445l-.034-.356v-1.783h.891v5.209h-.001zm4.31 0h-.939v-4.022h-1.178v-.775h3.302v.775h-1.185v4.022zm2.13-1.907c.355 0 .568-.156.568-.492 0-.268-.123-.404-.391-.404-.391 0-.555.467-.555.896h.378zm1.356 1.721c-.329.137-.645.26-1.151.26-1.027 0-1.493-.67-1.493-1.631 0-1.459.726-1.945 1.445-1.945.768 0 1.309.344 1.309 1.117 0 .979-.85 1.062-1.459 1.062l-.363-.002c0 .385.212.623.63.623.397 0 .754-.123 1.083-.246v.762h-.001zm3.028.143c-.198.07-.589.117-.897.117-.877 0-1.473-.637-1.473-1.644 0-1.082.459-1.932 1.623-1.932.151 0 .445.055.733.117v.766c-.302-.08-.603-.135-.802-.135-.397 0-.609.377-.609 1.074 0 .732.205.967.548.967.288 0 .63-.049.877-.137v.807zm1.677-3.129a.345.345 0 01-.014.088l.02.014c.179-.172.604-.451 1.035-.451.582 0 .877.363.877 1v2.521h-.891v-2.242c0-.315-.097-.397-.329-.397-.192 0-.5.123-.699.254v2.385h-.891v-5.209h.891v2.037h.001zm3.549.115c.178-.17.672-.445 1.104-.445.582 0 .877.344.877.98v2.521h-.891V27.14c0-.315-.097-.397-.329-.397-.192 0-.5.123-.699.254v2.385h-.891v-3.426h.768l.061.37zm3.487 1.377c0 .685.219.994.575.994.377 0 .596-.287.596-1.082 0-.623-.15-.981-.561-.981-.439.001-.61.399-.61 1.069zm2.118-.109c0 1.193-.522 1.863-1.528 1.863-.939 0-1.534-.629-1.534-1.727 0-1.123.589-1.85 1.555-1.85.985.001 1.507.596 1.507 1.714zm1.607 1.789h-.89v-5.209h.89v5.209zm1.598-1.68c0 .685.219.994.575.994.377 0 .596-.287.596-1.082 0-.623-.15-.981-.563-.981-.437.001-.608.399-.608 1.069zm2.117-.109c0 1.193-.521 1.863-1.528 1.863-.939 0-1.534-.629-1.534-1.727 0-1.123.589-1.85 1.554-1.85.986.001 1.507.596 1.508 1.714zm2.521-.118v-.631c-.069-.082-.336-.23-.556-.23-.404 0-.568.307-.568.697 0 .35.15.699.561.699.316.001.563-.142.563-.535zm-.925 2.042c-.233 0-.287-.033-.349-.047-.056.027-.125.131-.125.303 0 .184.18.361.775.361.603 0 .692-.137.692-.369 0-.115-.083-.246-.329-.246l-.664-.002zm1.815-3.561v1.322c0 .973-.719 1.254-1.412 1.254h-.451c-.185 0-.253.082-.253.17 0 .103.096.193.253.193h.815c.727 0 1.13.336 1.13.891 0 .74-.583 1.041-1.583 1.041-1.185 0-1.567-.418-1.567-.877 0-.48.376-.699.548-.74-.123-.063-.247-.24-.247-.465 0-.268.179-.467.493-.508-.145-.035-.582-.355-.582-1.062 0-.83.548-1.289 1.213-1.289.418 0 .705.248.815.426l.062-.356h.766zm1.727 3.426h-.892v-3.426h.892v3.426zm-.446-5.073a.584.584 0 010 1.166.582.582 0 110-1.166zm2.383 3.166c.356 0 .569-.156.569-.492 0-.268-.123-.404-.391-.404-.391 0-.556.467-.556.896h.378zm1.358 1.721c-.329.137-.645.26-1.151.26-1.027 0-1.494-.67-1.494-1.631 0-1.459.727-1.945 1.446-1.945.767 0 1.309.344 1.309 1.117 0 .979-.85 1.062-1.459 1.062l-.363-.002c0 .385.212.623.63.623.396 0 .754-.123 1.083-.246v.762h-.001z"/><path fill-rule="evenodd" clip-rule="evenodd" fill="#FFF" d="M35.184 9.938s2.006.275 1.938 2.394c-.092 2.971-3.772 2.773-3.772 2.773h-3.594v-.769l1.183-.225V6.316s-.216-.021-.643-.08c-.332-.049-.54-.109-.54-.109v-.791s.634.014 1.362.025c.727.008 1.36-.049 2.25-.049 1.647-.002 3.448.227 3.536 2.309.077 1.797-1.721 2.318-1.721 2.318v-.001h.001zm8.937 1.667H39.63s-.248 2.582 2.098 2.543c1.196-.019 2.091-.426 2.091-.426v1.068s-1.097.406-1.931.445c-.921.043-1.86-.178-2.321-.488-1.127-.756-1.324-2.242-1.308-3.105.018-1.061.312-3.588 3.127-3.654 3.181-.072 2.735 3.617 2.735 3.617zm5.448-2.224s-1.033-.209-1.524.315c-.698.75-.642 2.25-.642 2.25v3.16h-1.362v-5.98l-1.165-.152v-.749s.709-.049 1.165-.066c.516-.018 1.321-.018 1.321-.018v1.361s.173-.809.759-1.168c.619-.379 1.446-.268 1.446-.268l.002 1.315zm3.941 5.724h-3.734v-.769l1.161-.188V5.822s-.332-.051-.547-.08c-.236-.029-.614-.061-.614-.061v-.718s.849-.057 1.39-.065c.46-.012 1.173 0 1.173 0v9.25l1.171.188v.769zm3.764-8.937a.933.933 0 01-.932.934.933.933 0 11.932-.934zm1.043 8.937h-3.793v-.769l1.19-.188V9.144l-1.19-.16v-.74c.463-.043.695-.059 1.189-.08.602-.023 1.055-.043 1.354-.023v6.008l1.25.188v.768zm7.818-4.978v4.978h-1.391v-4.826s.072-1.322-1.125-1.25c-1.021.062-1.527.795-1.75 1.439-.23.666-.168 1.295-.168 1.295v3.342h-1.383v-5.97l-1.162-.139v-.738s.535-.049 1.277-.09c.781-.047 1.268-.027 1.268-.027v1.256s.437-1.422 2.691-1.33c1.855.074 1.743 2.06 1.743 2.06zm-23.385.512s.158-1.598-1.391-1.646c-1.485-.047-1.636 1.648-1.636 1.648l3.027-.002zm-7.093 1.574c-.055-1.051-.799-1.527-1.929-1.627-.521-.045-1.351-.014-1.351-.014v3.414s.721.023 1.18.004c1.354-.052 2.158-.705 2.1-1.777zm-.18-4.356c.03-.908-.673-1.363-1.375-1.41-.669-.043-1.724-.027-1.724-.027v3.121s.533 0 .92-.012c1.124-.025 2.14-.394 2.179-1.672z"/></svg>