<svg xmlns="http://www.w3.org/2000/svg" viewBox="0 0 234 37"><path fill="#fff" d="M94.2 0h1.2v37h-1.2zm23.9 7.5v-4h-7.5v4h2.8l-3.8 20.1h2.4c1.3 0 2.8.3 4.4.3 5.8 0 9.1-6.2 9.1-11.1 0-3.8-1.6-5.5-3.5-5.5-2.1 0-4 1.4-5.1 2.4l1.2-6.2zm-1.9 10c.8-.9 2.3-1.6 3.1-1.6 1.1 0 1.4 1 1.4 1.8 0 2.1-1.6 6.7-4.4 6.7-.4 0-1.6-.2-1.6-.2l1.5-6.7zm15.7 1.2c.4-2.1 1.9-3.6 3-3.6.6 0 1.2.3 1.2 1.2 0 1.1-1.1 2.4-2.8 2.4h-1.4zm2.2 2.6c4.5 0 6.9-2 6.9-5.3 0-2.9-2-4.6-5.2-4.6-6 0-9 5.2-9 10 0 4 2.5 6.6 6.1 6.6 1.3 0 3.9-.5 5.4-1v-3.2c-2.1.4-3 .5-4.2.5-2 0-2.7-1.5-2.7-3h2.7zm9.8-.6h2.8v12.8h-2.8zm6 0h2.8v12.8h-2.8zm6 0h2.8v12.8h-2.8zm-12-5.7h17.9v2.9h-17.9zm14.3-3.7c0-1.1.9-2.1 2.1-2.1 1.2 0 2.1.9 2.1 2.1 0 1.1-.9 2.1-2.1 2.1-1.1 0-2.1-1-2.1-2.1m30 1.8c0-1.1-.8-1.7-1.7-1.8-.8-.1-2.2 0-2.2 0v3.9h1.2c1.4 0 2.6-.5 2.7-2.1zm7.4 1.3c-1.9-.1-2 2.1-2 2.1h3.8c-.1 0 .1-2-1.8-2.1zm-9.6 2.1c-.7-.1-1.7 0-1.7 0v4.3h1.5c1.7-.1 2.7-.9 2.6-2.2 0-1.4-1-2-2.4-2.1z"/><path fill="#fff" d="M167.8 3.5V15h8.8v3h-14.8v15.5h2.8V20.7h3.2v12.8h2.8V20.7h3.1v12.8h2.8v-5.8h57.3V3.5h-66zm46.5 6.3c.6 0 1.2.5 1.2 1.2 0 .6-.5 1.2-1.2 1.2-.6 0-1.2-.5-1.2-1.2 0-.6.6-1.2 1.2-1.2zm-28.8 12.3H181v-1l1.5-.3v-9.7s-.3 0-.8-.1c-.4-.1-.7-.1-.7-.1v-1h1.7c.9 0 1.7-.1 2.8-.1 2.1 0 4.3.3 4.4 2.9.1 2.2-2.2 2.9-2.2 2.9s2.5.3 2.4 3c0 3.8-4.6 3.5-4.6 3.5zm13.5-4.3h-5.6s-.3 3.2 2.6 3.2c1.5 0 2.6-.5 2.6-.5v1.3s-1.4.5-2.4.6c-1.2.1-2.3-.2-2.9-.6-1.4-.9-1.7-2.8-1.6-3.9 0-1.3.4-4.5 3.9-4.6 4-.1 3.4 4.5 3.4 4.5zm6.8-2.8s-1.3-.3-1.9.4c-.9.9-.8 2.8-.8 2.8v3.9h-1.7v-7.5l-1.5-.2v-.9s.9-.1 1.5-.1h1.7v1.7s.2-1 .9-1.5c.8-.5 1.8-.3 1.8-.3V15zm5 7.1h-4.7v-1l1.5-.2V10.6s-.4-.1-.7-.1c-.3 0-.8-.1-.8-.1v-.9s1.1-.1 1.7-.1h1.5v11.5l1.5.2v1zm6 0h-4.7v-1l1.5-.2v-6.2l-1.5-.2v-.9c.6-.1.9-.1 1.5-.1.8 0 1.3-.1 1.7 0V21l1.6.2v.9zm9.8-6.2v6.2h-1.7v-6s.1-1.6-1.4-1.6c-1.3.1-1.9 1-2.2 1.8-.3.8-.2 1.6-.2 1.6v4.2h-1.7v-7.4l-1.5-.2v-.9s.7-.1 1.6-.1c1-.1 1.6 0 1.6 0V15s.6-1.8 3.4-1.7c2.2.2 2.1 2.6 2.1 2.6zM5 17c2 .2 3.2 1.7 3.2 3.6 0 2.6-2 4.2-4.2 4.2H.1L0 10h3.6c2.3 0 3.9 1.4 3.9 3.6.1 1.7-.8 2.8-2.5 3.4zm-2.2-.6c1.7 0 3-1 3-2.6s-1.1-2.4-2.7-2.4H1.5v5h1.3zm.6 7c1.7 0 3.1-1 3.1-2.9 0-1.8-1.4-2.8-3.3-2.8H1.6v5.7h1.8zm12.7-7.9c-.3 0-.5-.1-.8-.1-1 0-2 .4-2.7 1v8.3h-1.5V14.2h1.3l.1 1.1c.6-.5 2-1.3 3.3-1.3h.2v1.5zm8.3 9.2l-.1-1.1c-.7.5-1.8 1.3-3.4 1.3-1.8 0-3-1.2-3-3.2s1.3-3.3 3.4-3.3h2.9v-1.6c0-1.3-.8-1.5-1.8-1.5-.7 0-2.2.2-3.7.7v-1.3c1.3-.4 2.7-.7 3.9-.7 1.8 0 3.2.6 3.2 2.5v8.2h-1.4zm-2.7-5c-1.2 0-2 .7-2 2 0 1.2.6 1.8 1.7 1.8.8 0 1.8-.3 2.9-1.1v-2.8l-2.6.1zm8.3-10c.7 0 1.2.5 1.2 1.2s-.5 1.2-1.2 1.2-1.2-.5-1.2-1.2.5-1.2 1.2-1.2zm-.7 15V14.2h1.5v10.5h-1.5zm11.4 0v-7.2c0-1.5-.3-2.2-1.7-2.2-1 0-2.2.5-3.2 1.1v8.3h-1.5V14.2h1.3l.1 1.1c.4-.3 1.9-1.3 3.6-1.3 1.9 0 2.8 1 2.8 2.9v7.8h-1.4zm19-.1c-.5.2-2 .4-3 .4-3.8 0-5.9-2.8-5.9-7.4 0-4.7 2.3-7.8 6.1-7.8.8 0 2 .2 2.7.3v1.5c-.7-.2-1.8-.3-2.4-.3-2.8 0-4.6 2.6-4.6 6.4 0 3.7 1.6 5.9 4.5 5.9.8 0 2.1-.1 2.7-.3v1.3zm3.8-14.9c.7 0 1.2.5 1.2 1.2s-.5 1.2-1.2 1.2-1.2-.5-1.2-1.2c-.1-.7.5-1.2 1.2-1.2zm-.8 15V14.2h1.5v10.5h-1.5zm10.2 0c-.7.2-1 .3-1.6.3-1.8 0-2.8-1-2.8-2.9v-6.6h-1.8v-1.3h1.8V10H70v4.2h2.6v1.3H70v6.4c0 1.3.4 1.8 1.6 1.8.5 0 .7-.1 1.3-.2v1.2zm8.5-5.6c-.3 1.2-1.9 5.7-1.9 5.7-1.1 3.4-2.2 4.4-4.5 4.4h-1v-1.3h.8c1.6 0 2.2-.3 3-2.6-.2-.4-1.7-4.9-2-6.1l-1.2-4.9h1.7l1.1 4.9c.2 1 1.3 4.5 1.3 4.5s1-3.5 1.2-4.5l1-4.9h1.7l-1.2 4.8z"/></svg>