<?xml version="1.0" standalone="no"?>
<!DOCTYPE svg PUBLIC "-//W3C//DTD SVG 1.1//EN" "http://www.w3.org/Graphics/SVG/1.1/DTD/svg11.dtd" >
<svg xmlns="http://www.w3.org/2000/svg" xmlns:xlink="http://www.w3.org/1999/xlink" version="1.1">
<metadata></metadata>
<defs>
<font id="castileomedium" horiz-adv-x="1658" >
<font-face units-per-em="2048" ascent="1802" descent="-246" />
<missing-glyph horiz-adv-x="460" />
<glyph horiz-adv-x="0" />
<glyph horiz-adv-x="682" />
<glyph unicode=" "  horiz-adv-x="460" />
<glyph unicode="&#x09;" horiz-adv-x="460" />
<glyph unicode="&#xa0;" horiz-adv-x="460" />
<glyph unicode="!" horiz-adv-x="643" d="M49 268q0 -55 20.5 -104t56.5 -86t84 -57.5t103 -20.5t104.5 20.5t86.5 57.5t57.5 86t20.5 104t-20.5 103.5t-57.5 84.5t-86 56t-105 20q-55 0 -103 -20t-84 -56t-56.5 -84t-20.5 -104zM53 1475q0 -18 2 -38t6 -38l123 -770h260l144 774q6 33 6 74q0 59 -21.5 108 t-59.5 84t-89 53.5t-111 18.5q-117 0 -188.5 -74t-71.5 -192zM172 268q0 45 26.5 80t67.5 51v-266q-41 16 -67.5 52t-26.5 83zM178 1475q0 53 24.5 92t80.5 49v-811l-99 614q-2 14 -4 26.5t-2 29.5z" />
<glyph unicode="&#x22;" horiz-adv-x="1067" d="M49 1174h238l239 430l-80 -430h238l334 567h-852z" />
<glyph unicode="#" horiz-adv-x="1343" d="M49 870q0 -23 16.5 -42t51.5 -19h241l-112 -467q-4 -8 -4 -20q0 -29 20.5 -45.5t42.5 -16.5q18 0 36.5 12.5t25.5 38.5l120 498h248l-114 -467q-2 -8 -3 -20q0 -29 20.5 -45.5t43.5 -16.5q18 0 35.5 12.5t23.5 38.5l123 498h273q35 0 50 19.5t15 41.5q0 23 -16.5 42.5 t-48.5 19.5h-244l61 254h275q35 0 50 18t15 43q0 23 -16 42.5t-49 19.5h-244l86 356q2 8 2 18q0 31 -19.5 47.5t-41.5 16.5q-18 0 -37 -12.5t-25 -40.5l-94 -385h-248l86 356q4 8 4 18q0 31 -20.5 47.5t-42.5 16.5q-18 0 -36.5 -12.5t-25.5 -40.5l-94 -385h-270 q-35 0 -51.5 -19.5t-16.5 -42.5q0 -25 16.5 -43t51.5 -18h242l-62 -254h-272q-35 0 -51.5 -19.5t-16.5 -42.5zM516 932l64 254h247l-63 -254h-248z" />
<glyph unicode="$" horiz-adv-x="1091" d="M49 688q0 -84 26.5 -159.5t74 -139t113 -111t145.5 -69.5v-227q0 -35 20.5 -51.5t42.5 -16.5q23 0 43.5 16.5t20.5 51.5v206h12q61 0 112 15v-221q0 -35 19.5 -51.5t42.5 -16.5q25 0 44 16.5t19 51.5v268q59 33 106.5 80t81.5 104.5t52 121.5t18 132q0 70 -19 132.5 t-54 117.5t-82 103.5t-103 86.5v359h43q35 0 51.5 19.5t16.5 41.5q0 25 -16.5 44.5t-51.5 19.5h-43v110q0 33 -19.5 49.5t-43.5 16.5q-23 0 -42.5 -16.5t-19.5 -49.5v-110h-124v110q0 33 -20.5 49.5t-43.5 16.5t-43 -16.5t-20 -49.5v-114q-72 -10 -131.5 -45t-104.5 -86.5 t-69.5 -117t-24.5 -136.5q0 -86 33.5 -165t103.5 -132l193 -144v-442q-106 43 -170 138t-64 210q0 35 -19.5 51.5t-41.5 16.5q-23 0 -43.5 -16.5t-20.5 -51.5zM205 1223q0 68 31.5 127t89.5 96q-2 -2 -2 -4t-2 -4q-18 -31 -29.5 -67t-11.5 -75q0 -61 25.5 -117.5t74.5 -93.5 l379 -284q49 -37 71.5 -93.5t22.5 -115.5q0 -63 -27.5 -118.5t-74.5 -96.5q12 33 20 64.5t8 68.5q0 66 -27.5 128t-82.5 103l-381 285q-45 35 -64.5 89t-19.5 108zM535 336v354l61 -47q31 -25 46 -60.5t15 -72.5q0 -59 -34.5 -107.5t-87.5 -66.5zM545 1360q0 49 32.5 86 t81.5 41v-273l-43 33q-29 23 -50 49.5t-21 63.5z" />
<glyph unicode="%" horiz-adv-x="2181" d="M49 1227q0 -102 37 -195.5t102.5 -165t153.5 -113.5t193 -42q104 0 194 42t154.5 113.5t101.5 165t37 195.5q0 100 -37 193t-101.5 165t-154.5 114t-194 42t-192.5 -42t-154 -114t-102.5 -165t-37 -193zM174 1227q0 68 21.5 131t60.5 115.5t94.5 89t122.5 49.5v-770 q-68 12 -123 48t-94 88t-60.5 116.5t-21.5 132.5zM598 842v770q33 -6 64 -19v-735l-32 -8zM621 57q0 -29 18 -45t43 -16q16 0 31.5 9t25.5 30l815 1618q9 15 9 33q0 29 -19.5 45t-42.5 16q-16 0 -32.5 -8t-26.5 -31l-813 -1618q-8 -14 -8 -33zM1163 512q0 -102 36 -195.5 t100.5 -165t153.5 -113.5t194 -42q104 0 193 42t153.5 113.5t101.5 165t37 195.5q0 100 -37 193.5t-101.5 165t-153.5 113.5t-193 42t-193.5 -42t-154 -113.5t-100.5 -165t-36 -193.5zM1286 512q0 68 21.5 131.5t60.5 115.5t94.5 89t122.5 49v-770q-68 12 -123 48t-94 88 t-60.5 116.5t-21.5 132.5zM1710 127v770q33 -6 64 -18v-736l-32 -8z" />
<glyph unicode="&#x26;" horiz-adv-x="2377" d="M49 618q0 -158 73 -273.5t186.5 -191t255 -113.5t278.5 -40q166 -2 327.5 39t290.5 129t208 224t79 323q0 61 -14 106q78 -31 159.5 -48t165.5 -17q70 0 120 21.5t84 57t50.5 81t16.5 94.5q0 59 -22.5 109t-60.5 87t-88.5 57.5t-107.5 20.5q-74 0 -135 -37 q-18 -10 -25.5 -25.5t-7.5 -31.5q0 -23 16.5 -41.5t43.5 -18.5q20 0 36 11q33 18 74 18q61 0 107.5 -42t46.5 -105q0 -51 -36 -92t-110 -41q-117 0 -220 36.5t-206 85.5q-74 35 -143.5 64t-153.5 29q-82 0 -156.5 -25t-133 -72t-93 -115.5t-34.5 -156.5q0 -33 7 -64.5 t17 -62.5q10 -23 27.5 -32t34.5 -9q23 0 41 16.5t18 42.5q0 18 -4 29q-14 35 -14 80q0 109 79 176v-743q-68 -18 -139.5 -25.5t-142.5 -7.5q-88 2 -171 16.5t-157 42.5q43 72 94.5 166t106.5 205q43 88 90 188.5t86 206t64.5 213t25.5 209.5q0 61 -15.5 127t-48 120t-85 88 t-125.5 34q-51 0 -95.5 -18.5t-77 -51.5t-51 -78t-18.5 -96q0 -102 74 -172q23 -20 47 -20q27 0 45 18t18 45q0 25 -24 47q-16 16 -26.5 37t-6.5 43q0 53 31.5 88t83.5 35q45 0 73.5 -25.5t46 -63.5t24.5 -81t7 -76q0 -31 -3 -64.5t-11 -68.5q-135 2 -276.5 -35t-257 -113.5 t-189.5 -194.5t-74 -278zM172 618q0 96 35 171t94 135v-607q-59 57 -94 133t-35 168zM612 625v460q49 14 100.5 20.5t104.5 8.5q-37 -127 -91 -250t-114 -239zM1251 199v762q45 12 97 8h10v-719q-27 -16 -52.5 -28.5t-54.5 -22.5z" />
<glyph unicode="'" horiz-adv-x="667" d="M49 1174h236l333 567h-452z" />
<glyph unicode="(" horiz-adv-x="862" d="M49 764q0 -174 50.5 -328.5t140.5 -283.5q92 -131 217 -221.5t274 -125.5q8 -2 19 -2q31 0 47 18.5t16 43.5q0 20 -12.5 37.5t-38.5 23.5q-98 25 -184 74v1530q86 49 184 74q27 6 39 22t12 37q0 23 -16.5 43t-46.5 20q-4 0 -8.5 -1t-10.5 -1q-150 -37 -274.5 -128 t-216.5 -220q-90 -127 -140.5 -282.5t-50.5 -329.5zM172 764q0 227 94 416v-830q-94 188 -94 414z" />
<glyph unicode=")" horiz-adv-x="851" d="M39 -135q0 20 12 37.5t39 23.5q98 25 184 74v1530q-86 49 -184 74q-27 6 -39 22t-12 37q0 23 16.5 43t46.5 20q4 0 8.5 -1t10.5 -1q150 -37 274.5 -128t216.5 -220q90 -127 140.5 -282.5t50.5 -329.5t-50.5 -328.5t-140.5 -283.5q-92 -131 -217 -221.5t-274 -125.5 q-8 -2 -19 -2q-31 0 -47 18.5t-16 43.5zM586 350q94 188 94 414q0 227 -94 416v-830z" />
<glyph unicode="*" horiz-adv-x="784" d="M49 1538l207 -154l-76 -249l211 151l211 -151l-76 249l209 154h-260l-84 250l-82 -250h-260z" />
<glyph unicode="+" horiz-adv-x="1306" d="M49 748h481v-480h248v480h479v247h-479v480h-248v-480h-481v-247z" />
<glyph unicode="," horiz-adv-x="641" d="M49 266q0 -55 21.5 -103t57.5 -85t84 -57.5t103 -20.5q29 0 56.5 6t52.5 17q-35 -59 -89 -103.5t-120 -62.5q-27 -8 -39 -24.5t-12 -35.5q0 -25 16.5 -44t44.5 -19q10 0 23 4q76 20 139.5 65t108.5 104.5t70.5 132.5t25.5 153q0 63 -16.5 123.5t-51.5 107.5t-87 76.5 t-122 29.5q-55 0 -103 -20.5t-84 -56t-57.5 -83.5t-21.5 -104zM174 266q0 47 25.5 82t68.5 51v-266q-43 16 -68.5 51t-25.5 82z" />
<glyph unicode="-" horiz-adv-x="768" d="M49 653h670v437h-670v-437zM174 776v191h98v-191h-98z" />
<glyph unicode="." horiz-adv-x="630" d="M49 272q0 -55 21.5 -104t57.5 -86t84 -57.5t103 -20.5t103.5 20.5t84.5 57.5t57.5 86t21.5 104t-21.5 103.5t-57.5 84.5t-84 56.5t-104 20.5q-55 0 -103 -20.5t-84 -56.5t-57.5 -84t-21.5 -104zM174 272q0 45 25.5 80t68.5 51v-266q-43 16 -68.5 52t-25.5 83z" />
<glyph unicode="/" horiz-adv-x="1402" d="M49 -197h541l764 1938h-539zM229 -74l668 1692h100l-667 -1692h-101z" />
<glyph unicode="0" horiz-adv-x="1841" d="M49 870q0 -184 68.5 -346t186.5 -282.5t276.5 -190t339.5 -69.5q180 0 338.5 69.5t277.5 190t187.5 282.5t68.5 346t-68.5 346t-187.5 283t-277.5 190.5t-338.5 69.5t-339 -69.5t-277 -190.5t-186.5 -282.5t-68.5 -346.5zM160 870q0 119 33.5 224.5t93.5 197.5v-846 q-59 92 -93 199t-34 225zM672 152v1437q117 43 248 43t254 -43v-1437q-61 -20 -124 -30.5t-130 -10.5q-129 0 -248 41zM1298 211v1321q29 -16 56.5 -34.5t50.5 -39.5v-1173q-23 -20 -50.5 -39t-56.5 -35z" />
<glyph unicode="1" horiz-adv-x="1060" d="M49 1343q0 -25 16.5 -44t43.5 -19q18 0 32 8l152 78v-1241h-125q-33 0 -49.5 -19.5t-16.5 -42.5t16.5 -43t49.5 -20h776q35 0 51.5 20t16.5 43t-16.5 42.5t-51.5 19.5h-123v1657l-735 -383q-37 -20 -37 -56zM416 125v1305l94 49v-1354h-94z" />
<glyph unicode="2" horiz-adv-x="1320" d="M49 0h1223v322q0 35 -19.5 50t-42.5 15q-25 0 -43 -15.5t-18 -49.5v-197h-408l400 702q41 72 67.5 148t26.5 160q0 125 -49 235.5t-133 192.5t-194.5 130t-235.5 48t-223.5 -39t-167 -109.5t-104.5 -171t-36 -223.5q0 -35 18.5 -51.5t41.5 -16.5q25 0 44 16.5t19 51.5 q0 74 21.5 146.5t62.5 131t101.5 95.5t138.5 37q51 0 95 -20.5t77.5 -54.5t53 -79t19.5 -96q0 -35 -10 -66.5t-26 -62.5zM262 125l594 1042q51 92 51 191q0 113 -59 203q68 -39 107.5 -106.5t39.5 -145.5q0 -80 -41 -150l-594 -1034h-98z" />
<glyph unicode="3" horiz-adv-x="1503" d="M49 250q0 -31 31 -51q131 -98 286.5 -148.5t317.5 -50.5q78 0 166 15.5t174 45t164 75.5t137 107.5t94 140.5t35 173t-38 175t-101.5 144.5t-143 109.5t-161.5 75q80 49 136 127t56 178q0 90 -44 159.5t-111.5 118t-151.5 73t-164 24.5q-92 0 -183 -29t-163 -92v61 q0 33 -18.5 49.5t-40.5 16.5q-23 0 -43.5 -16.5t-20.5 -49.5v-338q0 -35 20.5 -51t43.5 -16t41 16.5t18 50.5v27q0 61 34 108.5t86 78t112.5 46t113.5 15.5h8v-506h-161q-33 0 -49.5 -19.5t-16.5 -43.5q0 -23 16.5 -42.5t49.5 -19.5h139q49 0 95 -7t91 -17v-811 q-100 -27 -219 -27q-143 0 -279.5 43t-250.5 129q-20 14 -41 14q-29 0 -46.5 -18.5t-17.5 -42.5zM866 1133v464q51 -16 84 -38v-390q-18 -10 -39.5 -20t-44.5 -16zM1026 190v732q27 -12 49.5 -23.5t44.5 -26.5v-632q-47 -27 -94 -50z" />
<glyph unicode="4" horiz-adv-x="1527" d="M49 543h686v-418h-123q-35 0 -51 -19.5t-16 -42.5t16.5 -43t50.5 -20h777q35 0 51 20.5t16 42.5q0 23 -16.5 42.5t-50.5 19.5h-123v418h145q35 0 51.5 19t16.5 44q0 23 -16.5 42.5t-51.5 19.5h-145v950h123q35 0 51 20.5t16 42.5q0 23 -16.5 41.5t-50.5 18.5h-428z M299 668l436 571v-571h-436zM860 125v1280l92 121v-1401h-92z" />
<glyph unicode="5" horiz-adv-x="1501" d="M49 250q0 -31 29 -51q131 -98 286.5 -148.5t319.5 -50.5q119 0 253 34t248.5 102.5t190.5 174t76 246.5q0 139 -73.5 242.5t-186.5 173t-246 103.5t-252 36l90 506h314v-172q0 -35 20.5 -51.5t42.5 -16.5q23 0 43.5 16.5t20.5 51.5v295h-942l-138 -805l95 -64 q100 59 213.5 88t230.5 29q57 0 111.5 -7t105.5 -19v-811q-98 -27 -217 -27q-143 0 -279.5 43t-250.5 129q-23 14 -43 14q-27 0 -44.5 -18.5t-17.5 -42.5zM289 1036l98 582h96l-98 -549q-25 -6 -48.5 -14t-47.5 -19zM1026 190v732q25 -12 47.5 -23.5t44.5 -26.5v-632 q-43 -25 -92 -50z" />
<glyph unicode="6" d="M49 872q0 -178 67.5 -336.5t184.5 -277.5t274.5 -188.5t335.5 -69.5q119 0 243 37t225.5 107.5t166 174t64.5 238.5t-64.5 238.5t-166 174t-225.5 106.5t-243 36q-176 0 -331 -68v494q76 39 158.5 59.5t172.5 20.5q113 0 217.5 -33t194.5 -92v-141q0 -35 19.5 -51.5 t41.5 -16.5q23 0 43.5 16.5t20.5 51.5v329q0 33 -20.5 49.5t-43.5 16.5t-42 -16.5t-19 -49.5v-45q-94 53 -198.5 79t-213.5 26q-178 0 -335.5 -68.5t-274.5 -187.5t-184.5 -276.5t-67.5 -336.5zM174 872q0 98 24.5 189.5t67.5 171.5v-723q-43 80 -67.5 171t-24.5 191z M580 205v700q78 43 161.5 63.5t169.5 20.5q39 0 75 -4t71 -12v-834q-35 -6 -71 -10t-75 -4q-90 0 -173 20.5t-158 59.5zM1184 176v762q23 -10 46 -22.5t46 -24.5v-668q-23 -14 -46.5 -25.5t-45.5 -21.5z" />
<glyph unicode="7" horiz-adv-x="1443" d="M49 1444q0 -35 18.5 -50.5t41.5 -15.5q25 2 44 16.5t19 49.5v174h539l-478 -1493h-86q-35 0 -51 -19.5t-16 -42.5t16.5 -43t50.5 -20h818q35 0 50 20.5t15 42.5q0 23 -15.5 42.5t-49.5 19.5h-164l479 1493h49q33 0 49.5 20t16.5 43t-16.5 41.5t-49.5 18.5h-1280v-297z M362 125l480 1493h119l-478 -1493h-121z" />
<glyph unicode="8" horiz-adv-x="1681" d="M49 512q0 -96 37 -173t99.5 -137.5t144.5 -104.5t170 -72.5t176 -43t166 -14.5q117 0 254 32t257 98.5t199.5 169t79.5 245.5q0 94 -41 173t-105.5 140.5t-145 105.5t-162.5 70q51 25 98 60t84 79t58.5 97t21.5 115q0 109 -59.5 188.5t-149.5 131.5t-194.5 78t-194.5 26 t-195.5 -26t-196 -78t-149.5 -132t-59 -188q0 -61 21.5 -114.5t58 -97.5t84 -79t98.5 -60q-82 -27 -163 -70.5t-145.5 -105t-105.5 -140.5t-41 -173zM174 512q0 121 100 217v-436q-100 94 -100 219zM367 1352q0 51 25.5 97t72.5 83v-358q-47 37 -72.5 81.5t-25.5 96.5z M625 115v790q53 12 103 17.5t114 5.5q63 0 113.5 -5t101.5 -18v-790q-53 -12 -106.5 -17.5t-108.5 -5.5q-57 0 -110.5 5t-106.5 18zM715 1065v573q29 8 60.5 10.5t66.5 2.5q37 0 71.5 -4.5t69.5 -10.5v-569q-35 -6 -67.5 -9t-73.5 -3q-37 0 -68 2t-59 8zM1106 1106v491 q25 -10 49.5 -23t46.5 -30v-385q-23 -16 -47.5 -29.5t-48.5 -23.5zM1180 152v718q27 -10 50 -21t46 -24v-628q-23 -12 -46.5 -23.5t-49.5 -21.5z" />
<glyph unicode="9" horiz-adv-x="1654" d="M49 1186q0 -133 64.5 -236.5t165 -174t224.5 -107.5t240 -37q176 0 334 67v-493q-76 -39 -159.5 -59.5t-174.5 -20.5q-109 0 -212 32.5t-195 94.5v139q0 35 -19.5 51.5t-44.5 16.5q-23 0 -42 -16.5t-19 -51.5v-328q0 -35 19.5 -51t41.5 -16q25 0 44.5 16.5t19.5 50.5v43 q94 -53 197.5 -78.5t209.5 -25.5q178 0 336 68.5t274.5 187.5t184.5 277.5t68 336.5t-68 337t-184.5 277t-274 187.5t-336.5 69.5q-117 0 -240.5 -37t-224 -107.5t-165 -174t-64.5 -238.5zM164 1184q0 147 98 252v-498q-47 53 -72.5 113.5t-25.5 132.5zM600 770v834 q35 8 71 11t72 3q90 0 174 -20.5t160 -59.5v-700q-78 -43 -163 -62.5t-171 -19.5q-37 0 -72.5 3t-70.5 11zM1190 260v608v615q25 -20 47.5 -41t44.5 -43v-1055q-23 -23 -45.5 -44t-46.5 -40z" />
<glyph unicode=":" horiz-adv-x="630" d="M49 272q0 -55 21.5 -104t57.5 -86t84 -57.5t103 -20.5t103.5 20.5t84.5 57.5t57.5 86t21.5 104t-21.5 103.5t-57.5 84.5t-84 56.5t-104 20.5q-55 0 -103 -20.5t-84 -56.5t-57.5 -84t-21.5 -104zM49 866q0 -55 21.5 -104t57.5 -86t84 -57.5t103 -20.5t103.5 20.5 t84.5 57.5t57.5 86t21.5 104t-21.5 103.5t-57.5 84.5t-84 56t-104 20q-55 0 -103 -20t-84 -56t-57.5 -84t-21.5 -104zM174 272q0 45 25.5 80t68.5 51v-266q-43 16 -68.5 52t-25.5 83zM174 866q0 45 25.5 80t68.5 51v-266q-43 16 -68.5 52t-25.5 83z" />
<glyph unicode=";" horiz-adv-x="641" d="M49 266q0 -55 21.5 -103t57.5 -85t84 -57.5t103 -20.5q29 0 56.5 6t52.5 17q-35 -59 -89 -103.5t-120 -62.5q-27 -8 -39 -24.5t-12 -35.5q0 -25 16.5 -44t44.5 -19q10 0 23 4q76 20 139.5 65t108.5 104.5t70.5 132.5t25.5 153q0 63 -16.5 123.5t-51.5 107.5t-87 76.5 t-122 29.5q-55 0 -103 -20.5t-84 -56t-57.5 -83.5t-21.5 -104zM49 866q0 -55 21.5 -104t57.5 -86t84 -57.5t103 -20.5t103.5 20.5t84.5 57.5t57.5 86t21.5 104t-21.5 103.5t-57.5 84.5t-84 56t-104 20q-55 0 -103 -20t-84 -56t-57.5 -84t-21.5 -104zM174 266q0 47 25.5 82 t68.5 51v-266q-43 16 -68.5 51t-25.5 82zM174 866q0 45 25.5 80t68.5 51v-266q-43 16 -68.5 52t-25.5 83z" />
<glyph unicode="&#x3c;" horiz-adv-x="1286" d="M49 758l1188 -520v272l-829 362l829 361v270l-1188 -518v-227z" />
<glyph unicode="=" horiz-adv-x="1304" d="M49 475h1206v250h-1206v-250zM49 1020h1206v250h-1206v-250z" />
<glyph unicode="&#x3e;" horiz-adv-x="1296" d="M59 238v272l830 362l-830 361v270l1188 -518v-227z" />
<glyph unicode="?" horiz-adv-x="1105" d="M49 1444q0 -35 19.5 -50.5t42.5 -15.5t42 16.5t19 49.5v174h256v-1036h334l295 1159h-1008v-297zM334 268q0 -55 20.5 -104t57.5 -86t85 -57.5t103 -20.5t103.5 20.5t84 57.5t56 86t20.5 104t-20.5 103.5t-56 84.5t-84 56t-103.5 20t-103 -20t-85 -56t-57.5 -84 t-20.5 -104zM457 268q0 45 26.5 80t67.5 51v-266q-41 16 -67.5 52t-26.5 83zM553 707v911h98v-911h-98z" />
<glyph unicode="@" horiz-adv-x="1841" d="M49 872q0 -180 68.5 -338.5t186.5 -277.5t276.5 -187.5t339.5 -68.5q119 0 230.5 30.5t213.5 90.5q33 20 33 55q0 25 -16.5 44.5t-43.5 19.5q-14 0 -39 -11q-172 -104 -378 -104q-154 0 -290 59.5t-237.5 160.5t-160 237.5t-58.5 289.5q0 154 58.5 289t160 236.5 t237.5 161t290 59.5t290 -59.5t237 -161t159.5 -236.5t58.5 -289q0 -199 -96 -366h-101v743q0 35 -19 51.5t-42 16.5q-25 0 -44.5 -16.5t-19.5 -51.5v-377q0 -88 -39.5 -157.5t-103 -118.5t-142.5 -74.5t-159 -25.5q-16 0 -27 2v749h27q47 0 90 -8t86 -25q16 -4 27 -4 q27 0 43 19.5t16 44.5q0 16 -9 32.5t-36 24.5q-51 20 -106.5 29.5t-110.5 9.5q-104 0 -206.5 -36t-182.5 -100.5t-130 -156.5t-50 -205q0 -115 50 -207t130 -156.5t182.5 -100t206.5 -35.5q125 0 241.5 48t202.5 140v-182h295q72 117 113 236.5t41 256.5q0 180 -68.5 338 t-187.5 276t-277.5 186.5t-338.5 68.5t-339 -68.5t-277 -186.5t-186.5 -275.5t-68.5 -338.5zM457 872q0 68 27.5 129.5t76.5 110.5v-481q-49 49 -76.5 110.5t-27.5 130.5z" />
<glyph unicode="A" horiz-adv-x="1753" d="M49 61q0 -23 16.5 -42t51.5 -19h356q33 0 50.5 19.5t17.5 41.5q0 25 -17.5 44.5t-50.5 19.5h-106v354l321 -207l297 191v-338h-125q-33 0 -49 -20.5t-16 -43.5t16 -42t49 -19h778q35 0 50.5 19t15.5 42t-15.5 43.5t-50.5 20.5h-122v1493h114q35 0 51.5 19.5t16.5 41.5 q0 23 -16.5 42.5t-51.5 19.5h-211q-162 0 -312.5 -42t-280.5 -119t-238.5 -184.5t-185 -238.5t-118.5 -280.5t-42 -311.5v-440h-125q-35 0 -51.5 -20.5t-16.5 -43.5zM371 637q8 147 57 282.5t130 249t189.5 203.5t237.5 150v-885h-614zM1110 125v1446q43 14 92 24v-1470h-92 z" />
<glyph unicode="B" d="M49 61q0 -23 16.5 -42t51.5 -19h962q111 0 207 42t168 113.5t114 167.5t42 207q0 82 -24.5 160t-71 142.5t-110 114.5t-138.5 79q72 57 113.5 139t41.5 178q0 82 -31.5 155t-86 126t-127 85t-154.5 32h-905q-35 0 -51.5 -19.5t-16.5 -42.5t16.5 -42t51.5 -19h123v-1493 h-123q-35 0 -51.5 -20.5t-16.5 -43.5zM365 125v1493h92v-1493h-92zM770 125v811h274v-811h-274zM770 1067v551h166v-551h-166zM1063 1069v545q27 -4 52.5 -13.5t47.5 -21.5v-473q-23 -14 -48 -22.5t-52 -14.5zM1167 135v791q47 -12 97 -35v-723q-23 -10 -47.5 -19.5 t-49.5 -13.5z" />
<glyph unicode="C" horiz-adv-x="1503" d="M49 866q0 -178 67.5 -334.5t185.5 -275.5t274.5 -187.5t334.5 -68.5q139 0 268.5 42t239.5 126q29 20 29 53q0 23 -17.5 41.5t-41.5 18.5q-27 0 -43 -15q-94 -70 -205 -106.5t-230 -36.5q-92 0 -174 20.5t-157 59.5v1329q76 39 153.5 59.5t177.5 20.5q115 0 202 -25.5 t173 -79.5l47 -121q18 -45 60 -45q23 0 42 17.5t19 46.5q0 14 -6 27l-125 325q-18 45 -57 45q-25 0 -44.5 -16.5t-19.5 -42.5q0 -14 6 -29l15 -37q-74 29 -154 43.5t-158 14.5q-178 0 -334.5 -69t-274.5 -187.5t-185.5 -276.5t-67.5 -336zM174 866q0 98 24.5 189.5 t67.5 173.5v-721q-43 80 -67.5 170t-24.5 188z" />
<glyph unicode="D" horiz-adv-x="1689" d="M49 61q0 -23 16.5 -42t51.5 -19h723q180 0 328.5 70.5t253 190.5t161.5 277.5t57 331.5t-57 332t-161.5 277.5t-253 190.5t-328.5 71h-723q-35 0 -51.5 -19.5t-16.5 -42.5t16.5 -42t51.5 -19h125v-1493h-125q-35 0 -51.5 -20.5t-16.5 -43.5zM365 125v1493h94v-1493h-94z M770 125v1493h70q74 0 141.5 -14.5t126.5 -40.5v-1383q-121 -55 -268 -55h-70zM1235 254v1235q49 -39 88 -84v-1069q-43 -45 -88 -82z" />
<glyph unicode="E" horiz-adv-x="1433" d="M49 61q0 -23 16.5 -42t49.5 -19h1063l192 260q6 12 10 22.5t4 20.5q0 25 -19 43.5t-44 18.5q-27 0 -51 -31l-156 -209h-346v700l197 -190l372 371h-569v612h324v-307q0 -33 20.5 -49.5t42.5 -16.5q23 0 43.5 16.5t20.5 49.5v430h-1104q-33 0 -49.5 -19.5t-16.5 -42.5 t16.5 -42t49.5 -19h125v-1493h-125q-33 0 -49.5 -20.5t-16.5 -43.5zM362 125v1493h95v-1493h-95z" />
<glyph unicode="F" horiz-adv-x="1388" d="M49 61q0 -23 16.5 -42t51.5 -19h803q35 0 51 19.5t16 41.5q0 23 -16.5 43.5t-50.5 20.5h-150v700l197 -190l372 371h-569v612h324v-307q0 -33 20.5 -49.5t42.5 -16.5q23 0 43.5 16.5t20.5 49.5v430h-1104q-35 0 -51.5 -19.5t-16.5 -42.5t16.5 -42t51.5 -19h123v-1493 h-123q-35 0 -51.5 -20.5t-16.5 -43.5zM365 125v1493h94v-1493h-94z" />
<glyph unicode="G" horiz-adv-x="1751" d="M49 870q0 -178 67.5 -336.5t184.5 -276.5t274.5 -187.5t337.5 -69.5h723q35 0 50.5 19t15.5 42t-15.5 42.5t-50.5 19.5h-63v1032h-653q-35 0 -51.5 -20.5t-16.5 -42.5q0 -23 16.5 -43.5t51.5 -20.5h122v-905h-129q-180 0 -333 82v1333q76 39 158.5 59.5t174.5 20.5 q98 0 193.5 -26.5t181.5 -78.5l47 -122q10 -23 26.5 -33t33.5 -10q23 0 42 16t19 45q0 10 -4 27l-125 327q-10 23 -26.5 34t-34.5 11q-23 0 -42.5 -16t-19.5 -45q0 -12 6 -27l15 -37q-156 57 -312 58q-180 0 -337.5 -68.5t-274.5 -187.5t-184.5 -277.5t-67.5 -337.5z M172 870q0 98 24.5 189.5t69.5 173.5v-725q-45 82 -69.5 173t-24.5 189zM1167 123v905h93v-905h-93z" />
<glyph unicode="H" horiz-adv-x="2011" d="M49 61q0 -23 16.5 -42t47.5 -19h714q35 0 51.5 19.5t16.5 41.5q0 23 -16.5 43.5t-51.5 20.5h-59v620l238 -161l235 161v-620h-61q-35 0 -50.5 -20.5t-15.5 -43.5t16.5 -42t49.5 -19h714q35 0 51.5 19t16.5 42t-16.5 43.5t-51.5 20.5h-122v1493h122q35 0 51.5 19.5 t16.5 41.5q0 23 -16.5 42.5t-51.5 19.5h-714q-35 0 -50.5 -19.5t-15.5 -42.5t16.5 -42t49.5 -19h61v-676h-473v676h59q35 0 51.5 19.5t16.5 41.5q0 23 -16.5 42.5t-51.5 19.5h-714q-33 0 -48.5 -19.5t-15.5 -42.5t16.5 -42t47.5 -19h125v-1493h-125q-33 0 -48.5 -20.5 t-15.5 -43.5zM362 125v1493h93v-1493h-93zM1366 125v1493h92v-1493h-92z" />
<glyph unicode="I" horiz-adv-x="1007" d="M49 61q0 -23 16.5 -42t51.5 -19h776q33 0 49 19t16 42t-16 43.5t-49 20.5h-125v1493h125q33 0 49 19.5t16 41.5q0 23 -16 42.5t-49 19.5h-776q-35 0 -51.5 -19.5t-16.5 -42.5t16.5 -42t51.5 -19h123v-1493h-123q-35 0 -51.5 -20.5t-16.5 -43.5zM362 125v1493h95v-1493 h-95z" />
<glyph unicode="J" horiz-adv-x="931" d="M49 61q0 -23 16.5 -42t51.5 -19h159q125 0 236 48t192.5 131t130 193.5t48.5 235.5v1133h-707q-35 0 -51 -19.5t-16 -42.5t16 -42t51 -19h103v-1493h-3h-159q-35 0 -51.5 -20.5t-16.5 -43.5zM403 141v1477h97v-1438q-45 -25 -97 -39z" />
<glyph unicode="K" horiz-adv-x="1865" d="M49 61q0 -23 16.5 -42t49.5 -19h778q33 0 49 19.5t16 41.5q0 23 -16 43.5t-49 20.5h-125v395q80 -16 143.5 -60t107.5 -106.5t67.5 -137.5t23.5 -155v-61h627q35 0 51 19.5t16 41.5q0 23 -16 43.5t-51 20.5h-97q-10 86 -43.5 174t-86 166t-123 141.5t-152.5 98.5l432 913 h84q33 0 49.5 19t16.5 42t-16.5 42.5t-49.5 19.5h-653q-33 0 -49.5 -19.5t-16.5 -42.5t16.5 -42t49.5 -19h26l-356 -752v752h61q35 0 51.5 19.5t16.5 41.5q0 23 -16.5 42.5t-51.5 19.5h-714q-33 0 -49.5 -19.5t-16.5 -42.5t16.5 -42t49.5 -19h125v-1493h-125 q-33 0 -49.5 -20.5t-16.5 -43.5zM362 125v1493h95v-1493h-95zM801 639l461 979h98l-436 -922q176 -80 276 -230.5t123 -340.5h-90q-10 92 -44 176t-90.5 152.5t-131 118t-166.5 67.5z" />
<glyph unicode="L" horiz-adv-x="1435" d="M49 61q0 -23 16.5 -42t49.5 -19h1063l192 260q16 23 16 43q0 25 -18 43.5t-45 18.5q-29 0 -53 -31l-156 -209h-344v1493h123q35 0 51.5 19.5t16.5 41.5q0 23 -16.5 42.5t-51.5 19.5h-778q-33 0 -50.5 -19.5t-15.5 -42.5t17.5 -42t48.5 -19h125v-1493h-125 q-33 0 -49.5 -20.5t-16.5 -43.5zM365 125v1493h92v-1493h-92z" />
<glyph unicode="M" horiz-adv-x="2121" d="M49 1679q0 -23 16.5 -42t51.5 -19h143v-1493h-127q-35 0 -51 -20.5t-16 -43.5t16 -42t51 -19h381q35 0 51.5 19.5t16.5 41.5q0 23 -16.5 43.5t-51.5 20.5h-129v934l399 -529l570 816v-1221h-123q-35 0 -51.5 -20.5t-16.5 -43.5t16.5 -42t51.5 -19h778q35 0 49.5 19 t14.5 42t-14.5 43.5t-49.5 20.5h-125v1493h125q35 0 49.5 19.5t14.5 41.5q0 23 -14.5 42.5t-49.5 19.5h-530l-394 -565l-426 565h-542q-35 0 -51.5 -19.5t-16.5 -42.5zM385 1264v184l461 -614l-64 -95zM1479 125v1399l65 94h27v-1493h-92z" />
<glyph unicode="N" horiz-adv-x="1720" d="M49 61q0 -23 16.5 -42t49.5 -19h381q35 0 51 19.5t16 41.5q0 23 -16.5 43.5t-50.5 20.5h-127v979l833 -1104h402q35 0 51 19t16 42t-16.5 43.5t-50.5 20.5h-127v1493h127q35 0 51 19.5t16 41.5q0 23 -16.5 42.5t-50.5 19.5h-381q-35 0 -51.5 -19.5t-16.5 -42.5t16.5 -42 t51.5 -19h127v-776l-674 899h-543q-35 0 -51 -19.5t-16 -42.5t16 -42t51 -19h111v-1493h-129q-33 0 -49.5 -20.5t-16.5 -43.5zM369 1305v186l981 -1315v-51h-86q-2 4 -49.5 65.5t-127 168t-174 229.5t-190.5 250t-174 230t-128 169t-52 68z" />
<glyph unicode="O" horiz-adv-x="1841" d="M49 870q0 -184 68.5 -346t186.5 -282.5t276.5 -190t339.5 -69.5q180 0 338.5 69.5t277.5 190t187.5 282.5t68.5 346t-68.5 346t-187.5 283t-277.5 190.5t-338.5 69.5t-339 -69.5t-277 -190.5t-186.5 -282.5t-68.5 -346.5zM160 870q0 119 33.5 224.5t93.5 197.5v-846 q-59 92 -93 199t-34 225zM672 152v1437q117 43 248 43t254 -43v-1437q-61 -20 -124 -30.5t-130 -10.5q-129 0 -248 41zM1298 211v1321q29 -16 56.5 -34.5t50.5 -39.5v-1173q-23 -20 -50.5 -39t-56.5 -35z" />
<glyph unicode="P" d="M49 61q0 -23 16.5 -42t51.5 -19h778q33 0 49.5 19.5t16.5 41.5q0 23 -16.5 43.5t-49.5 20.5h-125v401h231q125 0 236 48.5t193.5 131t131 193.5t48.5 236t-48.5 235.5t-131 192.5t-193.5 130t-236 48h-878q-35 0 -51.5 -19.5t-16.5 -42.5t16.5 -42t51.5 -19h117v-1493 h-123q-35 0 -51.5 -20.5t-16.5 -43.5zM365 125v1493h92v-1493h-92zM770 653v965h236v-965h-236zM1133 668v934q53 -16 92 -39v-856q-23 -12 -45.5 -20.5t-46.5 -18.5z" />
<glyph unicode="Q" horiz-adv-x="1837" d="M49 870q0 -180 68.5 -338.5t187.5 -276.5t277.5 -186.5t337.5 -68.5h32t33 2q53 -80 140 -126t186 -46h297q35 0 51 20.5t16 43.5t-16.5 42t-50.5 19h-95q-8 131 -59 229q154 121 244 298t90 388q0 180 -68.5 339t-186.5 277t-275.5 186.5t-337.5 68.5t-339 -68.5 t-277 -186.5t-186.5 -276.5t-68.5 -339.5zM174 870q0 117 34 220.5t93 193.5v-829q-59 90 -93 194.5t-34 220.5zM674 166v192q59 -18 121 -63q86 -68 133 -170q-66 0 -129.5 9t-124.5 32zM674 500v1075q117 43 246 43t243 -43v-1139q-117 43 -240.5 53.5t-248.5 10.5z M920 348q70 -18 127 -53q72 -45 119 -122t61 -206q-53 16 -98.5 55t-61.5 91q-51 141 -147 235zM1288 371v1149q51 -31 107 -74v-1149q-4 -2 -6.5 -5t-6.5 -5q-39 49 -94 84z" />
<glyph unicode="R" horiz-adv-x="1814" d="M49 61q0 -23 16.5 -42t51.5 -19h776q33 0 49 19.5t16 41.5q0 23 -16 43.5t-49 20.5h-125v385q72 -23 129 -69t96 -105.5t59.5 -130t20.5 -144.5v-61h625q35 0 51 19t16 42t-16 43.5t-51 20.5h-94q-20 152 -109.5 274.5t-226.5 190.5q78 37 140 94t107.5 129t69 154 t23.5 168q0 125 -48.5 235.5t-130 192.5t-192.5 130t-236 48h-886q-27 0 -46.5 -19.5t-19.5 -42.5t16.5 -42t49.5 -19h125v-1493h-123q-35 0 -51.5 -20.5t-16.5 -43.5zM362 125v1493h95v-1493h-95zM768 653v965h238v-965h-238zM1001 518q66 -16 118 -56t90 -93.5t63 -117 t33 -126.5h-111q-10 113 -58.5 215t-134.5 178zM1128 668v934q51 -14 97 -39v-856q-23 -12 -46.5 -20.5t-50.5 -18.5z" />
<glyph unicode="S" horiz-adv-x="1320" d="M49 606q0 -125 47 -234.5t129 -192.5t192.5 -131t235.5 -48t236.5 48t196.5 131t135.5 192.5t50.5 234.5q0 82 -23.5 158t-65.5 142.5t-98.5 123.5t-121.5 105l-215 155q-37 29 -67 66t-30 88q0 74 51.5 124t124.5 50h150l65 -145q10 -20 24.5 -29.5t31.5 -9.5 q25 0 45 16t20 45q0 18 -10 31l-149 323q-10 23 -25.5 32t-30.5 9q-27 0 -45 -16t-18 -45q0 -12 6 -31l27 -57h-207q-150 0 -263.5 -37t-190.5 -100.5t-116 -149.5t-39 -182q0 -127 67 -227.5t165 -186.5q55 -49 138 -98t160 -105.5t132 -123t55 -148.5q0 -51 -21.5 -95 t-57 -78t-82 -53.5t-97.5 -19.5q-82 0 -152.5 46t-123 115t-82 151.5t-29.5 156.5q0 35 -19.5 51.5t-43.5 16.5q-23 0 -42.5 -16.5t-19.5 -51.5zM225 1272q0 94 51 180q-6 -31 -6 -66q0 -90 57.5 -170.5t137.5 -152.5q68 -59 160 -116.5t174 -125.5q86 -70 143 -154.5 t57 -201.5q0 -74 -26.5 -143.5t-77.5 -122.5q49 80 49 184q0 109 -50 182.5t-126 132.5t-162 109.5t-157 107.5q-94 74 -159 162t-65 195z" />
<glyph unicode="T" horiz-adv-x="1622" d="M49 1323q0 -29 20.5 -45t43.5 -16q39 0 57 38l154 318h223v-1493h-123q-35 0 -51.5 -20.5t-16.5 -43.5t16.5 -42t51.5 -19h778q33 0 48.5 19.5t15.5 41.5q0 23 -15.5 43.5t-48.5 20.5h-125v1493h226l151 -318q10 -20 25.5 -29t31.5 -9q25 0 43.5 16t18.5 45q0 14 -6 31 l-187 387h-1136l-185 -387q-10 -16 -10 -31zM672 125v1493h92v-1493h-92z" />
<glyph unicode="U" horiz-adv-x="1775" d="M49 1679q0 -23 16.5 -42t49.5 -19h104v-1051q0 -139 54.5 -252.5t146.5 -194.5t213 -125t254 -44t254 44t213 125t146 194.5t54 252.5v1051h109q31 0 47 19t16 42t-16 42.5t-47 19.5h-334q-35 0 -51 -19.5t-16 -42.5t16 -42t51 -19h101v-1051q0 -115 -44.5 -206 t-120 -153.5t-174 -96t-204.5 -33.5q-74 0 -137 12v1528h108q35 0 51.5 19.5t16.5 41.5q0 23 -16.5 42.5t-51.5 19.5h-743q-33 0 -49.5 -19.5t-16.5 -42.5zM344 567v1051h92v-1337q-43 59 -67.5 129.5t-24.5 156.5z" />
<glyph unicode="V" horiz-adv-x="2050" d="M49 1679q0 -23 16.5 -42t49.5 -19h139l473 -1493h-100q-35 0 -51.5 -20.5t-16.5 -43.5t16.5 -42t51.5 -19h774q35 0 51 19.5t16 41.5q0 23 -16 43.5t-51 20.5h-84l471 1493h147q35 0 50.5 19t15.5 42t-16.5 42.5t-49.5 19.5h-399q-35 0 -51.5 -19.5t-16.5 -42.5t16.5 -42 t51.5 -19h121l-426 -1348l-426 1348h88q33 0 49 19.5t16 41.5q0 23 -16 42.5t-49 19.5h-778q-33 0 -49.5 -19.5t-16.5 -42.5zM387 1618h100l471 -1493h-100z" />
<glyph unicode="W" horiz-adv-x="3047" d="M49 1679q0 -23 16.5 -42t51.5 -19h139l471 -1493h-100q-35 0 -51.5 -20.5t-16.5 -43.5t16.5 -42t51.5 -19h778q33 0 49 19.5t16 41.5q0 23 -16 43.5t-49 20.5h-88l205 643l200 -643h-100q-35 0 -51.5 -20.5t-16.5 -43.5t16.5 -42t51.5 -19h778q35 0 49.5 19.5t14.5 41.5 q-2 23 -15.5 43.5t-48.5 20.5h-88l473 1493h146q35 0 51 19t16 42t-16 42.5t-51 19.5h-400q-35 0 -51 -19.5t-16 -42.5t16.5 -42t50.5 -19h121l-422 -1348l-426 1348h84q35 0 51.5 19.5t16.5 41.5q0 23 -16.5 42.5t-51.5 19.5h-776q-35 0 -51.5 -19.5t-16.5 -42.5t16.5 -42 t51.5 -19h141l201 -645l-221 -703l-426 1348h86q35 0 50 19.5t15 41.5q0 23 -16 42.5t-49 19.5h-776q-35 0 -51.5 -19.5t-16.5 -42.5zM387 1618h100l471 -1493h-100zM1382 1618h101l473 -1493h-103z" />
<glyph unicode="X" horiz-adv-x="1769" d="M49 61q0 -23 16.5 -42t51.5 -19h338q33 0 49 19.5t16 41.5q0 23 -16.5 43.5t-48.5 20.5h-90l301 635l299 -635h-86q-35 0 -51.5 -20.5t-16.5 -43.5t16.5 -42t51.5 -19h774q35 0 51 19t16 42t-16 43.5t-51 20.5h-119l-428 909l276 584h146q35 0 51 19.5t16 41.5 q0 23 -16 42.5t-51 19.5h-400q-35 0 -51 -19.5t-16 -42.5t16.5 -42t50.5 -19h117l-207 -438l-207 438h62q33 0 49 19.5t16 41.5q0 23 -16 42.5t-49 19.5h-776q-35 0 -51.5 -19.5t-16.5 -42.5t16.5 -42t51.5 -19h145l336 -713l-371 -780h-110q-35 0 -51.5 -20.5t-16.5 -43.5z M397 1618h109l704 -1493h-108z" />
<glyph unicode="Y" horiz-adv-x="1665" d="M49 1679q0 -23 16.5 -42t49.5 -19h135l311 -981v-512h-119q-35 0 -51 -20.5t-16 -43.5t16.5 -42t50.5 -19h777q35 0 51 19.5t16 41.5q0 23 -16.5 43.5t-50.5 20.5h-101v512l307 981h123q35 0 51.5 19t16.5 42t-16.5 42.5t-51.5 19.5h-383q-33 0 -49 -19.5t-16 -42.5 t16.5 -42t48.5 -19h131l-247 -787l-248 787h106q33 0 50.5 19.5t17.5 41.5q0 23 -17.5 42.5t-50.5 19.5h-792q-35 0 -50.5 -19.5t-15.5 -42.5zM381 1618h100l324 -1024v-469h-119v532z" />
<glyph unicode="Z" horiz-adv-x="1499" d="M49 0h1112l-41 -90q-8 -16 -8 -33q0 -27 18.5 -43t43.5 -16q16 0 31.5 8t25.5 31l149 321q8 10 9 31q0 27 -19.5 43t-42.5 16q-16 0 -31.5 -8t-25.5 -31l-49 -106h-531l760 1614h-1049l17 37q8 16 8 32q0 27 -19.5 43.5t-41.5 16.5q-16 0 -32 -9.5t-26 -31.5l-149 -320 q-10 -16 -11 -30q0 -27 19.5 -43.5t44.5 -16.5q16 0 31.5 8.5t25.5 30.5l74 160h479zM240 123l712 1491h107l-699 -1491h-120z" />
<glyph unicode="[" horiz-adv-x="819" d="M49 -197h653q35 0 51.5 19.5t16.5 44.5q0 23 -16.5 41t-51.5 18h-122v1692h122q35 0 51.5 19.5t16.5 41.5q0 23 -16.5 42.5t-51.5 19.5h-653v-1938zM174 -74v1692h92v-1692h-92z" />
<glyph unicode="\" horiz-adv-x="1402" d="M49 1741l764 -1938h541l-766 1938h-539zM221 1618h101l667 -1692h-100z" />
<glyph unicode="]" horiz-adv-x="806" d="M37 -133q0 23 16.5 41t50.5 18h123v1692h-123q-35 0 -51 19.5t-16 41.5q0 23 16.5 42.5t50.5 19.5h654v-1938h-654q-35 0 -51 19.5t-16 44.5zM541 -74h92v1692h-92v-1692z" />
<glyph unicode="^" horiz-adv-x="1032" d="M49 1102h146l200 328l203 -328h385l-391 639h-152zM469 1548l41 70h12l240 -393h-94q-49 80 -99.5 162.5t-99.5 160.5z" />
<glyph unicode="_" horiz-adv-x="1024" d="M0 0v-207h1022v207h-1022z" />
<glyph unicode="`" horiz-adv-x="901" d="M49 2347l504 -555h299l-340 555h-463zM328 2224h114l189 -309h-25z" />
<glyph unicode="a" horiz-adv-x="1753" d="M49 61q0 -23 16.5 -42t51.5 -19h356q33 0 50.5 19.5t17.5 41.5q0 25 -17.5 44.5t-50.5 19.5h-106v354l321 -207l297 191v-338h-125q-33 0 -49 -20.5t-16 -43.5t16 -42t49 -19h778q35 0 50.5 19t15.5 42t-15.5 43.5t-50.5 20.5h-122v1493h114q35 0 51.5 19.5t16.5 41.5 q0 23 -16.5 42.5t-51.5 19.5h-211q-162 0 -312.5 -42t-280.5 -119t-238.5 -184.5t-185 -238.5t-118.5 -280.5t-42 -311.5v-440h-125q-35 0 -51.5 -20.5t-16.5 -43.5zM371 637q8 147 57 282.5t130 249t189.5 203.5t237.5 150v-885h-614zM1110 125v1446q43 14 92 24v-1470h-92 z" />
<glyph unicode="b" d="M49 61q0 -23 16.5 -42t51.5 -19h962q111 0 207 42t168 113.5t114 167.5t42 207q0 82 -24.5 160t-71 142.5t-110 114.5t-138.5 79q72 57 113.5 139t41.5 178q0 82 -31.5 155t-86 126t-127 85t-154.5 32h-905q-35 0 -51.5 -19.5t-16.5 -42.5t16.5 -42t51.5 -19h123v-1493 h-123q-35 0 -51.5 -20.5t-16.5 -43.5zM365 125v1493h92v-1493h-92zM770 125v811h274v-811h-274zM770 1067v551h166v-551h-166zM1063 1069v545q27 -4 52.5 -13.5t47.5 -21.5v-473q-23 -14 -48 -22.5t-52 -14.5zM1167 135v791q47 -12 97 -35v-723q-23 -10 -47.5 -19.5 t-49.5 -13.5z" />
<glyph unicode="c" horiz-adv-x="1503" d="M49 866q0 -178 67.5 -334.5t185.5 -275.5t274.5 -187.5t334.5 -68.5q139 0 268.5 42t239.5 126q29 20 29 53q0 23 -17.5 41.5t-41.5 18.5q-27 0 -43 -15q-94 -70 -205 -106.5t-230 -36.5q-92 0 -174 20.5t-157 59.5v1329q76 39 153.5 59.5t177.5 20.5q115 0 202 -25.5 t173 -79.5l47 -121q18 -45 60 -45q23 0 42 17.5t19 46.5q0 14 -6 27l-125 325q-18 45 -57 45q-25 0 -44.5 -16.5t-19.5 -42.5q0 -14 6 -29l15 -37q-74 29 -154 43.5t-158 14.5q-178 0 -334.5 -69t-274.5 -187.5t-185.5 -276.5t-67.5 -336zM174 866q0 98 24.5 189.5 t67.5 173.5v-721q-43 80 -67.5 170t-24.5 188z" />
<glyph unicode="d" horiz-adv-x="1689" d="M49 61q0 -23 16.5 -42t51.5 -19h723q180 0 328.5 70.5t253 190.5t161.5 277.5t57 331.5t-57 332t-161.5 277.5t-253 190.5t-328.5 71h-723q-35 0 -51.5 -19.5t-16.5 -42.5t16.5 -42t51.5 -19h125v-1493h-125q-35 0 -51.5 -20.5t-16.5 -43.5zM365 125v1493h94v-1493h-94z M770 125v1493h70q74 0 141.5 -14.5t126.5 -40.5v-1383q-121 -55 -268 -55h-70zM1235 254v1235q49 -39 88 -84v-1069q-43 -45 -88 -82z" />
<glyph unicode="e" horiz-adv-x="1433" d="M49 61q0 -23 16.5 -42t49.5 -19h1063l192 260q6 12 10 22.5t4 20.5q0 25 -19 43.5t-44 18.5q-27 0 -51 -31l-156 -209h-346v700l197 -190l372 371h-569v612h324v-307q0 -33 20.5 -49.5t42.5 -16.5q23 0 43.5 16.5t20.5 49.5v430h-1104q-33 0 -49.5 -19.5t-16.5 -42.5 t16.5 -42t49.5 -19h125v-1493h-125q-33 0 -49.5 -20.5t-16.5 -43.5zM362 125v1493h95v-1493h-95z" />
<glyph unicode="f" horiz-adv-x="1388" d="M49 61q0 -23 16.5 -42t51.5 -19h803q35 0 51 19.5t16 41.5q0 23 -16.5 43.5t-50.5 20.5h-150v700l197 -190l372 371h-569v612h324v-307q0 -33 20.5 -49.5t42.5 -16.5q23 0 43.5 16.5t20.5 49.5v430h-1104q-35 0 -51.5 -19.5t-16.5 -42.5t16.5 -42t51.5 -19h123v-1493 h-123q-35 0 -51.5 -20.5t-16.5 -43.5zM365 125v1493h94v-1493h-94z" />
<glyph unicode="g" horiz-adv-x="1751" d="M49 870q0 -178 67.5 -336.5t184.5 -276.5t274.5 -187.5t337.5 -69.5h723q35 0 50.5 19t15.5 42t-15.5 42.5t-50.5 19.5h-63v1032h-653q-35 0 -51.5 -20.5t-16.5 -42.5q0 -23 16.5 -43.5t51.5 -20.5h122v-905h-129q-180 0 -333 82v1333q76 39 158.5 59.5t174.5 20.5 q98 0 193.5 -26.5t181.5 -78.5l47 -122q10 -23 26.5 -33t33.5 -10q23 0 42 16t19 45q0 10 -4 27l-125 327q-10 23 -26.5 34t-34.5 11q-23 0 -42.5 -16t-19.5 -45q0 -12 6 -27l15 -37q-156 57 -312 58q-180 0 -337.5 -68.5t-274.5 -187.5t-184.5 -277.5t-67.5 -337.5z M172 870q0 98 24.5 189.5t69.5 173.5v-725q-45 82 -69.5 173t-24.5 189zM1167 123v905h93v-905h-93z" />
<glyph unicode="h" horiz-adv-x="2011" d="M49 61q0 -23 16.5 -42t47.5 -19h714q35 0 51.5 19.5t16.5 41.5q0 23 -16.5 43.5t-51.5 20.5h-59v620l238 -161l235 161v-620h-61q-35 0 -50.5 -20.5t-15.5 -43.5t16.5 -42t49.5 -19h714q35 0 51.5 19t16.5 42t-16.5 43.5t-51.5 20.5h-122v1493h122q35 0 51.5 19.5 t16.5 41.5q0 23 -16.5 42.5t-51.5 19.5h-714q-35 0 -50.5 -19.5t-15.5 -42.5t16.5 -42t49.5 -19h61v-676h-473v676h59q35 0 51.5 19.5t16.5 41.5q0 23 -16.5 42.5t-51.5 19.5h-714q-33 0 -48.5 -19.5t-15.5 -42.5t16.5 -42t47.5 -19h125v-1493h-125q-33 0 -48.5 -20.5 t-15.5 -43.5zM362 125v1493h93v-1493h-93zM1366 125v1493h92v-1493h-92z" />
<glyph unicode="i" horiz-adv-x="1007" d="M49 61q0 -23 16.5 -42t51.5 -19h776q33 0 49 19t16 42t-16 43.5t-49 20.5h-125v1493h125q33 0 49 19.5t16 41.5q0 23 -16 42.5t-49 19.5h-776q-35 0 -51.5 -19.5t-16.5 -42.5t16.5 -42t51.5 -19h123v-1493h-123q-35 0 -51.5 -20.5t-16.5 -43.5zM362 125v1493h95v-1493 h-95z" />
<glyph unicode="j" horiz-adv-x="931" d="M49 61q0 -23 16.5 -42t51.5 -19h159q125 0 236 48t192.5 131t130 193.5t48.5 235.5v1133h-707q-35 0 -51 -19.5t-16 -42.5t16 -42t51 -19h103v-1493h-3h-159q-35 0 -51.5 -20.5t-16.5 -43.5zM403 141v1477h97v-1438q-45 -25 -97 -39z" />
<glyph unicode="k" horiz-adv-x="1865" d="M49 61q0 -23 16.5 -42t49.5 -19h778q33 0 49 19.5t16 41.5q0 23 -16 43.5t-49 20.5h-125v395q80 -16 143.5 -60t107.5 -106.5t67.5 -137.5t23.5 -155v-61h627q35 0 51 19.5t16 41.5q0 23 -16 43.5t-51 20.5h-97q-10 86 -43.5 174t-86 166t-123 141.5t-152.5 98.5l432 913 h84q33 0 49.5 19t16.5 42t-16.5 42.5t-49.5 19.5h-653q-33 0 -49.5 -19.5t-16.5 -42.5t16.5 -42t49.5 -19h26l-356 -752v752h61q35 0 51.5 19.5t16.5 41.5q0 23 -16.5 42.5t-51.5 19.5h-714q-33 0 -49.5 -19.5t-16.5 -42.5t16.5 -42t49.5 -19h125v-1493h-125 q-33 0 -49.5 -20.5t-16.5 -43.5zM362 125v1493h95v-1493h-95zM801 639l461 979h98l-436 -922q176 -80 276 -230.5t123 -340.5h-90q-10 92 -44 176t-90.5 152.5t-131 118t-166.5 67.5z" />
<glyph unicode="l" horiz-adv-x="1435" d="M49 61q0 -23 16.5 -42t49.5 -19h1063l192 260q16 23 16 43q0 25 -18 43.5t-45 18.5q-29 0 -53 -31l-156 -209h-344v1493h123q35 0 51.5 19.5t16.5 41.5q0 23 -16.5 42.5t-51.5 19.5h-778q-33 0 -50.5 -19.5t-15.5 -42.5t17.5 -42t48.5 -19h125v-1493h-125 q-33 0 -49.5 -20.5t-16.5 -43.5zM365 125v1493h92v-1493h-92z" />
<glyph unicode="m" horiz-adv-x="2121" d="M49 1679q0 -23 16.5 -42t51.5 -19h143v-1493h-127q-35 0 -51 -20.5t-16 -43.5t16 -42t51 -19h381q35 0 51.5 19.5t16.5 41.5q0 23 -16.5 43.5t-51.5 20.5h-129v934l399 -529l570 816v-1221h-123q-35 0 -51.5 -20.5t-16.5 -43.5t16.5 -42t51.5 -19h778q35 0 49.5 19 t14.5 42t-14.5 43.5t-49.5 20.5h-125v1493h125q35 0 49.5 19.5t14.5 41.5q0 23 -14.5 42.5t-49.5 19.5h-530l-394 -565l-426 565h-542q-35 0 -51.5 -19.5t-16.5 -42.5zM385 1264v184l461 -614l-64 -95zM1479 125v1399l65 94h27v-1493h-92z" />
<glyph unicode="n" horiz-adv-x="1720" d="M49 61q0 -23 16.5 -42t49.5 -19h381q35 0 51 19.5t16 41.5q0 23 -16.5 43.5t-50.5 20.5h-127v979l833 -1104h402q35 0 51 19t16 42t-16.5 43.5t-50.5 20.5h-127v1493h127q35 0 51 19.5t16 41.5q0 23 -16.5 42.5t-50.5 19.5h-381q-35 0 -51.5 -19.5t-16.5 -42.5t16.5 -42 t51.5 -19h127v-776l-674 899h-543q-35 0 -51 -19.5t-16 -42.5t16 -42t51 -19h111v-1493h-129q-33 0 -49.5 -20.5t-16.5 -43.5zM369 1305v186l981 -1315v-51h-86q-2 4 -49.5 65.5t-127 168t-174 229.5t-190.5 250t-174 230t-128 169t-52 68z" />
<glyph unicode="o" horiz-adv-x="1841" d="M49 870q0 -184 68.5 -346t186.5 -282.5t276.5 -190t339.5 -69.5q180 0 338.5 69.5t277.5 190t187.5 282.5t68.5 346t-68.5 346t-187.5 283t-277.5 190.5t-338.5 69.5t-339 -69.5t-277 -190.5t-186.5 -282.5t-68.5 -346.5zM160 870q0 119 33.5 224.5t93.5 197.5v-846 q-59 92 -93 199t-34 225zM672 152v1437q117 43 248 43t254 -43v-1437q-61 -20 -124 -30.5t-130 -10.5q-129 0 -248 41zM1298 211v1321q29 -16 56.5 -34.5t50.5 -39.5v-1173q-23 -20 -50.5 -39t-56.5 -35z" />
<glyph unicode="p" d="M49 61q0 -23 16.5 -42t51.5 -19h778q33 0 49.5 19.5t16.5 41.5q0 23 -16.5 43.5t-49.5 20.5h-125v401h231q125 0 236 48.5t193.5 131t131 193.5t48.5 236t-48.5 235.5t-131 192.5t-193.5 130t-236 48h-878q-35 0 -51.5 -19.5t-16.5 -42.5t16.5 -42t51.5 -19h117v-1493 h-123q-35 0 -51.5 -20.5t-16.5 -43.5zM365 125v1493h92v-1493h-92zM770 653v965h236v-965h-236zM1133 668v934q53 -16 92 -39v-856q-23 -12 -45.5 -20.5t-46.5 -18.5z" />
<glyph unicode="q" horiz-adv-x="1837" d="M49 870q0 -180 68.5 -338.5t187.5 -276.5t277.5 -186.5t337.5 -68.5h32t33 2q53 -80 140 -126t186 -46h297q35 0 51 20.5t16 43.5t-16.5 42t-50.5 19h-95q-8 131 -59 229q154 121 244 298t90 388q0 180 -68.5 339t-186.5 277t-275.5 186.5t-337.5 68.5t-339 -68.5 t-277 -186.5t-186.5 -276.5t-68.5 -339.5zM174 870q0 117 34 220.5t93 193.5v-829q-59 90 -93 194.5t-34 220.5zM674 166v192q59 -18 121 -63q86 -68 133 -170q-66 0 -129.5 9t-124.5 32zM674 500v1075q117 43 246 43t243 -43v-1139q-117 43 -240.5 53.5t-248.5 10.5z M920 348q70 -18 127 -53q72 -45 119 -122t61 -206q-53 16 -98.5 55t-61.5 91q-51 141 -147 235zM1288 371v1149q51 -31 107 -74v-1149q-4 -2 -6.5 -5t-6.5 -5q-39 49 -94 84z" />
<glyph unicode="r" horiz-adv-x="1814" d="M49 61q0 -23 16.5 -42t51.5 -19h776q33 0 49 19.5t16 41.5q0 23 -16 43.5t-49 20.5h-125v385q72 -23 129 -69t96 -105.5t59.5 -130t20.5 -144.5v-61h625q35 0 51 19t16 42t-16 43.5t-51 20.5h-94q-20 152 -109.5 274.5t-226.5 190.5q78 37 140 94t107.5 129t69 154 t23.5 168q0 125 -48.5 235.5t-130 192.5t-192.5 130t-236 48h-886q-27 0 -46.5 -19.5t-19.5 -42.5t16.5 -42t49.5 -19h125v-1493h-123q-35 0 -51.5 -20.5t-16.5 -43.5zM362 125v1493h95v-1493h-95zM768 653v965h238v-965h-238zM1001 518q66 -16 118 -56t90 -93.5t63 -117 t33 -126.5h-111q-10 113 -58.5 215t-134.5 178zM1128 668v934q51 -14 97 -39v-856q-23 -12 -46.5 -20.5t-50.5 -18.5z" />
<glyph unicode="s" horiz-adv-x="1320" d="M49 606q0 -125 47 -234.5t129 -192.5t192.5 -131t235.5 -48t236.5 48t196.5 131t135.5 192.5t50.5 234.5q0 82 -23.5 158t-65.5 142.5t-98.5 123.5t-121.5 105l-215 155q-37 29 -67 66t-30 88q0 74 51.5 124t124.5 50h150l65 -145q10 -20 24.5 -29.5t31.5 -9.5 q25 0 45 16t20 45q0 18 -10 31l-149 323q-10 23 -25.5 32t-30.5 9q-27 0 -45 -16t-18 -45q0 -12 6 -31l27 -57h-207q-150 0 -263.5 -37t-190.5 -100.5t-116 -149.5t-39 -182q0 -127 67 -227.5t165 -186.5q55 -49 138 -98t160 -105.5t132 -123t55 -148.5q0 -51 -21.5 -95 t-57 -78t-82 -53.5t-97.5 -19.5q-82 0 -152.5 46t-123 115t-82 151.5t-29.5 156.5q0 35 -19.5 51.5t-43.5 16.5q-23 0 -42.5 -16.5t-19.5 -51.5zM225 1272q0 94 51 180q-6 -31 -6 -66q0 -90 57.5 -170.5t137.5 -152.5q68 -59 160 -116.5t174 -125.5q86 -70 143 -154.5 t57 -201.5q0 -74 -26.5 -143.5t-77.5 -122.5q49 80 49 184q0 109 -50 182.5t-126 132.5t-162 109.5t-157 107.5q-94 74 -159 162t-65 195z" />
<glyph unicode="t" horiz-adv-x="1622" d="M49 1323q0 -29 20.5 -45t43.5 -16q39 0 57 38l154 318h223v-1493h-123q-35 0 -51.5 -20.5t-16.5 -43.5t16.5 -42t51.5 -19h778q33 0 48.5 19.5t15.5 41.5q0 23 -15.5 43.5t-48.5 20.5h-125v1493h226l151 -318q10 -20 25.5 -29t31.5 -9q25 0 43.5 16t18.5 45q0 14 -6 31 l-187 387h-1136l-185 -387q-10 -16 -10 -31zM672 125v1493h92v-1493h-92z" />
<glyph unicode="u" horiz-adv-x="1775" d="M49 1679q0 -23 16.5 -42t49.5 -19h104v-1051q0 -139 54.5 -252.5t146.5 -194.5t213 -125t254 -44t254 44t213 125t146 194.5t54 252.5v1051h109q31 0 47 19t16 42t-16 42.5t-47 19.5h-334q-35 0 -51 -19.5t-16 -42.5t16 -42t51 -19h101v-1051q0 -115 -44.5 -206 t-120 -153.5t-174 -96t-204.5 -33.5q-74 0 -137 12v1528h108q35 0 51.5 19.5t16.5 41.5q0 23 -16.5 42.5t-51.5 19.5h-743q-33 0 -49.5 -19.5t-16.5 -42.5zM344 567v1051h92v-1337q-43 59 -67.5 129.5t-24.5 156.5z" />
<glyph unicode="v" horiz-adv-x="2050" d="M49 1679q0 -23 16.5 -42t49.5 -19h139l473 -1493h-100q-35 0 -51.5 -20.5t-16.5 -43.5t16.5 -42t51.5 -19h774q35 0 51 19.5t16 41.5q0 23 -16 43.5t-51 20.5h-84l471 1493h147q35 0 50.5 19t15.5 42t-16.5 42.5t-49.5 19.5h-399q-35 0 -51.5 -19.5t-16.5 -42.5t16.5 -42 t51.5 -19h121l-426 -1348l-426 1348h88q33 0 49 19.5t16 41.5q0 23 -16 42.5t-49 19.5h-778q-33 0 -49.5 -19.5t-16.5 -42.5zM387 1618h100l471 -1493h-100z" />
<glyph unicode="w" horiz-adv-x="3047" d="M49 1679q0 -23 16.5 -42t51.5 -19h139l471 -1493h-100q-35 0 -51.5 -20.5t-16.5 -43.5t16.5 -42t51.5 -19h778q33 0 49 19.5t16 41.5q0 23 -16 43.5t-49 20.5h-88l205 643l200 -643h-100q-35 0 -51.5 -20.5t-16.5 -43.5t16.5 -42t51.5 -19h778q35 0 49.5 19.5t14.5 41.5 q-2 23 -15.5 43.5t-48.5 20.5h-88l473 1493h146q35 0 51 19t16 42t-16 42.5t-51 19.5h-400q-35 0 -51 -19.5t-16 -42.5t16.5 -42t50.5 -19h121l-422 -1348l-426 1348h84q35 0 51.5 19.5t16.5 41.5q0 23 -16.5 42.5t-51.5 19.5h-776q-35 0 -51.5 -19.5t-16.5 -42.5t16.5 -42 t51.5 -19h141l201 -645l-221 -703l-426 1348h86q35 0 50 19.5t15 41.5q0 23 -16 42.5t-49 19.5h-776q-35 0 -51.5 -19.5t-16.5 -42.5zM387 1618h100l471 -1493h-100zM1382 1618h101l473 -1493h-103z" />
<glyph unicode="x" horiz-adv-x="1769" d="M49 61q0 -23 16.5 -42t51.5 -19h338q33 0 49 19.5t16 41.5q0 23 -16.5 43.5t-48.5 20.5h-90l301 635l299 -635h-86q-35 0 -51.5 -20.5t-16.5 -43.5t16.5 -42t51.5 -19h774q35 0 51 19t16 42t-16 43.5t-51 20.5h-119l-428 909l276 584h146q35 0 51 19.5t16 41.5 q0 23 -16 42.5t-51 19.5h-400q-35 0 -51 -19.5t-16 -42.5t16.5 -42t50.5 -19h117l-207 -438l-207 438h62q33 0 49 19.5t16 41.5q0 23 -16 42.5t-49 19.5h-776q-35 0 -51.5 -19.5t-16.5 -42.5t16.5 -42t51.5 -19h145l336 -713l-371 -780h-110q-35 0 -51.5 -20.5t-16.5 -43.5z M397 1618h109l704 -1493h-108z" />
<glyph unicode="y" horiz-adv-x="1665" d="M49 1679q0 -23 16.5 -42t49.5 -19h135l311 -981v-512h-119q-35 0 -51 -20.5t-16 -43.5t16.5 -42t50.5 -19h777q35 0 51 19.5t16 41.5q0 23 -16.5 43.5t-50.5 20.5h-101v512l307 981h123q35 0 51.5 19t16.5 42t-16.5 42.5t-51.5 19.5h-383q-33 0 -49 -19.5t-16 -42.5 t16.5 -42t48.5 -19h131l-247 -787l-248 787h106q33 0 50.5 19.5t17.5 41.5q0 23 -17.5 42.5t-50.5 19.5h-792q-35 0 -50.5 -19.5t-15.5 -42.5zM381 1618h100l324 -1024v-469h-119v532z" />
<glyph unicode="z" horiz-adv-x="1499" d="M49 0h1112l-41 -90q-8 -16 -8 -33q0 -27 18.5 -43t43.5 -16q16 0 31.5 8t25.5 31l149 321q8 10 9 31q0 27 -19.5 43t-42.5 16q-16 0 -31.5 -8t-25.5 -31l-49 -106h-531l760 1614h-1049l17 37q8 16 8 32q0 27 -19.5 43.5t-41.5 16.5q-16 0 -32 -9.5t-26 -31.5l-149 -320 q-10 -16 -11 -30q0 -27 19.5 -43.5t44.5 -16.5q16 0 31.5 8.5t25.5 30.5l74 160h479zM240 123l712 1491h107l-699 -1491h-120z" />
<glyph unicode="{" horiz-adv-x="933" d="M49 774l109 -92v-455q0 -88 33.5 -164.5t91 -134t134.5 -91.5t165 -34h237q35 0 51.5 19.5t14.5 44.5q0 23 -15.5 41t-50.5 18h-59v590q0 78 -35 145.5t-92 112.5q57 41 92 108.5t35 147.5v588h59q35 0 51.5 20.5t14.5 42.5q0 23 -15.5 41.5t-50.5 18.5h-237 q-88 0 -165 -34t-134.5 -91t-91 -134t-33.5 -163v-455zM281 227v1092q0 57 24.5 114.5t65.5 98.5v-1516q-41 41 -65.5 97.5t-24.5 113.5z" />
<glyph unicode="|" horiz-adv-x="305" d="M49 -246h207v2048h-207v-2048z" />
<glyph unicode="}" horiz-adv-x="933" d="M41 -133q0 23 15.5 41t49.5 18h60v590q0 78 35 145.5t92 112.5q-57 41 -92 108.5t-35 147.5v588h-60q-35 0 -50 20.5t-15 42.5q2 23 16.5 41.5t48.5 18.5h238q88 0 165 -34t134 -91t91 -134t34 -163v-455l109 -90l-109 -92v-455q0 -88 -34 -164.5t-91 -134t-134 -91.5 t-165 -34h-238q-35 0 -51 19.5t-14 44.5zM555 16q41 41 65.5 97.5t24.5 113.5v1092q0 57 -24.5 114.5t-65.5 98.5v-1516z" />
<glyph unicode="~" horiz-adv-x="1150" d="M49 668q0 -29 17.5 -45.5t39.5 -16.5q23 0 42.5 13.5t23.5 42.5l16 94l492 -140q33 -8 72 -8q55 0 106 18.5t94 51.5t72 78t39 98l39 223v13q0 31 -18.5 47t-43.5 16q-20 0 -38.5 -14.5t-22.5 -42.5l-14 -88l-496 137q-37 10 -72 10q-55 0 -108 -20.5t-95 -56.5t-72 -84 t-38 -103l-35 -209v-14zM268 979q27 25 60.5 39t68.5 14h23q8 0 18 -4l504 -145q-8 -27 -33.5 -45.5t-56.5 -18.5q-10 0 -14 2z" />
<glyph unicode="&#xa4;" horiz-adv-x="1767" d="M49 750q0 23 16.5 42t47.5 19h159v86h-159q-31 0 -47.5 19.5t-16.5 41.5q0 23 16.5 42.5t47.5 19.5h174q27 154 103.5 284t190 226t255 150.5t299.5 54.5q219 0 413 -105l49 127q10 27 25.5 36t34.5 9q25 0 43 -16t18 -41q0 -4 -1 -12.5t-3 -18.5l-166 -432 q-20 -45 -61 -45q-23 0 -41.5 16.5t-18.5 44.5v13q0 6 5 14l71 186q-86 47 -178 74t-190 27q-92 0 -174 -20.5t-160 -59.5v-512h559q35 0 51 -19.5t16 -42.5t-16 -42t-51 -19h-559v-86h493q35 0 51.5 -19.5t16.5 -41.5q0 -23 -16.5 -42.5t-51.5 -19.5h-493v-510 q156 -82 334 -82q242 0 436 146q20 14 41 14q27 0 44 -18.5t17 -42.5q0 -12 -6 -26.5t-22 -27.5q-111 -82 -240 -125t-270 -43q-172 0 -316.5 54.5t-254 150.5t-180.5 226.5t-97 283.5h-174q-31 0 -47.5 19.5t-16.5 42.5zM395 856q0 -98 24.5 -195.5t69.5 -175.5v744 q-45 -82 -69.5 -178.5t-24.5 -194.5z" />
<glyph unicode="&#xa6;" horiz-adv-x="305" d="M49 -246h207v983h-207v-983zM49 819h207v983h-207v-983z" />
<glyph unicode="&#xa7;" horiz-adv-x="1497" d="M49 248q0 -102 39 -191.5t105.5 -157t155.5 -106.5t192 -39q100 0 190 39t155.5 106.5t104.5 156.5t39 192v16t-2 17q90 14 167 58t133 109.5t88 147.5t32 174q0 135 -71.5 244.5t-178.5 185.5l-170 121q-29 20 -50.5 50t-21.5 65q0 53 38 89t91 36h109l49 -107 q10 -23 25.5 -31t31.5 -8q23 0 42.5 16.5t19.5 41.5q0 20 -8 30l-119 258q-10 23 -24.5 32t-30.5 9q-25 0 -43.5 -16.5t-18.5 -44.5q0 -12 6 -31l15 -29h-258q-80 0 -149.5 -29.5t-122 -81.5t-82 -122t-29.5 -150q0 -35 5 -69.5t17 -69.5h-55q-82 0 -150.5 -29.5 t-121.5 -82.5t-84 -123t-31 -148q0 -88 34.5 -163.5t102.5 -127.5l377 -282q31 -23 44 -60t13 -73q0 -76 -53 -128.5t-127 -52.5q-63 0 -117.5 35t-94.5 88.5t-62.5 117t-22.5 118.5q0 35 -18.5 49t-40.5 14q-25 0 -44.5 -14t-19.5 -49zM203 776q0 92 53 162q-6 -35 -6 -68 q0 -86 43 -147q41 -59 96 -102l268 -205q66 -49 114 -114.5t48 -151.5q0 -109 -71 -197q12 29 17 58.5t5 58.5q0 66 -26.5 128t-79.5 103l-377 283q-41 33 -62.5 83t-21.5 109zM539 913q0 35 19.5 66t51.5 45q2 -2 44 -34t98.5 -75t117 -87t97.5 -72.5t41 -30.5 q31 -23 45 -59.5t14 -73.5q0 -45 -20.5 -85t-61.5 -65q-29 55 -84 122t-121 114l-170 121q-29 20 -50 49t-21 65zM618 1298q0 90 56 162q-8 -31 -8 -65q0 -80 42 -141.5t101 -108.5l266 -205q66 -49 114 -114.5t48 -151.5q0 -104 -68 -189q20 47 21 107q0 68 -29 131 q-14 29 -32.5 55.5t-45.5 44.5l-376 281q-47 35 -68 88t-21 106z" />
<glyph unicode="&#xa9;" horiz-adv-x="1841" d="M49 870q0 -180 68.5 -338.5t186.5 -276.5t276.5 -186.5t339.5 -68.5q180 0 338.5 68.5t277.5 186.5t187.5 276.5t68.5 338.5t-68.5 338t-187.5 277t-277.5 187.5t-338.5 68.5t-339 -68.5t-277 -187.5t-186.5 -276.5t-68.5 -338.5zM174 870q0 154 58.5 290t160 237.5 t237.5 161t290 59.5t290 -59.5t237 -161t159.5 -237.5t58.5 -290t-58.5 -290t-159.5 -237t-237.5 -159.5t-289.5 -58.5q-154 0 -290 58.5t-237.5 159.5t-160 237.5t-58.5 289.5zM340 870q0 -123 46 -231.5t127 -190t189.5 -129t231.5 -47.5q94 0 183 29t165 88q31 20 31 53 q0 23 -18.5 41.5t-43.5 18.5q-20 0 -43 -15q-59 -45 -129.5 -67.5t-144.5 -22.5q-33 0 -63.5 3t-59.5 14v915q29 10 59.5 13.5t63.5 3.5q66 0 129 -19.5t121 -54.5v-82q0 -35 20.5 -51.5t42.5 -16.5q23 0 41.5 16.5t18.5 51.5v217q0 35 -18.5 50.5t-41.5 15.5t-43 -15.5 t-20 -44.5q-125 57 -250 57q-123 0 -231.5 -48t-189.5 -129t-127 -190.5t-46 -232.5zM463 870q0 78 23.5 146.5t64.5 128.5v-549q-41 59 -64.5 129t-23.5 145z" />
<glyph unicode="&#xab;" horiz-adv-x="811" d="M49 870l250 -348q23 -31 55 -30q23 0 41.5 17t18.5 46q0 20 -13 39l-39 55v445l39 55q12 18 13 39q0 27 -18.5 44t-41.5 17q-14 0 -29.5 -6t-25.5 -22zM203 870l35 50v-99zM397 870l250 -348q23 -31 55 -30q23 0 41.5 17t18.5 46q0 20 -12 39l-39 55v445l39 55 q12 18 12 39q0 27 -18.5 44t-41.5 17q-14 0 -29.5 -6t-25.5 -22zM551 870l35 50v-99z" />
<glyph unicode="&#xac;" horiz-adv-x="1345" d="M49 745h998v-329h249v577h-1247v-248z" />
<glyph unicode="&#xad;" horiz-adv-x="768" d="M49 653h670v437h-670v-437zM174 776v191h98v-191h-98z" />
<glyph unicode="&#xae;" horiz-adv-x="1177" d="M49 1188q0 -111 42 -209t116 -172t172 -116t211 -42q111 0 209 42t170.5 116t115.5 172t43 209t-43 209t-115.5 171.5t-171 115.5t-208.5 42q-113 0 -211 -42t-172 -115.5t-116 -172t-42 -208.5zM121 1188q0 96 37 181t100.5 148.5t149.5 100.5t182 37t182 -37 t149.5 -100.5t100.5 -148.5t37 -181q0 -98 -37 -183t-100.5 -147.5t-149.5 -99.5t-182 -37t-182 37t-149.5 99.5t-100.5 147.5t-37 183zM322 958q0 -12 8 -22t24 -10h252q16 0 24.5 10t8.5 22q0 10 -8 20.5t-25 10.5h-18v105q41 -18 61.5 -56.5t20.5 -79.5v-32h223 q16 0 24.5 10t8.5 22q0 10 -8.5 20.5t-24.5 10.5h-25q-10 45 -35.5 84t-66.5 64q49 29 77.5 78t28.5 106q0 45 -17 84t-47 68.5t-69 47t-84 17.5h-295q-16 0 -23 -10t-7 -21q0 -12 7 -22t23 -10h25v-486h-31q-16 0 -24 -10t-8 -21zM588 1165v310h57v-310h-57z" />
<glyph unicode="&#xb0;" horiz-adv-x="774" d="M49 1405q0 -70 26.5 -131.5t72 -107.5t106.5 -72.5t133 -26.5q70 0 131.5 25.5t107.5 71.5t72.5 107.5t26.5 133.5q0 70 -26.5 131t-72.5 107.5t-107.5 72t-131.5 25.5t-131 -26.5t-107.5 -73t-73 -107.5t-26.5 -129zM174 1405q0 90 61.5 151.5t151.5 61.5q43 0 82 -16.5 t67.5 -45t46 -67.5t17.5 -84t-17.5 -84t-46 -68.5t-67.5 -46t-82 -16.5q-45 0 -84 16.5t-67.5 46t-45 68.5t-16.5 84z" />
<glyph unicode="&#xb1;" horiz-adv-x="1304" d="M49 0h1206v250h-1206v-250zM49 815h481v-481h248v481h477v248h-477v479h-248v-479h-481v-248z" />
<glyph unicode="&#xb5;" horiz-adv-x="1593" d="M49 1155q0 -23 16.5 -41t51.5 -18h106v-1334h529v232q14 0 25 -1t26 -1q117 0 222 38t185 108.5t128 170t48 221.5v566h91q35 0 51 18t16 41t-16.5 43.5t-50.5 20.5h-334q-27 0 -46.5 -20.5t-19.5 -43.5t16.5 -41t49.5 -18h117v-566q0 -96 -38 -171.5t-100.5 -129 t-145.5 -82t-173 -28.5h-27q-10 0 -24 2v975h110q33 0 49.5 18.5t16.5 40.5q0 23 -16.5 43.5t-49.5 20.5h-745q-35 0 -51.5 -20.5t-16.5 -43.5zM346 -115v1211h94v-1211h-94z" />
<glyph unicode="&#xb6;" horiz-adv-x="1458" d="M49 942q0 -145 50.5 -276t138.5 -236.5t208.5 -178.5t262.5 -97q4 -2 16 -2q29 0 45 19t16 42q0 20 -13 38.5t-42 22.5q-45 6 -78 21v1292q92 31 197 31h24v-1751q0 -35 18.5 -51.5t41.5 -16.5q25 0 44 16.5t19 51.5v1751h97v-1751q0 -35 19.5 -51.5t41.5 -16.5 q23 0 42.5 16.5t19.5 51.5v1751h124q35 0 51.5 19t16.5 42t-16.5 42.5t-51.5 19.5h-491q-166 0 -311.5 -63.5t-254 -172t-172 -254t-63.5 -309.5zM172 942q0 113 35 214t100 187v-804q-66 86 -100.5 186t-34.5 217z" />
<glyph unicode="&#xb7;" horiz-adv-x="630" d="M49 866q0 -55 21.5 -104t57.5 -86t84 -57.5t103 -20.5t103.5 20.5t84.5 57.5t57.5 86t21.5 104t-21.5 103.5t-57.5 84.5t-84 56t-104 20q-55 0 -103 -20t-84 -56t-57.5 -84t-21.5 -104zM174 866q0 45 25.5 80t68.5 51v-266q-43 16 -68.5 52t-25.5 83z" />
<glyph unicode="&#xbb;" horiz-adv-x="827" d="M66 555q0 20 12 39l39 55v445l-39 55q-12 18 -12 39q0 27 18 44t41 17q14 0 29.5 -6t25.5 -22l250 -351l-250 -348q-23 -31 -55 -30q-23 0 -41 17t-18 46zM242 821l34 49l-34 50v-99zM414 555q0 20 12 39l39 55v445l-39 55q-12 18 -12 39q0 27 18.5 44t40.5 17 q14 0 29.5 -6t25.5 -22l250 -351l-250 -348q-23 -31 -55 -30q-23 0 -41 17t-18 46zM590 821l35 49l-35 50v-99z" />
<glyph unicode="&#x401;" horiz-adv-x="1433" d="M49 61q0 23 16.5 43.5t49.5 20.5h125v1493h-125q-33 0 -49.5 19.5t-16.5 41.5q0 23 16.5 42.5t49.5 19.5h1104v-430q0 -33 -20.5 -49.5t-43.5 -16.5t-43 16.5t-20 49.5v307h-324v-612h569l-372 -371l-197 190v-700h346l156 209q25 31 51 31q25 0 44 -18.5t19 -43.5 q0 -10 -4 -20.5t-10 -22.5l-192 -260h-1063q-33 0 -49.5 19.5t-16.5 41.5zM233 1980q0 39 14.5 73t40 59.5t60.5 41t74 15.5t73.5 -15.5t60.5 -41t40 -59.5t14 -73q0 -78 -55 -133t-133 -55q-41 0 -75 15.5t-59.5 41t-40 59.5t-14.5 72zM356 1980q0 -29 18.5 -47t47.5 -18 v129q-29 0 -47.5 -19.5t-18.5 -44.5zM362 125h95v1493h-95v-1493zM684 1980q0 39 14.5 73t40 59.5t60.5 41t73 15.5q39 0 74 -15.5t60.5 -41t40 -59.5t14.5 -73q0 -78 -55.5 -133t-133.5 -55q-39 0 -73.5 15.5t-60 41t-40 59.5t-14.5 72zM807 1980q0 -29 18.5 -47t46.5 -18 v129q-29 0 -47 -19.5t-18 -44.5z" />
<glyph unicode="&#x402;" d="M49 61q0 23 16.5 43.5t51.5 20.5h123v1493h-123q-35 0 -51.5 19.5t-16.5 41.5q0 23 16.5 42.5t51.5 19.5h1329v-430q0 -33 -20.5 -49.5t-43.5 -16.5t-43 16.5t-20 49.5v307h-549v-551h309q111 0 207 -41t168 -112.5t114 -168t42 -206.5q0 -111 -42 -208.5t-114 -171 t-168 -116.5t-207 -43h-73q-35 0 -51.5 19.5t-16.5 41.5q0 23 16.5 43.5t51.5 20.5h38v811h-274v-936h-653q-35 0 -51.5 19.5t-16.5 41.5zM365 125h92v1493h-92v-1493zM1167 135q25 4 49.5 13.5t47.5 19.5v723q-53 23 -97 35v-791z" />
<glyph unicode="&#x403;" horiz-adv-x="1261" d="M49 61q0 23 16.5 43.5t51.5 20.5h123v1493h-123q-35 0 -51.5 19.5t-16.5 41.5q0 23 16.5 42.5t51.5 19.5h1145v-430q0 -33 -20.5 -49.5t-43.5 -16.5t-43 16.5t-20 49.5v307h-365v-1493h150q35 0 51 -20.5t16 -43.5t-16.5 -42t-50.5 -19h-803q-35 0 -51.5 19.5t-16.5 41.5 zM317 1792l340 555h463l-504 -555h-299zM365 125h94v1493h-94v-1493zM539 1915h24l279 309h-115z" />
<glyph unicode="&#x404;" horiz-adv-x="1503" d="M49 856q0 178 64.5 338t180.5 279.5t273.5 190.5t343.5 71q78 0 158 -14.5t154 -43.5l-15 37q-6 14 -6 29q0 27 19.5 43t44.5 16q39 0 57 -45l125 -325q6 -12 6 -27q0 -29 -19.5 -46.5t-41.5 -17.5q-41 0 -60 45l-47 121q-86 53 -173 79t-202 26q-100 0 -178 -20.5 t-153 -59.5v-543h569v-125h-569v-682q76 -39 157.5 -59.5t173.5 -20.5q119 0 229.5 37t205.5 107q14 14 43 14q25 0 42 -18.5t17 -40.5q0 -31 -29 -54q-111 -86 -238.5 -126.5t-269.5 -40.5q-186 0 -343.5 70.5t-273.5 190t-180.5 278.5t-64.5 337zM174 856 q0 -98 24.5 -193.5t67.5 -175.5v742q-43 -82 -67.5 -178.5t-24.5 -194.5z" />
<glyph unicode="&#x405;" horiz-adv-x="1320" d="M49 606q0 35 19.5 51.5t42.5 16.5q25 0 44 -16.5t19 -51.5q0 -74 29.5 -156.5t82 -151.5t123 -115t152.5 -46q51 0 97.5 19.5t82 53.5t57 78t21.5 95q0 82 -55 148.5t-132 123t-160 105.5t-138 98q-98 86 -165 186.5t-67 227.5q0 96 39 182t116 149.5t190.5 100.5 t263.5 37h207l-27 57q-6 18 -6 31q0 29 18.5 45t44.5 16q14 0 29.5 -9t26.5 -32l149 -323q10 -14 10 -31q0 -29 -20.5 -45t-44.5 -16q-35 0 -56 39l-65 145h-150q-74 0 -125 -50t-51 -124q0 -51 30 -88t67 -66l215 -155q66 -47 122 -104.5t98 -124t65.5 -142.5t23.5 -158 q0 -125 -50.5 -234.5t-135.5 -192.5t-196.5 -131t-236.5 -48q-127 0 -236.5 48t-191.5 131t-129 192.5t-47 234.5zM225 1272q0 -106 64.5 -194.5t159.5 -162.5q72 -57 157.5 -107t161.5 -110q76 -59 126 -132.5t50 -182.5q0 -104 -49 -184q51 53 77.5 122.5t26.5 143.5 q0 117 -57 202t-143 154q-82 68 -174.5 125.5t-159.5 116.5q-80 72 -137.5 151.5t-57.5 171.5q0 35 6 66q-51 -84 -51 -180z" />
<glyph unicode="&#x406;" horiz-adv-x="1007" d="M49 61q0 23 16.5 43.5t51.5 20.5h123v1493h-123q-35 0 -51.5 19.5t-16.5 41.5q0 23 16.5 42.5t51.5 19.5h776q33 0 49 -19.5t16 -42.5t-16 -42t-49 -19h-125v-1493h125q33 0 49 -20.5t16 -43.5t-16 -42t-49 -19h-776q-35 0 -51.5 19.5t-16.5 41.5zM362 125h95v1493h-95 v-1493z" />
<glyph unicode="&#x407;" horiz-adv-x="1007" d="M49 61q0 23 16.5 43.5t51.5 20.5h123v1493h-123q-35 0 -51.5 19.5t-16.5 41.5q0 23 16.5 42.5t51.5 19.5h776q33 0 49 -19.5t16 -42.5t-16 -42t-49 -19h-125v-1493h125q33 0 49 -20.5t16 -43.5t-16 -42t-49 -19h-776q-35 0 -51.5 19.5t-16.5 41.5zM90 1980q0 39 14.5 73 t40 59.5t59.5 41t75 15.5q39 0 73.5 -15.5t60 -41t40 -59.5t14.5 -73t-14.5 -73.5t-40 -60t-60.5 -40t-73 -14.5q-41 0 -75 15.5t-59.5 41t-40 59.5t-14.5 72zM213 1980q0 -29 18.5 -47t47.5 -18v129q-29 0 -47.5 -19.5t-18.5 -44.5zM362 125h95v1493h-95v-1493zM541 1980 q0 39 14 73t40 59.5t59.5 41t74.5 15.5q39 0 74 -15.5t60.5 -41t40 -59.5t14.5 -73t-14.5 -73.5t-40 -60t-60.5 -40t-74 -14.5q-41 0 -74.5 15.5t-59.5 41t-40 59.5t-14 72zM664 1980q0 -29 18 -47t47 -18v129q-29 0 -47 -19.5t-18 -44.5z" />
<glyph unicode="&#x408;" horiz-adv-x="931" d="M49 61q0 23 16.5 43.5t51.5 20.5h159h3v1493h-103q-35 0 -51 19.5t-16 41.5q0 23 16 42.5t51 19.5h707v-1133q0 -125 -48.5 -235.5t-130 -193.5t-192.5 -131t-236 -48h-159q-35 0 -51.5 19.5t-16.5 41.5zM403 141q52 14 97 39v1438h-97v-1477z" />
<glyph unicode="&#x409;" horiz-adv-x="2283" d="M0 61q0 23 16.5 43.5t51.5 20.5h63v440q0 162 42 311.5t119 280.5t185.5 238.5t238.5 184.5t280.5 119t312.5 42h211q35 0 51 -19.5t16 -42.5t-16.5 -42t-50.5 -19h-115v-551h309q111 0 207 -41t168 -112.5t114 -168t42 -206.5q0 -111 -42 -208.5t-114 -171t-168 -116.5 t-207 -43h-962q-35 0 -51.5 19.5t-16.5 41.5q0 23 16.5 43.5t51.5 20.5h122v1397q-137 -61 -250.5 -159.5t-195.5 -222.5t-127 -269.5t-45 -305.5v-440h106q33 0 50.5 -19.5t17.5 -44.5q0 -23 -17.5 -42t-50.5 -19h-294q-35 0 -51.5 19.5t-16.5 41.5zM999 125h93v1470 q-49 -10 -93 -24v-1446zM1405 125h274v811h-274v-811zM1802 135q25 4 49.5 13.5t46.5 19.5v723q-53 23 -96 35v-791z" />
<glyph unicode="&#x40a;" horiz-adv-x="2596" d="M49 61q0 23 15.5 43.5t48.5 20.5h125v1493h-125q-31 0 -47.5 19.5t-16.5 41.5q0 23 15.5 42.5t48.5 19.5h714q35 0 51.5 -19.5t16.5 -42.5t-16.5 -42t-51.5 -19h-59v-551h432v551h-61q-33 0 -49.5 19.5t-16.5 41.5q0 23 15.5 42.5t50.5 19.5h714q35 0 51.5 -19.5 t16.5 -42.5t-16.5 -42t-51.5 -19h-122v-551h309q111 0 207 -41t167.5 -112.5t113.5 -168t42 -206.5q0 -111 -42 -208.5t-113.5 -171t-168 -116.5t-206.5 -43h-899q-35 0 -51.5 19.5t-16.5 41.5q0 23 16.5 43.5t51.5 20.5h59v811h-432v-811h59q35 0 51.5 -20.5t16.5 -43.5 t-16.5 -42t-51.5 -19h-714q-31 0 -47.5 19.5t-16.5 41.5zM362 125h93v1493h-93v-1493zM1325 125h92v1493h-92v-1493zM1731 125h274v811h-274v-811zM2128 135q25 4 49.5 13.5t46.5 19.5v723q-53 23 -96 35v-791z" />
<glyph unicode="&#x40b;" horiz-adv-x="1785" d="M49 61q0 23 16.5 43.5t51.5 20.5h123v1493h-123q-35 0 -51.5 19.5t-16.5 41.5q0 23 16.5 42.5t51.5 19.5h1329v-430q0 -33 -20.5 -49.5t-43.5 -16.5t-43 16.5t-20 49.5v307h-549v-551h309q111 0 207 -41t168 -112.5t114 -168t42 -206.5v-414h88q35 0 51 -20.5t16 -43.5 t-16 -42t-51 -19h-694q-33 0 -49.5 19.5t-16.5 41.5q0 23 15.5 43.5t50.5 20.5h40v811h-274v-811h43q35 0 50.5 -20.5t15.5 -43.5t-16.5 -42t-49.5 -19h-696q-35 0 -51.5 19.5t-16.5 41.5zM365 125h92v1493h-92v-1493zM1167 125h97v766q-53 23 -97 35v-801z" />
<glyph unicode="&#x40c;" horiz-adv-x="1865" d="M49 61q0 23 16.5 43.5t49.5 20.5h125v1493h-125q-33 0 -49.5 19.5t-16.5 41.5q0 23 16.5 42.5t49.5 19.5h714q35 0 51.5 -19.5t16.5 -42.5t-16.5 -42t-51.5 -19h-61v-752l356 752h-26q-33 0 -49.5 19.5t-16.5 41.5q0 23 16.5 42.5t49.5 19.5h653q33 0 49.5 -19.5 t16.5 -42.5t-16.5 -42t-49.5 -19h-84l-432 -913q82 -35 152.5 -98.5t123 -141.5t86 -166t43.5 -174h97q35 0 51 -20.5t16 -43.5t-16 -42t-51 -19h-627v61q0 80 -23.5 155t-67.5 137.5t-107.5 106.5t-143.5 60v-395h125q33 0 49 -20.5t16 -43.5t-16 -42t-49 -19h-778 q-33 0 -49.5 19.5t-16.5 41.5zM362 125h95v1493h-95v-1493zM623 1792l340 555h462l-503 -555h-299zM801 639q92 -18 167.5 -67.5t131 -118t89.5 -153.5t44 -175h90q-23 193 -122 342t-277 229l436 922h-98zM844 1915h24l279 309h-115z" />
<glyph unicode="&#x40e;" horiz-adv-x="1769" d="M49 1679q0 23 16.5 42.5t51.5 19.5h776q33 0 49 -19.5t16 -42.5t-16 -42t-49 -19h-62l271 -576l266 576h-117q-35 0 -51 19.5t-16 41.5q0 23 16.5 42.5t50.5 19.5h400q35 0 51 -19.5t16 -42.5t-16 -42t-51 -19h-146l-688 -1493h152q33 0 49 -20.5t16 -43.5t-16.5 -42 t-48.5 -19h-420q-35 0 -51.5 19.5t-16.5 41.5q0 23 16.5 43.5t51.5 20.5h131l141 305l-559 1188h-145q-35 0 -51.5 19.5t-16.5 41.5zM397 1618l492 -1043l53 119l-436 924h-109zM510 2173l131 100q23 -86 96.5 -141t163.5 -55t163 55t95 141l135 -100q0 -82 -30.5 -152.5 t-85 -124t-126 -84t-151.5 -30.5q-82 0 -152.5 30.5t-124 84t-84 124t-30.5 152.5zM680 2021q37 -53 94 -84.5t127 -31.5t127 31.5t92 84.5q-96 -68 -219 -67q-127 0 -221 67z" />
<glyph unicode="&#x40f;" horiz-adv-x="2011" d="M49 61q0 23 15.5 43.5t48.5 20.5h125v1493h-125q-31 0 -47.5 19.5t-16.5 41.5q0 23 15.5 42.5t48.5 19.5h714q35 0 51.5 -19.5t16.5 -42.5t-16.5 -42t-51.5 -19h-59v-1493h473v1493h-61q-33 0 -49.5 19.5t-16.5 41.5q0 23 15.5 42.5t50.5 19.5h714q35 0 51.5 -19.5 t16.5 -42.5t-16.5 -42t-51.5 -19h-122v-1493h126q33 0 48.5 -20.5t15.5 -43.5t-16.5 -42t-47.5 -19h-829v-305q0 -33 -20.5 -49.5t-42.5 -16.5q-23 0 -43.5 16.5t-20.5 49.5v305h-829q-31 0 -47.5 19.5t-16.5 41.5zM362 125h93v1493h-93v-1493zM1366 125h92v1493h-92v-1493z " />
<glyph unicode="&#x410;" horiz-adv-x="1640" d="M0 61q0 23 16.5 43.5t51.5 20.5h63v440q0 162 42 311.5t119 280.5t185.5 238.5t238.5 184.5t280.5 119t312.5 42h211q35 0 51 -19.5t16 -42.5t-16.5 -42t-50.5 -19h-115v-1493h123q35 0 50 -20.5t15 -43.5t-15 -42t-50 -19h-778q-33 0 -49.5 19.5t-16.5 41.5 q0 23 16.5 43.5t49.5 20.5h124v387h-618v-387h106q33 0 50.5 -19.5t17.5 -44.5q0 -23 -17.5 -42t-50.5 -19h-294q-35 0 -51.5 19.5t-16.5 41.5zM256 637h618v885q-129 -59 -238.5 -149.5t-190 -204t-131 -249t-58.5 -282.5zM999 125h93v1470q-49 -10 -93 -24v-1446z" />
<glyph unicode="&#x411;" d="M49 61q0 23 16.5 43.5t51.5 20.5h123v1493h-123q-35 0 -51.5 19.5t-16.5 41.5q0 23 16.5 42.5t51.5 19.5h1329v-430q0 -33 -20.5 -49.5t-43.5 -16.5t-43 16.5t-20 49.5v307h-549v-551h309q111 0 207 -41t168 -112.5t114 -168t42 -206.5q0 -111 -42 -208.5t-114 -171 t-168 -116.5t-207 -43h-962q-35 0 -51.5 19.5t-16.5 41.5zM365 125h92v1493h-92v-1493zM770 125h274v811h-274v-811zM1167 135q25 4 49.5 13.5t47.5 19.5v723q-53 23 -97 35v-791z" />
<glyph unicode="&#x412;" d="M49 61q0 23 16.5 43.5t51.5 20.5h123v1493h-123q-35 0 -51.5 19.5t-16.5 41.5q0 23 16.5 42.5t51.5 19.5h905q82 0 154.5 -32t127 -85t86 -126t31.5 -155q0 -98 -42 -179t-113 -138q76 -29 139 -79t109.5 -114.5t71 -142.5t24.5 -160q0 -111 -42 -207t-114 -167.5 t-168 -113.5t-207 -42h-962q-35 0 -51.5 19.5t-16.5 41.5zM365 125h92v1493h-92v-1493zM770 125h274v811h-274v-811zM770 1067h166v551h-166v-551zM1063 1069q27 6 52 14.5t48 22.5v473q-47 25 -100 35v-545zM1167 135q25 4 49.5 13.5t47.5 19.5v723q-53 23 -97 35v-791z " />
<glyph unicode="&#x413;" horiz-adv-x="1261" d="M49 61q0 23 16.5 43.5t51.5 20.5h123v1493h-123q-35 0 -51.5 19.5t-16.5 41.5q0 23 16.5 42.5t51.5 19.5h1145v-430q0 -33 -20.5 -49.5t-43.5 -16.5t-43 16.5t-20 49.5v307h-365v-1493h150q35 0 51 -20.5t16 -43.5t-16.5 -42t-50.5 -19h-803q-35 0 -51.5 19.5t-16.5 41.5 zM365 125h94v1493h-94v-1493z" />
<glyph unicode="&#x414;" horiz-adv-x="1640" d="M0 61q0 23 16.5 43.5t51.5 20.5h63v440q0 162 42 311.5t119 280.5t185.5 238.5t238.5 184.5t280.5 119t312.5 42h211q35 0 51 -19.5t16 -42.5t-16.5 -42t-50.5 -19h-115v-1493h123q35 0 50 -20.5t15 -43.5t-15 -42t-50 -19h-1460q-35 0 -51.5 19.5t-16.5 41.5zM256 125 h618v1397q-137 -61 -250.5 -159.5t-195.5 -222.5t-127 -269.5t-45 -305.5v-440zM999 125h93v1470q-49 -10 -93 -24v-1446z" />
<glyph unicode="&#x415;" horiz-adv-x="1433" d="M49 61q0 23 16.5 43.5t49.5 20.5h125v1493h-125q-33 0 -49.5 19.5t-16.5 41.5q0 23 16.5 42.5t49.5 19.5h1104v-430q0 -33 -20.5 -49.5t-43.5 -16.5t-43 16.5t-20 49.5v307h-324v-612h569l-372 -371l-197 190v-700h346l156 209q25 31 51 31q25 0 44 -18.5t19 -43.5 q0 -10 -4 -20.5t-10 -22.5l-192 -260h-1063q-33 0 -49.5 19.5t-16.5 41.5zM362 125h95v1493h-95v-1493z" />
<glyph unicode="&#x416;" horiz-adv-x="2777" d="M72 1679q0 23 16 42.5t49 19.5h654q33 0 49 -19.5t16 -42.5t-16.5 -42t-48.5 -19h-27l356 -752v752h-63q-33 0 -49.5 19.5t-16.5 41.5q0 23 16.5 42.5t49.5 19.5h653q35 0 51.5 -19.5t16.5 -42.5t-16.5 -42t-51.5 -19h-61v-752l356 752h-27q-33 0 -49 19.5t-16 41.5 q0 23 16.5 42.5t48.5 19.5h654q33 0 49 -19.5t16 -42.5t-16.5 -42t-48.5 -19h-84l-432 -913q82 -35 152.5 -98.5t122.5 -141.5t86 -166t44 -174h96q35 0 51.5 -20.5t16.5 -43.5t-16.5 -42t-51.5 -19h-626v61q0 80 -23.5 155t-68 137.5t-107.5 106.5t-143 60v-395h125 q33 0 49 -20.5t16 -43.5t-16.5 -42t-48.5 -19h-779q-33 0 -49 19.5t-16 41.5q0 23 16.5 43.5t48.5 20.5h125v395q-80 -16 -143.5 -60t-107.5 -106.5t-67.5 -137.5t-23.5 -155v-61h-626q-35 0 -51.5 19.5t-16.5 41.5q0 23 16.5 43.5t51.5 20.5h96q10 86 44 174t86 166 t121.5 141.5t153.5 98.5l-432 913h-84q-33 0 -49 19.5t-16 41.5zM356 1618l451 -950q-88 -43 -163 -103.5t-131 -132.5t-92 -149.5t-48 -157.5h96q16 156 139 287t322 217l-467 989h-107zM1243 125h94v1493h-94v-1493zM1681 639q92 -18 168 -67.5t131.5 -118t89 -153.5 t44.5 -175h90q-23 193 -122.5 342t-277.5 229l437 922h-99z" />
<glyph unicode="&#x417;" horiz-adv-x="1503" d="M49 229q0 25 17.5 43.5t46.5 18.5q20 0 41 -15q117 -86 252 -129t278 -43q121 0 219 27v832q-45 10 -91 17t-95 7h-139q-33 0 -53.5 24.5t-2.5 61.5l262 545h-479l-74 -160q-10 -23 -25.5 -31t-31.5 -8q-25 0 -44 16.5t-19 43.5q0 14 10 30l149 320q10 23 25.5 32t32.5 9 q23 0 42 -16.5t19 -43.5q0 -18 -8 -32l-16 -37h1048q35 0 49.5 -19.5t14.5 -42.5t-14.5 -42t-49.5 -19h-59l-275 -586q74 -33 141.5 -81t120 -109.5t83 -135t30.5 -159.5q0 -94 -35 -173t-94 -142.5t-137 -110.5t-164 -79t-174 -47t-166 -15q-162 0 -317.5 50t-286.5 148 q-31 20 -31 51zM672 1112h110l240 506h-107zM1026 170q23 10 47.5 22.5t46.5 26.5v653q-23 14 -45 25.5t-49 24.5v-752z" />
<glyph unicode="&#x418;" horiz-adv-x="2011" d="M49 61q0 23 15.5 43.5t48.5 20.5h125v1493h-125q-31 0 -47.5 19.5t-16.5 41.5q0 23 15.5 42.5t48.5 19.5h714q35 0 51.5 -19.5t16.5 -42.5t-16.5 -42t-51.5 -19h-59v-793l473 473v320h-61q-33 0 -49.5 19.5t-16.5 41.5q0 23 15.5 42.5t50.5 19.5h714q35 0 51.5 -19.5 t16.5 -42.5t-16.5 -42t-51.5 -19h-122v-1493h122q35 0 51.5 -20.5t16.5 -43.5t-16.5 -42t-51.5 -19h-714q-33 0 -49.5 19.5t-16.5 41.5q0 23 15.5 43.5t50.5 20.5h61v989l-473 -473v-516h59q35 0 51.5 -20.5t16.5 -43.5t-16.5 -42t-51.5 -19h-714q-31 0 -47.5 19.5 t-16.5 41.5zM362 125h93v1493h-93v-1493zM1366 125h92v1493h-92v-1493z" />
<glyph unicode="&#x419;" horiz-adv-x="2011" d="M49 61q0 23 15.5 43.5t48.5 20.5h125v1493h-125q-31 0 -47.5 19.5t-16.5 41.5q0 23 15.5 42.5t48.5 19.5h714q35 0 51.5 -19.5t16.5 -42.5t-16.5 -42t-51.5 -19h-59v-793l473 473v320h-61q-33 0 -49.5 19.5t-16.5 41.5q0 23 15.5 42.5t50.5 19.5h714q35 0 51.5 -19.5 t16.5 -42.5t-16.5 -42t-51.5 -19h-122v-1493h122q35 0 51.5 -20.5t16.5 -43.5t-16.5 -42t-51.5 -19h-714q-33 0 -49.5 19.5t-16.5 41.5q0 23 15.5 43.5t50.5 20.5h61v989l-473 -473v-516h59q35 0 51.5 -20.5t16.5 -43.5t-16.5 -42t-51.5 -19h-714q-31 0 -47.5 19.5 t-16.5 41.5zM362 125h93v1493h-93v-1493zM614 2173l131 100q23 -86 96.5 -141t164.5 -55q90 0 162.5 55t95.5 141l135 -100q0 -82 -31 -152.5t-85 -124t-126 -84t-151 -30.5q-82 0 -153 30.5t-124 84t-84 124t-31 152.5zM784 2021q37 -53 94.5 -84.5t127.5 -31.5t127 31.5 t92 84.5q-96 -68 -219 -67q-127 0 -222 67zM1366 125h92v1493h-92v-1493z" />
<glyph unicode="&#x41a;" horiz-adv-x="1865" d="M49 61q0 23 16.5 43.5t49.5 20.5h125v1493h-125q-33 0 -49.5 19.5t-16.5 41.5q0 23 16.5 42.5t49.5 19.5h714q35 0 51.5 -19.5t16.5 -42.5t-16.5 -42t-51.5 -19h-61v-752l356 752h-26q-33 0 -49.5 19.5t-16.5 41.5q0 23 16.5 42.5t49.5 19.5h653q33 0 49.5 -19.5 t16.5 -42.5t-16.5 -42t-49.5 -19h-84l-432 -913q82 -35 152.5 -98.5t123 -141.5t86 -166t43.5 -174h97q35 0 51 -20.5t16 -43.5t-16 -42t-51 -19h-627v61q0 80 -23.5 155t-67.5 137.5t-107.5 106.5t-143.5 60v-395h125q33 0 49 -20.5t16 -43.5t-16 -42t-49 -19h-778 q-33 0 -49.5 19.5t-16.5 41.5zM362 125h95v1493h-95v-1493zM801 639q92 -18 167.5 -67.5t131 -118t89.5 -153.5t44 -175h90q-23 193 -122 342t-277 229l436 922h-98z" />
<glyph unicode="&#x41b;" horiz-adv-x="1640" d="M0 61q0 23 16.5 43.5t51.5 20.5h63v440q0 162 42 311.5t119 280.5t185.5 238.5t238.5 184.5t280.5 119t312.5 42h211q35 0 51 -19.5t16 -42.5t-16.5 -42t-50.5 -19h-115v-1493h123q35 0 50 -20.5t15 -43.5t-15 -42t-50 -19h-778q-33 0 -49.5 19.5t-16.5 41.5 q0 23 16.5 43.5t49.5 20.5h124v1397q-137 -61 -250.5 -159.5t-195.5 -222.5t-127 -269.5t-45 -305.5v-440h106q33 0 50.5 -19.5t17.5 -44.5q0 -23 -17.5 -42t-50.5 -19h-294q-35 0 -51.5 19.5t-16.5 41.5zM999 125h93v1470q-49 -10 -93 -24v-1446z" />
<glyph unicode="&#x41c;" horiz-adv-x="2121" d="M49 1679q0 23 16.5 42.5t51.5 19.5h542l426 -565l394 565h530q35 0 49.5 -19.5t14.5 -42.5t-14.5 -42t-49.5 -19h-125v-1493h125q35 0 49.5 -20.5t14.5 -43.5t-14.5 -42t-49.5 -19h-778q-35 0 -51.5 19.5t-16.5 41.5q0 23 16.5 43.5t51.5 20.5h123v1221l-570 -816 l-399 529v-934h129q35 0 51.5 -20.5t16.5 -43.5t-16.5 -42t-51.5 -19h-381q-35 0 -51 19.5t-16 41.5q0 23 16 43.5t51 20.5h127v1493h-143q-35 0 -51.5 19.5t-16.5 41.5zM385 1264l397 -525l64 95l-461 614v-184zM1479 125h92v1493h-27l-65 -94v-1399z" />
<glyph unicode="&#x41d;" horiz-adv-x="2011" d="M49 61q0 23 15.5 43.5t48.5 20.5h125v1493h-125q-31 0 -47.5 19.5t-16.5 41.5q0 23 15.5 42.5t48.5 19.5h714q35 0 51.5 -19.5t16.5 -42.5t-16.5 -42t-51.5 -19h-59v-551h473v551h-61q-33 0 -49.5 19.5t-16.5 41.5q0 23 15.5 42.5t50.5 19.5h714q35 0 51.5 -19.5 t16.5 -42.5t-16.5 -42t-51.5 -19h-122v-1493h122q35 0 51.5 -20.5t16.5 -43.5t-16.5 -42t-51.5 -19h-714q-33 0 -49.5 19.5t-16.5 41.5q0 23 15.5 43.5t50.5 20.5h61v817h-473v-817h59q35 0 51.5 -20.5t16.5 -43.5t-16.5 -42t-51.5 -19h-714q-31 0 -47.5 19.5t-16.5 41.5z M362 125h93v1493h-93v-1493zM1366 125h92v1493h-92v-1493z" />
<glyph unicode="&#x41e;" horiz-adv-x="1841" d="M49 870q0 184 68.5 346t186.5 283t276.5 190.5t339.5 69.5q180 0 338.5 -69.5t277.5 -190.5t187.5 -283t68.5 -346t-68.5 -346t-187.5 -282.5t-277.5 -190t-338.5 -69.5t-339 69.5t-277 190t-186.5 282.5t-68.5 346zM160 870q0 -119 34 -225.5t93 -198.5v846 q-59 -92 -93 -197.5t-34 -224.5zM672 152q123 -41 248 -41q68 0 130.5 10.5t123.5 30.5v1437q-123 43 -254 43t-248 -43v-1437zM1298 211q29 16 56.5 35t50.5 39v1173q-23 20 -50.5 39t-56.5 35v-1321z" />
<glyph unicode="&#x41f;" horiz-adv-x="2011" d="M49 61q0 23 15.5 43.5t48.5 20.5h125v1493h-125q-31 0 -47.5 19.5t-16.5 41.5q0 23 15.5 42.5t48.5 19.5h1781q35 0 51.5 -19.5t16.5 -42.5t-16.5 -42t-51.5 -19h-122v-1493h122q35 0 51.5 -20.5t16.5 -43.5t-16.5 -42t-51.5 -19h-714q-33 0 -49.5 19.5t-16.5 41.5 q0 23 15.5 43.5t50.5 20.5h61v1493h-473v-1493h59q35 0 51.5 -20.5t16.5 -43.5t-16.5 -42t-51.5 -19h-714q-31 0 -47.5 19.5t-16.5 41.5zM362 125h93v1493h-93v-1493zM1366 125h92v1493h-92v-1493z" />
<glyph unicode="&#x420;" d="M49 61q0 23 16.5 43.5t51.5 20.5h123v1493h-117q-35 0 -51.5 19.5t-16.5 41.5q0 23 16.5 42.5t51.5 19.5h878q125 0 236 -48t193.5 -130t131 -192.5t48.5 -235.5t-48.5 -236t-131 -193.5t-193.5 -131t-236 -48.5h-231v-401h125q33 0 49.5 -20.5t16.5 -43.5t-16.5 -42 t-49.5 -19h-778q-35 0 -51.5 19.5t-16.5 41.5zM365 125h92v1493h-92v-1493zM770 653h236v965h-236v-965zM1133 668q25 10 47 18.5t45 20.5v856q-20 10 -43 20t-49 19v-934z" />
<glyph unicode="&#x421;" horiz-adv-x="1503" d="M49 856q0 178 64.5 338t180.5 279.5t273.5 190.5t343.5 71q78 0 158 -14.5t154 -43.5l-15 37q-6 14 -6 29q0 27 19.5 43t44.5 16q39 0 57 -45l125 -325q6 -13 6 -27q0 -29 -19.5 -46.5t-41.5 -17.5q-41 0 -60 45l-47 121q-86 53 -173 79t-202 26q-100 0 -178 -20.5 t-153 -59.5v-1350q76 -39 157.5 -59.5t173.5 -20.5q119 0 229.5 37t205.5 107q14 14 43 14q25 0 42 -18.5t17 -40.5q0 -31 -29 -54q-111 -86 -238.5 -126.5t-269.5 -40.5q-186 0 -343.5 70.5t-273.5 190t-180.5 278.5t-64.5 337zM174 856q0 -98 24.5 -193.5t67.5 -175.5v742 q-43 -82 -67.5 -178.5t-24.5 -194.5z" />
<glyph unicode="&#x422;" horiz-adv-x="1622" d="M49 1323q0 14 10 31l185 387h1136l187 -387q6 -17 6 -31q0 -29 -18.5 -45t-43.5 -16q-37 0 -57 38l-151 318h-226v-1493h125q33 0 48.5 -20.5t15.5 -43.5t-15.5 -42t-48.5 -19h-778q-35 0 -51.5 19.5t-16.5 41.5q0 23 16.5 43.5t51.5 20.5h123v1493h-223l-154 -318 q-18 -39 -57 -38q-23 0 -43.5 16t-20.5 45zM672 125h92v1493h-92v-1493z" />
<glyph unicode="&#x423;" horiz-adv-x="1769" d="M49 1679q0 23 16.5 42.5t51.5 19.5h776q33 0 49 -19.5t16 -42.5t-16 -42t-49 -19h-62l271 -576l266 576h-117q-35 0 -51 19.5t-16 41.5q0 23 16.5 42.5t50.5 19.5h400q35 0 51 -19.5t16 -42.5t-16 -42t-51 -19h-146l-688 -1493h152q33 0 49 -20.5t16 -43.5t-16.5 -42 t-48.5 -19h-420q-35 0 -51.5 19.5t-16.5 41.5q0 23 16.5 43.5t51.5 20.5h131l141 305l-559 1188h-145q-35 0 -51.5 19.5t-16.5 41.5zM397 1618l492 -1043l53 119l-436 924h-109z" />
<glyph unicode="&#x424;" horiz-adv-x="2308" d="M49 885q0 125 48 235.5t131 193.5t193.5 131t235.5 48h234v127h-123q-35 0 -51.5 19.5t-16.5 41.5q0 23 16.5 42.5t51.5 19.5h774q35 0 51.5 -19.5t16.5 -42.5t-16.5 -42t-51.5 -19h-123v-127h234q125 0 235.5 -48t193.5 -131t131 -193.5t48 -235.5t-48 -235.5 t-131 -192.5t-193.5 -130t-235.5 -48h-234v-152h123q35 0 51.5 -20.5t16.5 -43.5t-16.5 -42t-51.5 -19h-774q-35 0 -51.5 19.5t-16.5 41.5q0 23 16.5 43.5t51.5 20.5h123v152h-234q-125 0 -235.5 48t-193.5 130t-131 192.5t-48 235.5zM434 457q49 -23 96 -37v932 q-27 -6 -50 -16.5t-46 -22.5v-856zM653 403h238v967h-238v-967zM1014 127h94v1493h-94v-1493zM1419 403h238v967h-238v-967zM1780 420q47 14 96 37v856q-23 12 -46.5 22.5t-49.5 16.5v-932z" />
<glyph unicode="&#x425;" horiz-adv-x="1769" d="M49 61q0 23 16.5 43.5t51.5 20.5h110l371 780l-336 713h-145q-35 0 -51.5 19.5t-16.5 41.5q0 23 16.5 42.5t51.5 19.5h776q33 0 49 -19.5t16 -42.5t-16 -42t-49 -19h-62l207 -438l207 438h-117q-35 0 -51 19.5t-16 41.5q0 23 16.5 42.5t50.5 19.5h400q35 0 51 -19.5 t16 -42.5t-16 -42t-51 -19h-146l-276 -584l428 -909h119q35 0 51 -20.5t16 -43.5t-16 -42t-51 -19h-774q-35 0 -51.5 19.5t-16.5 41.5q0 23 16.5 43.5t51.5 20.5h86l-299 635l-301 -635h90q33 0 49 -20.5t16 -43.5t-16.5 -42t-48.5 -19h-338q-35 0 -51.5 19.5t-16.5 41.5z M397 1618l705 -1493h108l-704 1493h-109z" />
<glyph unicode="&#x426;" horiz-adv-x="2011" d="M49 61q0 23 15.5 43.5t48.5 20.5h125v1493h-125q-31 0 -47.5 19.5t-16.5 41.5q0 23 15.5 42.5t48.5 19.5h714q35 0 51.5 -19.5t16.5 -42.5t-16.5 -42t-51.5 -19h-59v-1493h473v1493h-61q-33 0 -49.5 19.5t-16.5 41.5q0 23 15.5 42.5t50.5 19.5h714q35 0 51.5 -19.5 t16.5 -42.5t-16.5 -42t-51.5 -19h-122v-1493h190v-430q0 -33 -20.5 -49.5t-43.5 -16.5t-43 16.5t-20 49.5v305h-1722q-31 0 -47.5 19.5t-16.5 41.5zM362 125h93v1493h-93v-1493zM1366 125h92v1493h-92v-1493z" />
<glyph unicode="&#x427;" horiz-adv-x="1798" d="M14 1679q0 23 15.5 42.5t48.5 19.5h694q35 0 51.5 -19.5t16.5 -42.5t-16.5 -42t-51.5 -19h-39v-965h297v965h-41q-33 0 -49 19.5t-16 41.5q0 23 15 42.5t50 19.5h688q35 0 51.5 -19.5t16.5 -42.5t-16.5 -42t-51.5 -19h-116v-1493h122q35 0 51.5 -20.5t16.5 -43.5 t-16.5 -42t-51.5 -19h-778q-33 0 -49 19.5t-16 41.5q0 23 16 43.5t49 20.5h125v401h-293q-125 0 -235.5 48.5t-193.5 131t-131 193.5t-48 236v483h-51q-31 0 -47.5 19.5t-16.5 41.5zM254 1133q0 -86 24.5 -157t67.5 -130v772h-92v-485zM1155 125h92v1493h-92v-1493z" />
<glyph unicode="&#x428;" horiz-adv-x="2643" d="M49 61q0 23 15.5 43.5t48.5 20.5h125v1493h-125q-31 0 -47.5 19.5t-16.5 41.5q0 23 15.5 42.5t48.5 19.5h694q35 0 51 -19.5t16 -42.5t-16 -42t-51 -19h-39v-1493h289v1493h-41q-33 0 -49.5 19.5t-16.5 41.5q0 23 15.5 42.5t50.5 19.5h612q35 0 51.5 -19.5t16.5 -42.5 t-16.5 -42t-51.5 -19h-41v-1493h289v1493h-41q-33 0 -49.5 19.5t-16.5 41.5q0 23 15.5 42.5t50.5 19.5h694q35 0 51.5 -19.5t16.5 -42.5t-16.5 -42t-51.5 -19h-123v-1493h127q33 0 48.5 -20.5t15.5 -43.5t-16.5 -42t-47.5 -19h-2420q-31 0 -47.5 19.5t-16.5 41.5zM362 125 h93v1493h-93v-1493zM1182 125h92v1493h-92v-1493zM2001 125h92v1493h-92v-1493z" />
<glyph unicode="&#x429;" horiz-adv-x="2643" d="M49 61q0 23 15.5 43.5t48.5 20.5h125v1493h-125q-31 0 -47.5 19.5t-16.5 41.5q0 23 15.5 42.5t48.5 19.5h694q35 0 51 -19.5t16 -42.5t-16 -42t-51 -19h-39v-1493h289v1493h-41q-33 0 -49.5 19.5t-16.5 41.5q0 23 15.5 42.5t50.5 19.5h612q35 0 51.5 -19.5t16.5 -42.5 t-16.5 -42t-51.5 -19h-41v-1493h289v1493h-41q-33 0 -49.5 19.5t-16.5 41.5q0 23 15.5 42.5t50.5 19.5h694q35 0 51.5 -19.5t16.5 -42.5t-16.5 -42t-51.5 -19h-123v-1493h191v-430q0 -33 -20.5 -49.5t-43.5 -16.5t-43 16.5t-20 49.5v305h-2357q-31 0 -47.5 19.5t-16.5 41.5z M362 125h93v1493h-93v-1493zM1182 125h92v1493h-92v-1493zM2001 125h92v1493h-92v-1493z" />
<glyph unicode="&#x42a;" horiz-adv-x="1818" d="M18 1311v430h1043q35 0 51 -19.5t16 -42.5t-16 -42t-51 -19h-123v-551h309q111 0 207 -41t168 -112.5t114 -168t42 -206.5q0 -111 -42 -208.5t-114 -171t-168 -116.5t-207 -43h-962q-35 0 -51.5 19.5t-16.5 41.5q0 23 16.5 43.5t51.5 20.5h123v1493h-263v-307 q0 -33 -20.5 -49.5t-42.5 -16.5q-23 0 -43.5 16.5t-20.5 49.5zM532 125h93v1493h-93v-1493zM938 125h274v811h-274v-811zM1335 135q25 4 49.5 13.5t47.5 19.5v723q-53 23 -97 35v-791z" />
<glyph unicode="&#x42b;" horiz-adv-x="2553" d="M49 61q0 23 16.5 43.5t51.5 20.5h123v1493h-123q-35 0 -51.5 19.5t-16.5 41.5q0 23 16.5 42.5t51.5 19.5h776q35 0 51.5 -19.5t16.5 -42.5t-16.5 -42t-51.5 -19h-123v-551h309q111 0 207 -41t168 -112.5t114 -168t42 -206.5q0 -111 -42 -208.5t-114 -171t-168 -116.5 t-207 -43h-962q-35 0 -51.5 19.5t-16.5 41.5zM365 125h92v1493h-92v-1493zM770 125h274v811h-274v-811zM1167 135q25 4 49.5 13.5t47.5 19.5v723q-53 23 -97 35v-791zM1599 61q0 23 16.5 43.5t51.5 20.5h123v1493h-123q-35 0 -51.5 19.5t-16.5 41.5q0 23 16.5 42.5 t51.5 19.5h776q33 0 49.5 -19.5t16.5 -42.5t-16.5 -42t-49.5 -19h-125v-1493h125q33 0 49.5 -20.5t16.5 -43.5t-16.5 -42t-49.5 -19h-776q-35 0 -51.5 19.5t-16.5 41.5zM1913 125h94v1493h-94v-1493z" />
<glyph unicode="&#x42c;" d="M49 61q0 23 16.5 43.5t51.5 20.5h123v1493h-123q-35 0 -51.5 19.5t-16.5 41.5q0 23 16.5 42.5t51.5 19.5h776q35 0 51.5 -19.5t16.5 -42.5t-16.5 -42t-51.5 -19h-123v-551h309q111 0 207 -41t168 -112.5t114 -168t42 -206.5q0 -111 -42 -208.5t-114 -171t-168 -116.5 t-207 -43h-962q-35 0 -51.5 19.5t-16.5 41.5zM365 125h92v1493h-92v-1493zM770 125h274v811h-274v-811zM1167 135q25 4 49.5 13.5t47.5 19.5v723q-53 23 -97 35v-791z" />
<glyph unicode="&#x42d;" horiz-adv-x="1503" d="M57 1405q0 14 6 27l125 325q18 45 58 45q25 0 44 -16.5t19 -42.5q0 -14 -6 -29l-14 -37q74 29 153.5 43.5t157.5 14.5q186 0 344 -71t272.5 -190.5t180 -279.5t65.5 -338t-65.5 -337t-180 -278.5t-272.5 -190t-344 -70.5q-141 0 -269 40.5t-239 126.5q-29 23 -29 54 q0 23 17.5 41t42.5 18q29 0 43 -14q94 -70 204.5 -107t229.5 -37q92 0 174 20.5t158 59.5v682h-570v125h570v543q-76 39 -154 59.5t-178 20.5q-115 0 -202 -25.5t-173 -79.5l-47 -121q-18 -45 -59 -45q-23 0 -42.5 17.5t-19.5 46.5zM1059 258q12 8 28.5 22.5t32 30 t27.5 29.5t18 25v981q-6 10 -18 25t-27.5 30.5t-32 29t-28.5 21.5v-1194z" />
<glyph unicode="&#x42e;" horiz-adv-x="2799" d="M49 61q0 23 16.5 43.5t51.5 20.5h123v1493h-123q-35 0 -51.5 19.5t-16.5 41.5q0 23 16.5 42.5t51.5 19.5h776q33 0 49 -19.5t16 -42.5t-16 -42t-49 -19h-125v-586h254q27 156 104.5 289t191.5 230.5t257 152.5t303 55q180 0 339 -69.5t277.5 -190.5t187 -283t68.5 -346 t-68.5 -346t-187 -282.5t-277.5 -190t-339 -69.5t-339 69.5t-276.5 190t-186 282.5t-68.5 346v35h-240v-780h125q33 0 49 -20.5t16 -43.5t-16 -42t-49 -19h-776q-35 0 -51.5 19.5t-16.5 41.5zM362 125h95v1493h-95v-1493zM1118 870q0 -119 34 -225.5t93 -198.5v846 q-59 -92 -93 -197.5t-34 -224.5zM1630 152q123 -41 248 -41q68 0 130.5 10.5t123.5 30.5v1437q-123 43 -254 43t-248 -43v-1437zM2257 211q29 16 56 35t50 39v1173q-23 20 -50 39t-56 35v-1321z" />
<glyph unicode="&#x42f;" horiz-adv-x="1814" d="M49 61q0 23 16.5 43.5t51.5 20.5h94q20 154 109.5 275.5t226.5 189.5q-78 37 -140.5 94t-107.5 129t-68.5 154t-23.5 168q0 125 48 235.5t130 192.5t192.5 130t235.5 48h887q27 0 46 -19.5t19 -42.5t-16 -42t-49 -19h-125v-1493h123q35 0 51 -20.5t16 -43.5t-16 -42 t-51 -19h-776q-33 0 -49.5 19.5t-16.5 41.5q0 23 16.5 43.5t49.5 20.5h125v385q-72 -23 -129.5 -69t-96.5 -105.5t-59.5 -130t-20.5 -144.5v-61h-624q-35 0 -51.5 19.5t-16.5 41.5zM332 1135q0 -117 34.5 -194t100.5 -148v682q-66 -72 -100.5 -150t-34.5 -190zM342 125h111 q10 104 52 200.5t118 170.5q-53 -20 -100.5 -58.5t-85.5 -87.5t-62.5 -107.5t-32.5 -117.5zM809 653h238v965h-238v-965zM1171 125h95v1493h-95v-1493z" />
<glyph unicode="&#x430;" horiz-adv-x="1640" d="M0 61q0 23 16.5 43.5t51.5 20.5h63v440q0 162 42 311.5t119 280.5t185.5 238.5t238.5 184.5t280.5 119t312.5 42h211q35 0 51 -19.5t16 -42.5t-16.5 -42t-50.5 -19h-115v-1493h123q35 0 50 -20.5t15 -43.5t-15 -42t-50 -19h-778q-33 0 -49.5 19.5t-16.5 41.5 q0 23 16.5 43.5t49.5 20.5h124v387h-618v-387h106q33 0 50.5 -19.5t17.5 -44.5q0 -23 -17.5 -42t-50.5 -19h-294q-35 0 -51.5 19.5t-16.5 41.5zM256 637h618v885q-129 -59 -238.5 -149.5t-190 -204t-131 -249t-58.5 -282.5zM999 125h93v1470q-49 -10 -93 -24v-1446z" />
<glyph unicode="&#x431;" d="M49 61q0 23 16.5 43.5t51.5 20.5h123v1493h-123q-35 0 -51.5 19.5t-16.5 41.5q0 23 16.5 42.5t51.5 19.5h1329v-430q0 -33 -20.5 -49.5t-43.5 -16.5t-43 16.5t-20 49.5v307h-549v-551h309q111 0 207 -41t168 -112.5t114 -168t42 -206.5q0 -111 -42 -208.5t-114 -171 t-168 -116.5t-207 -43h-962q-35 0 -51.5 19.5t-16.5 41.5zM365 125h92v1493h-92v-1493zM770 125h274v811h-274v-811zM1167 135q25 4 49.5 13.5t47.5 19.5v723q-53 23 -97 35v-791z" />
<glyph unicode="&#x432;" d="M49 61q0 23 16.5 43.5t51.5 20.5h123v1493h-123q-35 0 -51.5 19.5t-16.5 41.5q0 23 16.5 42.5t51.5 19.5h905q82 0 154.5 -32t127 -85t86 -126t31.5 -155q0 -98 -42 -179t-113 -138q76 -29 139 -79t109.5 -114.5t71 -142.5t24.5 -160q0 -111 -42 -207t-114 -167.5 t-168 -113.5t-207 -42h-962q-35 0 -51.5 19.5t-16.5 41.5zM365 125h92v1493h-92v-1493zM770 125h274v811h-274v-811zM770 1067h166v551h-166v-551zM1063 1069q27 6 52 14.5t48 22.5v473q-47 25 -100 35v-545zM1167 135q25 4 49.5 13.5t47.5 19.5v723q-53 23 -97 35v-791z " />
<glyph unicode="&#x433;" horiz-adv-x="1261" d="M49 61q0 23 16.5 43.5t51.5 20.5h123v1493h-123q-35 0 -51.5 19.5t-16.5 41.5q0 23 16.5 42.5t51.5 19.5h1145v-430q0 -33 -20.5 -49.5t-43.5 -16.5t-43 16.5t-20 49.5v307h-365v-1493h150q35 0 51 -20.5t16 -43.5t-16.5 -42t-50.5 -19h-803q-35 0 -51.5 19.5t-16.5 41.5 zM365 125h94v1493h-94v-1493z" />
<glyph unicode="&#x434;" horiz-adv-x="1640" d="M0 61q0 23 16.5 43.5t51.5 20.5h63v440q0 162 42 311.5t119 280.5t185.5 238.5t238.5 184.5t280.5 119t312.5 42h211q35 0 51 -19.5t16 -42.5t-16.5 -42t-50.5 -19h-115v-1493h123q35 0 50 -20.5t15 -43.5t-15 -42t-50 -19h-1460q-35 0 -51.5 19.5t-16.5 41.5zM256 125 h618v1397q-137 -61 -250.5 -159.5t-195.5 -222.5t-127 -269.5t-45 -305.5v-440zM999 125h93v1470q-49 -10 -93 -24v-1446z" />
<glyph unicode="&#x435;" horiz-adv-x="1433" d="M49 61q0 23 16.5 43.5t49.5 20.5h125v1493h-125q-33 0 -49.5 19.5t-16.5 41.5q0 23 16.5 42.5t49.5 19.5h1104v-430q0 -33 -20.5 -49.5t-43.5 -16.5t-43 16.5t-20 49.5v307h-324v-612h569l-372 -371l-197 190v-700h346l156 209q25 31 51 31q25 0 44 -18.5t19 -43.5 q0 -10 -4 -20.5t-10 -22.5l-192 -260h-1063q-33 0 -49.5 19.5t-16.5 41.5zM362 125h95v1493h-95v-1493z" />
<glyph unicode="&#x436;" horiz-adv-x="2777" d="M72 1679q0 23 16 42.5t49 19.5h654q33 0 49 -19.5t16 -42.5t-16.5 -42t-48.5 -19h-27l356 -752v752h-63q-33 0 -49.5 19.5t-16.5 41.5q0 23 16.5 42.5t49.5 19.5h653q35 0 51.5 -19.5t16.5 -42.5t-16.5 -42t-51.5 -19h-61v-752l356 752h-27q-33 0 -49 19.5t-16 41.5 q0 23 16.5 42.5t48.5 19.5h654q33 0 49 -19.5t16 -42.5t-16.5 -42t-48.5 -19h-84l-432 -913q82 -35 152.5 -98.5t122.5 -141.5t86 -166t44 -174h96q35 0 51.5 -20.5t16.5 -43.5t-16.5 -42t-51.5 -19h-626v61q0 80 -23.5 155t-68 137.5t-107.5 106.5t-143 60v-395h125 q33 0 49 -20.5t16 -43.5t-16.5 -42t-48.5 -19h-779q-33 0 -49 19.5t-16 41.5q0 23 16.5 43.5t48.5 20.5h125v395q-80 -16 -143.5 -60t-107.5 -106.5t-67.5 -137.5t-23.5 -155v-61h-626q-35 0 -51.5 19.5t-16.5 41.5q0 23 16.5 43.5t51.5 20.5h96q10 86 44 174t86 166 t121.5 141.5t153.5 98.5l-432 913h-84q-33 0 -49 19.5t-16 41.5zM356 1618l451 -950q-88 -43 -163 -103.5t-131 -132.5t-92 -149.5t-48 -157.5h96q16 156 139 287t322 217l-467 989h-107zM1243 125h94v1493h-94v-1493zM1681 639q92 -18 168 -67.5t131.5 -118t89 -153.5 t44.5 -175h90q-23 193 -122.5 342t-277.5 229l437 922h-99z" />
<glyph unicode="&#x437;" horiz-adv-x="1503" d="M49 229q0 25 17.5 43.5t46.5 18.5q20 0 41 -15q117 -86 252 -129t278 -43q121 0 219 27v832q-45 10 -91 17t-95 7h-139q-33 0 -53.5 24.5t-2.5 61.5l262 545h-479l-74 -160q-10 -23 -25.5 -31t-31.5 -8q-25 0 -44 16.5t-19 43.5q0 14 10 30l149 320q10 23 25.5 32t32.5 9 q23 0 42 -16.5t19 -43.5q0 -18 -8 -32l-16 -37h1048q35 0 49.5 -19.5t14.5 -42.5t-14.5 -42t-49.5 -19h-59l-275 -586q74 -33 141.5 -81t120 -109.5t83 -135t30.5 -159.5q0 -94 -35 -173t-94 -142.5t-137 -110.5t-164 -79t-174 -47t-166 -15q-162 0 -317.5 50t-286.5 148 q-31 20 -31 51zM672 1112h110l240 506h-107zM1026 170q23 10 47.5 22.5t46.5 26.5v653q-23 14 -45 25.5t-49 24.5v-752z" />
<glyph unicode="&#x438;" horiz-adv-x="2011" d="M49 61q0 23 15.5 43.5t48.5 20.5h125v1493h-125q-31 0 -47.5 19.5t-16.5 41.5q0 23 15.5 42.5t48.5 19.5h714q35 0 51.5 -19.5t16.5 -42.5t-16.5 -42t-51.5 -19h-59v-793l473 473v320h-61q-33 0 -49.5 19.5t-16.5 41.5q0 23 15.5 42.5t50.5 19.5h714q35 0 51.5 -19.5 t16.5 -42.5t-16.5 -42t-51.5 -19h-122v-1493h122q35 0 51.5 -20.5t16.5 -43.5t-16.5 -42t-51.5 -19h-714q-33 0 -49.5 19.5t-16.5 41.5q0 23 15.5 43.5t50.5 20.5h61v989l-473 -473v-516h59q35 0 51.5 -20.5t16.5 -43.5t-16.5 -42t-51.5 -19h-714q-31 0 -47.5 19.5 t-16.5 41.5zM362 125h93v1493h-93v-1493zM1366 125h92v1493h-92v-1493z" />
<glyph unicode="&#x439;" horiz-adv-x="2011" d="M49 61q0 23 15.5 43.5t48.5 20.5h125v1493h-125q-31 0 -47.5 19.5t-16.5 41.5q0 23 15.5 42.5t48.5 19.5h714q35 0 51.5 -19.5t16.5 -42.5t-16.5 -42t-51.5 -19h-59v-793l473 473v320h-61q-33 0 -49.5 19.5t-16.5 41.5q0 23 15.5 42.5t50.5 19.5h714q35 0 51.5 -19.5 t16.5 -42.5t-16.5 -42t-51.5 -19h-122v-1493h122q35 0 51.5 -20.5t16.5 -43.5t-16.5 -42t-51.5 -19h-714q-33 0 -49.5 19.5t-16.5 41.5q0 23 15.5 43.5t50.5 20.5h61v989l-473 -473v-516h59q35 0 51.5 -20.5t16.5 -43.5t-16.5 -42t-51.5 -19h-714q-31 0 -47.5 19.5 t-16.5 41.5zM362 125h93v1493h-93v-1493zM614 2173l131 100q23 -86 96.5 -141t164.5 -55q90 0 162.5 55t95.5 141l135 -100q0 -82 -31 -152.5t-85 -124t-126 -84t-151 -30.5q-82 0 -153 30.5t-124 84t-84 124t-31 152.5zM784 2021q37 -53 94.5 -84.5t127.5 -31.5t127 31.5 t92 84.5q-96 -68 -219 -67q-127 0 -222 67zM1366 125h92v1493h-92v-1493z" />
<glyph unicode="&#x43a;" horiz-adv-x="1865" d="M49 61q0 23 16.5 43.5t49.5 20.5h125v1493h-125q-33 0 -49.5 19.5t-16.5 41.5q0 23 16.5 42.5t49.5 19.5h714q35 0 51.5 -19.5t16.5 -42.5t-16.5 -42t-51.5 -19h-61v-752l356 752h-26q-33 0 -49.5 19.5t-16.5 41.5q0 23 16.5 42.5t49.5 19.5h653q33 0 49.5 -19.5 t16.5 -42.5t-16.5 -42t-49.5 -19h-84l-432 -913q82 -35 152.5 -98.5t123 -141.5t86 -166t43.5 -174h97q35 0 51 -20.5t16 -43.5t-16 -42t-51 -19h-627v61q0 80 -23.5 155t-67.5 137.5t-107.5 106.5t-143.5 60v-395h125q33 0 49 -20.5t16 -43.5t-16 -42t-49 -19h-778 q-33 0 -49.5 19.5t-16.5 41.5zM362 125h95v1493h-95v-1493zM801 639q92 -18 167.5 -67.5t131 -118t89.5 -153.5t44 -175h90q-23 193 -122 342t-277 229l436 922h-98z" />
<glyph unicode="&#x43b;" horiz-adv-x="1640" d="M0 61q0 23 16.5 43.5t51.5 20.5h63v440q0 162 42 311.5t119 280.5t185.5 238.5t238.5 184.5t280.5 119t312.5 42h211q35 0 51 -19.5t16 -42.5t-16.5 -42t-50.5 -19h-115v-1493h123q35 0 50 -20.5t15 -43.5t-15 -42t-50 -19h-778q-33 0 -49.5 19.5t-16.5 41.5 q0 23 16.5 43.5t49.5 20.5h124v1397q-137 -61 -250.5 -159.5t-195.5 -222.5t-127 -269.5t-45 -305.5v-440h106q33 0 50.5 -19.5t17.5 -44.5q0 -23 -17.5 -42t-50.5 -19h-294q-35 0 -51.5 19.5t-16.5 41.5zM999 125h93v1470q-49 -10 -93 -24v-1446z" />
<glyph unicode="&#x43c;" horiz-adv-x="2121" d="M49 1679q0 23 16.5 42.5t51.5 19.5h542l426 -565l394 565h530q35 0 49.5 -19.5t14.5 -42.5t-14.5 -42t-49.5 -19h-125v-1493h125q35 0 49.5 -20.5t14.5 -43.5t-14.5 -42t-49.5 -19h-778q-35 0 -51.5 19.5t-16.5 41.5q0 23 16.5 43.5t51.5 20.5h123v1221l-570 -816 l-399 529v-934h129q35 0 51.5 -20.5t16.5 -43.5t-16.5 -42t-51.5 -19h-381q-35 0 -51 19.5t-16 41.5q0 23 16 43.5t51 20.5h127v1493h-143q-35 0 -51.5 19.5t-16.5 41.5zM385 1264l397 -525l64 95l-461 614v-184zM1479 125h92v1493h-27l-65 -94v-1399z" />
<glyph unicode="&#x43d;" horiz-adv-x="2011" d="M49 61q0 23 15.5 43.5t48.5 20.5h125v1493h-125q-31 0 -47.5 19.5t-16.5 41.5q0 23 15.5 42.5t48.5 19.5h714q35 0 51.5 -19.5t16.5 -42.5t-16.5 -42t-51.5 -19h-59v-551h473v551h-61q-33 0 -49.5 19.5t-16.5 41.5q0 23 15.5 42.5t50.5 19.5h714q35 0 51.5 -19.5 t16.5 -42.5t-16.5 -42t-51.5 -19h-122v-1493h122q35 0 51.5 -20.5t16.5 -43.5t-16.5 -42t-51.5 -19h-714q-33 0 -49.5 19.5t-16.5 41.5q0 23 15.5 43.5t50.5 20.5h61v817h-473v-817h59q35 0 51.5 -20.5t16.5 -43.5t-16.5 -42t-51.5 -19h-714q-31 0 -47.5 19.5t-16.5 41.5z M362 125h93v1493h-93v-1493zM1366 125h92v1493h-92v-1493z" />
<glyph unicode="&#x43e;" horiz-adv-x="1841" d="M49 870q0 184 68.5 346t186.5 283t276.5 190.5t339.5 69.5q180 0 338.5 -69.5t277.5 -190.5t187.5 -283t68.5 -346t-68.5 -346t-187.5 -282.5t-277.5 -190t-338.5 -69.5t-339 69.5t-277 190t-186.5 282.5t-68.5 346zM160 870q0 -119 34 -225.5t93 -198.5v846 q-59 -92 -93 -197.5t-34 -224.5zM672 152q123 -41 248 -41q68 0 130.5 10.5t123.5 30.5v1437q-123 43 -254 43t-248 -43v-1437zM1298 211q29 16 56.5 35t50.5 39v1173q-23 20 -50.5 39t-56.5 35v-1321z" />
<glyph unicode="&#x43f;" horiz-adv-x="2011" d="M49 61q0 23 15.5 43.5t48.5 20.5h125v1493h-125q-31 0 -47.5 19.5t-16.5 41.5q0 23 15.5 42.5t48.5 19.5h1781q35 0 51.5 -19.5t16.5 -42.5t-16.5 -42t-51.5 -19h-122v-1493h122q35 0 51.5 -20.5t16.5 -43.5t-16.5 -42t-51.5 -19h-714q-33 0 -49.5 19.5t-16.5 41.5 q0 23 15.5 43.5t50.5 20.5h61v1493h-473v-1493h59q35 0 51.5 -20.5t16.5 -43.5t-16.5 -42t-51.5 -19h-714q-31 0 -47.5 19.5t-16.5 41.5zM362 125h93v1493h-93v-1493zM1366 125h92v1493h-92v-1493z" />
<glyph unicode="&#x440;" d="M49 61q0 23 16.5 43.5t51.5 20.5h123v1493h-117q-35 0 -51.5 19.5t-16.5 41.5q0 23 16.5 42.5t51.5 19.5h878q125 0 236 -48t193.5 -130t131 -192.5t48.5 -235.5t-48.5 -236t-131 -193.5t-193.5 -131t-236 -48.5h-231v-401h125q33 0 49.5 -20.5t16.5 -43.5t-16.5 -42 t-49.5 -19h-778q-35 0 -51.5 19.5t-16.5 41.5zM365 125h92v1493h-92v-1493zM770 653h236v965h-236v-965zM1133 668q25 10 47 18.5t45 20.5v856q-20 10 -43 20t-49 19v-934z" />
<glyph unicode="&#x441;" horiz-adv-x="1503" d="M49 856q0 178 64.5 338t180.5 279.5t273.5 190.5t343.5 71q78 0 158 -14.5t154 -43.5l-15 37q-6 14 -6 29q0 27 19.5 43t44.5 16q39 0 57 -45l125 -325q6 -13 6 -27q0 -29 -19.5 -46.5t-41.5 -17.5q-41 0 -60 45l-47 121q-86 53 -173 79t-202 26q-100 0 -178 -20.5 t-153 -59.5v-1350q76 -39 157.5 -59.5t173.5 -20.5q119 0 229.5 37t205.5 107q14 14 43 14q25 0 42 -18.5t17 -40.5q0 -31 -29 -54q-111 -86 -238.5 -126.5t-269.5 -40.5q-186 0 -343.5 70.5t-273.5 190t-180.5 278.5t-64.5 337zM174 856q0 -98 24.5 -193.5t67.5 -175.5v742 q-43 -82 -67.5 -178.5t-24.5 -194.5z" />
<glyph unicode="&#x442;" horiz-adv-x="1622" d="M49 1323q0 14 10 31l185 387h1136l187 -387q6 -17 6 -31q0 -29 -18.5 -45t-43.5 -16q-37 0 -57 38l-151 318h-226v-1493h125q33 0 48.5 -20.5t15.5 -43.5t-15.5 -42t-48.5 -19h-778q-35 0 -51.5 19.5t-16.5 41.5q0 23 16.5 43.5t51.5 20.5h123v1493h-223l-154 -318 q-18 -39 -57 -38q-23 0 -43.5 16t-20.5 45zM672 125h92v1493h-92v-1493z" />
<glyph unicode="&#x443;" horiz-adv-x="1769" d="M49 1679q0 23 16.5 42.5t51.5 19.5h776q33 0 49 -19.5t16 -42.5t-16 -42t-49 -19h-62l271 -576l266 576h-117q-35 0 -51 19.5t-16 41.5q0 23 16.5 42.5t50.5 19.5h400q35 0 51 -19.5t16 -42.5t-16 -42t-51 -19h-146l-688 -1493h152q33 0 49 -20.5t16 -43.5t-16.5 -42 t-48.5 -19h-420q-35 0 -51.5 19.5t-16.5 41.5q0 23 16.5 43.5t51.5 20.5h131l141 305l-559 1188h-145q-35 0 -51.5 19.5t-16.5 41.5zM397 1618l492 -1043l53 119l-436 924h-109z" />
<glyph unicode="&#x444;" horiz-adv-x="2308" d="M49 885q0 125 48 235.5t131 193.5t193.5 131t235.5 48h234v127h-123q-35 0 -51.5 19.5t-16.5 41.5q0 23 16.5 42.5t51.5 19.5h774q35 0 51.5 -19.5t16.5 -42.5t-16.5 -42t-51.5 -19h-123v-127h234q125 0 235.5 -48t193.5 -131t131 -193.5t48 -235.5t-48 -235.5 t-131 -192.5t-193.5 -130t-235.5 -48h-234v-152h123q35 0 51.5 -20.5t16.5 -43.5t-16.5 -42t-51.5 -19h-774q-35 0 -51.5 19.5t-16.5 41.5q0 23 16.5 43.5t51.5 20.5h123v152h-234q-125 0 -235.5 48t-193.5 130t-131 192.5t-48 235.5zM434 457q49 -23 96 -37v932 q-27 -6 -50 -16.5t-46 -22.5v-856zM653 403h238v967h-238v-967zM1014 127h94v1493h-94v-1493zM1419 403h238v967h-238v-967zM1780 420q47 14 96 37v856q-23 12 -46.5 22.5t-49.5 16.5v-932z" />
<glyph unicode="&#x445;" horiz-adv-x="1769" d="M49 61q0 23 16.5 43.5t51.5 20.5h110l371 780l-336 713h-145q-35 0 -51.5 19.5t-16.5 41.5q0 23 16.5 42.5t51.5 19.5h776q33 0 49 -19.5t16 -42.5t-16 -42t-49 -19h-62l207 -438l207 438h-117q-35 0 -51 19.5t-16 41.5q0 23 16.5 42.5t50.5 19.5h400q35 0 51 -19.5 t16 -42.5t-16 -42t-51 -19h-146l-276 -584l428 -909h119q35 0 51 -20.5t16 -43.5t-16 -42t-51 -19h-774q-35 0 -51.5 19.5t-16.5 41.5q0 23 16.5 43.5t51.5 20.5h86l-299 635l-301 -635h90q33 0 49 -20.5t16 -43.5t-16.5 -42t-48.5 -19h-338q-35 0 -51.5 19.5t-16.5 41.5z M397 1618l705 -1493h108l-704 1493h-109z" />
<glyph unicode="&#x446;" horiz-adv-x="2011" d="M49 61q0 23 15.5 43.5t48.5 20.5h125v1493h-125q-31 0 -47.5 19.5t-16.5 41.5q0 23 15.5 42.5t48.5 19.5h714q35 0 51.5 -19.5t16.5 -42.5t-16.5 -42t-51.5 -19h-59v-1493h473v1493h-61q-33 0 -49.5 19.5t-16.5 41.5q0 23 15.5 42.5t50.5 19.5h714q35 0 51.5 -19.5 t16.5 -42.5t-16.5 -42t-51.5 -19h-122v-1493h190v-430q0 -33 -20.5 -49.5t-43.5 -16.5t-43 16.5t-20 49.5v305h-1722q-31 0 -47.5 19.5t-16.5 41.5zM362 125h93v1493h-93v-1493zM1366 125h92v1493h-92v-1493z" />
<glyph unicode="&#x447;" horiz-adv-x="1798" d="M14 1679q0 23 15.5 42.5t48.5 19.5h694q35 0 51.5 -19.5t16.5 -42.5t-16.5 -42t-51.5 -19h-39v-965h297v965h-41q-33 0 -49 19.5t-16 41.5q0 23 15 42.5t50 19.5h688q35 0 51.5 -19.5t16.5 -42.5t-16.5 -42t-51.5 -19h-116v-1493h122q35 0 51.5 -20.5t16.5 -43.5 t-16.5 -42t-51.5 -19h-778q-33 0 -49 19.5t-16 41.5q0 23 16 43.5t49 20.5h125v401h-293q-125 0 -235.5 48.5t-193.5 131t-131 193.5t-48 236v483h-51q-31 0 -47.5 19.5t-16.5 41.5zM254 1133q0 -86 24.5 -157t67.5 -130v772h-92v-485zM1155 125h92v1493h-92v-1493z" />
<glyph unicode="&#x448;" horiz-adv-x="2643" d="M49 61q0 23 15.5 43.5t48.5 20.5h125v1493h-125q-31 0 -47.5 19.5t-16.5 41.5q0 23 15.5 42.5t48.5 19.5h694q35 0 51 -19.5t16 -42.5t-16 -42t-51 -19h-39v-1493h289v1493h-41q-33 0 -49.5 19.5t-16.5 41.5q0 23 15.5 42.5t50.5 19.5h612q35 0 51.5 -19.5t16.5 -42.5 t-16.5 -42t-51.5 -19h-41v-1493h289v1493h-41q-33 0 -49.5 19.5t-16.5 41.5q0 23 15.5 42.5t50.5 19.5h694q35 0 51.5 -19.5t16.5 -42.5t-16.5 -42t-51.5 -19h-123v-1493h127q33 0 48.5 -20.5t15.5 -43.5t-16.5 -42t-47.5 -19h-2420q-31 0 -47.5 19.5t-16.5 41.5zM362 125 h93v1493h-93v-1493zM1182 125h92v1493h-92v-1493zM2001 125h92v1493h-92v-1493z" />
<glyph unicode="&#x449;" horiz-adv-x="2643" d="M49 61q0 23 15.5 43.5t48.5 20.5h125v1493h-125q-31 0 -47.5 19.5t-16.5 41.5q0 23 15.5 42.5t48.5 19.5h694q35 0 51 -19.5t16 -42.5t-16 -42t-51 -19h-39v-1493h289v1493h-41q-33 0 -49.5 19.5t-16.5 41.5q0 23 15.5 42.5t50.5 19.5h612q35 0 51.5 -19.5t16.5 -42.5 t-16.5 -42t-51.5 -19h-41v-1493h289v1493h-41q-33 0 -49.5 19.5t-16.5 41.5q0 23 15.5 42.5t50.5 19.5h694q35 0 51.5 -19.5t16.5 -42.5t-16.5 -42t-51.5 -19h-123v-1493h191v-430q0 -33 -20.5 -49.5t-43.5 -16.5t-43 16.5t-20 49.5v305h-2357q-31 0 -47.5 19.5t-16.5 41.5z M362 125h93v1493h-93v-1493zM1182 125h92v1493h-92v-1493zM2001 125h92v1493h-92v-1493z" />
<glyph unicode="&#x44a;" horiz-adv-x="1818" d="M18 1311v430h1043q35 0 51 -19.5t16 -42.5t-16 -42t-51 -19h-123v-551h309q111 0 207 -41t168 -112.5t114 -168t42 -206.5q0 -111 -42 -208.5t-114 -171t-168 -116.5t-207 -43h-962q-35 0 -51.5 19.5t-16.5 41.5q0 23 16.5 43.5t51.5 20.5h123v1493h-263v-307 q0 -33 -20.5 -49.5t-42.5 -16.5q-23 0 -43.5 16.5t-20.5 49.5zM532 125h93v1493h-93v-1493zM938 125h274v811h-274v-811zM1335 135q25 4 49.5 13.5t47.5 19.5v723q-53 23 -97 35v-791z" />
<glyph unicode="&#x44b;" horiz-adv-x="2553" d="M49 61q0 23 16.5 43.5t51.5 20.5h123v1493h-123q-35 0 -51.5 19.5t-16.5 41.5q0 23 16.5 42.5t51.5 19.5h776q35 0 51.5 -19.5t16.5 -42.5t-16.5 -42t-51.5 -19h-123v-551h309q111 0 207 -41t168 -112.5t114 -168t42 -206.5q0 -111 -42 -208.5t-114 -171t-168 -116.5 t-207 -43h-962q-35 0 -51.5 19.5t-16.5 41.5zM365 125h92v1493h-92v-1493zM770 125h274v811h-274v-811zM1167 135q25 4 49.5 13.5t47.5 19.5v723q-53 23 -97 35v-791zM1599 61q0 23 16.5 43.5t51.5 20.5h123v1493h-123q-35 0 -51.5 19.5t-16.5 41.5q0 23 16.5 42.5 t51.5 19.5h776q33 0 49.5 -19.5t16.5 -42.5t-16.5 -42t-49.5 -19h-125v-1493h125q33 0 49.5 -20.5t16.5 -43.5t-16.5 -42t-49.5 -19h-776q-35 0 -51.5 19.5t-16.5 41.5zM1913 125h94v1493h-94v-1493z" />
<glyph unicode="&#x44c;" d="M49 61q0 23 16.5 43.5t51.5 20.5h123v1493h-123q-35 0 -51.5 19.5t-16.5 41.5q0 23 16.5 42.5t51.5 19.5h776q35 0 51.5 -19.5t16.5 -42.5t-16.5 -42t-51.5 -19h-123v-551h309q111 0 207 -41t168 -112.5t114 -168t42 -206.5q0 -111 -42 -208.5t-114 -171t-168 -116.5 t-207 -43h-962q-35 0 -51.5 19.5t-16.5 41.5zM365 125h92v1493h-92v-1493zM770 125h274v811h-274v-811zM1167 135q25 4 49.5 13.5t47.5 19.5v723q-53 23 -97 35v-791z" />
<glyph unicode="&#x44d;" horiz-adv-x="1503" d="M57 1405q0 14 6 27l125 325q18 45 58 45q25 0 44 -16.5t19 -42.5q0 -14 -6 -29l-14 -37q74 29 153.5 43.5t157.5 14.5q186 0 344 -71t272.5 -190.5t180 -279.5t65.5 -338t-65.5 -337t-180 -278.5t-272.5 -190t-344 -70.5q-141 0 -269 40.5t-239 126.5q-29 23 -29 54 q0 23 17.5 41t42.5 18q29 0 43 -14q94 -70 204.5 -107t229.5 -37q92 0 174 20.5t158 59.5v682h-570v125h570v543q-76 39 -154 59.5t-178 20.5q-115 0 -202 -25.5t-173 -79.5l-47 -121q-18 -45 -59 -45q-23 0 -42.5 17.5t-19.5 46.5zM1059 258q12 8 28.5 22.5t32 30 t27.5 29.5t18 25v981q-6 10 -18 25t-27.5 30.5t-32 29t-28.5 21.5v-1194z" />
<glyph unicode="&#x44e;" horiz-adv-x="2799" d="M49 61q0 23 16.5 43.5t51.5 20.5h123v1493h-123q-35 0 -51.5 19.5t-16.5 41.5q0 23 16.5 42.5t51.5 19.5h776q33 0 49 -19.5t16 -42.5t-16 -42t-49 -19h-125v-586h254q27 156 104.5 289t191.5 230.5t257 152.5t303 55q180 0 339 -69.5t277.5 -190.5t187 -283t68.5 -346 t-68.5 -346t-187 -282.5t-277.5 -190t-339 -69.5t-339 69.5t-276.5 190t-186 282.5t-68.5 346v35h-240v-780h125q33 0 49 -20.5t16 -43.5t-16 -42t-49 -19h-776q-35 0 -51.5 19.5t-16.5 41.5zM362 125h95v1493h-95v-1493zM1118 870q0 -119 34 -225.5t93 -198.5v846 q-59 -92 -93 -197.5t-34 -224.5zM1630 152q123 -41 248 -41q68 0 130.5 10.5t123.5 30.5v1437q-123 43 -254 43t-248 -43v-1437zM2257 211q29 16 56 35t50 39v1173q-23 20 -50 39t-56 35v-1321z" />
<glyph unicode="&#x44f;" horiz-adv-x="1814" d="M49 61q0 23 16.5 43.5t51.5 20.5h94q20 154 109.5 275.5t226.5 189.5q-78 37 -140.5 94t-107.5 129t-68.5 154t-23.5 168q0 125 48 235.5t130 192.5t192.5 130t235.5 48h887q27 0 46 -19.5t19 -42.5t-16 -42t-49 -19h-125v-1493h123q35 0 51 -20.5t16 -43.5t-16 -42 t-51 -19h-776q-33 0 -49.5 19.5t-16.5 41.5q0 23 16.5 43.5t49.5 20.5h125v385q-72 -23 -129.5 -69t-96.5 -105.5t-59.5 -130t-20.5 -144.5v-61h-624q-35 0 -51.5 19.5t-16.5 41.5zM332 1135q0 -117 34.5 -194t100.5 -148v682q-66 -72 -100.5 -150t-34.5 -190zM342 125h111 q10 104 52 200.5t118 170.5q-53 -20 -100.5 -58.5t-85.5 -87.5t-62.5 -107.5t-32.5 -117.5zM809 653h238v965h-238v-965zM1171 125h95v1493h-95v-1493z" />
<glyph unicode="&#x451;" horiz-adv-x="1433" d="M49 61q0 23 16.5 43.5t49.5 20.5h125v1493h-125q-33 0 -49.5 19.5t-16.5 41.5q0 23 16.5 42.5t49.5 19.5h1104v-430q0 -33 -20.5 -49.5t-43.5 -16.5t-43 16.5t-20 49.5v307h-324v-612h569l-372 -371l-197 190v-700h346l156 209q25 31 51 31q25 0 44 -18.5t19 -43.5 q0 -10 -4 -20.5t-10 -22.5l-192 -260h-1063q-33 0 -49.5 19.5t-16.5 41.5zM233 1980q0 39 14.5 73t40 59.5t60.5 41t74 15.5t73.5 -15.5t60.5 -41t40 -59.5t14 -73q0 -78 -55 -133t-133 -55q-41 0 -75 15.5t-59.5 41t-40 59.5t-14.5 72zM356 1980q0 -29 18.5 -47t47.5 -18 v129q-29 0 -47.5 -19.5t-18.5 -44.5zM362 125h95v1493h-95v-1493zM684 1980q0 39 14.5 73t40 59.5t60.5 41t73 15.5q39 0 74 -15.5t60.5 -41t40 -59.5t14.5 -73q0 -78 -55.5 -133t-133.5 -55q-39 0 -73.5 15.5t-60 41t-40 59.5t-14.5 72zM807 1980q0 -29 18.5 -47t46.5 -18 v129q-29 0 -47 -19.5t-18 -44.5z" />
<glyph unicode="&#x452;" d="M49 61q0 23 16.5 43.5t51.5 20.5h123v1493h-123q-35 0 -51.5 19.5t-16.5 41.5q0 23 16.5 42.5t51.5 19.5h1329v-430q0 -33 -20.5 -49.5t-43.5 -16.5t-43 16.5t-20 49.5v307h-549v-551h309q111 0 207 -41t168 -112.5t114 -168t42 -206.5q0 -111 -42 -208.5t-114 -171 t-168 -116.5t-207 -43h-73q-35 0 -51.5 19.5t-16.5 41.5q0 23 16.5 43.5t51.5 20.5h38v811h-274v-936h-653q-35 0 -51.5 19.5t-16.5 41.5zM365 125h92v1493h-92v-1493zM1167 135q25 4 49.5 13.5t47.5 19.5v723q-53 23 -97 35v-791z" />
<glyph unicode="&#x453;" horiz-adv-x="1261" d="M49 61q0 23 16.5 43.5t51.5 20.5h123v1493h-123q-35 0 -51.5 19.5t-16.5 41.5q0 23 16.5 42.5t51.5 19.5h1145v-430q0 -33 -20.5 -49.5t-43.5 -16.5t-43 16.5t-20 49.5v307h-365v-1493h150q35 0 51 -20.5t16 -43.5t-16.5 -42t-50.5 -19h-803q-35 0 -51.5 19.5t-16.5 41.5 zM317 1792l340 555h463l-504 -555h-299zM365 125h94v1493h-94v-1493zM539 1915h24l279 309h-115z" />
<glyph unicode="&#x454;" horiz-adv-x="1503" d="M49 856q0 178 64.5 338t180.5 279.5t273.5 190.5t343.5 71q78 0 158 -14.5t154 -43.5l-15 37q-6 14 -6 29q0 27 19.5 43t44.5 16q39 0 57 -45l125 -325q6 -12 6 -27q0 -29 -19.5 -46.5t-41.5 -17.5q-41 0 -60 45l-47 121q-86 53 -173 79t-202 26q-100 0 -178 -20.5 t-153 -59.5v-543h569v-125h-569v-682q76 -39 157.5 -59.5t173.5 -20.5q119 0 229.5 37t205.5 107q14 14 43 14q25 0 42 -18.5t17 -40.5q0 -31 -29 -54q-111 -86 -238.5 -126.5t-269.5 -40.5q-186 0 -343.5 70.5t-273.5 190t-180.5 278.5t-64.5 337zM174 856 q0 -98 24.5 -193.5t67.5 -175.5v742q-43 -82 -67.5 -178.5t-24.5 -194.5z" />
<glyph unicode="&#x455;" horiz-adv-x="1320" d="M49 606q0 35 19.5 51.5t42.5 16.5q25 0 44 -16.5t19 -51.5q0 -74 29.5 -156.5t82 -151.5t123 -115t152.5 -46q51 0 97.5 19.5t82 53.5t57 78t21.5 95q0 82 -55 148.5t-132 123t-160 105.5t-138 98q-98 86 -165 186.5t-67 227.5q0 96 39 182t116 149.5t190.5 100.5 t263.5 37h207l-27 57q-6 18 -6 31q0 29 18.5 45t44.5 16q14 0 29.5 -9t26.5 -32l149 -323q10 -14 10 -31q0 -29 -20.5 -45t-44.5 -16q-35 0 -56 39l-65 145h-150q-74 0 -125 -50t-51 -124q0 -51 30 -88t67 -66l215 -155q66 -47 122 -104.5t98 -124t65.5 -142.5t23.5 -158 q0 -125 -50.5 -234.5t-135.5 -192.5t-196.5 -131t-236.5 -48q-127 0 -236.5 48t-191.5 131t-129 192.5t-47 234.5zM225 1272q0 -106 64.5 -194.5t159.5 -162.5q72 -57 157.5 -107t161.5 -110q76 -59 126 -132.5t50 -182.5q0 -104 -49 -184q51 53 77.5 122.5t26.5 143.5 q0 117 -57 202t-143 154q-82 68 -174.5 125.5t-159.5 116.5q-80 72 -137.5 151.5t-57.5 171.5q0 35 6 66q-51 -84 -51 -180z" />
<glyph unicode="&#x456;" horiz-adv-x="1007" d="M49 61q0 23 16.5 43.5t51.5 20.5h123v1493h-123q-35 0 -51.5 19.5t-16.5 41.5q0 23 16.5 42.5t51.5 19.5h776q33 0 49 -19.5t16 -42.5t-16 -42t-49 -19h-125v-1493h125q33 0 49 -20.5t16 -43.5t-16 -42t-49 -19h-776q-35 0 -51.5 19.5t-16.5 41.5zM362 125h95v1493h-95 v-1493z" />
<glyph unicode="&#x457;" horiz-adv-x="1007" d="M49 61q0 23 16.5 43.5t51.5 20.5h123v1493h-123q-35 0 -51.5 19.5t-16.5 41.5q0 23 16.5 42.5t51.5 19.5h776q33 0 49 -19.5t16 -42.5t-16 -42t-49 -19h-125v-1493h125q33 0 49 -20.5t16 -43.5t-16 -42t-49 -19h-776q-35 0 -51.5 19.5t-16.5 41.5zM90 1980q0 39 14.5 73 t40 59.5t59.5 41t75 15.5q39 0 73.5 -15.5t60 -41t40 -59.5t14.5 -73t-14.5 -73.5t-40 -60t-60.5 -40t-73 -14.5q-41 0 -75 15.5t-59.5 41t-40 59.5t-14.5 72zM213 1980q0 -29 18.5 -47t47.5 -18v129q-29 0 -47.5 -19.5t-18.5 -44.5zM362 125h95v1493h-95v-1493zM541 1980 q0 39 14 73t40 59.5t59.5 41t74.5 15.5q39 0 74 -15.5t60.5 -41t40 -59.5t14.5 -73t-14.5 -73.5t-40 -60t-60.5 -40t-74 -14.5q-41 0 -74.5 15.5t-59.5 41t-40 59.5t-14 72zM664 1980q0 -29 18 -47t47 -18v129q-29 0 -47 -19.5t-18 -44.5z" />
<glyph unicode="&#x458;" horiz-adv-x="931" d="M49 61q0 23 16.5 43.5t51.5 20.5h159h3v1493h-103q-35 0 -51 19.5t-16 41.5q0 23 16 42.5t51 19.5h707v-1133q0 -125 -48.5 -235.5t-130 -193.5t-192.5 -131t-236 -48h-159q-35 0 -51.5 19.5t-16.5 41.5zM403 141q52 14 97 39v1438h-97v-1477z" />
<glyph unicode="&#x459;" horiz-adv-x="2283" d="M0 61q0 23 16.5 43.5t51.5 20.5h63v440q0 162 42 311.5t119 280.5t185.5 238.5t238.5 184.5t280.5 119t312.5 42h211q35 0 51 -19.5t16 -42.5t-16.5 -42t-50.5 -19h-115v-551h309q111 0 207 -41t168 -112.5t114 -168t42 -206.5q0 -111 -42 -208.5t-114 -171t-168 -116.5 t-207 -43h-962q-35 0 -51.5 19.5t-16.5 41.5q0 23 16.5 43.5t51.5 20.5h122v1397q-137 -61 -250.5 -159.5t-195.5 -222.5t-127 -269.5t-45 -305.5v-440h106q33 0 50.5 -19.5t17.5 -44.5q0 -23 -17.5 -42t-50.5 -19h-294q-35 0 -51.5 19.5t-16.5 41.5zM999 125h93v1470 q-49 -10 -93 -24v-1446zM1405 125h274v811h-274v-811zM1802 135q25 4 49.5 13.5t46.5 19.5v723q-53 23 -96 35v-791z" />
<glyph unicode="&#x45a;" horiz-adv-x="2596" d="M49 61q0 23 15.5 43.5t48.5 20.5h125v1493h-125q-31 0 -47.5 19.5t-16.5 41.5q0 23 15.5 42.5t48.5 19.5h714q35 0 51.5 -19.5t16.5 -42.5t-16.5 -42t-51.5 -19h-59v-551h432v551h-61q-33 0 -49.5 19.5t-16.5 41.5q0 23 15.5 42.5t50.5 19.5h714q35 0 51.5 -19.5 t16.5 -42.5t-16.5 -42t-51.5 -19h-122v-551h309q111 0 207 -41t167.5 -112.5t113.5 -168t42 -206.5q0 -111 -42 -208.5t-113.5 -171t-168 -116.5t-206.5 -43h-899q-35 0 -51.5 19.5t-16.5 41.5q0 23 16.5 43.5t51.5 20.5h59v811h-432v-811h59q35 0 51.5 -20.5t16.5 -43.5 t-16.5 -42t-51.5 -19h-714q-31 0 -47.5 19.5t-16.5 41.5zM362 125h93v1493h-93v-1493zM1325 125h92v1493h-92v-1493zM1731 125h274v811h-274v-811zM2128 135q25 4 49.5 13.5t46.5 19.5v723q-53 23 -96 35v-791z" />
<glyph unicode="&#x45b;" horiz-adv-x="1785" d="M49 61q0 23 16.5 43.5t51.5 20.5h123v1493h-123q-35 0 -51.5 19.5t-16.5 41.5q0 23 16.5 42.5t51.5 19.5h1329v-430q0 -33 -20.5 -49.5t-43.5 -16.5t-43 16.5t-20 49.5v307h-549v-551h309q111 0 207 -41t168 -112.5t114 -168t42 -206.5v-414h88q35 0 51 -20.5t16 -43.5 t-16 -42t-51 -19h-694q-33 0 -49.5 19.5t-16.5 41.5q0 23 15.5 43.5t50.5 20.5h40v811h-274v-811h43q35 0 50.5 -20.5t15.5 -43.5t-16.5 -42t-49.5 -19h-696q-35 0 -51.5 19.5t-16.5 41.5zM365 125h92v1493h-92v-1493zM1167 125h97v766q-53 23 -97 35v-801z" />
<glyph unicode="&#x45c;" horiz-adv-x="1865" d="M49 61q0 23 16.5 43.5t49.5 20.5h125v1493h-125q-33 0 -49.5 19.5t-16.5 41.5q0 23 16.5 42.5t49.5 19.5h714q35 0 51.5 -19.5t16.5 -42.5t-16.5 -42t-51.5 -19h-61v-752l356 752h-26q-33 0 -49.5 19.5t-16.5 41.5q0 23 16.5 42.5t49.5 19.5h653q33 0 49.5 -19.5 t16.5 -42.5t-16.5 -42t-49.5 -19h-84l-432 -913q82 -35 152.5 -98.5t123 -141.5t86 -166t43.5 -174h97q35 0 51 -20.5t16 -43.5t-16 -42t-51 -19h-627v61q0 80 -23.5 155t-67.5 137.5t-107.5 106.5t-143.5 60v-395h125q33 0 49 -20.5t16 -43.5t-16 -42t-49 -19h-778 q-33 0 -49.5 19.5t-16.5 41.5zM362 125h95v1493h-95v-1493zM623 1792l340 555h462l-503 -555h-299zM801 639q92 -18 167.5 -67.5t131 -118t89.5 -153.5t44 -175h90q-23 193 -122 342t-277 229l436 922h-98zM844 1915h24l279 309h-115z" />
<glyph unicode="&#x45e;" horiz-adv-x="1769" d="M49 1679q0 23 16.5 42.5t51.5 19.5h776q33 0 49 -19.5t16 -42.5t-16 -42t-49 -19h-62l271 -576l266 576h-117q-35 0 -51 19.5t-16 41.5q0 23 16.5 42.5t50.5 19.5h400q35 0 51 -19.5t16 -42.5t-16 -42t-51 -19h-146l-688 -1493h152q33 0 49 -20.5t16 -43.5t-16.5 -42 t-48.5 -19h-420q-35 0 -51.5 19.5t-16.5 41.5q0 23 16.5 43.5t51.5 20.5h131l141 305l-559 1188h-145q-35 0 -51.5 19.5t-16.5 41.5zM397 1618l492 -1043l53 119l-436 924h-109zM510 2173l131 100q23 -86 96.5 -141t163.5 -55t163 55t95 141l135 -100q0 -82 -30.5 -152.5 t-85 -124t-126 -84t-151.5 -30.5q-82 0 -152.5 30.5t-124 84t-84 124t-30.5 152.5zM680 2021q37 -53 94 -84.5t127 -31.5t127 31.5t92 84.5q-96 -68 -219 -67q-127 0 -221 67z" />
<glyph unicode="&#x45f;" horiz-adv-x="2011" d="M49 61q0 23 15.5 43.5t48.5 20.5h125v1493h-125q-31 0 -47.5 19.5t-16.5 41.5q0 23 15.5 42.5t48.5 19.5h714q35 0 51.5 -19.5t16.5 -42.5t-16.5 -42t-51.5 -19h-59v-1493h473v1493h-61q-33 0 -49.5 19.5t-16.5 41.5q0 23 15.5 42.5t50.5 19.5h714q35 0 51.5 -19.5 t16.5 -42.5t-16.5 -42t-51.5 -19h-122v-1493h126q33 0 48.5 -20.5t15.5 -43.5t-16.5 -42t-47.5 -19h-829v-305q0 -33 -20.5 -49.5t-42.5 -16.5q-23 0 -43.5 16.5t-20.5 49.5v305h-829q-31 0 -47.5 19.5t-16.5 41.5zM362 125h93v1493h-93v-1493zM1366 125h92v1493h-92v-1493z " />
<glyph unicode="&#x490;" horiz-adv-x="1261" d="M49 61q0 23 16.5 43.5t51.5 20.5h123v1493h-123q-35 0 -51.5 19.5t-16.5 41.5q0 23 16.5 42.5t51.5 19.5h1018v307q0 33 20.5 49.5t42.5 16.5q23 0 43.5 -16.5t20.5 -49.5v-430h-492v-1493h150q35 0 51 -20.5t16 -43.5t-16.5 -42t-50.5 -19h-803q-35 0 -51.5 19.5 t-16.5 41.5zM365 125h94v1493h-94v-1493z" />
<glyph unicode="&#x491;" horiz-adv-x="1261" d="M49 61q0 23 16.5 43.5t51.5 20.5h123v1493h-123q-35 0 -51.5 19.5t-16.5 41.5q0 23 16.5 42.5t51.5 19.5h1018v307q0 33 20.5 49.5t42.5 16.5q23 0 43.5 -16.5t20.5 -49.5v-430h-492v-1493h150q35 0 51 -20.5t16 -43.5t-16.5 -42t-50.5 -19h-803q-35 0 -51.5 19.5 t-16.5 41.5zM365 125h94v1493h-94v-1493z" />
<glyph unicode="&#x2000;" horiz-adv-x="1173" />
<glyph unicode="&#x2001;" horiz-adv-x="2347" />
<glyph unicode="&#x2002;" horiz-adv-x="1173" />
<glyph unicode="&#x2003;" horiz-adv-x="2347" />
<glyph unicode="&#x2004;" horiz-adv-x="782" />
<glyph unicode="&#x2005;" horiz-adv-x="586" />
<glyph unicode="&#x2006;" horiz-adv-x="391" />
<glyph unicode="&#x2007;" horiz-adv-x="391" />
<glyph unicode="&#x2008;" horiz-adv-x="293" />
<glyph unicode="&#x2009;" horiz-adv-x="469" />
<glyph unicode="&#x200a;" horiz-adv-x="130" />
<glyph unicode="&#x2010;" horiz-adv-x="768" d="M49 653h670v437h-670v-437zM174 776v191h98v-191h-98z" />
<glyph unicode="&#x2011;" horiz-adv-x="768" d="M49 653h670v437h-670v-437zM174 776v191h98v-191h-98z" />
<glyph unicode="&#x2012;" horiz-adv-x="768" d="M49 653h670v437h-670v-437zM174 776v191h98v-191h-98z" />
<glyph unicode="&#x2013;" horiz-adv-x="1075" d="M49 653h977v437h-977v-437zM174 776v191h98v-191h-98z" />
<glyph unicode="&#x2014;" horiz-adv-x="2078" d="M49 653h1981v437h-1981v-437zM174 776v191h98v-191h-98z" />
<glyph unicode="&#x2018;" horiz-adv-x="667" d="M29 1171h452l117 568h-236z" />
<glyph unicode="&#x2019;" horiz-adv-x="667" d="M49 1174h236l333 567h-452z" />
<glyph unicode="&#x201a;" horiz-adv-x="667" d="M49 -244h236l333 568h-452z" />
<glyph unicode="&#x201c;" horiz-adv-x="1067" d="M49 1171h852l117 568h-238l-239 -430l80 430h-238z" />
<glyph unicode="&#x201d;" horiz-adv-x="1067" d="M49 1174h238l239 430l-80 -430h238l334 567h-852z" />
<glyph unicode="&#x201e;" horiz-adv-x="1067" d="M49 -244h238l239 430l-80 -430h238l334 568h-852z" />
<glyph unicode="&#x2020;" horiz-adv-x="1398" d="M49 1239l236 -231l149 149v-1120l264 -258l267 258v1120l151 -149l234 231l-234 236l-151 -150v416h-531v-416l-149 150zM559 88v1530h92v-1620z" />
<glyph unicode="&#x2021;" horiz-adv-x="1398" d="M49 281l236 -236l149 152v-160l264 -258l265 258v160l153 -152l234 236l-234 235l-153 -151v792l153 -149l234 231l-234 236l-153 -150v160l-265 256l-264 -254v-162l-149 150l-236 -236l236 -231l149 149v-792l-149 151zM557 88v1344l94 90v-1524z" />
<glyph unicode="&#x2022;" horiz-adv-x="1323" d="M49 870q0 -127 48 -237.5t131 -194.5t196 -132t240 -48q125 0 236.5 48t194.5 132t131 194.5t48 237.5t-48 239t-131 194.5t-193.5 132t-237.5 49.5t-239 -48t-196 -132t-132 -196t-48 -239zM162 870q0 96 33.5 182.5t93.5 151.5v-665q-59 66 -93 149.5t-34 181.5z" />
<glyph unicode="&#x2026;" horiz-adv-x="1777" d="M49 272q0 -55 21.5 -104t57.5 -86t84 -57.5t103 -20.5t103.5 20.5t84.5 57.5t57.5 86t21.5 104t-21.5 103.5t-57.5 84.5t-84 56.5t-104 20.5q-55 0 -103 -20.5t-84 -56.5t-57.5 -84t-21.5 -104zM174 272q0 45 25.5 80t68.5 51v-266q-43 16 -68.5 52t-25.5 83zM623 272 q0 -55 21.5 -104t57 -86t84 -57.5t103.5 -20.5t103 20.5t84 57.5t57.5 86t21.5 104t-21.5 103.5t-57.5 84.5t-84 56.5t-103 20.5t-103.5 -20.5t-84 -56.5t-57 -84t-21.5 -104zM748 272q0 45 25.5 80t68.5 51v-266q-43 16 -68.5 52t-25.5 83zM1196 272q0 -55 21.5 -104 t57.5 -86t84 -57.5t103 -20.5t103.5 20.5t84.5 57.5t57.5 86t21.5 104t-21.5 103.5t-57.5 84.5t-84 56.5t-104 20.5q-55 0 -103 -20.5t-84 -56.5t-57.5 -84t-21.5 -104zM1321 272q0 45 25.5 80t68.5 51v-266q-43 16 -68.5 52t-25.5 83z" />
<glyph unicode="&#x202f;" horiz-adv-x="469" />
<glyph unicode="&#x2030;" horiz-adv-x="3225" d="M49 1227q0 -102 37 -195.5t102.5 -165t153.5 -113.5t193 -42q104 0 194 42t154.5 113.5t101.5 165t37 195.5q0 100 -37 193t-101.5 165t-154.5 114t-194 42t-192.5 -42t-154 -114t-102.5 -165t-37 -193zM174 1227q0 68 21.5 131t60.5 115.5t94.5 89t122.5 49.5v-770 q-68 12 -123 48t-94 88t-60.5 116.5t-21.5 132.5zM598 842v770q33 -6 64 -19v-735l-32 -8zM621 57q0 -29 18 -45t43 -16q16 0 31.5 9t25.5 30l815 1618q9 15 9 33q0 29 -19.5 45t-42.5 16q-16 0 -32.5 -8t-26.5 -31l-813 -1618q-8 -14 -8 -33zM1163 512q0 -102 36 -195.5 t100.5 -165t153.5 -113.5t194 -42q104 0 193 42t153.5 113.5t101.5 165t37 195.5q0 100 -37 193.5t-101.5 165t-153.5 113.5t-193 42t-193.5 -42t-154 -113.5t-100.5 -165t-36 -193.5zM1286 512q0 68 21.5 131.5t60.5 115.5t94.5 89t122.5 49v-770q-68 12 -123 48t-94 88 t-60.5 116.5t-21.5 132.5zM1710 127v770q33 -6 64 -18v-736l-32 -8zM2208 512q0 -102 35.5 -195.5t100 -165t154 -113.5t193.5 -42t193.5 42t154 113.5t101 165t36.5 195.5q0 100 -36.5 193.5t-101 165t-153.5 113.5t-194 42q-104 0 -193.5 -42t-154 -113.5t-100 -165 t-35.5 -193.5zM2331 512q0 68 21.5 131.5t60 115.5t94 89t123.5 49v-770q-68 12 -123.5 48t-94 88t-60 116.5t-21.5 132.5zM2755 127v770q33 -6 63 -18v-736q-16 -4 -31.5 -8t-31.5 -8z" />
<glyph unicode="&#x2039;" horiz-adv-x="462" d="M49 870l250 -348q23 -31 55 -30q23 0 41.5 17t18.5 46q0 20 -13 39l-39 55v445l39 55q12 18 13 39q0 27 -18.5 44t-41.5 17q-14 0 -29.5 -6t-25.5 -22zM203 870l35 50v-99z" />
<glyph unicode="&#x203a;" horiz-adv-x="462" d="M66 555q0 20 12 39l39 55v445l-39 55q-12 18 -12 39q0 27 18 44t41 17q14 0 29.5 -6t25.5 -22l250 -351l-250 -348q-23 -31 -55 -30q-23 0 -41 17t-18 46zM242 821l34 49l-34 50v-99z" />
<glyph unicode="&#x205f;" horiz-adv-x="586" />
<glyph unicode="&#x20ac;" horiz-adv-x="1767" d="M49 750q0 23 16.5 42t47.5 19h159v86h-159q-31 0 -47.5 19.5t-16.5 41.5q0 23 16.5 42.5t47.5 19.5h174q27 154 103.5 284t190 226t255 150.5t299.5 54.5q219 0 413 -105l49 127q10 27 25.5 36t34.5 9q25 0 43 -16t18 -41q0 -4 -1 -12.5t-3 -18.5l-166 -432 q-20 -45 -61 -45q-23 0 -41.5 16.5t-18.5 44.5v13q0 6 5 14l71 186q-86 47 -178 74t-190 27q-92 0 -174 -20.5t-160 -59.5v-512h559q35 0 51 -19.5t16 -42.5t-16 -42t-51 -19h-559v-86h493q35 0 51.5 -19.5t16.5 -41.5q0 -23 -16.5 -42.5t-51.5 -19.5h-493v-510 q156 -82 334 -82q242 0 436 146q20 14 41 14q27 0 44 -18.5t17 -42.5q0 -12 -6 -26.5t-22 -27.5q-111 -82 -240 -125t-270 -43q-172 0 -316.5 54.5t-254 150.5t-180.5 226.5t-97 283.5h-174q-31 0 -47.5 19.5t-16.5 42.5zM395 856q0 -98 24.5 -195.5t69.5 -175.5v744 q-45 -82 -69.5 -178.5t-24.5 -194.5z" />
<glyph unicode="&#x2122;" horiz-adv-x="1964" d="M49 1503q0 -25 19.5 -42t42.5 -17q16 0 32.5 10t26.5 31l61 133h58v-653h-29q-33 0 -48 -20.5t-15 -43.5t15 -41t48 -18h375q35 0 51 18.5t16 40.5q0 23 -16 43.5t-51 20.5h-27v653h54l65 -133q10 -23 26.5 -32t32.5 -9q23 0 42.5 16t19.5 43q0 18 -8 35l-99 203h-587 l-97 -203q-8 -16 -8 -35zM414 965v653h43v-653h-43zM872 1679q0 -23 16.5 -42t51.5 -19h37v-653h-31q-35 0 -51 -20.5t-16 -43.5t16 -41t51 -18h184q35 0 51.5 18.5t16.5 40.5q0 23 -16.5 43.5t-51.5 20.5h-28v319l162 -213l239 346v-452h-30q-31 0 -47.5 -20.5t-16.5 -43.5 t16.5 -41t47.5 -18h374q35 0 51.5 18t16.5 41t-16.5 43.5t-51.5 20.5h-26v653h26q35 0 51.5 19.5t16.5 41.5q0 23 -16.5 42.5t-51.5 19.5h-270l-174 -248l-186 248h-277q-35 0 -51.5 -19.5t-16.5 -42.5zM1102 1491v76l182 -244l-27 -39zM1626 965v628l14 25h29v-653h-43z " />
<glyph unicode="&#x25fc;" horiz-adv-x="1740" d="M0 0v1741h1741v-1741h-1741z" />
</font>
</defs>
</svg>
