<svg xmlns="http://www.w3.org/2000/svg" viewBox="0 0 214 34.5" width="214" height="35"><style>.st0{fill:#00737e}</style><g id="Cluster-Logo-Wordmark-SVG"><path id="AUSBILDUNG-GESUNDHEI" class="st0" d="M0 17L4.4 5.5H6L10.7 17H9l-1.3-3.5H2.8L1.6 17H0zm3.3-4.7h3.9L6 9.1c-.4-1-.6-1.8-.8-2.4-.2.8-.4 1.5-.7 2.2l-1.2 3.4zm16.1-6.8h1.5v6.6c0 1.2-.1 2.1-.4 2.7s-.7 1.2-1.4 1.7-1.6.6-2.7.6-2-.2-2.6-.6-1.2-.9-1.5-1.6-.4-1.7-.4-2.9V5.5h1.5v6.6c0 1 .1 1.7.3 2.2s.5.8 1 1.1 1 .4 1.7.4c1.1 0 1.9-.3 2.4-.8s.7-1.5.7-2.9V5.5zm3.5 7.8l1.4-.1c.1.6.2 1 .5 1.4s.6.7 1.2.9 1.1.3 1.8.3c.6 0 1.1-.1 1.5-.3s.8-.4 1-.7.3-.6.3-1-.1-.7-.3-.9-.6-.5-1-.7c-.3-.1-1-.3-2-.6s-1.9-.4-2.3-.6c-.5-.3-1-.6-1.2-1.1s-.4-.9-.4-1.4c0-.6.2-1.1.5-1.6s.8-.9 1.4-1.1 1.3-.4 2.1-.4 1.6.1 2.2.4 1.1.7 1.5 1.2.5 1.1.6 1.8l-1.5.1c-.1-.7-.3-1.3-.8-1.6s-1.1-.6-2-.6c-.9 0-1.6.2-2 .5s-.6.7-.6 1.2c0 .4.1.7.4 1 .3.3 1.1.5 2.3.8s2.1.5 2.5.7c.7.3 1.2.7 1.5 1.2s.5 1 .5 1.6c0 .6-.2 1.2-.5 1.7s-.9 1-1.5 1.3-1.4.4-2.2.4c-1 0-1.9-.2-2.6-.5s-1.2-.6-1.6-1.2-.6-1.3-.7-2.1zM34.1 17V5.5h4.3c.9 0 1.6.1 2.1.3s.9.6 1.2 1.1.4 1 .4 1.5-.1 1-.4 1.4-.7.8-1.2 1c.7.2 1.2.5 1.6 1s.6 1.1.6 1.7c0 .5-.1 1-.3 1.5s-.5.8-.8 1.1c-.3.3-.8.4-1.3.6s-1.1.3-1.9.3h-4.3zm1.5-6.6h2.5c.7 0 1.2 0 1.4-.1.4-.1.7-.3.9-.6s.3-.6.3-1-.1-.7-.3-1-.4-.5-.8-.6-.9-.2-1.7-.2h-2.3v3.5zm0 5.2h2.9c.5 0 .8 0 1-.1l.9-.3c.3-.1.4-.4.6-.6s.2-.6.2-1-.1-.8-.3-1.1-.5-.5-.9-.7-.9-.2-1.7-.2h-2.6v4zm9.5 1.4V5.5h1.5V17h-1.5zm4.1 0V5.5h1.5v10.1h5.6V17h-7.1zm8.9 0V5.5H62c.9 0 1.6.1 2 .2.7.2 1.2.4 1.7.8.6.5 1.1 1.2 1.4 2s.4 1.7.4 2.7c0 .9-.1 1.6-.3 2.3s-.5 1.2-.8 1.7-.7.8-1 1-.8.4-1.4.6c-.4.1-1 .2-1.7.2h-4.2zm1.6-1.4h2.4c.8 0 1.3-.1 1.8-.2.4-.1.8-.3 1-.6.4-.4.6-.8.8-1.4s.3-1.3.3-2.2c0-1.2-.2-2.1-.6-2.8s-.8-1-1.4-1.3c-.4-.2-1.1-.2-2-.2h-2.4v8.7zM77.2 5.5h1.5v6.6c0 1.2-.1 2.1-.4 2.7s-.7 1.2-1.4 1.7-1.6.6-2.7.6-2-.2-2.6-.6-1.2-.9-1.5-1.6-.4-1.7-.4-2.9V5.5h1.5v6.6c0 1 .1 1.7.3 2.2s.5.8 1 1.1 1 .4 1.7.4c1.1 0 1.9-.3 2.4-.8s.7-1.5.7-2.9V5.5zm4 11.5V5.5h1.6l6 9v-9h1.5V17h-1.6l-6-9v9h-1.5zm17-4.5v-1.3h4.9v4.3c-.7.6-1.5 1-2.3 1.3s-1.6.4-2.4.4c-1.1 0-2.1-.2-3.1-.7s-1.6-1.2-2.1-2.1-.7-1.9-.7-3.1c0-1.1.2-2.2.7-3.1s1.1-1.7 2-2.2 1.9-.7 3-.7c.8 0 1.6.1 2.2.4s1.2.6 1.6 1.1.7 1.1.9 1.9l-1.4.4c-.2-.6-.4-1-.6-1.4s-.6-.6-1.1-.8-1-.3-1.6-.3c-.7 0-1.3.1-1.8.3s-.9.5-1.2.8-.6.7-.7 1.1c-.3.7-.4 1.5-.4 2.3 0 1 .2 1.9.5 2.6s.9 1.2 1.5 1.5 1.4.5 2.1.5c.7 0 1.3-.1 1.9-.4s1.1-.5 1.4-.8v-2.1h-3.3zm16.9 0v-1.3h4.9v4.3c-.7.6-1.5 1-2.3 1.3s-1.6.4-2.4.4c-1.1 0-2.1-.2-3.1-.7s-1.6-1.2-2.1-2.1-.7-1.9-.7-3.1c0-1.1.2-2.2.7-3.1s1.1-1.7 2-2.2 1.9-.7 3-.7c.8 0 1.6.1 2.2.4s1.2.6 1.6 1.1.7 1.1.9 1.9l-1.4.4c-.2-.6-.4-1-.6-1.4s-.6-.6-1.1-.8-1-.3-1.6-.3c-.7 0-1.3.1-1.8.3s-.9.5-1.2.8-.6.7-.7 1.1c-.3.7-.4 1.5-.4 2.3 0 1 .2 1.9.5 2.6s.9 1.2 1.5 1.5 1.4.5 2.1.5c.7 0 1.3-.1 1.9-.4s1.1-.5 1.4-.8v-2.1h-3.3zm7.1 4.5V5.5h8.3v1.4h-6.8v3.5h6.3v1.3h-6.3v3.9h7V17h-8.5zm10.1-3.7l1.4-.1c.1.6.2 1 .5 1.4s.6.7 1.2.9 1.1.3 1.8.3c.6 0 1.1-.1 1.5-.3s.8-.4 1-.7.3-.6.3-1-.1-.7-.3-.9-.6-.5-1-.7c-.3-.1-1-.3-2-.6s-1.8-.5-2.2-.7c-.5-.3-1-.6-1.2-1.1s-.4-.9-.4-1.4c0-.6.2-1.1.5-1.6s.8-.9 1.4-1.1 1.3-.4 2.1-.4 1.6.1 2.2.4 1.1.7 1.5 1.2.5 1.1.6 1.8l-1.5.1c-.1-.7-.3-1.3-.8-1.6s-1.1-.6-2-.6c-.9 0-1.6.2-2 .5s-.6.7-.6 1.2c0 .4.1.7.4 1 .3.3 1.1.5 2.3.8s2.1.5 2.5.7c.7.3 1.2.7 1.5 1.2s.5 1 .5 1.6c0 .6-.2 1.2-.5 1.7s-.9 1-1.5 1.3-1.4.4-2.2.4c-1 0-1.9-.2-2.6-.5s-1.3-.8-1.6-1.4-.8-1-.8-1.8zM151 5.5h1.5v6.6c0 1.2-.1 2.1-.4 2.7s-.7 1.2-1.4 1.7-1.6.6-2.7.6-2-.2-2.6-.6-1.2-.9-1.5-1.6-.4-1.7-.4-2.9V5.5h1.5v6.6c0 1 .1 1.7.3 2.2s.5.8 1 1.1 1 .4 1.7.4c1.1 0 1.9-.3 2.4-.8s.7-1.5.7-2.9V5.5zm4 11.5V5.5h1.6l6 9v-9h1.5V17h-1.6l-6-9v9H155zm11.6 0V5.5h3.9c.9 0 1.6.1 2 .2.7.2 1.2.4 1.7.8.6.5 1.1 1.2 1.4 2s.4 1.7.4 2.7c0 .9-.1 1.6-.3 2.3s-.5 1.2-.8 1.7-.7.8-1 1-.8.4-1.4.6-1.1.2-1.8.2h-4.1zm1.5-1.4h2.4c.8 0 1.3-.1 1.8-.2s.8-.3 1-.6c.4-.4.6-.8.8-1.4s.3-1.3.3-2.2c0-1.2-.2-2.1-.6-2.8s-.9-1.1-1.4-1.3c-.4-.2-1.1-.2-2-.2H168v8.7zm10.1 1.4V5.5h1.5v4.7h6V5.5h1.5V17h-1.5v-5.4h-6V17h-1.5zm11.5 0V5.5h8.3v1.4h-6.8v3.5h6.3v1.3h-6.3v3.9h7V17h-8.5zm10.9 0V5.5h1.5V17h-1.5zm7.1 0V6.9H204V5.5h9.1v1.4h-3.8V17h-1.6z"/><path id="in-Berlin-Brandenbur" class="st0" d="M.9 24.9v-1.5h1.6v1.5H.9zm0 7.1v-6.2h1.6V32H.9zm9 0H8.2v-3.2c0-.7 0-1.1-.1-1.3s-.2-.4-.3-.5-.3-.2-.6-.2-.5.1-.8.2-.4.5-.4.8-.1.7-.1 1.4V32H4.2v-6.2h1.5v.9c.5-.7 1.2-1.1 2.1-1.1.4 0 .7.1 1 .2s.5.3.7.5.3.4.3.7.1.6.1 1.1V32zm5-8.6h3.4c.7 0 1.2 0 1.5.1s.6.2.9.4.5.4.7.7.3.6.3 1-.1.8-.3 1.1-.5.6-.9.8c.5.2.9.4 1.2.8s.4.8.4 1.3c0 .4-.1.8-.3 1.1s-.4.7-.7.9-.7.4-1.2.4c-.3 0-1 .1-2.1.1h-2.9v-8.7zm1.7 1.4v2H19c.3 0 .5-.1.7-.3s.3-.4.3-.7c0-.3-.1-.5-.2-.6s-.4-.3-.7-.3h-2.5zm0 3.5v2.3h1.6c.6 0 1 0 1.2-.1.3 0 .5-.2.6-.3s.2-.4.2-.7c0-.3-.1-.5-.2-.7s-.3-.3-.5-.4-.7-.1-1.5-.1h-1.4zM27.1 30l1.6.3c-.2.6-.5 1.1-1 1.4s-1 .5-1.7.5c-1.1 0-1.9-.4-2.4-1.1-.4-.6-.6-1.3-.6-2.1 0-1 .3-1.8.8-2.4s1.2-.9 2-.9c.9 0 1.7.3 2.2.9s.8 1.5.8 2.8h-4.1c0 .5.1.9.4 1.1s.6.4.9.4c.3 0 .5-.1.7-.2s.3-.4.4-.7zm.1-1.6c0-.5-.1-.8-.4-1.1s-.5-.4-.9-.4-.7.1-.9.4-.3.6-.3 1.1h2.5zm4.6 3.6h-1.6v-6.2h1.5v.9c.3-.4.5-.7.7-.8s.4-.2.7-.2c.4 0 .7.1 1.1.3l-.5 1.4c-.3-.2-.5-.3-.8-.3-.2 0-.4.1-.6.2s-.3.4-.4.7-.1 1-.1 2.1V32zm3.1 0v-8.6h1.6V32h-1.6zm3.3-7.1v-1.5h1.6v1.5h-1.6zm0 7.1v-6.2h1.6V32h-1.6zm9 0h-1.6v-3.2c0-.7 0-1.1-.1-1.3s-.2-.4-.3-.5-.3-.2-.6-.2-.5.1-.8.2-.4.4-.5.6-.1.7-.1 1.4v3h-1.6v-6.2h1.5v.9c.5-.7 1.2-1.1 2.1-1.1.4 0 .7.1 1 .2s.5.3.7.5.3.4.3.7.1.6.1 1.1V32zm1.5-2.3v-1.6h3.2v1.6h-3.2zm4.2-6.3h3.4c.7 0 1.2 0 1.5.1s.6.2.9.4.5.4.7.7.3.6.3 1-.1.8-.3 1.1-.5.6-.9.8c.5.2.9.4 1.2.8s.4.8.4 1.3c0 .4-.1.8-.3 1.1s-.4.7-.7.9-.7.4-1.2.4c-.3 0-1 .1-2.1.1h-2.9v-8.7zm1.7 1.4v2H57c.3 0 .5-.1.7-.3s.3-.4.3-.7c0-.3-.1-.5-.2-.6s-.4-.3-.7-.3h-2.5zm0 3.5v2.3h1.6c.6 0 1 0 1.2-.1.3 0 .5-.2.6-.3s.2-.4.2-.7c0-.3-.1-.5-.2-.7s-.3-.3-.5-.4-.7-.1-1.5-.1h-1.4zm8.5 3.7h-1.6v-6.2H63v.9c.3-.4.5-.7.7-.8s.4-.2.7-.2c.4 0 .7.1 1.1.3l-.5 1.4c-.3-.2-.5-.3-.8-.3-.2 0-.4.1-.6.2s-.3.4-.4.7-.1 1-.1 2.1V32zm4.3-4.3l-1.5-.3c.2-.6.5-1 .9-1.3s1-.4 1.8-.4c.7 0 1.3.1 1.6.3s.6.4.8.7.2.8.2 1.5v1.9c0 .5 0 1 .1 1.2s.2.5.3.8H70c0-.1-.1-.3-.2-.5 0-.1 0-.2-.1-.2-.3.3-.6.5-.9.6s-.7.2-1 .2c-.6 0-1.1-.2-1.5-.5s-.6-.8-.6-1.3c0-.4.1-.7.3-.9s.4-.5.7-.6.7-.3 1.3-.4c.8-.1 1.3-.3 1.6-.4v-.2c0-.3-.1-.5-.2-.7s-.5-.2-.9-.2c-.3 0-.5.1-.7.2s-.3.2-.4.5zm2.2 1.3c-.2.1-.5.2-1 .3s-.8.2-.9.3c-.2.2-.3.3-.3.6 0 .2.1.4.3.6s.4.3.7.3c.3 0 .6-.1.8-.3.2-.1.3-.3.4-.5 0-.1.1-.4.1-.8V29zm8.9 3h-1.6v-3.2c0-.7 0-1.1-.1-1.3s-.2-.4-.3-.5-.3-.2-.6-.2-.5.1-.8.2-.4.4-.5.6-.1.7-.1 1.4v3h-1.6v-6.2h1.5v.9c.5-.7 1.2-1.1 2.1-1.1.4 0 .7.1 1 .2s.5.3.7.5.3.4.3.7.1.6.1 1.1V32zm7.4 0h-1.5v-.9c-.3.4-.6.6-.9.8s-.7.3-1 .3c-.7 0-1.3-.3-1.8-.9-.5-.6-.8-1.4-.8-2.4 0-1.1.2-1.9.7-2.4s1.1-.8 1.9-.8c.7 0 1.3.3 1.8.9v-3.1h1.6V32zm-4.4-3.2c0 .7.1 1.1.3 1.4.3.4.6.6 1.1.6.4 0 .7-.2 1-.5s.4-.8.4-1.4c0-.7-.1-1.2-.4-1.5s-.6-.5-1-.5-.7.2-1 .5-.4.7-.4 1.4zm9.6 1.2l1.6.3c-.2.6-.5 1.1-1 1.4s-1 .5-1.7.5c-1.1 0-1.9-.4-2.4-1.1-.4-.6-.6-1.3-.6-2.1 0-1 .3-1.8.8-2.4s1.2-.9 2-.9c.9 0 1.7.3 2.2.9s.8 1.5.8 2.8h-4.1c0 .5.1.9.4 1.1s.6.4.9.4c.3 0 .5-.1.7-.2s.3-.4.4-.7zm.1-1.6c0-.5-.1-.8-.4-1.1s-.5-.4-.9-.4-.7.1-.9.4-.3.6-.3 1.1h2.5zm8.7 3.6h-1.6v-3.2c0-.7 0-1.1-.1-1.3s-.2-.4-.3-.5-.3-.2-.6-.2-.5.1-.8.2-.4.4-.5.6-.1.7-.1 1.4v3h-1.6v-6.2h1.5v.9c.5-.7 1.2-1.1 2.1-1.1.4 0 .7.1 1 .2s.5.3.7.5.3.4.3.7.1.6.1 1.1V32zm1.6 0v-8.6h1.6v3.1c.5-.6 1.1-.9 1.8-.9.8 0 1.4.3 1.9.8s.7 1.3.7 2.4c0 1.1-.3 1.9-.8 2.5-.5.6-1.1.9-1.8.9-.4 0-.7-.1-1.1-.3s-.6-.4-.9-.8v.9h-1.4zm1.6-3.2c0 .6.1 1.1.3 1.4.3.4.7.7 1.1.7.4 0 .7-.2.9-.5s.4-.8.4-1.5-.1-1.2-.4-1.5-.6-.5-1-.5-.7.2-1 .5-.3.7-.3 1.4zM113 32v-.9c-.2.3-.5.6-.9.8-.4.2-.8.3-1.2.3-.4 0-.8-.1-1.1-.3s-.6-.4-.7-.8-.2-.8-.2-1.4v-3.9h1.6v2.9c0 .9 0 1.4.1 1.6s.2.4.3.5.4.2.6.2c.3 0 .5-.1.8-.2s.4-.3.5-.6.1-.8.1-1.7v-2.6h1.6V32H113zm4.8 0h-1.6v-6.2h1.5v.9c.3-.4.5-.7.7-.8s.4-.2.7-.2c.4 0 .7.1 1.1.3l-.5 1.4c-.3-.2-.5-.3-.8-.3-.2 0-.4.1-.6.2s-.3.4-.4.7-.1 1-.1 2.1V32zm2.9.4l1.9.2c0 .2.1.4.2.5.2.1.4.2.7.2.4 0 .8-.1 1-.2.1-.1.3-.2.3-.4.1-.1.1-.4.1-.8V31c-.5.7-1.1 1-1.9 1-.8 0-1.5-.4-2-1.1-.4-.6-.6-1.3-.6-2.1 0-1 .3-1.8.8-2.4s1.1-.8 1.9-.8c.8 0 1.4.3 1.9 1v-.9h1.5v5.6c0 .7-.1 1.3-.2 1.6s-.3.6-.5.9-.5.4-.9.5-.8.2-1.4.2c-1.1 0-1.8-.2-2.2-.5s-.7-.8-.7-1.4c.1 0 .1-.1.1-.2zm1.5-3.6c0 .7.1 1.1.4 1.5s.6.5.9.5c.4 0 .7-.2 1-.5s.4-.8.4-1.4c0-.6-.1-1.1-.4-1.4s-.6-.5-1-.5-.7.2-1 .5-.3.6-.3 1.3z"/></g></svg>