<svg width="214" height="33" xmlns="http://www.w3.org/2000/svg"><path d="M-.023 17L4.375 5.547h1.633L10.695 17H8.97l-1.336-3.469h-4.79L1.587 17h-1.61zm3.304-4.703h3.883L5.97 9.125a31.346 31.346 0 0 1-.813-2.375 14.6 14.6 0 0 1-.617 2.188l-1.258 3.359zm16.14-6.75h1.517v6.617c0 1.151-.13 2.065-.391 2.742-.26.677-.73 1.228-1.41 1.653-.68.424-1.572.636-2.676.636-1.073 0-1.95-.185-2.633-.554a3.166 3.166 0 0 1-1.46-1.606c-.292-.7-.438-1.657-.438-2.87V5.546h1.515v6.61c0 .994.093 1.727.278 2.198.185.472.502.835.953 1.09.45.256 1.001.383 1.652.383 1.115 0 1.909-.252 2.383-.758.474-.505.71-1.476.71-2.914v-6.61zm3.524 7.773l1.43-.125c.068.573.225 1.043.473 1.41.247.368.631.665 1.152.891.52.227 1.107.34 1.758.34.578 0 1.088-.086 1.531-.258.443-.172.772-.407.988-.707.216-.3.325-.626.325-.98 0-.36-.105-.674-.313-.942-.208-.268-.552-.493-1.031-.676-.307-.12-.987-.306-2.04-.558-1.051-.253-1.788-.491-2.21-.715-.547-.286-.955-.642-1.223-1.066a2.614 2.614 0 0 1-.402-1.426c0-.578.164-1.119.492-1.621.328-.503.807-.884 1.438-1.145.63-.26 1.33-.39 2.101-.39.849 0 1.598.136 2.246.41.649.273 1.147.675 1.496 1.207.35.531.537 1.133.563 1.804l-1.453.11c-.079-.724-.343-1.271-.793-1.64-.45-.37-1.116-.556-1.996-.556-.917 0-1.585.168-2.004.504-.42.336-.63.741-.63 1.215 0 .412.15.75.446 1.016.292.266 1.053.538 2.285.816 1.232.279 2.077.522 2.535.73.667.308 1.16.697 1.477 1.169.318.471.477 1.014.477 1.629 0 .609-.175 1.183-.524 1.722-.349.54-.85.959-1.504 1.258-.653.3-1.39.45-2.207.45-1.036 0-1.905-.152-2.605-.454a3.649 3.649 0 0 1-1.649-1.363 3.865 3.865 0 0 1-.629-2.059zM34.07 17V5.547h4.297c.875 0 1.577.116 2.106.348.528.231.942.588 1.242 1.07.3.482.45.986.45 1.512 0 .49-.134.95-.4 1.382-.265.433-.666.782-1.203 1.047.693.203 1.226.55 1.598 1.04.373.489.559 1.067.559 1.734 0 .536-.114 1.035-.34 1.496-.227.46-.507.816-.84 1.066-.333.25-.751.439-1.254.567-.502.127-1.118.191-1.847.191H34.07zm1.516-6.64h2.477c.671 0 1.153-.045 1.445-.133.385-.115.676-.305.87-.57.196-.266.294-.6.294-1 0-.381-.091-.716-.274-1.005a1.384 1.384 0 0 0-.78-.593c-.34-.107-.92-.16-1.743-.16h-2.29v3.46zm0 5.288h2.852c.49 0 .833-.018 1.03-.054a2.48 2.48 0 0 0 .876-.313 1.66 1.66 0 0 0 .578-.636c.15-.28.226-.6.226-.965 0-.427-.109-.798-.328-1.114a1.73 1.73 0 0 0-.91-.664c-.388-.127-.946-.191-1.676-.191h-2.648v3.937zM45.063 17V5.547h1.515V17h-1.516zm4.124 0V5.547h1.516v10.101h5.64V17h-7.156zm8.961 0V5.547h3.946c.89 0 1.57.055 2.039.164.656.151 1.216.424 1.68.82.604.51 1.055 1.163 1.355 1.957.3.795.45 1.702.45 2.723 0 .87-.102 1.64-.305 2.312-.204.672-.464 1.228-.782 1.668a4.15 4.15 0 0 1-1.043 1.04 4.25 4.25 0 0 1-1.367.574 7.803 7.803 0 0 1-1.84.195h-4.133zm1.516-1.352h2.445c.756 0 1.348-.07 1.778-.21.43-.141.772-.339 1.027-.594.36-.36.64-.843.84-1.45.2-.606.3-1.342.3-2.207 0-1.197-.196-2.118-.59-2.761-.392-.643-.87-1.074-1.433-1.293-.406-.156-1.06-.235-1.96-.235h-2.407v8.75zM77.22 5.547h1.515v6.617c0 1.151-.13 2.065-.39 2.742s-.73 1.228-1.41 1.653c-.68.424-1.572.636-2.676.636-1.073 0-1.95-.185-2.633-.554a3.166 3.166 0 0 1-1.46-1.606c-.293-.7-.438-1.657-.438-2.87V5.546h1.515v6.61c0 .994.093 1.727.278 2.198.184.472.502.835.953 1.09.45.256 1.001.383 1.652.383 1.115 0 1.909-.252 2.383-.758.474-.505.71-1.476.71-2.914v-6.61zM81.242 17V5.547h1.555l6.016 8.992V5.547h1.453V17H88.71l-6.016-9v9h-1.453zm16.93-4.492v-1.344l4.851-.008v4.25a8.567 8.567 0 0 1-2.304 1.34c-.792.3-1.604.45-2.438.45-1.125 0-2.147-.242-3.066-.723a4.777 4.777 0 0 1-2.082-2.09c-.469-.912-.703-1.93-.703-3.055 0-1.114.233-2.155.699-3.121.466-.966 1.137-1.684 2.012-2.152.875-.47 1.882-.703 3.023-.703.828 0 1.577.134 2.246.402.67.268 1.194.642 1.574 1.121.38.48.67 1.104.868 1.875l-1.368.375c-.172-.583-.385-1.042-.64-1.375-.255-.333-.62-.6-1.094-.8-.474-.201-1-.302-1.578-.302-.693 0-1.292.106-1.797.317-.505.21-.913.488-1.223.832-.31.344-.55.721-.722 1.133a5.994 5.994 0 0 0-.438 2.304c0 1.021.176 1.875.528 2.563a3.375 3.375 0 0 0 1.535 1.531c.672.333 1.385.5 2.14.5.657 0 1.297-.126 1.922-.379.625-.252 1.1-.522 1.422-.808v-2.133h-3.367zm16.89 0v-1.344l4.852-.008v4.25a8.567 8.567 0 0 1-2.305 1.34c-.791.3-1.604.45-2.437.45-1.125 0-2.147-.242-3.067-.723a4.777 4.777 0 0 1-2.082-2.09c-.468-.912-.703-1.93-.703-3.055 0-1.114.233-2.155.7-3.121.466-.966 1.136-1.684 2.011-2.152.875-.47 1.883-.703 3.024-.703.828 0 1.577.134 2.246.402.67.268 1.194.642 1.574 1.121.38.48.67 1.104.867 1.875l-1.367.375c-.172-.583-.385-1.042-.64-1.375-.256-.333-.62-.6-1.094-.8-.474-.201-1-.302-1.579-.302-.692 0-1.291.106-1.796.317-.506.21-.913.488-1.223.832-.31.344-.55.721-.723 1.133a5.994 5.994 0 0 0-.437 2.304c0 1.021.176 1.875.527 2.563a3.375 3.375 0 0 0 1.535 1.531c.672.333 1.386.5 2.14.5a5.08 5.08 0 0 0 1.923-.379c.625-.252 1.099-.522 1.422-.808v-2.133h-3.368zM122.18 17V5.547h8.28v1.351h-6.765v3.508h6.336v1.344h-6.336v3.898h7.032V17h-8.547zm10.125-3.68l1.43-.125c.067.573.225 1.043.472 1.41.247.368.632.665 1.152.891.521.227 1.107.34 1.758.34.578 0 1.089-.086 1.531-.258.443-.172.773-.407.989-.707.216-.3.324-.626.324-.98 0-.36-.104-.674-.313-.942-.208-.268-.552-.493-1.03-.676-.308-.12-.988-.306-2.04-.558-1.052-.253-1.789-.491-2.21-.715-.548-.286-.955-.642-1.223-1.066a2.614 2.614 0 0 1-.403-1.426c0-.578.164-1.119.492-1.621.329-.503.808-.884 1.438-1.145.63-.26 1.33-.39 2.101-.39.85 0 1.598.136 2.247.41.648.273 1.147.675 1.496 1.207.349.531.536 1.133.562 1.804l-1.453.11c-.078-.724-.342-1.271-.793-1.64-.45-.37-1.116-.556-1.996-.556-.917 0-1.585.168-2.004.504-.42.336-.629.741-.629 1.215 0 .412.149.75.445 1.016.292.266 1.054.538 2.286.816 1.231.279 2.076.522 2.535.73.666.308 1.159.697 1.476 1.169.318.471.477 1.014.477 1.629 0 .609-.175 1.183-.524 1.722-.349.54-.85.959-1.503 1.258-.654.3-1.39.45-2.208.45-1.036 0-1.904-.152-2.605-.454a3.649 3.649 0 0 1-1.648-1.363 3.865 3.865 0 0 1-.63-2.059zm18.703-7.773h1.515v6.617c0 1.151-.13 2.065-.39 2.742s-.73 1.228-1.41 1.653c-.68.424-1.572.636-2.676.636-1.073 0-1.95-.185-2.633-.554a3.166 3.166 0 0 1-1.46-1.606c-.293-.7-.438-1.657-.438-2.87V5.546h1.515v6.61c0 .994.093 1.727.278 2.198.184.472.502.835.953 1.09.45.256 1.001.383 1.652.383 1.115 0 1.909-.252 2.383-.758.474-.505.71-1.476.71-2.914v-6.61zM155.03 17V5.547h1.555l6.016 8.992V5.547h1.453V17H162.5l-6.016-9v9h-1.453zm11.57 0V5.547h3.946c.89 0 1.57.055 2.039.164.656.151 1.216.424 1.68.82.604.51 1.056 1.163 1.355 1.957.3.795.45 1.702.45 2.723 0 .87-.102 1.64-.305 2.312-.204.672-.464 1.228-.782 1.668a4.15 4.15 0 0 1-1.043 1.04 4.25 4.25 0 0 1-1.367.574 7.803 7.803 0 0 1-1.84.195h-4.132zm1.516-1.352h2.446c.755 0 1.347-.07 1.777-.21.43-.141.772-.339 1.027-.594.36-.36.64-.843.84-1.45.2-.606.3-1.342.3-2.207 0-1.197-.196-2.118-.589-2.761-.393-.643-.871-1.074-1.434-1.293-.406-.156-1.06-.235-1.96-.235h-2.407v8.75zM178.203 17V5.547h1.516v4.703h5.953V5.547h1.516V17h-1.516v-5.398h-5.953V17h-1.516zm11.54 0V5.547h8.28v1.351h-6.765v3.508h6.336v1.344h-6.336v3.898h7.031V17h-8.547zm10.898 0V5.547h1.515V17h-1.515zm7.101 0V6.898h-3.773V5.547h9.078v1.351h-3.79V17h-1.515zM.861 24.934V23.41h1.647v1.524H.86zm0 7.066v-6.223h1.647V32H.86zm8.994 0H8.21v-3.176c0-.672-.035-1.106-.105-1.303a.914.914 0 0 0-.343-.46.98.98 0 0 0-.572-.165 1.32 1.32 0 0 0-.767.235 1.18 1.18 0 0 0-.466.621c-.084.258-.126.734-.126 1.43V32H4.184v-6.223h1.529v.914c.543-.703 1.226-1.054 2.05-1.054.364 0 .696.065.997.196.3.13.528.298.682.501.155.203.262.434.323.691.06.258.09.627.09 1.108V32zm5.022-8.59h3.434c.68 0 1.186.028 1.52.085.334.057.633.175.897.355.263.18.483.419.659.717.176.3.263.634.263 1.005a2 2 0 0 1-.325 1.108c-.217.336-.51.588-.882.756.524.152.926.412 1.207.779.282.367.422.799.422 1.295 0 .39-.09.77-.272 1.14-.182.369-.43.663-.744.884-.315.22-.702.357-1.163.407-.29.032-.987.051-2.092.059h-2.924v-8.59zm1.734 1.43v1.986h1.137c.676 0 1.096-.01 1.26-.03.297-.034.53-.137.7-.307.17-.17.255-.393.255-.67 0-.266-.073-.482-.22-.648-.146-.166-.364-.267-.653-.302-.172-.02-.666-.03-1.483-.03h-.996zm0 3.416v2.297h1.606c.625 0 1.021-.018 1.19-.053a1.08 1.08 0 0 0 .63-.343c.161-.181.242-.425.242-.73a1.12 1.12 0 0 0-.187-.656 1.06 1.06 0 0 0-.542-.392c-.237-.082-.75-.123-1.538-.123h-1.4zM27.13 30.02l1.64.275c-.21.601-.543 1.06-.998 1.374-.456.314-1.025.472-1.709.472-1.082 0-1.882-.354-2.402-1.06-.41-.567-.615-1.282-.615-2.145 0-1.032.27-1.84.809-2.423.539-.584 1.22-.876 2.044-.876.926 0 1.657.305 2.192.917.535.611.79 1.548.767 2.81h-4.125c.012.488.145.867.399 1.139.254.271.57.407.95.407.257 0 .474-.07.65-.21.175-.141.308-.368.398-.68zm.094-1.665c-.012-.476-.135-.838-.37-1.086a1.133 1.133 0 0 0-.855-.373c-.36 0-.656.131-.89.393-.235.262-.35.617-.346 1.066h2.46zM31.775 32H30.13v-6.223h1.53v.885c.26-.418.496-.693.705-.826.21-.133.447-.2.712-.2.375 0 .736.104 1.084.311l-.51 1.436c-.277-.18-.535-.27-.773-.27a.914.914 0 0 0-.586.19c-.16.128-.286.357-.378.69-.092.331-.138 1.027-.138 2.085V32zm3.094 0v-8.59h1.647V32h-1.647zm3.334-7.066V23.41h1.647v1.524h-1.647zm0 7.066v-6.223h1.647V32h-1.647zm8.994 0h-1.646v-3.176c0-.672-.035-1.106-.106-1.303a.914.914 0 0 0-.342-.46.98.98 0 0 0-.572-.165 1.32 1.32 0 0 0-.767.235 1.18 1.18 0 0 0-.466.621c-.084.258-.126.734-.126 1.43V32h-1.647v-6.223h1.53v.914c.543-.703 1.226-1.054 2.05-1.054.364 0 .696.065.997.196.3.13.528.298.682.501.154.203.262.434.322.691.061.258.091.627.091 1.108V32zm1.483-2.291v-1.646h3.234v1.646H48.68zm4.2-6.299h3.434c.68 0 1.187.028 1.521.085.334.057.633.175.896.355.264.18.484.419.66.717.175.3.263.634.263 1.005a2 2 0 0 1-.325 1.108c-.217.336-.51.588-.882.756.524.152.926.412 1.207.779.282.367.422.799.422 1.295 0 .39-.09.77-.272 1.14-.182.369-.43.663-.744.884-.315.22-.703.357-1.164.407-.289.032-.986.051-2.091.059H52.88v-8.59zm1.735 1.43v1.986h1.137c.676 0 1.096-.01 1.26-.03.297-.034.53-.137.7-.307.17-.17.255-.393.255-.67 0-.266-.073-.482-.22-.648-.146-.166-.364-.267-.653-.302-.172-.02-.666-.03-1.483-.03h-.996zm0 3.416v2.297h1.606c.625 0 1.021-.018 1.19-.053.257-.047.467-.161.629-.343.162-.181.243-.425.243-.73a1.12 1.12 0 0 0-.187-.656 1.06 1.06 0 0 0-.542-.392c-.237-.082-.75-.123-1.538-.123h-1.4zM63.105 32H61.46v-6.223h1.53v.885c.261-.418.496-.693.705-.826.21-.133.447-.2.712-.2.375 0 .737.104 1.084.311l-.51 1.436c-.277-.18-.535-.27-.773-.27a.914.914 0 0 0-.586.19c-.16.128-.286.357-.378.69-.092.331-.138 1.027-.138 2.085V32zm4.325-4.324l-1.494-.27c.168-.601.457-1.047.867-1.336.41-.289 1.02-.433 1.828-.433.734 0 1.281.087 1.64.26.36.174.613.395.76.663.146.267.219.758.219 1.473l-.018 1.922c0 .547.027.95.08 1.21.052.26.15.538.295.835H69.98a6.056 6.056 0 0 1-.159-.486 2.96 2.96 0 0 0-.058-.194 2.968 2.968 0 0 1-.903.616c-.32.136-.662.205-1.025.205-.64 0-1.146-.174-1.515-.522-.369-.348-.553-.787-.553-1.318 0-.352.084-.665.252-.94.168-.276.403-.487.706-.633.302-.147.739-.275 1.31-.384.769-.145 1.302-.28 1.599-.405v-.164c0-.316-.078-.542-.235-.676-.156-.135-.45-.203-.884-.203-.293 0-.522.058-.686.173-.164.116-.297.318-.398.607zm2.203 1.336c-.211.07-.545.154-1.002.252-.457.097-.756.193-.897.287-.214.152-.322.345-.322.58 0 .23.086.43.258.598a.9.9 0 0 0 .656.251c.297 0 .58-.097.85-.293.199-.148.33-.33.392-.544.043-.141.065-.409.065-.803v-.328zm8.9 2.988h-1.646v-3.176c0-.672-.035-1.106-.106-1.303a.914.914 0 0 0-.343-.46.98.98 0 0 0-.57-.165 1.32 1.32 0 0 0-.768.235 1.18 1.18 0 0 0-.466.621c-.084.258-.126.734-.126 1.43V32H72.86v-6.223h1.53v.914c.543-.703 1.226-1.054 2.05-1.054.364 0 .696.065.996.196.301.13.529.298.683.501.154.203.262.434.322.691.06.258.091.627.091 1.108V32zm7.377 0h-1.53v-.914a2.47 2.47 0 0 1-.899.794 2.3 2.3 0 0 1-1.045.26c-.715 0-1.328-.287-1.837-.864-.51-.576-.765-1.38-.765-2.41 0-1.055.248-1.857.744-2.406.496-.549 1.123-.823 1.881-.823.695 0 1.297.289 1.805.867V23.41h1.646V32zm-4.394-3.246c0 .664.091 1.144.275 1.441.266.43.637.645 1.113.645.38 0 .701-.161.967-.484.266-.322.399-.803.399-1.444 0-.715-.13-1.23-.387-1.544a1.224 1.224 0 0 0-.99-.472 1.24 1.24 0 0 0-.982.466c-.264.31-.395.775-.395 1.392zm9.62 1.266l1.641.275c-.21.601-.544 1.06-.999 1.374-.455.314-1.024.472-1.708.472-1.082 0-1.882-.354-2.402-1.06-.41-.567-.615-1.282-.615-2.145 0-1.032.27-1.84.808-2.423.54-.584 1.221-.876 2.045-.876.926 0 1.656.305 2.192.917.535.611.79 1.548.767 2.81H88.74c.012.488.145.867.399 1.139.254.271.57.407.949.407.258 0 .474-.07.65-.21.176-.141.309-.368.399-.68zm.094-1.665c-.011-.476-.134-.838-.369-1.086a1.133 1.133 0 0 0-.855-.373c-.36 0-.656.131-.89.393-.235.262-.35.617-.346 1.066h2.46zM99.867 32h-1.646v-3.176c0-.672-.035-1.106-.106-1.303a.914.914 0 0 0-.343-.46.98.98 0 0 0-.57-.165 1.32 1.32 0 0 0-.768.235 1.18 1.18 0 0 0-.466.621c-.084.258-.126.734-.126 1.43V32h-1.647v-6.223h1.53v.914c.543-.703 1.226-1.054 2.05-1.054.364 0 .696.065.996.196.301.13.529.298.683.501.154.203.262.434.322.691.06.258.091.627.091 1.108V32zm1.6 0v-8.59h1.646v3.094c.508-.578 1.11-.867 1.805-.867.758 0 1.385.274 1.88.823.497.549.745 1.337.745 2.364 0 1.063-.253 1.881-.759 2.455-.506.575-1.12.862-1.843.862-.355 0-.706-.09-1.051-.267a2.515 2.515 0 0 1-.894-.788V32h-1.53zm1.635-3.246c0 .644.101 1.121.304 1.43.285.437.664.656 1.137.656.363 0 .673-.155.929-.466.256-.31.383-.8.383-1.468 0-.71-.128-1.223-.386-1.538a1.224 1.224 0 0 0-.99-.472 1.24 1.24 0 0 0-.985.46c-.262.307-.392.773-.392 1.398zm9.86 3.246v-.932a2.398 2.398 0 0 1-.893.786 2.52 2.52 0 0 1-1.169.287c-.418 0-.793-.092-1.125-.276a1.626 1.626 0 0 1-.72-.773c-.149-.332-.223-.791-.223-1.377v-3.938h1.647v2.86c0 .875.03 1.41.09 1.608.06.197.171.354.331.469.16.115.364.173.61.173.281 0 .533-.077.756-.232.222-.154.375-.345.457-.574.082-.228.123-.788.123-1.679v-2.625h1.646V32h-1.53zm4.811 0h-1.646v-6.223h1.53v.885c.261-.418.496-.693.705-.826.21-.133.447-.2.712-.2.375 0 .737.104 1.084.311l-.51 1.436c-.277-.18-.535-.27-.773-.27a.914.914 0 0 0-.586.19c-.16.128-.286.357-.378.69-.092.331-.138 1.027-.138 2.085V32zm2.942.41l1.88.229c.032.218.104.369.218.45.156.118.402.177.738.177.43 0 .752-.065.967-.194a.797.797 0 0 0 .328-.416c.05-.136.076-.388.076-.756v-.908c-.492.672-1.113 1.008-1.863 1.008-.836 0-1.498-.354-1.987-1.06-.383-.56-.574-1.254-.574-2.086 0-1.043.251-1.84.753-2.391a2.43 2.43 0 0 1 1.872-.826c.77 0 1.404.338 1.904 1.013v-.873h1.541v5.584c0 .735-.06 1.284-.181 1.647s-.291.648-.51.855c-.219.207-.51.37-.876.487-.365.117-.827.175-1.386.175-1.054 0-1.802-.18-2.244-.542-.441-.36-.662-.819-.662-1.374 0-.054.002-.12.006-.199zm1.47-3.65c0 .66.128 1.143.384 1.45.256.307.572.46.947.46a1.31 1.31 0 0 0 1.02-.472c.277-.314.415-.78.415-1.397 0-.645-.133-1.123-.398-1.436a1.266 1.266 0 0 0-1.008-.469c-.395 0-.72.154-.976.46-.256.307-.383.775-.383 1.404z" fill="#00737E" fill-rule="evenodd"/></svg>