<svg width="76" height="19" xmlns="http://www.w3.org/2000/svg" xmlns:xlink="http://www.w3.org/1999/xlink"><defs><path id="a" d="M0 18.398h76V0H0z"/></defs><g fill="none" fill-rule="evenodd"><path d="M15.007 10.942c2.75 0 4.188-1.253 4.188-3.264 0-1.806-1.233-2.834-3.163-2.834-3.633 0-5.502 3.161-5.502 6.118 0 2.443 1.519 4.065 3.716 4.065.803 0 2.403-.287 3.306-.595v-1.97c-1.273.245-1.827.328-2.545.328-1.191 0-1.623-.924-1.623-1.848h1.623zM13.694 9.34c.223-1.294 1.147-2.175 1.825-2.175.39 0 .72.184.72.718 0 .698-.699 1.457-1.684 1.457h-.861zm-9.589-.759c.493-.535 1.397-1.006 1.91-1.006.657 0 .883.617.883 1.13 0 1.271-.965 4.085-2.67 4.085-.265 0-.984-.103-.984-.103l.861-4.106zm1.13-6.097V.041H.657v2.443h1.685L0 14.822h1.477c.8 0 1.682.205 2.69.205 3.53 0 5.583-3.777 5.583-6.814 0-2.322-.965-3.369-2.155-3.369-1.253 0-2.465.863-3.122 1.458l.761-3.818zM35.615 0v7.082h5.376v1.792h-9.048v9.523h1.738v-7.833h1.934v7.833h1.734v-7.833h1.907v7.833h1.735v-3.54H76V0z" fill="#E40521"/><mask id="b" fill="#fff"><use xlink:href="#a"/></mask><path fill="#E40521" mask="url(#b)" d="M20.997 18.398h1.734V10.53h-1.734zm3.655 0h1.734V10.53h-1.734zm3.655 0h1.733V10.53h-1.733zm-7.31-9.524h10.951V7.08H20.997zm8.747-4.09a1.272 1.272 0 1 1 2.543.001 1.272 1.272 0 0 1-2.543 0"/><path d="M67.017 11.425h1.055V8.874s-.045-.481.13-.99c.17-.491.555-1.05 1.336-1.098.915-.055.86.953.86.953v3.686h1.06V7.624s.09-1.516-1.328-1.576c-1.722-.07-2.058 1.016-2.058 1.016v-.956s-.37-.015-.966.018c-.568.033-.978.07-.978.07v.565l.89.105v4.559zM63.5 6.872l-.91-.123v-.562c.355-.033.532-.048.91-.062.46-.017.806-.032 1.034-.017v4.587l.953.145v.585H62.59v-.585l.91-.145V6.872zM63.27 4.6a.711.711 0 1 1 1.422-.004.711.711 0 0 1-1.423.004zm-3.418-.265s-.255-.04-.419-.061c-.183-.023-.469-.046-.469-.046v-.55s.65-.043 1.062-.051c.351-.006.895 0 .895 0v7.067l.897.145v.585h-2.854v-.585l.888-.145v-6.36zm-8.64 4.415h3.433s.34-2.816-2.088-2.761c-2.152.052-2.377 1.98-2.392 2.79-.009.662.14 1.797 1 2.375.353.238 1.07.404 1.775.372.636-.03 1.473-.34 1.473-.34v-.818s-.682.31-1.596.326c-1.79.03-1.605-1.944-1.605-1.944zm1.324-2.048c1.182.038 1.061 1.257 1.061 1.257h-2.31s.115-1.293 1.25-1.257zm4.586.444v-1.04s-.618 0-1.01.015c-.348.012-.89.05-.89.05v.57l.89.117v4.566h1.04V9.012s-.044-1.146.491-1.717c.374-.4 1.162-.241 1.162-.241V6.048s-.632-.082-1.105.207c-.448.273-.578.892-.578.892zM44.083 4.65a3.185 3.185 0 0 1-.412-.083v-.603s.485.01 1.04.018c.556.006 1.041-.037 1.72-.037 1.258 0 2.634.172 2.701 1.764.058 1.372-1.315 1.769-1.315 1.769s1.532.21 1.482 1.829c-.072 2.269-2.884 2.117-2.884 2.117h-2.744v-.585l.903-.173V4.71s-.165-.014-.49-.06zm1.59 3.313v2.608s.55.019.902.004c1.033-.044 1.648-.54 1.603-1.36-.043-.8-.609-1.166-1.473-1.241-.399-.035-1.033-.011-1.033-.011zm0-3.172v2.384s.407 0 .704-.007c.857-.021 1.634-.303 1.664-1.28.023-.693-.516-1.04-1.05-1.075-.513-.035-1.319-.022-1.319-.022z" fill="#FFF" mask="url(#b)"/></g></svg>