<svg width="155" height="42" xmlns="http://www.w3.org/2000/svg" xmlns:xlink="http://www.w3.org/1999/xlink"><defs><path id="a" d="M0 41h155V.689H0z"/></defs><g fill="none" fill-rule="evenodd"><path fill="#164194" d="M0 41.31h60.466V1H0z"/><path fill="#FFED00" d="M28.944 9.783l1.276-.932 1.276.932-.486-1.506 1.296-.93H30.71l-.489-1.525-.489 1.525h-1.597l1.296.93zm-6.602 1.774l1.276-.931 1.275.93-.485-1.505 1.295-.931h-1.597l-.49-1.525-.488 1.527-1.597-.002 1.296.93zm-3.555.88l-.49 1.527-1.595-.002 1.294.932-.485 1.506 1.276-.932 1.276.932-.486-1.506 1.295-.932h-1.596zm-1.773 9.626l1.275.93-.484-1.505 1.294-.931h-1.596l-.489-1.526-.489 1.529-1.597-.003 1.295.93-.485 1.507zm2.261 5.108l-.489-1.525-.489 1.527-1.596-.002 1.295.931-.486 1.506 1.276-.933 1.276.933-.486-1.506 1.295-.931zm4.841 4.839l-.49-1.522-.487 1.525-1.597-.002 1.295.932-.485 1.506 1.276-.931 1.275.93-.485-1.505 1.295-.932zm6.594 1.756l-.489-1.526-.488 1.527-1.597-.001 1.295.93-.485 1.507 1.276-.931 1.275.93-.485-1.505 1.296-.931zm6.595-1.756l-.488-1.522-.49 1.525-1.596-.002 1.294.932-.484 1.506 1.276-.931 1.276.93-.487-1.505 1.296-.932zm4.842-4.839l-.49-1.525-.49 1.527-1.596-.002 1.297.931-.486 1.506 1.275-.933 1.276.933-.486-1.506 1.295-.931zm3.349-6.633H43.9l-.49-1.525-.488 1.527-1.597-.002 1.296.932-.485 1.505 1.274-.933 1.276.933-.485-1.505zm-5.115-4.159l1.275-.931 1.276.931-.486-1.506 1.296-.93h-1.596l-.49-1.525-.489 1.527-1.596-.002 1.296.93zm-3.546-8.783l-.488 1.527-1.597-.003 1.294.933-.485 1.506 1.277-.933 1.275.933-.485-1.506 1.296-.933h-1.599z"/><path fill="#000" d="M64.89 9.423V3.349h4.391v.717h-3.588v1.86h3.36v.713h-3.36v2.067h3.73v.717z"/><g transform="translate(0 .31)"><path d="M74.52 3.038h.803v3.51c0 .61-.069 1.094-.207 1.454a1.78 1.78 0 0 1-.748.876c-.36.225-.834.338-1.419.338-.57 0-1.035-.098-1.397-.294a1.683 1.683 0 0 1-.775-.852c-.154-.371-.232-.879-.232-1.522v-3.51h.804v3.505c0 .528.05.917.147 1.167.098.25.267.442.506.578.24.136.531.203.876.203.591 0 1.013-.134 1.264-.402.251-.268.377-.783.377-1.546V3.038zm2.958 2.681h1.728c.367 0 .655-.038.862-.114a.917.917 0 0 0 .473-.365.989.989 0 0 0 .16-.544.904.904 0 0 0-.312-.71c-.208-.184-.538-.277-.988-.277h-1.923v2.01zm-.804 3.394V3.038h2.694c.54 0 .953.055 1.235.163.28.11.506.302.675.579.168.276.253.582.253.916 0 .43-.14.794-.42 1.089-.278.296-.71.484-1.292.564.213.102.375.203.485.303.235.214.457.484.668.807l1.056 1.654h-1.011l-.804-1.264a11.627 11.627 0 0 0-.58-.837 1.829 1.829 0 0 0-.408-.406 1.217 1.217 0 0 0-.367-.161 2.33 2.33 0 0 0-.447-.03h-.933v2.698h-.804zm6.7-2.947c0 .732.198 1.31.59 1.73.395.421.889.632 1.483.632.605 0 1.102-.213 1.492-.638.393-.425.588-1.029.588-1.811 0-.494-.085-.926-.252-1.295a1.932 1.932 0 0 0-.733-.857 1.992 1.992 0 0 0-1.084-.305c-.569 0-1.058.195-1.468.586-.41.392-.615 1.044-.615 1.958m-.83-.012c0-1.009.272-1.798.813-2.368.54-.57 1.24-.856 2.096-.856.562 0 1.067.134 1.518.402.45.268.793.642 1.029 1.121.236.48.353 1.023.353 1.63 0 .616-.123 1.168-.371 1.654a2.548 2.548 0 0 1-1.058 1.104c-.456.25-.947.375-1.474.375a2.879 2.879 0 0 1-1.534-.414 2.676 2.676 0 0 1-1.023-1.131 3.435 3.435 0 0 1-.349-1.517m7.65-.228h1.57c.52 0 .889-.097 1.107-.29.218-.193.327-.465.327-.816 0-.254-.064-.472-.192-.653a.902.902 0 0 0-.508-.358c-.135-.036-.385-.054-.75-.054h-1.554v2.17zm-.804 3.187V3.038h2.292c.403 0 .71.02.924.058.298.05.548.144.75.284a1.5 1.5 0 0 1 .487.586c.123.252.184.528.184.829 0 .517-.164.954-.493 1.312-.33.357-.923.536-1.782.536h-1.558v2.47h-.804z" fill="#000"/><mask id="b" fill="#fff"><use xlink:href="#a"/></mask><path d="M97.513 2.665h.779v-.85h-.779v.85zm-1.376 3.953h2.06l-.634-1.682a16.784 16.784 0 0 1-.431-1.26 7.702 7.702 0 0 1-.327 1.16l-.668 1.782zm-.169-3.953h.779v-.85h-.779v.85zm-1.583 6.447l2.332-6.074h.867l2.486 6.074h-.916l-.708-1.84h-2.541l-.667 1.84h-.853zm6.464 0h.804V3.038h-.804zm1.947-1.951l.758-.066c.036.303.12.552.251.748.131.194.335.351.611.471.276.12.587.181.933.181.306 0 .577-.046.812-.137.234-.09.41-.216.524-.375a.867.867 0 0 0 .172-.52.797.797 0 0 0-.165-.499c-.11-.142-.293-.262-.547-.359-.164-.063-.524-.162-1.082-.296-.558-.133-.949-.26-1.173-.379-.29-.152-.506-.34-.649-.566a1.382 1.382 0 0 1-.213-.756c0-.306.087-.593.261-.86.174-.267.43-.469.762-.607a2.9 2.9 0 0 1 1.116-.207c.45 0 .847.073 1.191.217.344.146.608.36.793.641.186.281.285.6.298.957l-.77.058c-.042-.384-.182-.674-.42-.87-.24-.196-.593-.295-1.059-.295-.487 0-.84.09-1.064.268-.222.178-.333.393-.333.645 0 .217.08.397.236.538.155.141.56.286 1.213.433.653.148 1.101.277 1.344.387.354.164.615.37.783.62.168.25.252.538.252.864 0 .324-.092.627-.276.913a1.825 1.825 0 0 1-.798.667c-.347.16-.737.24-1.17.24-.55 0-1.01-.08-1.383-.242a1.932 1.932 0 0 1-.874-.722 2.045 2.045 0 0 1-.334-1.092m10.269-.179l.804.203c-.169.66-.472 1.164-.909 1.511-.439.347-.974.52-1.607.52-.655 0-1.186-.133-1.597-.4-.41-.267-.723-.652-.937-1.158a4.156 4.156 0 0 1-.32-1.629c0-.632.12-1.185.362-1.655a2.48 2.48 0 0 1 1.032-1.074 3.018 3.018 0 0 1 1.473-.366c.607 0 1.119.154 1.533.464.415.31.703.744.866 1.305l-.791.186c-.141-.44-.346-.763-.614-.965-.268-.202-.605-.302-1.01-.302-.468 0-.858.112-1.171.336a1.762 1.762 0 0 0-.661.901 3.63 3.63 0 0 0-.191 1.166c0 .517.075.968.226 1.353.15.385.385.673.702.864.318.19.662.286 1.032.286.45 0 .832-.13 1.144-.39.312-.26.523-.644.634-1.156m1.819 2.13V3.038h.804v2.494h3.157V3.038h.804v6.074h-.804V6.25h-3.157v2.863zm6.12 0V3.038h4.392v.717h-3.588v1.86h3.361v.713h-3.36v2.067h3.73v.717zm11.988-6.074h.804v3.51c0 .61-.069 1.094-.207 1.454a1.776 1.776 0 0 1-.748.876c-.36.225-.834.338-1.419.338-.57 0-1.034-.098-1.397-.294a1.677 1.677 0 0 1-.774-.852c-.155-.371-.233-.879-.233-1.522v-3.51h.804v3.505c0 .528.05.917.148 1.167.097.25.266.442.504.578.24.136.532.203.876.203.592 0 1.013-.134 1.265-.402.251-.268.377-.783.377-1.546V3.038zm2.134 6.074V3.038h.824l3.192 4.77v-4.77h.77v6.074h-.824l-3.191-4.773v4.773zm6.274 0h.804V3.038h-.804zm2.805-2.946c0 .732.197 1.31.591 1.73.393.421.888.632 1.481.632.605 0 1.103-.213 1.493-.638.392-.425.587-1.029.587-1.811 0-.494-.084-.926-.25-1.295a1.934 1.934 0 0 0-.734-.857 1.989 1.989 0 0 0-1.083-.305c-.57 0-1.059.195-1.47.586-.409.392-.615 1.044-.615 1.958m-.829-.012c0-1.009.271-1.798.812-2.368.542-.57 1.242-.856 2.097-.856.562 0 1.067.134 1.517.402.45.268.794.642 1.03 1.121.236.48.353 1.023.353 1.63 0 .616-.124 1.168-.373 1.654a2.538 2.538 0 0 1-1.055 1.104c-.456.25-.948.375-1.476.375a2.875 2.875 0 0 1-1.533-.414 2.67 2.67 0 0 1-1.023-1.131 3.422 3.422 0 0 1-.349-1.517m6.838 2.958V3.038h.824l3.192 4.77v-4.77h.77v6.074h-.825l-3.19-4.773v4.773zM64.828 29.48v-5.523h3.993v.652h-3.263V26.3h3.056v.648h-3.056v1.88h3.391v.652zm7.666 0v-.588c-.312.452-.735.678-1.27.678a1.61 1.61 0 0 1-.66-.136 1.082 1.082 0 0 1-.457-.34 1.27 1.27 0 0 1-.209-.504 3.398 3.398 0 0 1-.04-.632V25.48h.677v2.22c0 .353.014.592.042.715a.704.704 0 0 0 .271.42.844.844 0 0 0 .512.152c.203 0 .394-.052.572-.156a.868.868 0 0 0 .38-.426c.073-.18.11-.44.11-.78V25.48h.678v4.001h-.606zm1.661 0v-4h.61v.605c.156-.284.3-.47.432-.56a.752.752 0 0 1 .435-.137c.228 0 .46.073.696.22l-.233.628a.972.972 0 0 0-.497-.147.643.643 0 0 0-.4.134.723.723 0 0 0-.252.371 2.653 2.653 0 0 0-.113.791v2.095h-.678zm3.021-2c0 .512.112.895.335 1.15.224.255.505.382.844.382.337 0 .617-.128.84-.384.224-.256.335-.646.335-1.17 0-.497-.112-.87-.336-1.125a1.076 1.076 0 0 0-.839-.383c-.339 0-.62.127-.844.381-.223.252-.335.636-.335 1.148m-.697 0c0-.74.206-1.289.618-1.646.344-.296.764-.445 1.258-.445.55 0 1 .181 1.35.541.348.361.522.86.522 1.493 0 .515-.077.92-.23 1.215a1.64 1.64 0 0 1-.675.688 1.96 1.96 0 0 1-.967.245c-.56 0-1.012-.18-1.358-.539-.345-.359-.518-.876-.518-1.552m5.158.023c0 .515.104.896.312 1.142.209.246.46.369.758.369.3 0 .559-.127.774-.382.215-.255.322-.65.322-1.186 0-.51-.105-.89-.314-1.144-.21-.254-.461-.381-.752-.381-.29 0-.544.135-.767.405-.222.27-.333.662-.333 1.177zm-.614 3.51V25.48h.617v.519c.146-.203.31-.355.494-.458.183-.102.406-.152.667-.152.34 0 .643.088.904.263.26.176.458.424.592.745.132.32.199.67.199 1.052 0 .409-.073.779-.22 1.106a1.67 1.67 0 0 1-1.524 1.015c-.226 0-.43-.047-.61-.142a1.39 1.39 0 0 1-.441-.363v1.948h-.678zm6.253-6.317h.708v-.771h-.708v.771zm-1.405 0h.708v-.771h-.708v.771zm1.996 2.777c-.246.1-.615.186-1.107.256-.279.041-.476.085-.592.136a.578.578 0 0 0-.361.542c0 .181.068.332.205.452.137.12.337.181.601.181.261 0 .493-.057.697-.171.203-.114.353-.271.448-.47.073-.152.109-.379.109-.677v-.249zm.057 1.514a2.495 2.495 0 0 1-.725.452 2.098 2.098 0 0 1-.748.132c-.439 0-.777-.107-1.013-.322a1.063 1.063 0 0 1-.354-.823 1.121 1.121 0 0 1 .483-.927c.145-.098.308-.172.488-.222.133-.035.334-.069.603-.101.548-.066.951-.144 1.209-.234l.004-.177c0-.277-.064-.471-.192-.584-.173-.153-.431-.23-.772-.23-.319 0-.554.056-.707.168-.152.111-.264.31-.337.593l-.663-.09c.061-.284.16-.514.298-.687.138-.175.337-.31.599-.404.261-.094.564-.141.908-.141.341 0 .619.04.832.121.214.08.371.18.471.302.101.123.171.276.211.462.023.116.034.325.034.625v.905c0 .63.014 1.029.043 1.196.029.167.086.327.172.48h-.708a1.422 1.422 0 0 1-.136-.494zm1.684.494h.678v-4.001h-.678v4.001zm0-4.743h.678v-.78h-.678v.78zm1.439 3.549l.67-.105c.038.268.143.474.315.617.172.143.412.215.722.215s.542-.064.692-.19a.566.566 0 0 0 .226-.447.41.41 0 0 0-.2-.36c-.092-.062-.323-.138-.692-.23-.498-.127-.842-.235-1.034-.327a.999.999 0 0 1-.437-.38 1.01 1.01 0 0 1-.15-.537c0-.179.042-.344.123-.496.082-.152.193-.278.334-.378.105-.078.249-.144.43-.198a2.05 2.05 0 0 1 .587-.08c.314 0 .589.044.827.134.237.091.412.213.525.367.113.155.19.362.233.621l-.662.09a.72.72 0 0 0-.262-.482c-.144-.116-.35-.174-.612-.174-.312 0-.534.052-.667.154-.133.104-.2.224-.2.363 0 .088.028.167.083.237a.606.606 0 0 0 .26.181c.068.024.267.083.599.173.48.128.814.233 1.004.314.189.082.339.2.446.356a.988.988 0 0 1 .162.581c0 .225-.065.438-.197.638a1.285 1.285 0 0 1-.571.463c-.25.11-.53.164-.844.164-.52 0-.916-.107-1.19-.324-.271-.216-.445-.536-.52-.96m6.739-.271l.667.087c-.073.459-.26.819-.56 1.079-.3.26-.668.39-1.105.39-.547 0-.988-.18-1.32-.537-.333-.358-.5-.871-.5-1.54 0-.431.072-.81.215-1.133a1.5 1.5 0 0 1 .654-.73c.292-.161.61-.242.954-.242.435 0 .79.11 1.067.33.276.22.453.53.53.936l-.66.102c-.061-.27-.172-.471-.332-.607a.864.864 0 0 0-.578-.203c-.342 0-.618.123-.833.367-.213.245-.32.633-.32 1.162 0 .538.103.929.309 1.172.207.243.475.365.806.365a.946.946 0 0 0 .667-.245c.178-.163.292-.414.339-.753m1.247 1.465v-5.523h.678v1.981c.317-.366.716-.55 1.198-.55.297 0 .554.06.772.176.219.116.375.278.47.483.094.206.14.505.14.897v2.536h-.678v-2.536c0-.339-.073-.585-.22-.74-.147-.155-.355-.232-.624-.232-.2 0-.39.053-.566.156a.892.892 0 0 0-.38.424c-.074.18-.112.425-.112.74v2.188h-.678zm4.802-2.384h2.235c-.03-.337-.115-.59-.256-.758a1.04 1.04 0 0 0-.84-.391c-.312 0-.575.104-.785.312-.213.209-.33.487-.353.837m2.227 1.096l.7.087c-.11.409-.316.726-.615.953-.297.225-.68.339-1.144.339-.586 0-1.05-.18-1.392-.54-.343-.361-.514-.867-.514-1.517 0-.673.172-1.195.52-1.567.346-.372.796-.558 1.348-.558.535 0 .972.183 1.31.547.34.363.51.876.51 1.536 0 .04-.002.1-.005.182h-2.984c.026.439.15.775.374 1.008.223.235.502.35.836.35.248 0 .462-.064.636-.194.177-.131.317-.34.42-.626m1.543 1.288v-4h.61v.605c.157-.284.3-.47.433-.56a.755.755 0 0 1 .434-.137c.23 0 .462.073.698.22l-.235.628a.972.972 0 0 0-.497-.147.645.645 0 0 0-.4.134.729.729 0 0 0-.252.371 2.653 2.653 0 0 0-.113.791v2.095h-.678zm4.844 0v-5.523h3.727v.652h-2.995v1.71h2.592v.651h-2.592v2.51zm5.034-2c0 .512.112.895.335 1.15.224.255.505.382.844.382.337 0 .617-.128.84-.384.224-.256.335-.646.335-1.17 0-.497-.112-.87-.336-1.125a1.075 1.075 0 0 0-.84-.383c-.338 0-.62.127-.843.381-.223.252-.335.636-.335 1.148m-.697 0c0-.74.206-1.289.618-1.646.344-.296.764-.445 1.258-.445.55 0 1 .181 1.348.541.35.361.524.86.524 1.493 0 .515-.077.92-.231 1.215-.154.296-.38.525-.674.688a1.96 1.96 0 0 1-.967.245c-.56 0-1.012-.18-1.358-.539-.345-.359-.518-.876-.518-1.552m4.543 2.001v-4h.61v.567c.294-.439.72-.659 1.273-.659.242 0 .463.044.666.13.201.087.353.2.453.341.101.142.171.308.211.501.026.126.038.346.038.66v2.46h-.678v-2.434c0-.276-.027-.483-.079-.62a.656.656 0 0 0-.28-.328.898.898 0 0 0-.474-.122c-.288 0-.538.092-.747.275-.21.183-.315.532-.315 1.043v2.186h-.678zm4.742-1.997c0 .513.108.896.324 1.15.217.252.471.38.765.38a.96.96 0 0 0 .756-.364c.207-.242.31-.612.31-1.109 0-.548-.105-.95-.316-1.205-.21-.257-.47-.385-.78-.385a.94.94 0 0 0-.755.37c-.202.245-.304.633-.304 1.163zm2.144 1.997v-.505c-.253.397-.626.595-1.119.595-.319 0-.612-.088-.879-.264a1.733 1.733 0 0 1-.622-.736 2.549 2.549 0 0 1-.22-1.087c0-.399.066-.762.2-1.087a1.57 1.57 0 0 1 .6-.748 1.6 1.6 0 0 1 .891-.26 1.332 1.332 0 0 1 1.104.55v-1.98h.673v5.522h-.628zm1.424-1.194l.67-.105c.039.268.143.474.316.617.17.143.412.215.72.215.313 0 .543-.064.694-.19a.566.566 0 0 0 .226-.447.41.41 0 0 0-.2-.36c-.092-.062-.323-.138-.693-.23-.497-.127-.841-.235-1.034-.327a1.002 1.002 0 0 1-.436-.38c-.1-.163-.15-.342-.15-.537 0-.179.04-.344.123-.496a1.09 1.09 0 0 1 .333-.378c.106-.078.249-.144.432-.198.182-.054.377-.08.585-.08.314 0 .59.044.828.134.237.091.412.213.524.367.114.155.192.362.234.621l-.663.09a.724.724 0 0 0-.261-.482c-.144-.116-.35-.174-.612-.174-.312 0-.534.052-.667.154-.133.104-.2.224-.2.363 0 .088.028.167.083.237a.609.609 0 0 0 .259.181c.069.024.268.083.6.173.479.128.814.233 1.004.314.189.082.339.2.446.356a.988.988 0 0 1 .162.581c0 .225-.065.438-.197.638a1.285 1.285 0 0 1-.571.463 2.087 2.087 0 0 1-.844.164c-.521 0-.916-.107-1.19-.324-.271-.216-.445-.536-.521-.96m6.434 1.194v-3.474h-.599v-.527h.6v-.426c0-.268.023-.469.07-.598a.87.87 0 0 1 .346-.428c.164-.109.395-.164.69-.164.192 0 .403.022.633.067l-.1.592a2.286 2.286 0 0 0-.4-.038c-.207 0-.35.044-.437.133-.086.088-.129.252-.129.493v.37h.78v.526h-.78v3.474h-.674zm3.937-4.785h.708v-.771h-.708v.771zm-1.406 0h.708v-.771h-.708v.771zm2.073 4.785v-.587c-.312.452-.735.677-1.27.677-.236 0-.457-.045-.661-.135a1.087 1.087 0 0 1-.455-.341 1.283 1.283 0 0 1-.21-.503 3.51 3.51 0 0 1-.041-.633v-2.479h.678v2.219c0 .355.014.593.041.716a.715.715 0 0 0 .271.42.84.84 0 0 0 .513.152c.203 0 .394-.051.572-.156a.864.864 0 0 0 .379-.426c.074-.179.111-.44.111-.781v-2.144h.678v4.001h-.606zm1.661 0v-4h.61v.605c.157-.284.3-.47.432-.56a.755.755 0 0 1 .435-.137c.229 0 .46.073.697.22l-.234.628a.972.972 0 0 0-.498-.147.644.644 0 0 0-.4.134.735.735 0 0 0-.251.371 2.653 2.653 0 0 0-.113.791v2.095h-.678zm-77.62 9.258v-4h.61v.605c.156-.284.3-.47.432-.56a.752.752 0 0 1 .435-.137c.228 0 .46.073.696.22l-.233.628a.972.972 0 0 0-.497-.147.65.65 0 0 0-.4.134.723.723 0 0 0-.252.371 2.653 2.653 0 0 0-.113.791v2.095h-.678zm3.089-2.385h2.234c-.03-.337-.115-.589-.256-.757a1.037 1.037 0 0 0-.84-.391c-.312 0-.574.104-.786.313-.212.207-.33.486-.352.835m2.227 1.096l.7.087c-.111.41-.315.727-.614.953-.3.227-.681.34-1.145.34-.585 0-1.05-.18-1.392-.54-.343-.361-.514-.867-.514-1.517 0-.673.173-1.195.52-1.567.346-.372.796-.558 1.348-.558.535 0 .972.183 1.31.547.34.363.51.875.51 1.536l-.004.181H67.77c.025.44.15.776.373 1.01.224.233.503.35.836.35.249 0 .46-.066.637-.196.176-.13.316-.339.419-.626m1.988-.783c0 .525.104.908.313 1.149a.992.992 0 0 0 .783.362 1 1 0 0 0 .784-.361c.211-.239.316-.615.316-1.128 0-.489-.109-.858-.325-1.107-.218-.249-.479-.373-.786-.373a.983.983 0 0 0-.769.367c-.211.245-.316.609-.316 1.091m-.561 2.403l.659.098c.028.204.104.352.23.445.168.125.398.188.689.188.314 0 .556-.063.727-.188a.926.926 0 0 0 .347-.527c.035-.139.051-.429.049-.871a1.396 1.396 0 0 1-1.108.524c-.55 0-.975-.198-1.277-.595-.301-.397-.452-.873-.452-1.428 0-.382.069-.734.207-1.057.138-.322.339-.572.601-.748.263-.176.571-.264.925-.264.472 0 .861.192 1.168.574v-.483h.625v3.458c0 .623-.063 1.065-.19 1.325a1.405 1.405 0 0 1-.603.616c-.275.15-.613.225-1.015.225-.477 0-.863-.107-1.157-.322-.293-.214-.435-.538-.425-.97m4.418-.331h.678v-4.001h-.678v4.001zm0-4.743h.678v-.779h-.678v.779zm2.155 2.742c0 .513.112.896.335 1.151.224.255.505.382.844.382.337 0 .617-.128.841-.384.223-.255.334-.646.334-1.17 0-.497-.112-.87-.336-1.125a1.076 1.076 0 0 0-.839-.383c-.339 0-.62.127-.844.381-.223.253-.335.636-.335 1.148m-.697 0c0-.74.206-1.289.618-1.646.344-.296.764-.445 1.258-.445.55 0 1 .181 1.35.541.348.361.522.86.522 1.493 0 .516-.077.92-.23 1.216-.155.295-.38.524-.675.687a1.96 1.96 0 0 1-.967.245c-.56 0-1.012-.18-1.358-.538-.345-.36-.518-.877-.518-1.553m4.543 2.001v-4h.61v.567c.294-.439.72-.659 1.274-.659.241 0 .462.044.664.13.202.087.354.201.454.342.101.141.171.307.211.501.025.125.038.345.038.66v2.46h-.678v-2.435c0-.276-.026-.483-.079-.62a.65.65 0 0 0-.28-.327.888.888 0 0 0-.473-.123 1.1 1.1 0 0 0-.748.275c-.21.183-.315.532-.315 1.043v2.186h-.678zm6.845-2.008c-.246.1-.615.186-1.107.256-.279.04-.476.085-.592.136a.586.586 0 0 0-.156.994c.137.121.337.18.601.18.261 0 .493-.056.697-.17a1.06 1.06 0 0 0 .448-.469c.073-.154.11-.38.11-.679v-.248zm.057 1.514a2.517 2.517 0 0 1-.725.452 2.098 2.098 0 0 1-.748.132c-.439 0-.777-.108-1.014-.323a1.058 1.058 0 0 1-.354-.822 1.11 1.11 0 0 1 .484-.927c.145-.098.307-.172.488-.222.133-.035.334-.07.603-.102.547-.065.951-.143 1.21-.233l.003-.178c0-.276-.064-.47-.192-.584-.173-.152-.43-.229-.772-.229-.319 0-.555.055-.707.168-.152.111-.264.31-.337.592l-.663-.09c.061-.284.16-.512.298-.687.138-.175.337-.309.598-.403.262-.094.564-.142.91-.142.34 0 .618.04.831.121.214.08.37.182.471.303.101.122.171.276.211.462.022.115.034.324.034.625v.904c0 .631.014 1.03.043 1.196.03.167.086.327.171.481h-.708a1.45 1.45 0 0 1-.135-.494zm1.665.494h.678v-5.522h-.678zm2.242-2.385h2.233c-.03-.337-.115-.589-.255-.757a1.039 1.039 0 0 0-.842-.391c-.31 0-.572.104-.784.313-.213.207-.33.486-.353.835m2.227 1.096l.7.087c-.11.41-.314.727-.614.953-.298.227-.68.34-1.145.34-.585 0-1.049-.18-1.392-.54-.343-.361-.514-.867-.514-1.517 0-.673.174-1.195.52-1.567.346-.372.796-.558 1.349-.558.535 0 .972.183 1.31.547.34.363.508.875.508 1.536 0 .04 0 .1-.004.181h-2.983c.026.44.15.776.374 1.01.224.233.501.35.835.35.25 0 .462-.066.638-.196.175-.13.316-.339.417-.626m3.797 1.289v-5.522h3.993v.651h-3.262v1.691h3.055v.648h-3.055v1.88h3.39v.652zm5.044 0v-4h.61v.567c.294-.439.72-.659 1.274-.659.241 0 .462.044.665.13.202.087.353.201.453.342.102.141.171.307.211.501.026.125.038.345.038.66v2.46h-.678v-2.435c0-.276-.026-.483-.079-.62a.653.653 0 0 0-.28-.327.894.894 0 0 0-.473-.123c-.289 0-.538.092-.748.275-.21.183-.315.532-.315 1.043v2.186h-.678zm5.772-.606l.098.599a2.53 2.53 0 0 1-.513.06c-.245 0-.437-.04-.572-.117a.654.654 0 0 1-.286-.307c-.056-.127-.083-.393-.083-.8v-2.302h-.498v-.528h.498v-.991l.674-.406v1.397h.682v.528h-.682v2.34c0 .193.012.317.036.372a.281.281 0 0 0 .117.132.443.443 0 0 0 .23.049c.076 0 .176-.008.299-.026m1.402.606l-1.226-4h.701l.637 2.31.237.857.207-.825.637-2.343h.697l.6 2.32.198.765.23-.77.686-2.315h.66l-1.25 4.001h-.706l-.637-2.396-.154-.682-.81 3.078h-.708zm4.836 0h.678v-4.001h-.678v4.001zm0-4.743h.678v-.779h-.678v.779zm4.321 3.277l.667.087c-.073.46-.26.82-.56 1.08-.3.26-.67.39-1.106.39-.546 0-.987-.18-1.32-.537-.332-.359-.5-.872-.5-1.54 0-.43.072-.81.216-1.133.143-.325.36-.568.654-.73.292-.162.61-.243.954-.243.435 0 .79.11 1.066.33.277.22.454.531.532.937l-.66.101c-.062-.269-.174-.47-.333-.606a.86.86 0 0 0-.578-.204c-.342 0-.62.123-.833.367-.213.245-.32.633-.32 1.162 0 .538.103.93.309 1.172.207.244.475.365.806.365a.95.95 0 0 0 .667-.244c.178-.164.29-.415.339-.754m1.25 1.466v-5.522h.678v3.148l1.605-1.627h.878l-1.53 1.484 1.684 2.517h-.836l-1.322-2.046-.479.46v1.586zm3.839 0h.679v-5.522h-.679zm4.351 0v-.588c-.312.452-.735.678-1.27.678-.236 0-.457-.045-.66-.136a1.082 1.082 0 0 1-.457-.34 1.299 1.299 0 0 1-.209-.504 3.467 3.467 0 0 1-.042-.632v-2.479h.68v2.22c0 .353.013.592.04.715a.712.712 0 0 0 .272.42.842.842 0 0 0 .512.152c.203 0 .395-.052.572-.156a.864.864 0 0 0 .38-.426c.074-.179.11-.44.11-.78v-2.145h.678v4.001h-.606zm1.669 0v-4h.61v.567c.293-.439.718-.659 1.273-.659.241 0 .463.044.666.13.201.087.352.201.453.342.101.141.171.307.211.501.025.125.038.345.038.66v2.46h-.679v-2.435c0-.276-.026-.483-.079-.62a.648.648 0 0 0-.28-.327.891.891 0 0 0-.473-.123c-.289 0-.538.092-.748.275-.21.183-.314.532-.314 1.043v2.186h-.678zm4.728-2.072c0 .525.104.908.312 1.149.209.241.47.362.784.362a1 1 0 0 0 .784-.361c.21-.239.316-.615.316-1.128 0-.489-.108-.858-.326-1.107-.218-.249-.478-.373-.785-.373a.981.981 0 0 0-.77.367c-.21.245-.315.609-.315 1.091m-.562 2.403l.66.098c.028.204.104.352.229.445.169.125.399.188.69.188.314 0 .556-.063.727-.188a.93.93 0 0 0 .347-.527c.035-.139.052-.429.049-.871a1.394 1.394 0 0 1-1.108.524c-.551 0-.975-.198-1.277-.595-.302-.397-.452-.873-.452-1.428 0-.382.069-.734.207-1.057a1.67 1.67 0 0 1 .6-.748 1.62 1.62 0 0 1 .925-.264c.473 0 .862.192 1.168.574v-.483h.626v3.458c0 .623-.063 1.065-.19 1.325a1.4 1.4 0 0 1-.603.616c-.275.15-.613.225-1.015.225-.477 0-.863-.107-1.157-.322-.294-.214-.435-.538-.426-.97" fill="#000" mask="url(#b)"/></g></g></svg>