<?xml version="1.0" encoding="utf-8"?>
<!-- Generator: Adobe Illustrator 19.2.0, SVG Export Plug-In . SVG Version: 6.00 Build 0)  -->
<svg version="1.1" id="Capa_1" xmlns="http://www.w3.org/2000/svg" xmlns:xlink="http://www.w3.org/1999/xlink" x="0px" y="0px"
	 viewBox="0 0 334.4 382.1" style="enable-background:new 0 0 334.4 382.1;" xml:space="preserve">
<path d="M315,382.1c-98.5,0-197,0-295.6,0c-1.2-0.5-2.5-1-3.7-1.5C5.8,377-0.7,367.2,0.1,356.8c1.2-14.4,2.6-28.7,3.9-43.1
	c2.1-23.4,4.3-46.8,6.4-70.2c2.1-23.3,4.2-46.5,6.3-69.8c2.4-26,5.3-51.9,6.9-78C24.5,82,35.3,71.1,49.4,71.6
	c11.5,0.3,23.1,0.1,34.9,0.1c3.3-20,12.1-36.8,27.1-50.3c15.2-13.5,33-20.7,53.2-21.4c17.8-0.6,34.2,4.1,49,14.1
	c20.4,13.8,32.3,33.2,36.5,57.5c12.5,0,24.7-0.2,36.9,0.1c9.8,0.2,17.2,4.9,21.2,13.9c1.6,3.5,2,7.6,2.4,11.5
	c3.6,38.5,7,77,10.6,115.5c4.4,47.7,8.8,95.3,13.1,143c1.1,11.5-5.9,22-16.9,25.6C316.5,381.4,315.7,381.8,315,382.1z M107.5,96.1
	c0,8.9-0.1,17.7,0.1,26.5c0,1.1,0.9,2.2,1.6,3.1c6.1,7.7,5.6,18.1-1.4,24.6c-6.9,6.5-17.4,6.5-24.4,0.1c-7.2-6.6-7.7-17.1-1.4-24.9
	c0.7-0.8,1.5-1.9,1.5-2.8c0.1-8.9,0.1-17.8,0.1-27c-12.1,0-23.9,0-35.8,0c-6.5,71.5-13,142.9-19.5,214.4c92.8,0,185.2,0,277.8,0
	c-6.5-71.3-13-142.3-19.5-213.5c-12.1,0-23.9,0-35.5,0c-0.1,0.5-0.3,0.7-0.3,1c0,7.7-0.2,15.4,0,23.1c0,1.8,0.8,3.8,1.9,5.2
	c5.6,7.3,5.2,17.3-1.2,23.8c-6.3,6.4-16.3,7.2-23.5,1.8c-7.3-5.5-9.8-15.9-4.6-23.2c3.1-4.3,3.5-8.4,3.4-13.1c-0.1-5.3,0-10.7,0-16
	c0-0.9-0.2-1.9-0.3-3.1C186.9,96.1,147.5,96.1,107.5,96.1z M308.3,334.6c-94.2,0-188.1,0-282.2,0c-0.8,8.2-1.5,16.2-2.2,23.9
	c95.7,0,191,0,286.6,0C309.7,350,309,342.3,308.3,334.6z M109.1,71.5c38.7,0,77.5,0,116.2,0c-3-21.1-24.5-47.9-58.7-47.5
	C131.9,24.3,111.7,51.8,109.1,71.5z M101.5,137.4c0-3.2-2.6-5.9-5.8-6c-3.2-0.1-6,2.5-6.1,5.7c-0.1,3.3,2.6,6.2,6,6.2
	C98.8,143.2,101.5,140.6,101.5,137.4z M244.8,137.3c0-3.2-2.7-5.9-5.9-5.9c-3.4,0-6.1,2.8-6,6.2c0.1,3.2,2.9,5.8,6.1,5.7
	C242.2,143.2,244.8,140.4,244.8,137.3z"/>
</svg>
