<?xml version="1.0" encoding="utf-8"?>
<!-- Generator: Adobe Illustrator 19.2.0, SVG Export Plug-In . SVG Version: 6.00 Build 0)  -->
<svg version="1.1" id="Capa_1" xmlns="http://www.w3.org/2000/svg" xmlns:xlink="http://www.w3.org/1999/xlink" x="0px" y="0px"
	 viewBox="0 0 382.1 382.1" style="enable-background:new 0 0 382.1 382.1;" xml:space="preserve">
<g>
	<g>
		<path d="M191.1,0C85.7,0,0,85.7,0,191.1s85.7,191.1,191.1,191.1s191.1-85.7,191.1-191.1S296.4,0,191.1,0z M191.1,341.5
			c-82.9,0-150.4-67.5-150.4-150.4S108.1,40.7,191.1,40.7s150.4,67.5,150.4,150.4S274,341.5,191.1,341.5z"/>
		<path d="M290.6,185.2h-85.9V81.9c0-8.7-7-15.7-15.7-15.7c-8.7,0-15.7,7-15.7,15.7v119c0,8.7,7,15.7,15.7,15.7h101.6
			c8.7,0,15.7-7,15.7-15.7C306.4,192.2,299.3,185.2,290.6,185.2z"/>
	</g>
</g>
</svg>
