<?xml version="1.0" encoding="utf-8"?>
<!-- Generator: Adobe Illustrator 19.2.0, SVG Export Plug-In . SVG Version: 6.00 Build 0)  -->
<svg version="1.1" id="Capa_1" xmlns="http://www.w3.org/2000/svg" xmlns:xlink="http://www.w3.org/1999/xlink" x="0px" y="0px"
	 viewBox="0 0 290.3 382.1" style="enable-background:new 0 0 290.3 382.1;" xml:space="preserve">
<g>
	<path d="M290.3,45.9h-76.4V30.5c0-16.9-13.7-30.5-30.5-30.5H107C90,0,76.4,13.7,76.4,30.5v15.3H0v15.3h15.7L31,351.6
		c0,16.9,13.7,30.5,30.5,30.5h168.1c16.9,0,30.5-13.7,30.5-30.5l15-290.4h15V45.9H290.3z M91.6,30.5c0-8.4,6.9-15.3,15.3-15.3h76.4
		c8.4,0,15.3,6.8,15.3,15.3v15.3h-107C91.6,45.8,91.6,30.5,91.6,30.5z M245,350.7v0.4v0.4c0,8.4-6.8,15.3-15.3,15.3H61.6
		c-8.4,0-15.3-6.9-15.3-15.3v-0.4v-0.4L31,61.1h229L245,350.7z"/>
	<rect x="137.5" y="91.7" width="15.3" height="244.5"/>
	
		<rect x="84.2" y="91.9" transform="matrix(0.998 -6.395130e-002 6.395130e-002 0.998 -13.508 6.3123)" width="15.3" height="244.5"/>
	
		<rect x="76.2" y="206.3" transform="matrix(6.247030e-002 -0.998 0.998 6.247030e-002 -27.2037 398.8685)" width="245" height="15.3"/>
</g>
</svg>
