<?xml version="1.0" encoding="utf-8"?>
<!-- Generator: Adobe Illustrator 19.2.0, SVG Export Plug-In . SVG Version: 6.00 Build 0)  -->
<svg version="1.1" id="Capa_1" xmlns="http://www.w3.org/2000/svg" xmlns:xlink="http://www.w3.org/1999/xlink" x="0px" y="0px"
	 viewBox="0 0 382.1 382.1" style="enable-background:new 0 0 382.1 382.1;" xml:space="preserve">
<path d="M364.8,111.4c-0.4,0.8-0.8,1.6-1.5,2.3L131.4,345.4c-0.9,1.6-2.2,2.9-4,3.6L12.3,381.3c-0.2,0.1-0.5,0.1-0.8,0.2l-0.3,0.2
	c-0.1,0-0.1,0-0.2,0c-0.8,0.2-1.6,0.4-2.4,0.4S7,382,6.3,381.8c-0.2,0-0.3,0-0.5-0.1c-0.1,0-0.1-0.1-0.2-0.1c-0.7-0.3-1.4-0.7-2-1.2
	c-0.3-0.2-0.7-0.4-0.9-0.7c-0.3-0.3-0.5-0.6-0.7-0.9c-0.5-0.6-0.9-1.3-1.2-2c0-0.1-0.1-0.1-0.1-0.2c-0.1-0.2,0-0.3-0.1-0.5
	c-0.3-0.8-0.4-1.6-0.4-2.4s0.2-1.6,0.4-2.4c0-0.1,0-0.1,0-0.2l0.1-0.4c0.1-0.2,0.1-0.5,0.2-0.8l32.3-115.1c0.7-1.8,2-3,3.6-4
	L265.1,22.5c0.3-0.4,0.7-0.7,1.1-1.1l2.5-2.5c0.1-0.1,0.3-0.2,0.4-0.3C281,7.2,297.2,0,315.1,0c37,0,66.8,30,66.8,66.8
	C382,84.1,375.4,99.5,364.8,111.4 M333.4,120.6l-30.1-30.1L107,286.8c0,0.1,0.1,0.1,0.1,0.2l19.7,40.1L333.4,120.6z M21,361.3
	l23.2-6.5l-16.7-16.7L21,361.3z M32.5,320.1l29.6,29.6l50.9-14.3l-21.5-44.7l-44.7-21.5L32.5,320.1z M95.3,275.2
	c0.1,0,0.1,0.1,0.2,0.1L291.8,79l-30.1-30.1L55.2,255.5L95.3,275.2z M314.8,16.6c-14.8,0-28,6.5-37.3,16.6l-0.1-0.1l-4.3,4.3
	l71.6,71.6l4.4-4.4l0,0c10.1-9.3,16.5-22.5,16.5-37.2C365.6,39.4,342.9,16.6,314.8,16.6"/>
</svg>
