<?xml version="1.0" encoding="utf-8"?>
<!-- Generator: Adobe Illustrator 19.2.0, SVG Export Plug-In . SVG Version: 6.00 Build 0)  -->
<svg version="1.1" id="Capa_1" xmlns="http://www.w3.org/2000/svg" xmlns:xlink="http://www.w3.org/1999/xlink" x="0px" y="0px"
	 viewBox="0 0 382.1 290.2" style="enable-background:new 0 0 382.1 290.2;" xml:space="preserve">
<path d="M336.7,0H45.4C20.3,0,0,19.5,0,43.6v203.1c0,24,20.3,43.6,45.4,43.6h291.3c25,0,45.4-19.5,45.4-43.6V43.6
	C382,19.5,361.7,0,336.7,0z M336.7,251.7H45.4c-3.7,0-6.9-2.4-6.9-5.1V70.4l131.8,111.3c2.7,2.3,6.1,3.5,9.7,3.5h22.3
	c3.5,0,7-1.3,9.7-3.5L343.6,70.4v176.3C343.6,249.3,340.3,251.7,336.7,251.7z M191.1,146.9L62.9,38.5h256.3L191.1,146.9z"/>
</svg>
