<?xml version="1.0" encoding="utf-8"?>
<!-- Generator: Adobe Illustrator 19.2.0, SVG Export Plug-In . SVG Version: 6.00 Build 0)  -->
<svg version="1.1" id="Capa_1" xmlns="http://www.w3.org/2000/svg" xmlns:xlink="http://www.w3.org/1999/xlink" x="0px" y="0px"
	 viewBox="0 0 382.1 368" style="enable-background:new 0 0 382.1 368;" xml:space="preserve">
<g>
	<path d="M382.1,27.5C382.1,12.1,370,0,354.7,0C265.2,0,184.5,0,108,0C91.7,0,80.7,11,80.7,27.3c0,27.6,0,55.7,0,82.9V125
		c0,1.1,0.1,2.1,0.2,3.1c0,0.4,0.1,0.8,0.1,1.2l0.4,5.2H109V28.2l0,0h42.4c66.4,0,135.1,0,202.6-0.1c-0.1,111.1-0.1,213,0,311.7l0,0
		c-81.2-0.1-163.7-0.1-245.1,0c0.1-24.3,0.1-48.9,0.1-72.8c0-7.6,0-15.2,0-22.8v-10.8H80.6v38.8c0,22.7,0,45.3,0,68
		c0,7.6,2.8,14.6,7.9,19.8c5.1,5.1,12.1,8,19.7,8c41,0,82.1,0,123.2,0s82.1,0,123.2,0c15.4,0,27.5-12.1,27.5-27.5
		C382.1,236.1,382.1,131.9,382.1,27.5z"/>
	<path d="M228.3,194.2c0.1,0.5,0.3,0.9,0.4,1.4c-0.9,0.7-1.9,1.3-2.7,2.1c-16.8,15.6-33.5,31.1-50.3,46.7
		c-5.9,5.5-11.9,10.9-17.7,16.5c-3.9,3.8-4.8,9.7-2.6,14.4c2.3,4.9,7,8.2,12.5,7.3c3.4-0.6,7.1-2.5,9.7-4.8
		c29.7-27.3,59.1-54.8,88.7-82.2c5-4.7,10.1-9.4,15.2-14.1c-0.7-0.7-1.2-1.3-1.7-1.8c-34.4-32-68.7-63.9-103.2-96
		c-1.1-1.1-2.4-2.1-3.8-2.8c-5.6-2.8-12.6-0.9-16.2,4.1c-3.7,5.2-3,12.5,2.1,17.2c14.3,13.4,28.7,26.7,43,40
		c8.9,8.3,17.8,16.6,26.8,24.9c-0.1,0.4-0.3,0.7-0.4,1.1c-2.3,0-4.6,0-6.9,0c-67.4,0-134.8,0-202.2,0c-2.9,0-5.8,0-8.6,0.5
		C4.3,169.9,0,175.4,0,181.4c0,6.1,4.8,11.6,11,12.5c2.3,0.3,4.6,0.3,6.9,0.3c68.2,0,136.6,0,204.8,0
		C224.6,194.2,226.5,194.2,228.3,194.2z"/>
</g>
</svg>
