<?xml version="1.0" encoding="utf-8"?>
<!-- Generator: Adobe Illustrator 19.2.0, SVG Export Plug-In . SVG Version: 6.00 Build 0)  -->
<svg version="1.1" id="Capa_1" xmlns="http://www.w3.org/2000/svg" xmlns:xlink="http://www.w3.org/1999/xlink" x="0px" y="0px"
	 viewBox="0 0 271.6 382.1" style="enable-background:new 0 0 271.6 382.1;" xml:space="preserve">
<g>
	<path d="M135.8,0C61.4,0,0,60.6,0,135.7c0,86.4,123.6,231,128.5,237.5l7.3,8.9l7.3-8.9c4.9-5.7,128.5-151.1,128.5-237.5
		C271.5,61.4,210.1,0,135.8,0z M135.8,351.4C109.1,318.3,19.4,202.8,19.4,134.9c0-63.8,51.7-116.3,116.3-116.3S252,71.1,252,134.9
		C252.1,203.6,162.4,318.3,135.8,351.4z"/>
	<path d="M135.8,84c-28.3,0-51.7,23.4-51.7,51.7s23.4,51.7,51.7,51.7s51.7-23.4,51.7-51.7S164,84,135.8,84z M135.8,168
		c-17.8,0-32.3-14.5-32.3-32.3s14.5-32.3,32.3-32.3s32.3,14.5,32.3,32.3S153.5,168,135.8,168z"/>
</g>
</svg>
