<?xml version="1.0" encoding="utf-8"?>
<!-- Generator: Adobe Illustrator 19.2.0, SVG Export Plug-In . SVG Version: 6.00 Build 0)  -->
<svg version="1.1" id="Capa_1" xmlns="http://www.w3.org/2000/svg" xmlns:xlink="http://www.w3.org/1999/xlink" x="0px" y="0px"
	 viewBox="0 0 382.1 238.8" style="enable-background:new 0 0 382.1 238.8;" xml:space="preserve">
<g>
	<g>
		<path d="M366.2,0H15.9C7.1,0,0,7.2,0,16v15.9c0,8.8,7.1,15.9,15.9,15.9h350.3c8.8,0,15.9-7.1,15.9-15.9V16
			C382.1,7.2,375,0,366.2,0z M366.2,95.6H15.9C7.1,95.6,0,102.7,0,111.5v15.9c0,8.8,7.1,15.9,15.9,15.9h350.3
			c8.8,0,15.9-7.1,15.9-15.9v-15.9C382.1,102.7,375,95.6,366.2,95.6z M366.2,191.1H15.9C7.1,191.1,0,198.2,0,207v15.9
			c0,8.8,7.1,15.9,15.9,15.9h350.3c8.8,0,15.9-7.1,15.9-15.9V207C382.1,198.2,375,191.1,366.2,191.1z"/>
	</g>
</g>
</svg>
