<?xml version="1.0" encoding="utf-8"?>
<!-- Generator: Adobe Illustrator 19.2.0, SVG Export Plug-In . SVG Version: 6.00 Build 0)  -->
<svg version="1.1" id="Capa_1" xmlns="http://www.w3.org/2000/svg" xmlns:xlink="http://www.w3.org/1999/xlink" x="0px" y="0px"
	 viewBox="0 0 280.9 382.1" style="enable-background:new 0 0 280.9 382.1;" xml:space="preserve">
<path d="M276.6,319.8c-13.7-23.4-26.2-44.5-38.3-64.7c-8.4-14-25.6-18.5-40-10.3c-2,1.1-3.9,2.3-5.7,3.5c-3.2,2.1-6.3,4-9.6,5.4
	c-2.9,1.2-6.2,1.8-7.7,1.2c-6.5-2.1-11.9-4.9-16.2-8.2c-21.7-16.6-38-39.7-50-70.7c-4.9-12.5-7.1-23.7-6.8-34.3
	c0.2-8.3,2.8-13,8.9-15.7c4-1.7,7.4-4,10.9-6.3c0.7-0.4,1.4-0.9,2.1-1.3c14.2-9.1,18.1-25.5,9.6-40C121.7,58.3,109.1,37,96.1,15.2
	C87.3,0.3,70-4.3,55.1,4.3c-6.9,4-13.8,8.2-20.5,12.2l-4.9,3c-8.2,4.9-14.7,12-19.7,21.1C4.9,50,1.9,60.7,0.7,74.1
	c-2,21.2,0.4,43.3,7.4,69.9c13.6,51.1,37.5,98.7,73,145.6c23.9,31.6,48.4,55.2,75.1,72.5c14,9.1,33.1,19.5,56.3,20
	c0.6,0,1.2,0,1.8,0c9.2,0,18-2.4,26.2-7.1c8-4.7,17.1-10,25.9-15.2C280.7,350.9,285.1,334.2,276.6,319.8z M77.8,134.5
	c-2.6,20.4,3.4,39,8.8,52.8c12.3,31.4,29.2,55.7,51.4,74.3c6.8,5.6,14.8,10.5,24.8,15.2c12.3,5.7,24.6,4.8,35.4-2.8
	c3.2-2.2,6.7-4.1,10.3-6.2l2-1.2c3.5-2,4.8-1.1,6.2,1.3c12.7,21.2,25.5,42.9,38.3,64.6c1.2,2,1.3,3.6-1.5,5.4c-1.6,1-3.2,2-4.9,3
	c-7.1,4.4-14.4,8.9-21.9,12.6c-3,1.5-6.5,2.3-10.3,3.1c-1.5,0.3-3,0.7-4.6,1.1c-11.8-1.3-23-5.4-36.3-13.3
	c-22.8-13.5-43.6-32.1-65.3-58.7c-38.2-46.9-63.8-95.6-78.2-149c-5.1-19-7.4-36.1-7.1-52.2c0.2-12.3,2.2-22,6.1-30.5
	c3-6.3,7.1-11,12.7-14.3c4-2.3,8.1-4.8,12-7.1c3.8-2.3,7.8-4.6,11.7-6.9c1.4-0.8,2.4-1.2,3.3-1.2c1.3,0,2.2,0.9,3.5,3
	c12.2,20.5,24.8,41.7,37.3,62.9c2,3.4,2,4.6-2,7.1l-1.3,0.8c-4,2.5-8.2,5-12.4,7.3C85.4,111.6,79.4,121,77.8,134.5z"/>
</svg>
