<?xml version="1.0" encoding="UTF-8"?>
<svg width="281px" height="383px" viewBox="0 0 281 383" version="1.1" xmlns="http://www.w3.org/2000/svg" xmlns:xlink="http://www.w3.org/1999/xlink">
    <!-- Generator: Sketch 43.1 (39012) - http://www.bohemiancoding.com/sketch -->
    <title>Shape</title>
    <desc>Created with Sketch.</desc>
    <defs></defs>
    <g id="Page-1" stroke="none" stroke-width="1" fill="none" fill-rule="evenodd">
        <g id="phone" transform="translate(0.000000, -1.000000)" fill-rule="nonzero" fill="#FFFFFF">
            <path d="M276.6,320.8 C262.9,297.4 250.4,276.3 238.3,256.1 C229.9,242.1 212.7,237.6 198.3,245.8 C196.3,246.9 194.4,248.1 192.6,249.3 C189.4,251.4 186.3,253.3 183,254.7 C180.1,255.9 176.8,256.5 175.3,255.9 C168.8,253.8 163.4,251 159.1,247.7 C137.4,231.1 121.1,208 109.1,177 C104.2,164.5 102,153.3 102.3,142.7 C102.5,134.4 105.1,129.7 111.2,127 C115.2,125.3 118.6,123 122.1,120.7 C122.8,120.3 123.5,119.8 124.2,119.4 C138.4,110.3 142.3,93.9 133.8,79.4 C121.7,59.3 109.1,38 96.1,16.2 C87.3,1.3 70,-3.3 55.1,5.3 C48.2,9.3 41.3,13.5 34.6,17.5 L29.7,20.5 C21.5,25.4 15,32.5 10,41.6 C4.9,51 1.9,61.7 0.7,75.1 C-1.3,96.3 1.1,118.4 8.1,145 C21.7,196.1 45.6,243.7 81.1,290.6 C105,322.2 129.5,345.8 156.2,363.1 C170.2,372.2 189.3,382.6 212.5,383.1 L214.3,383.1 C223.5,383.1 232.3,380.7 240.5,376 C248.5,371.3 257.6,366 266.4,360.8 C280.7,351.9 285.1,335.2 276.6,320.8 Z M77.8,135.5 C75.2,155.9 81.2,174.5 86.6,188.3 C98.9,219.7 115.8,244 138,262.6 C144.8,268.2 152.8,273.1 162.8,277.8 C175.1,283.5 187.4,282.6 198.2,275 C201.4,272.8 204.9,270.9 208.5,268.8 L210.5,267.6 C214,265.6 215.3,266.5 216.7,268.9 C229.4,290.1 242.2,311.8 255,333.5 C256.2,335.5 256.3,337.1 253.5,338.9 C251.9,339.9 250.3,340.9 248.6,341.9 C241.5,346.3 234.2,350.8 226.7,354.5 C223.7,356 220.2,356.8 216.4,357.6 C214.9,357.9 213.4,358.3 211.8,358.7 C200,357.4 188.8,353.3 175.5,345.4 C152.7,331.9 131.9,313.3 110.2,286.7 C72,239.8 46.4,191.1 32,137.7 C26.9,118.7 24.6,101.6 24.9,85.5 C25.1,73.2 27.1,63.5 31,55 C34,48.7 38.1,44 43.7,40.7 C47.7,38.4 51.8,35.9 55.7,33.6 C59.5,31.3 63.5,29 67.4,26.7 C68.8,25.9 69.8,25.5 70.7,25.5 C72,25.5 72.9,26.4 74.2,28.5 C86.4,49 99,70.2 111.5,91.4 C113.5,94.8 113.5,96 109.5,98.5 L108.2,99.3 C104.2,101.8 100,104.3 95.8,106.6 C85.4,112.6 79.4,122 77.8,135.5 Z" id="Shape"></path>
        </g>
    </g>
</svg>