<?xml version="1.0" encoding="utf-8"?>
<!-- Generator: Adobe Illustrator 19.2.0, SVG Export Plug-In . SVG Version: 6.00 Build 0)  -->
<svg version="1.1" id="Capa_1" xmlns="http://www.w3.org/2000/svg" xmlns:xlink="http://www.w3.org/1999/xlink" x="0px" y="0px"
	 viewBox="0 0 309.2 382.1" style="enable-background:new 0 0 309.2 382.1;" xml:space="preserve" fill="#aeaeae">
<path d="M154.5,0C69.3,0,0,69.3,0,154.5c0,9.9,0.9,19.6,2.7,28.9c0.2,1,0.5,2.9,1.1,5.2c2.3,10.4,5.8,20.7,10.3,30.4
	c16.2,38.2,51.9,96.8,129.6,159.2c3.1,2.5,6.9,3.9,10.9,3.9c3.9,0,7.8-1.4,10.9-3.9c77.7-62.4,113.4-121,129.6-159.2
	c4.6-9.8,8-20,10.3-30.4c0.5-2.4,0.9-4.3,1.1-5.3c1.8-9.7,2.7-19.5,2.7-28.9C309.1,69.3,239.7,0,154.5,0z M37.6,180.6
	c-0.3-1.1-0.5-1.9-0.5-2.4c0-0.1,0-0.1,0-0.2V178l-0.2-0.8c-1.5-7.5-2.2-15.1-2.2-22.8c0-66.1,53.7-119.8,119.8-119.8
	s119.8,53.7,119.8,119.8c0,7.7-0.8,15.4-2.2,22.8L272,178v0.1c-0.1,0.5-0.3,1.5-0.6,2.9l-0.2,0.7v0.2c-1.8,7.6-4.3,15.1-7.6,22.2
	l-0.1,0.1l-0.5,1.2c-13.7,32.4-43.5,82.1-108.5,136.9C89.5,287.5,59.7,237.8,46,205.3l-0.5-1.2l-0.1-0.1c-3.2-7-5.7-14.4-7.6-22.2
	v-0.2L37.6,180.6z"/>
<path d="M154.6,241.5c47.1,0,85.4-38.3,85.4-85.4s-38.3-85.4-85.4-85.4s-85.4,38.3-85.4,85.4S107.5,241.5,154.6,241.5z M98.7,156.2
	c0-30.8,25.1-55.9,55.9-55.9s55.9,25.1,55.9,55.9s-25.1,55.9-55.9,55.9S98.7,187,98.7,156.2z"/>
</svg>
