<?xml version="1.0" encoding="utf-8"?>
<!-- Generator: Adobe Illustrator 19.2.0, SVG Export Plug-In . SVG Version: 6.00 Build 0)  -->
<svg version="1.1" id="Capa_1" xmlns="http://www.w3.org/2000/svg" xmlns:xlink="http://www.w3.org/1999/xlink" x="0px" y="0px"
	 viewBox="0 0 382.1 382.1" style="enable-background:new 0 0 382.1 382.1;" xml:space="preserve" fill="#dddddd">
<path d="M191.1,0C85.5,0,0,85.5,0,191.1c0,105.5,85.5,191.1,191.1,191.1c105.5,0,191.1-85.5,191.1-191.1C382,85.5,296.5,0,191.1,0z
	 M214.5,293.4c-2.5,13.3-10.1,19.9-22.7,19.9c-13.6-2.9-20.4-9.9-20.4-20.9c0-12.2,6.6-19.6,19.8-22.2h3.1c9.6,0,16.3,5.9,20.2,17.6
	L214.5,293.4L214.5,293.4z M237.2,204.3c-17.6,9.7-26.4,23.7-26.4,42.1c-1.6,11.2-7.5,16.8-17.6,16.8c-10.8-2.4-16.2-7.5-16.2-15.3
	V243c0-27.5,14.2-50.1,42.6-67.6c9-8.9,13.6-19.6,13.6-32c0-15.6-8.3-28-24.8-37.4c-7.4-2.3-13.3-3.4-17.8-3.4
	c-16.2,0-28.9,8.6-38,25.8l-4.4,21.5c-4.9,6.3-10.1,9.5-15.5,9.5c-11.2-2.4-16.8-7.9-16.8-16.7c0-23.8,11.7-44.6,35.1-62.2
	c14.3-7.9,28.1-11.9,41.5-11.9c21,0,40,9.2,57,27.6c11.9,15,17.8,31.3,17.8,49C267.1,167.4,257.1,187.1,237.2,204.3z"/>
</svg>
