<?xml version="1.0" encoding="utf-8"?>
<!-- Generator: Adobe Illustrator 19.2.0, SVG Export Plug-In . SVG Version: 6.00 Build 0)  -->
<svg version="1.1" id="Capa_1" xmlns="http://www.w3.org/2000/svg" xmlns:xlink="http://www.w3.org/1999/xlink" x="0px" y="0px"
	 viewBox="0 0 378.8 382.1" style="enable-background:new 0 0 378.8 382.1;" xml:space="preserve">
<path d="M230.2,260.4C160.6,310.8,71.5,289,28.3,230C-15.1,170.8-7.9,89.6,45.5,39.2C98.1-10.5,180-13.1,235.7,32.5
	c57.4,47.1,73.1,135.3,21.9,201.5c1.1,1.2,2.2,2.5,3.4,3.7c36.8,36.8,73.5,73.5,110.3,110.3c1.5,1.5,3.1,3.1,4.6,4.7
	c3.8,4.4,4,10.1,0.1,14.3c-3.8,4.2-7.8,8.3-12.1,12.1c-4.9,4.5-10.7,4-15.9-1.2c-13.1-13-26-26-39.1-39
	c-25.1-25.1-50.2-50.2-75.3-75.3C232.6,262.6,231.5,261.6,230.2,260.4z M29.5,144.1c0.2,63.6,51.8,115.3,114.6,115
	c63.9-0.3,115.2-51.9,115-115.6c-0.2-63.2-52.2-114.2-116-114C80.8,29.6,29.3,81.6,29.5,144.1z"/>
</svg>
