<svg width="208" height="50" xmlns="http://www.w3.org/2000/svg" xmlns:xlink="http://www.w3.org/1999/xlink"><defs><path id="a" d="M0 .114h52.165v40.728H0z"/><path id="c" d="M0 50h206.546V0H0z"/></defs><g fill="none" fill-rule="evenodd"><mask id="b" fill="#fff"><use xlink:href="#a"/></mask><path d="M40.784 29.739c7.475 0 11.381-3.405 11.381-8.87 0-4.912-3.347-7.7-8.592-7.7-9.875 0-14.953 8.59-14.953 16.626 0 6.64 4.128 11.047 10.098 11.047 2.177 0 6.529-.78 8.983-1.619V33.87c-3.458.668-4.965.89-6.917.89-3.237 0-4.408-2.51-4.408-5.02h4.408zm-3.57-4.353c.612-3.513 3.123-5.913 4.963-5.913 1.062 0 1.955.503 1.955 1.955 0 1.896-1.897 3.958-4.576 3.958h-2.343zm-26.057-2.062c1.34-1.451 3.795-2.735 5.19-2.735 1.785 0 2.4 1.674 2.4 3.067 0 3.46-2.624 11.104-7.254 11.104-.725 0-2.678-.279-2.678-.279l2.342-11.157zm3.07-16.572V.114H1.785v6.638H6.36L0 40.282h4.016c2.178 0 4.574.56 7.31.56 9.596 0 15.175-10.265 15.175-18.522 0-6.306-2.622-9.152-5.858-9.152-3.404 0-6.695 2.343-8.482 3.962l2.066-10.378z" fill="#E20026" mask="url(#b)"/><path fill="#E20026" d="M86.816 50h4.72V28.711h5.257V50h4.711V28.711h5.181V50h4.72v-9.62h95.14V0H96.794v19.247h14.611v4.871H86.816z"/><mask id="d" fill="#fff"><use xlink:href="#c"/></mask><path fill="#E20026" mask="url(#d)" d="M57.064 50h4.712V28.617h-4.712zM67 50h4.71V28.617H67zm9.931 0h4.711V28.617h-4.71zM57.064 24.119h29.761v-4.872h-29.76zm23.772-11.117a3.457 3.457 0 1 1 6.912 0 3.457 3.457 0 0 1-6.912 0"/><path d="M182.134 31.05H185v-6.93s-.12-1.31.353-2.693c.461-1.336 1.509-2.855 3.632-2.984 2.486-.151 2.337 2.592 2.337 2.592V31.05h2.887V20.72s.233-4.125-3.613-4.283c-4.685-.191-5.596 2.762-5.596 2.762v-2.604s-1.005-.038-2.626.053a83.29 83.29 0 0 0-2.654.193v1.531l2.415.286V31.05zm-9.559-12.371l-2.475-.334v-1.532a39.972 39.972 0 0 1 2.475-.168c1.247-.049 2.189-.087 2.808-.049v12.469l2.591.396v1.59H170.1v-1.59l2.475-.396V18.679zm-.629-6.176c0-1.07.865-1.937 1.933-1.937a1.934 1.934 0 0 1 0 3.87 1.932 1.932 0 0 1-1.933-1.933zm-9.287-.718s-.693-.11-1.138-.165a36.317 36.317 0 0 0-1.276-.13V9.998s1.764-.115 2.887-.14c.95-.016 2.434 0 2.434 0v19.207l2.434.396v1.59h-7.755v-1.59l2.414-.396v-17.28zm-23.478 12h9.325s.925-7.657-5.674-7.502c-5.85.136-6.458 5.379-6.497 7.581-.032 1.793.376 4.882 2.713 6.45.962.647 2.909 1.099 4.825 1.012 1.726-.08 4.005-.925 4.005-.925v-2.217s-1.856.84-4.338.881c-4.868.081-4.359-5.28-4.359-5.28zm3.595-5.57c3.21.104 2.884 3.419 2.884 3.419h-6.282s.313-3.515 3.398-3.418zm12.464 1.208v-2.827s-1.678 0-2.749.041c-.942.033-2.416.136-2.416.136v1.55l2.416.315v12.413h2.828v-6.56s-.12-3.114 1.337-4.664c1.016-1.09 3.157-.657 3.157-.657v-2.732s-1.718-.223-3.004.561c-1.215.744-1.569 2.424-1.569 2.424zm-35.434-6.785a8.344 8.344 0 0 1-1.12-.225v-1.639s1.315.029 2.827.047c1.513.022 2.827-.097 4.672-.097 3.418 0 7.16.471 7.343 4.793.157 3.73-3.572 4.812-3.572 4.812s4.162.567 4.022 4.966c-.191 6.17-7.83 5.756-7.83 5.756h-7.463v-1.59l2.456-.473V12.804s-.452-.038-1.335-.166zm4.317 9.006v7.088s1.498.052 2.456.01c2.806-.117 4.476-1.466 4.357-3.694-.118-2.176-1.659-3.17-4.003-3.375-1.086-.095-2.81-.03-2.81-.03zm0-8.621V19.5s1.11 0 1.914-.018c2.333-.058 4.444-.824 4.527-3.475.058-1.886-1.405-2.828-2.857-2.925-1.395-.095-3.584-.06-3.584-.06z" fill="#FFF" mask="url(#d)"/></g></svg>