<svg viewBox="0 0 209 176" xmlns="http://www.w3.org/2000/svg" xmlns:xlink="http://www.w3.org/1999/xlink"><defs><path id="a" d="M0 176h209V0H0z"/></defs><g fill="none" fill-rule="evenodd"><path d="M151.5 79.329c11.117 0 20.16 9.028 20.16 20.125 0 11.101-9.043 20.13-20.16 20.13s-20.164-9.029-20.164-20.13c0-11.097 9.047-20.125 20.164-20.125zm9.19 61.83l-8.211-9.375-9.15 9.904v-17.054a26.16 26.16 0 0 0 17.362-.432v16.957zM151.5 73C136.889 73 125 84.868 125 99.454c0 8.938 4.464 17.114 11.989 22.043v36.378l15.361-16.625L167.027 158v-37.11A26.428 26.428 0 0 0 178 99.453C178 84.868 166.111 73 151.5 73z" fill="#FFF"/><mask id="b" fill="#fff"><use xlink:href="#a"/></mask><path d="M6.368 169.64h196.261V6.366H6.368V169.64zM0 176h209V0H0v176z" fill="#FFF" mask="url(#b)"/><path fill="#FFF" mask="url(#b)" d="M27 36h154v-6H27zm0 21h154v-6H27zm0 38h75v-6H27zm0 25h75v-6H27zm0 24h75v-6H27z"/></g></svg>