<svg viewBox="0 0 176 176" xmlns="http://www.w3.org/2000/svg" xmlns:xlink="http://www.w3.org/1999/xlink"><defs><path id="a" d="M0 175.006h176V0H0z"/></defs><g fill="none" fill-rule="evenodd"><path d="M62.573 106.273c-2.502 4.223-19.778 34.317-26.28 45.651-6.48-11.28-23.805-41.422-26.264-45.63l-.017-.03c-2.834-4.718-4.367-10.108-4.43-15.486.362-15.928 13.76-28.65 30.121-28.65a28 28 0 0 1 .648.008c.22-.005.436-.008.648-.008 16.246 0 29.645 12.722 30.007 28.56a30.788 30.788 0 0 1-4.433 15.585M36.35 56.687C16.735 56.25.433 71.517 0 90.747a36.379 36.379 0 0 0 5.182 18.259c3.046 5.212 28.422 49.378 28.679 49.825l2.437 4.242 2.432-4.245c.257-.446 25.669-44.754 28.667-49.809a36.204 36.204 0 0 0 5.19-18.364c-.432-19.135-16.706-34.398-36.236-33.968" fill="#FFF"/><path d="M35.3 106.814c-7.712-.46-13.784-6.835-13.85-14.484.163-7.345 6.188-13.21 13.611-13.21.1 0 .197.002.297.005 7.5-.213 13.606 5.744 13.791 13.16-.091 7.716-6.155 14.07-13.85 14.53m.059-33.229c-10.413-.221-19.216 8.129-19.448 18.705.091 10.71 8.548 19.525 19.248 20.065l.141.006.139-.006c10.7-.54 19.157-9.355 19.251-20.065v-.086c-.232-10.488-8.86-18.802-19.331-18.619m132.249-37.711c-1.647 2.881-12.546 22.545-17.461 31.416-4.902-8.838-15.82-28.513-17.443-31.396l-.016-.028c-1.886-3.258-2.907-6.975-2.953-10.6.463-10.786 8.859-19.275 19.53-19.742.305-.014.607-.022.909-.022 5.122 0 9.988 1.912 13.784 5.434 4.025 3.729 6.369 8.816 6.603 14.188a21.769 21.769 0 0 1-2.953 10.75M176 25.028c-.297-6.98-3.269-13.428-8.363-18.15C162.542 2.157 155.88-.287 149.03.027c-13.515.591-24.146 11.342-24.736 25.153a27.53 27.53 0 0 0 3.685 13.453c2.144 3.802 19.796 35.634 19.796 35.636l2.376 4.285 2.373-4.287c.174-.322 17.72-32.01 19.783-35.618 2.379-4.08 3.652-8.742 3.693-13.62" fill="#FFF"/><path d="M156.223 32.391a8.868 8.868 0 0 1-6.203 2.878c-4.852.233-9.086-3.63-9.292-8.554a8.286 8.286 0 0 1 0-.738c.209-4.794 4.171-8.55 8.92-8.55a8.88 8.88 0 0 1 8.922 8.548 8.86 8.86 0 0 1-2.347 6.416m-5.95-20.442c-7.956-.38-14.685 5.843-15.031 13.794-.014.401-.014.8 0 1.203.327 7.743 6.726 13.822 14.402 13.822a14.315 14.315 0 0 0 10.618-4.66 14.343 14.343 0 0 0 3.793-10.367v-.003c-.326-7.534-6.249-13.463-13.782-13.79M95.687 81.537c-4.08 1.27-7.593 3.646-10.173 6.874l4.453 3.07c1.896-2.374 4.484-4.124 7.48-5.059l-1.76-4.885z" fill="#FFF"/><mask id="b" fill="#fff"><use xlink:href="#a"/></mask><path fill="#FFF" mask="url(#b)" d="M92.475 175.006h10.937v-4.972H92.475zm-8.244-74.576l-2.694.14a22.576 22.576 0 0 0 3.424 11.792l4.53-2.98c-1.652-2.643-2.54-5.705-2.568-8.953h-2.692zm-12.638 74.576h10.938v-4.972H71.593zm24.204-58.667l-2.328 4.94c2.593 1.194 5.369 1.873 8.384 2.02h3.548v-5.452l-3.41.002a16.733 16.733 0 0 1-6.194-1.51m64.293 9.534a21.898 21.898 0 0 1 6.706 6.376l4.232-3.03a27.102 27.102 0 0 0-8.315-7.908l-2.623 4.562zM49.718 175.006h10.937v-4.972H49.718zm106.395-7.625l2.527 4.642c3.177-1.888 6.088-4.537 8.41-7.67l-4.04-3.268c-1.917 2.574-4.3 4.753-6.897 6.296m-16.904-49.047v4.873l8.22-.005c.858.027 1.469.032 2.184.097l.534-4.848c-.9-.08-1.794-.132-2.725-.122l-8.213.005zm30.416 22.807c.222 1.133.348 2.293.375 3.38 0 2.033-.321 4.102-.96 6.148l5.775 1.467a25.69 25.69 0 0 0 1.185-7.674 25.776 25.776 0 0 0-.462-4.259l-5.913.938zm-64.224-54.633h10.938v-4.971h-10.938zm41.187 83.562h-9.368v4.936h9.368c.525 0 1.048-.018 1.57-.047l-.336-4.925a20.38 20.38 0 0 1-1.234.037m-31.243 4.935h10.937v-4.972h-10.937zm.994-51.706h10.938v-4.972h-10.938zm11.932-36.792h10.938v-4.971h-10.938z"/></g></svg>