<svg width="208" height="121" xmlns="http://www.w3.org/2000/svg" xmlns:xlink="http://www.w3.org/1999/xlink"><defs><path id="a" d="M.957.433h5.942V9H.957z"/><path id="c" d="M0 120.671h208V0H0z"/></defs><g fill="none" fill-rule="evenodd"><path d="M15.07 109.268V86.68c0-.47-.386-.866-.845-.866h-2.014c-.459 0-.88.396-.88.866v8.91H3.739v-8.91c0-.47-.389-.866-.843-.866H.848c-.46 0-.848.396-.848.866v22.588c0 .469.389.866.848.866h2.048c.454 0 .843-.397.843-.866V98.914h7.592v10.354c0 .469.421.866.88.866h2.014c.46 0 .845-.397.845-.866m19.574-7.794c0-6.386-2.594-9.02-6.525-9.02-4.06 0-6.635 3.538-6.635 8.876 0 5.991 2.756 9.023 7.482 9.023 2.156 0 3.437-.326 4.72-.904.424-.18.673-.54.494-1.01l-.494-1.445c-.145-.395-.43-.722-.96-.54-1.03.323-2.03.648-3.372.648-3.035 0-3.952-1.732-4.092-4.762h8.563c.465 0 .82-.397.82-.866m-3.7-1.77h-5.683c.281-3.137 1.517-4.292 2.928-4.292 2.013 0 2.685 2.13 2.755 4.291m21.489 9.603l-.208-1.083c-.21-1.049-.181-2.022-.181-2.889v-6.06c0-2.995-.348-6.822-6.23-6.822-1.506 0-3.376.4-4.442.723-.5.145-.637.47-.534.976l.357 1.587c.105.467.497.683 1.03.541.924-.286 2.083-.615 3.415-.615 2.212 0 2.7.831 2.776 2.706.066.073.028.688.028.797l-3.507.252c-3.315.252-5.52 1.984-5.52 5.591 0 3.318 1.637 5.341 4.609 5.341 2 0 3.754-.757 4.773-2.38l.212 1.335c.072.54.388.828.882.828h1.838c.494 0 .812-.323.702-.828zm-3.99-5.017c0 1.298-1.363 3.03-3.365 3.03-1.052 0-1.964-.723-1.964-2.309 0-2.416 1.335-3.102 3.333-3.175l1.997-.07v2.524zm17.221 4.749l-.278-1.603c-.11-.507-.389-.688-.886-.58-.352.073-.81.18-1.129.18-.704 0-.812-.468-.812-1.403V85.38a.834.834 0 0 0-.849-.828h-1.904a.837.837 0 0 0-.848.828v21.22c0 2.366 1.022 3.748 3.601 3.748 1.021 0 1.87-.147 2.577-.434.423-.15.6-.439.528-.876M78.189 109l-.278-1.493c-.111-.473-.39-.69-.85-.578a5.998 5.998 0 0 1-1.06.105c-.772 0-1.197-.433-1.197-1.397v-10.05h2.08c.459 0 .81-.4.81-.873v-1.2c0-.477-.351-.841-.81-.841h-2.08V88.09c0-.721-.424-.868-1.024-.721l-1.908.502c-.494.15-.667.58-.667 1.12v3.68h-1.873c-.456 0-.81.365-.81.841v1.201c0 .472.354.874.81.874h1.873v10.803c0 2.54 1.16 3.956 3.81 3.956.987 0 1.936-.144 2.61-.365.459-.144.639-.543.564-.983m17.679.308V96.964c0-2.706-1.696-4.512-4.34-4.512-1.803 0-3.353.796-4.59 2.204v-9.273a.84.84 0 0 0-.845-.834h-1.908a.84.84 0 0 0-.847.834v23.923c0 .465.39.828.847.828h1.908a.84.84 0 0 0 .846-.828v-9.674c0-2.345 1.48-4.043 3.426-4.043 1.336 0 1.902.725 1.902 2.134v11.583a.81.81 0 0 0 .814.828h1.939a.84.84 0 0 0 .848-.828m20.283-1.048l-.775-1.732c-.146-.36-.568-.505-.993-.325-.704.325-1.904.686-2.753.686-3.419 0-5.75-2.562-5.75-8.984 0-6.388 2.186-8.949 5.75-8.949.994 0 1.841.252 2.613.611.458.217.812.075 1.026-.325l.742-1.476c.246-.469.066-.94-.354-1.19-1.304-.796-2.928-.977-4.308-.977-5.717 0-9.424 4.8-9.424 12.27 0 8.046 3.499 12.487 9.285 12.487 1.942 0 3.388-.402 4.624-1.05.317-.145.529-.577.317-1.046m17.147 1.048l-.212-1.083c-.212-1.049-.179-2.022-.179-2.889v-6.06c0-2.995-.35-6.822-6.228-6.822-1.51 0-3.38.4-4.447.723-.493.145-.638.47-.528.976l.354 1.587c.105.467.496.683 1.033.541.922-.286 2.079-.615 3.413-.615 2.21 0 2.701.831 2.77 2.706.07.073.036.688.036.797l-3.508.252c-3.32.252-5.524 1.984-5.524 5.591 0 3.318 1.637 5.341 4.611 5.341 2 0 3.754-.757 4.773-2.38l.21 1.335c.072.54.39.828.883.828h1.838c.494 0 .812-.323.706-.828zm-3.988-5.017c0 1.298-1.37 3.03-3.368 3.03-1.052 0-1.962-.723-1.962-2.309 0-2.416 1.33-3.102 3.331-3.175l1.999-.07v2.524zm23.711-2.742c0-3.644-.599-5.666-1.693-7.18-.987-1.373-2.543-1.914-4.059-1.914-1.764 0-3.177 1.012-3.953 2.526l-.35-1.479c-.143-.54-.498-.828-1.025-.828h-1.234a.837.837 0 0 0-.849.828v22.948c0 .471.39.83.85.83h1.903a.836.836 0 0 0 .847-.83v-8.19c.883 1.336 2.12 2.093 3.951 2.093 1.52 0 2.756-.65 3.566-1.516 1.483-1.55 2.046-4.147 2.046-7.288m-3.844-.142c0 4.11-.847 5.808-2.928 5.808-2.05 0-2.895-1.984-2.895-5.954 0-3.79 1.126-5.595 2.895-5.595.913 0 1.657.362 2.116 1.194.458.827.812 2.235.812 4.547m14.428-14.472c0-1.334-1.06-2.452-2.37-2.452-1.302 0-2.397 1.118-2.397 2.452 0 1.335 1.095 2.416 2.398 2.416 1.31 0 2.369-1.08 2.369-2.416m-.494 22.373V93.513c0-.476-.318-.84-.812-.84h-4.483a.842.842 0 0 0-.847.84v1.205c0 .47.388.87.847.87h1.696v13.718c0 .467.384.828.847.828h1.94a.807.807 0 0 0 .812-.828m14.707-.306l-.282-1.493c-.107-.473-.385-.69-.847-.578a5.973 5.973 0 0 1-1.061.105c-.772 0-1.197-.433-1.197-1.397v-10.05h2.079c.46 0 .814-.4.814-.873v-1.2c0-.477-.354-.841-.814-.841h-2.079V88.09c0-.721-.422-.868-1.026-.721l-1.904.502c-.494.15-.671.58-.671 1.12v3.68h-1.873c-.455 0-.808.365-.808.841v1.201c0 .472.353.874.808.874h1.873v10.803c0 2.54 1.164 3.956 3.813 3.956.985 0 1.939-.144 2.611-.365.46-.144.636-.543.564-.983m16.936.308l-.208-1.083c-.213-1.049-.181-2.022-.181-2.889v-6.06c0-2.995-.349-6.822-6.23-6.822-1.508 0-3.38.4-4.445.723-.496.145-.638.47-.531.976l.355 1.587c.105.467.498.683 1.03.541.926-.286 2.082-.615 3.416-.615 2.213 0 2.701.831 2.772 2.706.067.073.032.688.032.797l-3.506.252c-3.319.252-5.525 1.984-5.525 5.591 0 3.318 1.642 5.341 4.613 5.341 1.998 0 3.751-.757 4.773-2.38l.208 1.335c.072.54.393.828.887.828h1.83c.501 0 .817-.323.71-.828zm-3.99-5.017c0 1.298-1.367 3.03-3.368 3.03-1.05 0-1.963-.723-1.963-2.309 0-2.416 1.334-3.102 3.335-3.175l1.996-.07v2.524zm17.221 4.749l-.284-1.603c-.105-.507-.383-.688-.883-.58-.349.073-.809.18-1.126.18-.709 0-.812-.468-.812-1.403V85.38a.838.838 0 0 0-.849-.828h-1.903a.837.837 0 0 0-.849.828v21.22c0 2.366 1.022 3.748 3.601 3.748 1.022 0 1.871-.147 2.577-.434.422-.15.598-.439.528-.876m-160.08 10.538h.905c1.057 0 1.586-.638 1.586-1.42 0-1.381-1.22-1.516-1.707-1.516h-.784v2.936zm0-3.9h.737c.541 0 1.364-.143 1.364-1.25 0-1.181-.823-1.225-1.43-1.225h-.67v2.475zm-1.178-3.44h2.342c.786 0 2.116.325 2.116 1.974 0 1.375-.882 1.758-1.26 1.902v.024c.604.098 1.65.528 1.65 2.128 0 2.033-1.58 2.276-2.602 2.276h-2.246v-8.304zm8.668 3.765h.685c.824 0 1.696-.338 1.696-1.442 0-1.008-.555-1.359-1.427-1.359h-.954v2.801zm-1.176-3.766h2.354c1.269 0 2.377.555 2.377 2.175 0 1.303-.777 1.757-1.601 1.965v.022c1.106.241 1.225.964 1.4 1.831l.483 2.312H58.16l-.492-1.844c-.333-1.19-.471-1.73-1.6-1.73h-.674v3.574h-1.176v-8.305zm8.988 4.969h2.319l-1.118-3.86h-.025l-1.176 3.86zm.458-4.968h1.448l2.78 8.304h-1.25l-.798-2.375h-2.91l-.787 2.375h-1.25l2.767-8.304zm6.447 0h1.468l3.2 6.5h.03v-6.5h1.055v8.304h-1.388l-3.285-6.657h-.023v6.657h-1.057zm9.987 7.34h.693c1.473-.013 2.344-.578 2.344-3.188 0-2.647-.871-3.187-2.354-3.187h-.683v6.375zm-1.176-7.34h2.08c2.474 0 3.427 1.396 3.427 4.129 0 3.44-1.541 4.175-3.426 4.175h-2.081v-8.304zm8.167 0h4.483v.964h-3.307v2.538h3.136v.96h-3.136v2.877h3.41v.965h-4.587zm7.065 0h1.474l3.199 6.5h.023v-6.5h1.06v8.304H98.52l-3.282-6.657h-.024v6.657h-1.06zm9.992 7.34h.905c1.057 0 1.586-.638 1.586-1.42 0-1.381-1.218-1.516-1.703-1.516h-.788v2.936zm0-3.9h.737c.546 0 1.37-.143 1.37-1.25 0-1.181-.824-1.225-1.437-1.225h-.67v2.475zm-1.178-3.44h2.342c.786 0 2.116.325 2.116 1.974 0 1.375-.882 1.758-1.257 1.902v.024c.6.098 1.646.528 1.646 2.128 0 2.033-1.58 2.276-2.601 2.276h-2.246v-8.304zm12.917 5.849c0 1.781-1.176 2.585-2.764 2.585-1.579 0-2.743-.804-2.743-2.585v-5.85h1.176v5.621c0 .612 0 1.85 1.555 1.85 1.6 0 1.6-1.238 1.6-1.85v-5.622h1.176v5.851zm4.129-2.084h.684c.825 0 1.696-.338 1.696-1.442 0-1.008-.558-1.359-1.424-1.359h-.956v2.801zm-1.176-3.766h2.354c1.267 0 2.379.555 2.379 2.175 0 1.303-.783 1.757-1.604 1.965v.022c1.107.241 1.226.964 1.402 1.831l.478 2.312h-1.07l-.493-1.844c-.327-1.19-.467-1.73-1.603-1.73h-.667v3.574h-1.176v-8.305z" fill="#FFF"/><g transform="translate(125 111.671)"><mask id="b" fill="#fff"><use xlink:href="#a"/></mask><path d="M6.899 8.216C6.652 8.411 5.72 9 4.379 9 2.286 9 .958 7.676.958 4.465c0-2.286.88-4.032 3.19-4.032 1.469 0 2.707.76 2.707 2.358H5.546c0-.71-.39-1.395-1.416-1.395-1.526 0-1.88 1.563-1.88 3.07 0 1.575.222 3.572 2.095 3.572.716 0 1.296-.205 1.376-.327V5.04H3.99v-.958H6.9v4.135z" fill="#FFF" mask="url(#b)"/></g><path fill="#FFF" d="M33.245 112.236h1.469l3.205 6.5h.024v-6.5h1.056v8.304H37.61l-3.286-6.657h-.022v6.657h-1.058z"/><mask id="d" fill="#fff"><use xlink:href="#c"/></mask><path fill="#FFF" mask="url(#d)" d="M29.008 120.54h1.176v-8.305h-1.176zm-6.411-8.304h1.178v7.339h3.119v.965h-4.297zm-6.34 3.765h.685c.824 0 1.696-.338 1.696-1.442 0-1.008-.559-1.359-1.423-1.359h-.958v2.801zm-1.176-3.766h2.354c1.271 0 2.381.555 2.381 2.175 0 1.303-.781 1.757-1.602 1.965v.022c1.103.241 1.222.964 1.399 1.831l.481 2.312h-1.071l-.492-1.844c-.333-1.19-.471-1.73-1.6-1.73h-.674v3.574h-1.176v-8.305zm-7.057.001h4.483v.964H9.2v2.538h3.144v.96H9.2v2.877h3.41v.965H8.024zm-6.329 7.34h.907c1.055 0 1.584-.638 1.584-1.42 0-1.381-1.22-1.516-1.705-1.516h-.786v2.936zm0-3.9h.737c.543 0 1.366-.143 1.366-1.25 0-1.181-.823-1.225-1.433-1.225h-.67v2.475zm-1.178-3.44H2.86c.788 0 2.12.325 2.12 1.974 0 1.375-.886 1.758-1.26 1.902v.024c.6.098 1.645.528 1.645 2.128 0 2.033-1.579 2.276-2.6 2.276H.516v-8.304zm62.391-56.778c-4.488-3.285-9.307-7.785-6.91-12.252.064-.12-1.708 1.55-2.476 3.073-1.843 3.665-1.54 10.48 6.549 15.255 2.268 1.341 6.262 4.202 5.769 8.31.493-.313.709-1.18 1.063-2.558.772-3.027.01-8.903-3.995-11.828M44.24 23.013c2.752-10.13 12.106-10.613 19.322-7.893.75.281-.464 4.775 2.144 6.186 5.335 2.878 8.929 4.823 10.816 4.08.887-.347 1.962-2.89 1.817-7.195-.133-3.967 1.376-8.388-5.621-9.354-3.644-2.347-7.78-3.005-7.78-3.005-11.002-2.06-21.144 3.022-22.655 11.36-.558 3.08.145 6.18 1.812 8.962-.093-1.042-.137-2.112.145-3.14m51.386 15.093c-2.83.82-7.424 1.867-14.072 2.582-.358 7.555-1.997 14.506-4.551 20.088a52.29 52.29 0 0 1 7.434 2.941c6.785-6.37 11.067-15.478 11.189-25.61m-11.87 26.237a51.59 51.59 0 0 0-7.12-2.782c-2.437 5.03-5.63 8.857-9.293 10.894 6.212-1.17 11.838-4.037 16.413-8.112m-28.31 8.243c-3.75-1.996-7.022-5.863-9.504-10.973a51.906 51.906 0 0 0-7.403 2.941c4.709 4.12 10.515 6.972 16.908 8.032m-14.47-32.303c-6.996-.783-11.745-1.77-14.55-2.484l.006-.888c2.724.702 7.45 1.704 14.516 2.501a63.927 63.927 0 0 1 1.003-13.364c.186.358.384.711.599 1.07a71.066 71.066 0 0 0-.784 10.445c0 .652.012 1.3.03 1.944 3.483.37 7.507.69 12.11.902a21.28 21.28 0 0 0 1.748.942c-5.318-.207-9.911-.556-13.827-.974.328 7.717 1.997 14.683 4.555 20.196a52.965 52.965 0 0 1 7.728-1.664c.222.263.453.525.697.778a51.618 51.618 0 0 0-8.047 1.68c3.119 6.325 7.448 10.587 12.25 11.616a35.394 35.394 0 0 0 4.749-.047c4.726-1.117 8.982-5.358 12.053-11.62a51.397 51.397 0 0 0-7.823-1.622 20.064 20.064 0 0 0-.378-.916c2.936.351 5.803.94 8.575 1.748 2.505-5.41 4.149-12.214 4.52-19.749-2.618.263-5.542.48-8.783.611a6.41 6.41 0 0 0-.153-.862c3.323-.13 6.307-.348 8.97-.619.027-.774.04-1.555.04-2.344 0-4.62-.473-9.009-1.34-13.035.186-.497.34-1.07.459-1.726 1.11 4.533 1.728 9.53 1.728 14.761 0 .757-.013 1.51-.04 2.251 3.817-.415 6.94-.937 9.434-1.46a58.621 58.621 0 0 0 4.604-1.145c-.096-7.998-2.795-15.356-7.266-21.238A52.952 52.952 0 0 1 80.16 20l.008-.925a52.964 52.964 0 0 0 7.66-3.782c-6.342-7.938-15.996-13.004-26.8-13.004-10.78 0-20.413 5.044-26.756 12.945a51.978 51.978 0 0 0 5.872 3.05c-.017.31-.026.62-.023.93a53.295 53.295 0 0 1-6.383-3.298c-4.441 5.816-7.142 13.086-7.305 20.998l-.005.752c.035 10.504 4.436 19.826 11.427 26.273a52.95 52.95 0 0 1 7.716-3.114c-2.614-5.689-4.275-12.807-4.594-20.539M61.03 1.09c19.76 0 35.772 16.378 35.772 36.576 0 20.204-16.012 36.578-35.772 36.578-19.761 0-35.776-16.374-35.776-36.578 0-20.198 16.015-36.576 35.776-36.576m-.397 31.271c-5.383-2.403-11.118-5.27-9.581-10.462.046-.14-1.446 2-1.913 3.758-1.134 4.23.648 11.252 10.1 14.4 2.655.886 6.45 3.973 6.827 8.362 1.498-.897 2.734-2.944 3.168-4.274 1.32-4.034-3.8-9.643-8.601-11.784"/><path d="M84.44 63.718a52.286 52.286 0 0 0-7.434-2.94c2.554-5.582 4.192-12.534 4.551-20.088 6.648-.716 11.241-1.763 14.071-2.582-.122 10.132-4.403 19.24-11.188 25.61m-17.095 8.74c3.664-2.038 6.857-5.866 9.293-10.894a51.648 51.648 0 0 1 7.121 2.781c-4.576 4.074-10.202 6.941-16.414 8.112m-6.314.587c-.675 0-1.349-.017-2.018-.058-4.802-1.03-9.13-5.29-12.25-11.618a51.434 51.434 0 0 1 8.047-1.678 17.425 17.425 0 0 1-.697-.779 53.153 53.153 0 0 0-7.728 1.664c-2.557-5.512-4.227-12.479-4.554-20.196 3.916.418 8.508.768 13.826.973a21.115 21.115 0 0 1-1.746-.94 203.344 203.344 0 0 1-12.112-.903 73.664 73.664 0 0 1-.029-1.943c0-3.656.295-7.17.784-10.446a19.515 19.515 0 0 1-.599-1.07 63.928 63.928 0 0 0-1.003 13.364c-7.067-.797-11.793-1.799-14.516-2.5l-.005.775v-.024l.005-.752c.163-7.912 2.863-15.18 7.304-20.998a53.163 53.163 0 0 0 6.384 3.297c-.003-.309.005-.619.023-.929a52.314 52.314 0 0 1-5.873-3.049C40.618 7.331 50.251 2.288 61.031 2.288c10.804 0 20.457 5.067 26.8 13.004a52.863 52.863 0 0 1-7.66 3.782l-.007.925a52.942 52.942 0 0 0 8.198-4.026c4.471 5.883 7.17 13.24 7.266 21.238a58.971 58.971 0 0 1-4.603 1.146c-2.495.522-5.617 1.045-9.433 1.46.026-.742.038-1.495.038-2.25 0-5.233-.616-10.23-1.727-14.763a10.147 10.147 0 0 1-.459 1.726c.867 4.026 1.341 8.416 1.341 13.036 0 .79-.014 1.57-.04 2.343-2.664.271-5.649.49-8.972.62.071.285.123.573.153.861 3.242-.13 6.165-.348 8.784-.61-.372 7.535-2.015 14.338-4.52 19.75a53.019 53.019 0 0 0-8.575-1.749c.133.302.261.608.378.916 2.673.341 5.286.884 7.822 1.622-3.07 6.261-7.327 10.503-12.053 11.62-.905.07-1.814.105-2.73.105m-22.49-8.488a52.012 52.012 0 0 1 7.402-2.94c2.482 5.11 5.754 8.976 9.505 10.972-6.392-1.059-12.198-3.912-16.907-8.032M26.435 37.802c2.804.713 7.551 1.7 14.545 2.483.318 7.732 1.98 14.85 4.593 20.54a52.888 52.888 0 0 0-7.716 3.114c-6.96-6.419-11.35-15.689-11.422-26.137M61.031 1.09c-19.76 0-35.775 16.378-35.775 36.576 0 20.204 16.015 36.578 35.775 36.578 19.761 0 35.772-16.374 35.772-36.578 0-20.198-16.01-36.576-35.772-36.576" fill="#FFF" mask="url(#d)"/><path d="M63.564 15.12c.751.282-.464 4.776 2.145 6.187 5.334 2.877 8.928 4.823 10.815 4.08.888-.347 1.962-2.89 1.817-7.195-.133-3.967 1.376-8.388-5.62-9.354-3.645-2.347-7.78-3.005-7.78-3.005C53.94 3.772 43.796 8.855 42.286 17.192c-.558 3.08.145 6.18 1.812 8.963-.093-1.042-.137-2.112.145-3.141C46.995 12.883 56.35 12.4 63.564 15.12m-.654 40.338c-4.489-3.285-9.308-7.785-6.91-12.252.063-.12-1.708 1.55-2.477 3.073-1.843 3.665-1.54 10.48 6.55 15.255 2.267 1.341 6.262 4.202 5.768 8.31.494-.313.71-1.18 1.063-2.558.772-3.027.01-8.903-3.995-11.828" fill="#FFF" mask="url(#d)"/><path d="M66.067 48.418c1.499-.896 2.735-2.944 3.169-4.274 1.32-4.034-3.8-9.643-8.603-11.784-5.382-2.403-11.117-5.27-9.58-10.462.047-.14-1.444 2-1.912 3.758-1.134 4.23.648 11.252 10.1 14.4 2.656.886 6.45 3.973 6.826 8.362" fill="#FFF" mask="url(#d)"/><path d="M61.031 0C40.703 0 24.166 16.896 24.166 37.665c0 20.77 16.537 37.668 36.865 37.668 20.326 0 36.862-16.898 36.862-37.669C97.893 16.898 81.357 0 61.031 0m0 1.09c19.761 0 35.772 16.378 35.772 36.577 0 20.204-16.01 36.578-35.772 36.578-19.76 0-35.775-16.374-35.775-36.578 0-20.198 16.014-36.576 35.775-36.576" fill="#FFF" mask="url(#d)"/></g></svg>