<svg width="200" height="25" xmlns="http://www.w3.org/2000/svg"><g fill="none"><path d="M3.276 23.053a.898.898 0 0 1-.578.188c-.337 0-.618-.12-.844-.362-.225-.24-.344-.579-.354-1.012h3.666c.021-1.122-.207-1.955-.683-2.499-.476-.542-1.124-.814-1.948-.814-.733 0-1.338.26-1.817.778C.239 19.851 0 20.568 0 21.485c0 .768.182 1.403.546 1.905.463.629 1.174.943 2.136.943.608 0 1.114-.14 1.519-.419.405-.279.701-.687.888-1.222l-1.459-.245c-.08.279-.198.481-.354.606zm-1.751-2.084c-.002-.399.1-.714.308-.946a1.02 1.02 0 0 1 .792-.351c.298 0 .552.11.761.332.208.22.318.542.327.965H1.525zm5.866 3.24l1.135-1.714 1.126 1.714h1.796l-2.047-2.911 1.875-2.62H9.557l-1.031 1.521-.979-1.521H5.76l1.912 2.682-1.995 2.85h1.714v-.001zm8.909-5.222c-.398-.289-.934-.435-1.607-.435-.823 0-1.475.254-1.958.764-.482.508-.724 1.219-.724 2.133 0 .902.241 1.608.721 2.119.481.51 1.127.766 1.936.766.712 0 1.279-.168 1.703-.505.424-.337.71-.835.86-1.495l-1.438-.244c-.072.385-.197.657-.375.814-.177.159-.404.236-.682.236-.372 0-.668-.135-.889-.405-.22-.271-.33-.735-.33-1.391 0-.59.108-1.012.326-1.264.216-.251.508-.377.872-.377.274 0 .498.072.67.218.172.147.281.363.33.651l1.443-.26c-.175-.592-.461-1.035-.858-1.325zm4.837 4.066a.898.898 0 0 1-.578.188c-.338 0-.619-.12-.844-.362-.227-.24-.344-.579-.355-1.012h3.667c.021-1.122-.206-1.955-.682-2.499-.476-.542-1.125-.814-1.948-.814-.733 0-1.338.26-1.818.778-.479.52-.719 1.237-.719 2.154 0 .768.183 1.403.547 1.905.461.629 1.173.943 2.135.943.608 0 1.114-.14 1.519-.419.404-.279.701-.687.888-1.222l-1.458-.245c-.079.278-.199.48-.354.605zm-1.751-2.084c-.003-.399.1-.714.308-.946a1.02 1.02 0 0 1 .792-.351c.299 0 .552.11.761.332.208.22.318.542.328.965h-2.189zm6.319 3.24v-7.636h-1.463v7.636h1.463zm2.985 0v-7.636h-1.464v7.636h1.464zm4.371-1.156a.9.9 0 0 1-.579.188c-.337 0-.619-.12-.844-.362-.226-.24-.343-.579-.354-1.012h3.667c.021-1.122-.206-1.955-.682-2.499-.476-.542-1.125-.814-1.948-.814-.733 0-1.338.26-1.817.778-.479.52-.719 1.237-.719 2.154 0 .768.183 1.403.547 1.905.461.629 1.173.943 2.135.943.608 0 1.114-.14 1.518-.419.404-.279.701-.687.889-1.222l-1.458-.245c-.081.278-.2.48-.355.605zm-1.751-2.084c-.004-.399.1-.714.308-.946a1.02 1.02 0 0 1 .792-.351 1 1 0 0 1 .76.332c.209.22.319.542.329.965H31.31zm9.886-.197c0-.428-.027-.756-.08-.984a1.608 1.608 0 0 0-.287-.616c-.137-.18-.339-.328-.606-.445a2.223 2.223 0 0 0-.886-.174c-.732 0-1.34.313-1.823.938v-.813h-1.358v5.531h1.462v-2.506c0-.617.038-1.041.112-1.271a1.05 1.05 0 0 1 .415-.552c.201-.139.429-.209.682-.209.198 0 .367.05.507.146a.805.805 0 0 1 .305.408c.063.177.095.563.095 1.159v2.823h1.462v-3.435zm5.472-1.785c-.397-.289-.933-.435-1.607-.435-.823 0-1.476.254-1.958.764-.483.508-.724 1.219-.724 2.133 0 .902.24 1.608.721 2.119.48.51 1.125.766 1.935.766.711 0 1.28-.168 1.703-.505.424-.337.71-.835.86-1.495l-1.438-.244c-.073.385-.198.657-.374.814-.178.159-.406.236-.684.236-.371 0-.667-.135-.888-.405-.22-.271-.331-.735-.331-1.391 0-.59.108-1.012.326-1.264.217-.251.507-.377.872-.377.275 0 .498.072.669.218.172.147.282.363.331.651l1.442-.26c-.172-.592-.457-1.035-.855-1.325zm4.837 4.066a.899.899 0 0 1-.579.188c-.336 0-.618-.12-.843-.362-.226-.24-.344-.579-.355-1.012h3.667c.021-1.122-.208-1.955-.682-2.499-.476-.542-1.125-.814-1.948-.814-.733 0-1.339.26-1.818.778-.479.52-.719 1.237-.719 2.154 0 .768.183 1.403.547 1.905.461.629 1.174.943 2.135.943.607 0 1.114-.14 1.518-.419.404-.279.7-.687.889-1.222l-1.458-.245c-.08.278-.198.48-.354.605zm-1.75-2.084c-.003-.399.099-.714.307-.946.209-.232.472-.351.792-.351.298 0 .552.11.76.332.208.22.317.542.328.965h-2.187zm9.304-3.042v-1.354h-1.464v1.354h1.464zm0 6.282v-5.531h-1.464v5.531h1.464zm6.551-3.437c0-.428-.027-.756-.081-.984a1.608 1.608 0 0 0-.287-.616c-.137-.18-.339-.328-.606-.445a2.227 2.227 0 0 0-.886-.174c-.733 0-1.34.313-1.823.938v-.813h-1.359v5.531h1.462v-2.506c0-.617.039-1.041.112-1.271.075-.229.213-.412.415-.552.201-.139.429-.209.683-.209.198 0 .367.05.507.146a.817.817 0 0 1 .305.408c.062.177.094.563.094 1.159v2.823h1.463v-3.435h.001zm5.954 3.437v-7.636h-1.463v7.636h1.463zm2.986-6.282v-1.354h-1.464v1.354h1.464zm0 6.282v-5.531h-1.464v5.531h1.464zm.881-4.38h.812v4.38h1.464v-4.38H78.8v-1.151h-1.094v-.39c0-.282.046-.473.138-.571.092-.099.244-.148.456-.148.215 0 .44.027.672.083l.198-1.021a4.07 4.07 0 0 0-1.223-.188c-.407 0-.743.072-1.008.217-.267.144-.448.33-.548.56-.099.229-.148.577-.148 1.041v.417h-.812v1.151zm7.063 3.224a.896.896 0 0 1-.578.188c-.337 0-.618-.12-.844-.362-.226-.24-.344-.579-.354-1.012h3.667c.021-1.122-.207-1.955-.683-2.499-.475-.542-1.125-.814-1.948-.814-.732 0-1.338.26-1.818.778-.479.52-.718 1.237-.718 2.154 0 .768.182 1.403.546 1.905.462.629 1.174.943 2.136.943.607 0 1.114-.14 1.518-.419.404-.279.7-.687.887-1.222l-1.458-.245c-.079.278-.197.48-.353.605zm-1.75-2.084c-.003-.399.099-.714.307-.946.209-.232.472-.351.792-.351.298 0 .553.11.761.332.208.22.318.542.328.965h-2.188zm8.186 2.907c.438.306 1.035.458 1.788.458.83 0 1.457-.183 1.88-.546.424-.365.636-.802.636-1.308 0-.465-.153-.828-.458-1.089-.31-.257-.854-.474-1.633-.651-.779-.178-1.235-.313-1.367-.411-.097-.073-.146-.161-.146-.266 0-.122.055-.221.167-.297.166-.107.442-.161.828-.161.306 0 .541.056.706.171.166.115.277.28.336.495l1.379-.255c-.138-.482-.392-.848-.76-1.094-.368-.246-.931-.37-1.688-.37-.795 0-1.382.163-1.76.489-.379.326-.569.729-.569 1.209 0 .531.219.946.658 1.245.315.215 1.063.453 2.244.714.253.058.417.122.489.192.07.072.104.164.104.275a.463.463 0 0 1-.193.391c-.191.139-.476.209-.854.209-.343 0-.61-.074-.802-.222-.19-.148-.317-.363-.38-.649l-1.468.225c.136.525.423.94.863 1.246zm9.573-4.889c-.398-.289-.933-.435-1.607-.435-.822 0-1.476.254-1.958.764-.483.508-.725 1.219-.725 2.133 0 .902.241 1.608.722 2.119.48.51 1.125.766 1.934.766.712 0 1.28-.168 1.705-.505.423-.337.71-.835.858-1.495l-1.438-.244c-.073.385-.198.657-.375.814-.176.159-.404.236-.682.236-.371 0-.667-.135-.887-.405-.221-.271-.331-.735-.331-1.391 0-.59.109-1.012.326-1.264.217-.251.507-.377.873-.377.274 0 .497.072.669.218.172.147.283.363.331.651l1.442-.26c-.174-.592-.459-1.035-.857-1.325zm3.451-1.06v-1.354h-1.463v1.354h1.463zm0 6.282v-5.531h-1.463v5.531h1.463zm4.37-1.156a.896.896 0 0 1-.578.188c-.336 0-.618-.12-.843-.362-.226-.24-.345-.579-.354-1.012h3.666c.021-1.122-.206-1.955-.682-2.499-.476-.542-1.126-.814-1.947-.814-.733 0-1.34.26-1.818.778-.479.52-.72 1.237-.72 2.154 0 .768.184 1.403.548 1.905.462.629 1.174.943 2.135.943.608 0 1.114-.14 1.519-.419.405-.279.7-.687.889-1.222l-1.458-.245c-.082.278-.201.48-.357.605zm-1.749-2.084c-.004-.399.098-.714.308-.946a1.02 1.02 0 0 1 .791-.351 1 1 0 0 1 .76.332c.209.22.318.542.329.965h-2.188zm9.886-.197c0-.428-.027-.756-.08-.984a1.624 1.624 0 0 0-.288-.616c-.137-.18-.339-.328-.606-.445a2.218 2.218 0 0 0-.885-.174c-.733 0-1.341.313-1.823.938v-.813h-1.36v5.531h1.465v-2.506c0-.617.037-1.041.112-1.271.074-.229.213-.412.413-.552.201-.139.43-.209.682-.209a.89.89 0 0 1 .51.146c.14.098.241.233.305.408.062.177.093.563.093 1.159v2.823h1.464v-3.435h-.002zm5.472-1.785c-.397-.289-.934-.435-1.606-.435-.823 0-1.477.254-1.959.764-.482.508-.725 1.219-.725 2.133 0 .902.241 1.608.723 2.119.48.51 1.125.766 1.935.766.712 0 1.279-.168 1.703-.505.424-.337.71-.835.86-1.495l-1.438-.244c-.074.385-.198.657-.376.814-.178.159-.404.236-.682.236-.372 0-.668-.135-.89-.405-.22-.271-.33-.735-.33-1.391 0-.59.108-1.012.326-1.264.217-.251.507-.377.872-.377.273 0 .497.072.67.218.172.147.281.363.33.651l1.442-.26c-.173-.592-.458-1.035-.855-1.325zm4.836 4.066a.895.895 0 0 1-.577.188c-.338 0-.618-.12-.844-.362-.226-.24-.344-.579-.354-1.012h3.667c.02-1.122-.207-1.955-.683-2.499-.477-.542-1.125-.814-1.948-.814-.733 0-1.339.26-1.817.778-.479.52-.718 1.237-.718 2.154 0 .768.181 1.403.546 1.905.462.629 1.173.943 2.135.943.608 0 1.113-.14 1.52-.419.404-.279.7-.687.888-1.222l-1.459-.245c-.081.278-.199.48-.356.605zm-1.75-2.084c-.003-.399.1-.714.308-.946.208-.232.473-.351.792-.351.298 0 .552.11.761.332.208.22.317.542.327.965h-2.188zm5.201 2.907c.44.306 1.036.458 1.79.458.829 0 1.456-.183 1.88-.546.424-.365.635-.802.635-1.308 0-.465-.152-.828-.457-1.089-.31-.257-.854-.474-1.633-.651-.78-.178-1.236-.313-1.368-.411-.097-.073-.146-.161-.146-.266 0-.122.056-.221.167-.297.166-.107.442-.161.828-.161.306 0 .54.056.705.171.165.115.277.28.336.495l1.38-.255c-.14-.482-.392-.848-.761-1.094-.367-.246-.93-.37-1.688-.37-.795 0-1.381.163-1.76.489-.379.326-.567.729-.567 1.209 0 .531.219.946.656 1.245.315.215 1.064.453 2.245.714.253.058.417.122.489.192a.386.386 0 0 1 .104.275.463.463 0 0 1-.193.391c-.19.139-.475.209-.854.209-.345 0-.612-.074-.803-.222-.191-.148-.317-.363-.38-.649l-1.47.225c.139.525.426.94.865 1.246zm14.788-.961a6.24 6.24 0 0 1-.634-.503c.111-.146.216-.328.313-.544a8.19 8.19 0 0 0 .344-1.028l-1.322-.302a3.648 3.648 0 0 1-.323.869l-1.063-1.402c.56-.35.932-.663 1.115-.942a1.605 1.605 0 0 0-.282-2.114c-.371-.337-.887-.505-1.547-.505-.685 0-1.211.16-1.581.481-.369.321-.554.714-.554 1.175 0 .25.064.514.197.794.132.279.329.574.589.883-.58.289-1.017.628-1.307 1.019a2.145 2.145 0 0 0-.438 1.32c0 .539.186 1.015.558 1.427.479.534 1.194.803 2.146.803.479 0 .892-.065 1.24-.198.347-.132.675-.337.984-.614.398.372.816.664 1.25.875l.884-1.13c-.12-.06-.31-.182-.569-.364zm-3.774-4.206c-.223-.257-.333-.477-.333-.655 0-.154.065-.288.197-.405.132-.115.314-.174.547-.174.24 0 .43.066.57.197a.63.63 0 0 1 .211.479c0 .223-.146.446-.438.673l-.396.302-.358-.417zm1.277 3.845c-.25.207-.481.356-.692.447-.212.09-.434.135-.662.135-.347 0-.624-.099-.831-.3a1.026 1.026 0 0 1-.31-.772c0-.251.083-.495.25-.733.167-.241.419-.445.755-.616l1.49 1.839zm7.007-5.981v7.636h1.463v-2.771c0-.466.044-.816.133-1.055.089-.239.228-.417.418-.534.192-.118.408-.178.652-.178.211 0 .388.047.528.139.14.092.239.216.294.372.057.156.084.525.084 1.104v2.922h1.463v-3.244c0-.497-.025-.863-.074-1.1a1.774 1.774 0 0 0-.282-.646c-.137-.195-.341-.354-.611-.479a2.137 2.137 0 0 0-.912-.188c-.656 0-1.221.275-1.692.829v-2.809h-1.464v.002zm9.39 6.48a.896.896 0 0 1-.578.188c-.337 0-.619-.12-.844-.362-.226-.24-.344-.579-.354-1.012h3.665c.021-1.122-.205-1.955-.682-2.499-.477-.542-1.125-.814-1.948-.814-.732 0-1.338.26-1.817.778-.479.52-.719 1.237-.719 2.154 0 .768.183 1.403.547 1.905.462.629 1.174.943 2.135.943.609 0 1.114-.14 1.52-.419.404-.279.7-.687.888-1.222l-1.459-.245c-.079.278-.199.48-.354.605zm-1.75-2.084c-.003-.399.099-.714.308-.946.207-.232.472-.351.791-.351.299 0 .553.11.761.332.209.22.317.542.328.965h-2.188zm6.303-1.142c.146-.103.349-.155.609-.155.385 0 .647.061.787.181.139.12.207.32.207.602v.145c-.264.111-.737.23-1.421.359-.508.097-.896.211-1.164.342a1.45 1.45 0 0 0-.628.563 1.573 1.573 0 0 0-.225.836c0 .472.165.862.492 1.172.329.309.777.463 1.347.463.323 0 .627-.061.911-.183.286-.121.553-.304.802-.547.012.028.028.085.053.172.055.19.102.336.141.433h1.448a3.187 3.187 0 0 1-.264-.742c-.047-.23-.07-.589-.07-1.075l.017-1.709c0-.636-.065-1.071-.196-1.31-.13-.238-.354-.435-.675-.589-.318-.153-.805-.231-1.458-.231-.718 0-1.261.128-1.624.385-.365.258-.622.653-.771 1.188l1.328.24c.09-.259.207-.438.354-.54zm1.603 2.018c0 .35-.019.589-.057.713a.927.927 0 0 1-.349.485c-.24.174-.491.261-.755.261a.797.797 0 0 1-.584-.225.717.717 0 0 1-.229-.531c0-.209.096-.38.287-.516.125-.083.39-.168.796-.256.407-.086.704-.161.891-.224v.293zm4.367 2.364v-7.636h-1.464v7.636h1.464zm3.056-5.531v-1.953l-1.469.854v1.099h-.672v1.167h.672v2.411c0 .518.017.861.048 1.031.038.24.106.43.205.571.1.14.255.254.466.344.212.087.449.132.714.132.431 0 .816-.073 1.156-.219l-.124-1.135c-.258.094-.453.14-.59.14a.407.407 0 0 1-.246-.073.317.317 0 0 1-.131-.185c-.02-.074-.029-.337-.029-.789v-2.229h1.001v-1.167h-1.001v.001zm2.033-2.105v7.636h1.464v-2.771c0-.466.044-.816.133-1.055.088-.238.229-.417.42-.534.19-.118.407-.178.65-.178.212 0 .388.047.528.139.14.092.239.216.295.372.055.156.083.525.083 1.104v2.922h1.464v-3.244c0-.497-.025-.863-.076-1.1a1.739 1.739 0 0 0-.281-.646c-.137-.195-.342-.354-.612-.479a2.128 2.128 0 0 0-.91-.188c-.658 0-1.222.275-1.693.829v-2.809h-1.465v.002zm10.508 2.414c-.397-.289-.933-.435-1.607-.435-.823 0-1.476.254-1.959.764-.481.508-.724 1.219-.724 2.133 0 .902.24 1.608.723 2.119.48.51 1.125.766 1.935.766.711 0 1.278-.168 1.703-.505.424-.337.711-.835.86-1.495l-1.438-.244c-.073.385-.198.657-.375.814-.177.159-.404.236-.683.236-.372 0-.667-.135-.888-.405-.221-.27-.331-.735-.331-1.391 0-.59.108-1.012.326-1.264.217-.251.507-.377.872-.377.273 0 .497.072.67.218.171.147.281.363.329.651l1.443-.26c-.173-.592-.459-1.035-.856-1.325zm3.436.84c.146-.103.349-.155.609-.155.386 0 .646.061.786.181.139.12.209.32.209.602v.145c-.264.111-.738.23-1.422.359-.508.097-.896.211-1.165.342-.269.13-.479.317-.628.563a1.573 1.573 0 0 0-.224.836c0 .472.164.862.493 1.172.328.309.775.463 1.346.463.323 0 .627-.061.911-.183a2.63 2.63 0 0 0 .803-.547c.01.028.027.085.053.172.055.19.102.336.14.433h1.447a3.13 3.13 0 0 1-.262-.742c-.047-.23-.071-.589-.071-1.075l.017-1.709c0-.636-.065-1.071-.195-1.31-.131-.238-.355-.435-.675-.589-.319-.153-.807-.231-1.458-.231-.72 0-1.261.128-1.625.385-.365.258-.622.653-.771 1.188l1.328.24c.09-.259.207-.438.354-.54zm1.604 2.018c0 .35-.02.589-.058.713a.913.913 0 0 1-.35.485 1.263 1.263 0 0 1-.754.261.795.795 0 0 1-.584-.225.718.718 0 0 1-.23-.531c0-.209.097-.38.287-.516.125-.083.391-.168.798-.256.406-.086.703-.161.891-.224v.293zm4.303.656c0-.94.04-1.56.121-1.854.082-.296.194-.499.337-.612a.81.81 0 0 1 .521-.169c.211 0 .441.08.688.24l.453-1.277a1.86 1.86 0 0 0-.963-.275c-.237 0-.447.06-.633.178-.187.118-.396.362-.628.734v-.787h-1.36v5.531h1.465v-1.709h-.001zm5.62.552a.902.902 0 0 1-.578.188c-.337 0-.618-.12-.844-.362-.227-.24-.344-.579-.354-1.012h3.667c.021-1.122-.207-1.955-.683-2.499-.476-.542-1.125-.814-1.948-.814-.732 0-1.338.26-1.817.778-.479.52-.719 1.237-.719 2.154 0 .768.183 1.403.548 1.905.461.629 1.173.943 2.135.943.606 0 1.114-.14 1.518-.419.404-.279.7-.687.889-1.222l-1.459-.245c-.081.278-.199.48-.355.605zm-1.75-2.084c-.004-.399.099-.714.307-.946.209-.232.472-.351.793-.351.299 0 .551.11.76.332.207.22.317.542.328.965h-2.188z" fill="#706F6F"/><path d="M5.37 10.457V2.175h3.107V1.066H1.034v1.108h3.093v8.282H5.37v.001zm5.689 0V6.031h4.881v4.426h1.242V1.066H15.94v3.856h-4.881V1.066H9.816v9.391h1.243zm15.253 0V9.349h-5.765V6.152h5.195v-1.1h-5.195V2.175h5.547V1.066h-6.79v9.391h7.008zm12.569-3.684v1.749c-.265.235-.654.456-1.167.663a4.153 4.153 0 0 1-1.576.311 3.914 3.914 0 0 1-1.755-.409 2.766 2.766 0 0 1-1.259-1.257c-.288-.563-.433-1.264-.433-2.1 0-.679.119-1.31.359-1.892.14-.335.338-.646.592-.928.253-.282.588-.51 1.003-.682.414-.173.905-.26 1.473-.26.474 0 .906.082 1.293.246.389.165.688.384.897.657.212.275.386.651.527 1.129l1.121-.307c-.162-.633-.399-1.145-.711-1.538-.312-.394-.742-.699-1.291-.92-.549-.219-1.163-.328-1.842-.328-.936 0-1.762.191-2.479.575-.717.385-1.268.974-1.649 1.766a5.8 5.8 0 0 0-.574 2.559c0 .923.193 1.757.576 2.504a3.918 3.918 0 0 0 1.708 1.714c.754.396 1.593.593 2.514.593.684 0 1.35-.123 1.999-.369a6.97 6.97 0 0 0 1.89-1.098V5.665l-3.977.007v1.102h2.761v-.001zm10.109 3.684V9.349h-5.765V6.152h5.194v-1.1h-5.194V2.175h5.547V1.066h-6.79v9.391h7.008zm3.004 0v-4.17h1.441c.321 0 .551.016.692.046.192.047.381.13.566.249.185.119.397.328.632.628.235.299.534.729.897 1.293l1.242 1.954h1.563L57.394 7.9a6.408 6.408 0 0 0-1.031-1.248c-.17-.153-.42-.31-.749-.468.901-.124 1.567-.414 1.999-.871.432-.456.646-1.019.646-1.685 0-.517-.13-.988-.391-1.416a2.086 2.086 0 0 0-1.044-.894c-.436-.169-1.072-.253-1.909-.253h-4.164v9.391h1.243v.001zm0-8.353h2.972c.696 0 1.205.144 1.528.43.322.285.482.651.482 1.096 0 .303-.083.583-.25.842a1.41 1.41 0 0 1-.73.563c-.32.118-.764.177-1.333.177h-2.671V2.104h.002zm9.398 8.353V2.463l2.716 7.994h1.121l2.729-7.859v7.859h1.197V1.066h-1.671L65.235 7.6a69.312 69.312 0 0 0-.5 1.506 64.372 64.372 0 0 0-.449-1.391l-2.223-6.648h-1.87v9.391h1.199v-.001zm10.083 0l1.031-2.844h3.926l1.095 2.844h1.416L75.1 1.066h-1.339l-3.606 9.391h1.32zm2.421-6.609c.218-.594.386-1.192.506-1.795.145.509.367 1.157.666 1.947l.98 2.602h-3.184l1.032-2.754zm7.245 6.609V3.078l4.933 7.379h1.275V1.066h-1.192v7.372l-4.932-7.372H79.95v9.391h1.191zm17.713-1.506c-.482.402-1.072.603-1.768.603a3.042 3.042 0 0 1-1.595-.442c-.491-.294-.853-.739-1.086-1.336-.232-.596-.349-1.293-.349-2.091 0-.62.098-1.221.294-1.804a2.745 2.745 0 0 1 1.021-1.393c.485-.347 1.088-.52 1.81-.52.627 0 1.148.155 1.563.468.413.313.73.809.948 1.493l1.224-.289c-.253-.867-.699-1.54-1.339-2.018-.641-.479-1.43-.717-2.371-.717a4.67 4.67 0 0 0-2.277.565 3.841 3.841 0 0 0-1.594 1.66c-.374.728-.561 1.581-.561 2.56 0 .896.165 1.735.497 2.516.331.782.813 1.38 1.448 1.791.634.413 1.457.618 2.469.618.978 0 1.806-.269 2.483-.804.677-.536 1.145-1.314 1.406-2.335l-1.243-.313c-.171.792-.498 1.387-.98 1.788zm4.069 1.506l1.03-2.844h3.928l1.095 2.844h1.416l-3.844-9.391h-1.339l-3.606 9.391h1.32zm2.421-6.609a11.88 11.88 0 0 0 .506-1.795c.146.509.367 1.157.666 1.947l.98 2.602h-3.184l1.032-2.754zm7.309 6.609V6.639h2.408c1.328 0 2.247-.276 2.754-.828.509-.554.763-1.23.763-2.028 0-.465-.095-.893-.284-1.28a2.31 2.31 0 0 0-.753-.907c-.313-.215-.699-.362-1.16-.438-.329-.06-.804-.09-1.428-.09h-3.543v9.391h1.243v-.002zm0-8.282h2.402c.563 0 .949.027 1.159.084.324.089.586.273.784.553.199.28.298.617.298 1.009 0 .543-.169.964-.505 1.263-.338.298-.908.448-1.712.448h-2.427V2.175h.001zm8.989 8.282V1.066h-1.244v9.391h1.244zm5.848 0V2.175h3.106V1.066h-7.443v1.108h3.094v8.282h1.243v.001zm3.722 0l1.031-2.844h3.927l1.096 2.844h1.415l-3.843-9.391h-1.34l-3.606 9.391h1.32zm2.422-6.609c.218-.594.386-1.192.505-1.795.146.509.368 1.157.667 1.947l.98 2.602h-3.185l1.033-2.754zm11.882 6.609V9.349h-4.624V1.066h-1.243v9.391h5.867zm5.953 0v-4.17h1.44c.32 0 .552.016.692.046.191.047.381.13.566.249.187.119.396.328.632.628.233.299.533.729.896 1.293l1.243 1.954h1.562L156.868 7.9a6.514 6.514 0 0 0-1.03-1.248 3.262 3.262 0 0 0-.751-.468c.901-.124 1.567-.414 1.999-.871.432-.456.646-1.019.646-1.685 0-.517-.13-.988-.39-1.416a2.094 2.094 0 0 0-1.044-.894c-.437-.169-1.072-.253-1.909-.253h-4.163v9.391h1.243v.001zm0-8.353h2.972c.696 0 1.204.144 1.528.43.322.285.482.651.482 1.096 0 .303-.083.583-.25.842a1.407 1.407 0 0 1-.729.563c-.319.118-.765.177-1.331.177h-2.672V2.104zm15.271 8.353V9.349h-5.765V6.152h5.194v-1.1h-5.194V2.175h5.547V1.066h-6.79v9.391h7.008zm8.899-3.684v1.749c-.266.235-.655.456-1.167.663a4.153 4.153 0 0 1-1.576.311 3.91 3.91 0 0 1-1.754-.409 2.773 2.773 0 0 1-1.26-1.257c-.287-.563-.432-1.264-.432-2.1 0-.679.119-1.31.358-1.892.142-.335.339-.646.593-.928a2.74 2.74 0 0 1 1.003-.682c.413-.173.905-.26 1.473-.26.474 0 .906.082 1.294.246.389.165.688.384.896.657.21.273.385.649.526 1.127l1.12-.307c-.162-.633-.398-1.145-.711-1.538-.312-.394-.742-.699-1.29-.92-.549-.219-1.162-.328-1.843-.328-.935 0-1.761.191-2.479.575-.717.385-1.268.974-1.649 1.766a5.8 5.8 0 0 0-.573 2.559c0 .923.192 1.757.576 2.504a3.911 3.911 0 0 0 1.707 1.714c.754.396 1.593.593 2.515.593a5.59 5.59 0 0 0 1.998-.369 7.005 7.005 0 0 0 1.891-1.098V5.665l-3.979.007v1.102h2.763v-.001zm4.528 3.684V1.066h-1.243v9.391h1.243zm2.377-2.229a4.13 4.13 0 0 0 1.582 1.749c.696.428 1.486.641 2.371.641.815 0 1.575-.193 2.28-.58.704-.386 1.249-.955 1.634-1.706.384-.752.576-1.604.576-2.556 0-.94-.183-1.779-.547-2.521a4.071 4.071 0 0 0-1.593-1.733c-.696-.413-1.478-.62-2.345-.62-1.323 0-2.404.44-3.241 1.323-.837.881-1.255 2.101-1.255 3.66.001.823.181 1.604.538 2.343zm1.694-5.352a3.181 3.181 0 0 1 2.271-.906 3.08 3.08 0 0 1 1.675.47c.497.314.876.757 1.134 1.327.259.57.388 1.237.388 2.002 0 1.208-.303 2.142-.906 2.8-.604.657-1.374.985-2.309.985-.919 0-1.683-.325-2.291-.977-.608-.652-.912-1.543-.912-2.675 0-1.413.316-2.422.95-3.026zm9.556 7.581V3.078l4.931 7.379H200V1.066h-1.191v7.372l-4.932-7.372h-1.274v9.391h1.191z" fill="#FF0019"/></g></svg>