<svg viewBox="0 0 174 174" xmlns="http://www.w3.org/2000/svg" xmlns:xlink="http://www.w3.org/1999/xlink"><defs><path id="a" d="M0 .503h173.496V174H0z"/></defs><g fill="none" fill-rule="evenodd"><path d="M86.92 56.195c-3.663 0-7.151 1.353-9.89 3.854a14.769 14.769 0 0 0-4.828 11.572c.343 8.147 7.149 14.559 15.39 14.17A14.716 14.716 0 0 0 97.9 81.02a14.717 14.717 0 0 0 3.894-10.648c-.332-7.736-6.417-13.824-14.152-14.159h-.013a12.84 12.84 0 0 0-.709-.018M86.993 91a19.958 19.958 0 0 1-19.977-19.171 22.04 22.04 0 0 1 0-1.657c.233-5.383 2.546-10.336 6.515-13.959 3.935-3.6 9.018-5.45 14.347-5.189 10.44.46 18.653 8.68 19.105 19.125.218 5.347-1.648 10.453-5.262 14.387a19.861 19.861 0 0 1-13.887 6.446 17.56 17.56 0 0 1-.841.018" fill="#FFF"/><mask id="b" fill="#fff"><use xlink:href="#a"/></mask><path d="M85.478 140.358l1.274 2.273 1.278-2.276c.17-.313 26.406-47.193 29.608-52.73l.008-.016c3.323-5.64 5.11-12.157 5.167-18.849-.413-9.498-4.558-18.39-11.666-24.906-7.123-6.53-16.347-9.903-25.951-9.454-18.857.815-33.694 15.74-34.512 34.718.076 6.394 1.86 12.833 5.16 18.475 6.428 11.287 26.102 45.91 29.472 52.856l.162-.09zm1.274 12.961l-5.83-10.404c-.196-.355-26.374-47.039-29.603-52.71a42.984 42.984 0 0 1-5.856-21.17c.938-21.848 17.919-38.921 39.503-39.856 11.02-.486 21.56 3.348 29.713 10.822 8.136 7.462 12.877 17.642 13.355 28.67-.06 7.74-2.097 15.153-5.88 21.579-3.158 5.46-29.365 52.292-29.558 52.644l-5.844 10.425zM86.747 5.727c-44.952 0-81.524 36.57-81.524 81.522 0 44.954 36.572 81.526 81.524 81.526s81.524-36.572 81.524-81.526c0-44.952-36.572-81.522-81.524-81.522zm0 168.272C38.914 174 0 135.082 0 87.25S38.914.503 86.747.503c47.836 0 86.749 38.913 86.749 86.746s-38.913 86.75-86.749 86.75z" fill="#FFF" mask="url(#b)"/></g></svg>